<?xml version="1.0" standalone="no"?>
<!DOCTYPE svg PUBLIC "-//W3C//DTD SVG 1.1//EN" "http://www.w3.org/Graphics/SVG/1.1/DTD/svg11.dtd" >
<svg xmlns="http://www.w3.org/2000/svg">
<metadata></metadata>
<defs>
<font id="florencesans_revitalic" horiz-adv-x="421" >
<font-face units-per-em="2048" ascent="1638" descent="-410" />
<missing-glyph horiz-adv-x="847" />
<glyph horiz-adv-x="2048" />
<glyph horiz-adv-x="2048" />
<glyph unicode="&#xd;" horiz-adv-x="1024" />
<glyph unicode=" "  horiz-adv-x="847" />
<glyph unicode="&#x09;" horiz-adv-x="847" />
<glyph unicode="&#xa0;" horiz-adv-x="847" />
<glyph unicode="!" horiz-adv-x="491" d="M-145 1434l254 -1041h102l-186 1041h-170zM98.5 125q10.5 -53 53.5 -89t94 -36q49 0 74.5 36t15.5 89t-52 89t-91 36q-51 0 -78 -36t-16.5 -89z" />
<glyph unicode="&#x22;" horiz-adv-x="899" d="M-195 1505l181 -491q16 -47 53 -47q39 0 35 47l-31 491h-238zM213 1505l180 -491q18 -47 56 -47q37 0 32 47l-30 491h-238z" />
<glyph unicode="#" horiz-adv-x="1138" d="M-111 1110l31 -143h215l29 -215h-199l31 -144h184l27 -215h137l-27 215h205l27 -215h135l-27 215h224l-29 144h-213l-29 215h195l-31 143h-180l-29 215h-137l29 -215h-205l-29 215h-135l29 -215h-228zM270 967h205l29 -215h-205z" />
<glyph unicode="$" horiz-adv-x="1341" d="M-66 1051q43 -195 193 -297q53 -35 134 -63.5t188 -45.5l104 -495q-121 12 -205 63q-111 66 -135 174h-170q37 -182 211 -297q72 -49 157 -78.5t183 -42.5l29 -149h172l-31 149q182 25 285 121q121 113 84 297q-43 205 -207 301q-113 66 -338 103l-105 491 q53 -10 100.5 -25.5t86.5 -42.5q98 -63 116 -163h170q-33 172 -194 288q-141 100 -318 125l-30 148h-170l30 -148q-166 -25 -266 -125q-109 -115 -74 -288zM106 1051q-23 102 50 163q51 49 157 68l99 -463q-123 25 -189 66q-96 61 -117 166zM625 616q133 -25 204 -59 q109 -55 134 -170q43 -203 -240 -237z" />
<glyph unicode="%" horiz-adv-x="1697" d="M-111 1110q31 -150 152 -254q123 -104 266 -104q141 0 215 104q82 107 47 254q-14 76 -53 138.5t-100 115.5q-121 104 -262 104q-143 0 -220 -104q-76 -102 -45 -254zM25 1110q-18 88 28 152q45 63 131 63q84 0 158 -61.5t92 -153.5q18 -86 -26 -152q-47 -63 -132 -63 q-84 0 -157 63q-76 66 -94 152zM178 0h170l869 1434h-170zM823 322q31 -150 154 -254q119 -104 262 -105q141 0 219 105q78 102 47 254q-33 150 -153 253q-127 104 -265 105q-143 0 -219 -105q-76 -102 -45 -253zM961 322q-18 92 26.5 153.5t130.5 61.5t160 -62 q72 -61 90 -153q10 -43 3 -82t-30 -70q-47 -63 -131 -64q-84 0 -157 64q-72 61 -92 152z" />
<glyph unicode="&#x26;" horiz-adv-x="1296" d="M41 399q35 -176 186 -307q147 -129 320 -129q205 0 334 141l86 -104h202l-202 244q20 51 28 92l39 194l-168 72l-41 -186l-319 385q57 45 94 79.5t53 57.5q57 88 33 213q-31 137 -141 225q-106 92 -238 92q-131 0 -196 -92q-70 -94 -39 -225q6 -39 25.5 -78t47.5 -80 q12 -20 115 -141q-127 -100 -180 -184q-70 -119 -39 -269zM209 403q-20 96 41 179q16 23 50 52.5t81 70.5l373 -449q-45 -59 -107.5 -87t-138.5 -28q-102 0 -186 78q-43 39 -73 85t-40 99zM240 1153q-12 57 17.5 98t84.5 41q59 0 109.5 -42t64.5 -101q14 -78 -51 -129 l-84 -68l-100 119q-16 18 -25.5 38.5t-15.5 43.5z" />
<glyph unicode="'" horiz-adv-x="491" d="M-195 1505l181 -491q16 -47 53 -47q39 0 35 47l-31 491h-238z" />
<glyph unicode="(" horiz-adv-x="626" d="M-41 860.5q6 -106.5 33 -233.5q53 -250 155 -432q47 -90 119 -183.5t170 -191.5h101q-78 106 -138.5 202.5t-101.5 184.5t-75 192.5t-58 227.5q-29 123 -39 227t-6 193q2 88 21.5 184t54.5 203h-103q-109 -195 -129 -377q-10 -90 -4 -196.5z" />
<glyph unicode=")" horiz-adv-x="626" d="M-180 1434q82 -106 142.5 -202.5t101 -185t73.5 -192.5t59.5 -227t38 -227.5t7.5 -192.5t-23.5 -184.5t-54.5 -202.5h100q55 98 88 191t45 184q21 184 -30 432q-51 250 -152 430q-98 180 -293 377h-102z" />
<glyph unicode="*" horiz-adv-x="909" d="M-106 1083l219 -116l-168 -115l94 -127l168 119l51 -236h135l-49 236l217 -119l41 127l-217 115l166 116l-92 127l-166 -118l-51 233h-136l50 -233l-219 118z" />
<glyph unicode="+" horiz-adv-x="933" d="M-4 608l31 -143h272l61 -287h136l-60 287h273l-31 143h-272l-62 287h-137l61 -287h-272z" />
<glyph unicode="," horiz-adv-x="491" d="M72 250l178 -490q23 -47 57 -47q37 0 31 47l-29 490h-237z" />
<glyph unicode="-" horiz-adv-x="933" d="M-4 608l31 -143h682l-31 143h-682z" />
<glyph unicode="." horiz-adv-x="491" d="M98.5 125q10.5 -53 53.5 -89t94 -36q49 0 74.5 36t15.5 89t-52 89t-91 36q-51 0 -78 -36t-16.5 -89z" />
<glyph unicode="/" horiz-adv-x="851" d="M106 -100l173 -62l200 1516l-172 61z" />
<glyph unicode="0" horiz-adv-x="1325" d="M-67.5 717q61.5 -293 253.5 -510q221 -244 484 -244q264 0 379 244q102 219 41 510q-61 293 -256 508q-219 244 -484 243q-266 0 -379 -243q-100 -215 -38.5 -508zM102 717q-47 217 19 381q72 193 268 192q197 0 348 -192q138 -164 183 -381q45 -215 -21 -381 q-70 -193 -266 -193q-199 0 -352 193q-133 162 -179 381z" />
<glyph unicode="1" horiz-adv-x="1325" d="M123 1053l135 -115l193 268l258 -1206h170l-306 1434h-170z" />
<glyph unicode="2" horiz-adv-x="1325" d="M-72 1051h170q-25 125 74 188q80 51 207 51q135 0 244 -55q135 -72 161 -203q37 -174 -153 -327q-88 -68 -175 -135.5t-177 -133.5q-180 -182 -127 -436h1022l-37 178h-803q23 66 78 131.5t151 132.5q125 92 200 148.5t97 83.5q137 152 94 358q-47 207 -233 326 q-170 111 -371 110q-201 0 -321 -100q-141 -117 -101 -317z" />
<glyph unicode="3" horiz-adv-x="1325" d="M-78 1210l174 -61q14 141 269 141q119 0 204 -37q119 -49 142 -159q20 -94 -78 -154q-78 -45 -184 -45h-103l37 -178h102q141 0 263 -70q143 -80 174 -217q29 -145 -78 -223q-88 -63 -236 -64q-264 0 -387 168l-125 -90q96 -129 254 -196q143 -61 295 -62q219 0 350 115 q146 131 97 352q-57 266 -347 377q178 84 136 287q-41 193 -215 288q-152 86 -340 86q-156 0 -258 -57q-127 -63 -146 -201z" />
<glyph unicode="4" horiz-adv-x="1325" d="M20 465l37 -178h750l59 -287h172l-61 287h170l-37 178h-172l-205 969h-147zM199 465l419 702l150 -702h-569z" />
<glyph unicode="5" horiz-adv-x="1325" d="M-147 1434l147 -697l176 -65q31 88 110 138t179 50q150 0 280 -100q139 -104 170 -258q33 -154 -61 -258q-88 -100 -236 -101q-111 0 -223 62q-109 61 -174 166l-158 -45q94 -166 261 -265q160 -98 331 -98q219 0 351 156q132 154 79 383q-49 231 -243 383 q-195 154 -414 153q-178 0 -299 -100l-68 315h695l-37 181h-866z" />
<glyph unicode="6" horiz-adv-x="1325" d="M-53 717q61 -291 256 -510q219 -244 481 -244q221 0 350 154q133 156 84 389q-49 229 -250 387q-190 152 -413 151q-258 0 -355 -206q-12 186 56 309q82 143 247 143q176 0 320 -155l111 104q-211 229 -469 229q-266 0 -377 -243q-102 -217 -41 -508zM211 504 q-31 158 51 258q80 104 232 104q147 0 282 -100q139 -108 172 -262q35 -158 -59 -258q-92 -102 -242 -103q-137 0 -270 108.5t-166 252.5z" />
<glyph unicode="7" horiz-adv-x="1325" d="M-43 1434l37 -181h723l-428 -1253h203l421 1253l-36 181h-920z" />
<glyph unicode="8" horiz-adv-x="1325" d="M-47 1094q43 -203 258 -287q-240 -109 -184 -377q49 -225 245 -352q92 -57 189.5 -86t208.5 -29q219 0 350 115q70 66 95.5 152.5t0.5 199.5q-55 266 -348 377q182 84 139 287q-41 190 -217 288q-147 86 -340 86t-303 -86q-135 -98 -94 -288zM123 1094q-20 111 72 159 q74 37 194 37q119 0 205 -37q123 -48 143 -159q20 -94 -82 -154q-76 -45 -182 -45q-109 0 -207 45q-123 57 -143 154zM197 430q-27 137 82 217q94 70 231 70q139 0 260 -70q145 -78 176 -217q31 -143 -80 -223q-84 -63 -233 -64q-152 0 -266 64q-139 78 -170 223z" />
<glyph unicode="9" horiz-adv-x="1325" d="M-98 928q49 -227 248 -387q190 -152 415 -152q258 0 355 207q12 -186 -56 -309q-84 -143 -248 -144q-176 0 -319 156l-111 -106q213 -229 467 -230q268 0 379 244q102 219 41 510q-61 293 -256 508q-217 244 -481 243q-223 0 -350 -151q-133 -158 -84 -389zM72 930 q-35 158 59 258q92 102 242 102q131 0 270 -108q70 -55 110 -117.5t56 -134.5q31 -152 -49 -260q-84 -102 -234 -103q-147 0 -284 103q-139 106 -170 260z" />
<glyph unicode=":" horiz-adv-x="491" d="M-37 770q10 -53 52 -89t91 -36q51 0 78 36t17 89q-12 53 -54.5 89t-91.5 36t-76.5 -36t-15.5 -89zM98.5 125q10.5 -53 53.5 -89t94 -36q49 0 74.5 36t15.5 89t-52 89t-91 36q-51 0 -78 -36t-16.5 -89z" />
<glyph unicode=";" horiz-adv-x="491" d="M-37 770q10 -53 52 -89t91 -36q51 0 78 36t17 89q-12 53 -54.5 89t-91.5 36t-76.5 -36t-15.5 -89zM72 250l178 -490q23 -47 57 -47q37 0 31 47l-29 490h-237z" />
<glyph unicode="&#x3c;" horiz-adv-x="897" d="M-4 608l31 -143l653 -389l49 119l-573 342l428 344l-101 118z" />
<glyph unicode="=" horiz-adv-x="933" d="M-37 770l29 -143h682l-31 143h-680zM31 449l30 -144h680l-30 144h-680z" />
<glyph unicode="&#x3e;" horiz-adv-x="897" d="M-61 881l573 -344l-428 -342l100 -119l488 389l-31 143l-653 391z" />
<glyph unicode="?" horiz-adv-x="866" d="M-117 1139h170q-12 59 17.5 105t87.5 46q59 0 106 -46t62 -105q20 -94 -47 -174q-33 -35 -65 -68t-62 -68q-66 -92 -39 -215q2 -8 18 -62t47 -159h101q-4 61 -9.5 106.5t-9.5 73.5q-14 137 66 215q35 29 69.5 56.5t69.5 56.5q68 80 31 238q-29 133 -140 231 q-104 98 -235 98t-199 -98q-70 -100 -39 -231zM166 125q10 -53 54 -89t93 -36t76 36t17 89t-53.5 89t-92.5 36q-51 0 -77.5 -36t-16.5 -89z" />
<glyph unicode="@" horiz-adv-x="2023" d="M10 537q82 -381 400 -658q322 -274 686 -274q63 0 122.5 10t118.5 31l-55 118q-98 -33 -215 -32q-313 0 -590 237q-274 236 -346 568q-70 330 105 569q174 238 489 237q319 0 592 -235q276 -240 346 -571q16 -76 12 -144.5t-30 -128.5q-55 -139 -193 -139 q-31 0 -58.5 14.5t-51 38t-39 53t-21.5 62.5l-1 6t-3 16l-82 625h-129l20 -145q-139 172 -329 172q-172 0 -266 -144q-92 -143 -54 -325q37 -162 156 -277q127 -115 274 -115q199 0 285 173q12 -57 42 -106.5t73 -90.5q88 -82 198 -82q186 0 275 174q84 164 41 363 q-84 389 -400 659q-315 272 -684 272q-365 0 -567 -272q-201 -274 -121 -659zM563 512q-29 127 45 225q72 96 193 97q104 0 200 -80q90 -78 115 -191q29 -131 -45 -227q-72 -94 -192 -94q-111 0 -199 80q-92 76 -117 190z" />
<glyph unicode="A" horiz-adv-x="1253" d="M41 0h180l43 322h588l180 -322h180l-798 1434h-183zM287 502l92 669l373 -669h-465z" />
<glyph unicode="B" horiz-adv-x="1273" d="M-180 1434l305 -1434h612q170 0 275 113q77 86 77 203q0 42 -10 87q-53 240 -309 320q150 71 150 227q0 38 -9 80q-37 170 -192 293q-152 111 -320 111h-579zM29 1253h407q104 0 187 -57q95 -64 118 -166q6 -24 6 -47q0 -68 -53 -117q-59 -59 -162 -59h-409zM164 627h442 q102 0 187 -60q93 -64 116 -164q6 -25 6 -48q0 -70 -53 -117q-63 -59 -162 -60h-442z" />
<glyph unicode="C" horiz-adv-x="1411" d="M-68 717q66 -311 320 -533q260 -221 555 -221t459 221l-152 123q-123 -164 -346 -164q-225 0 -420 168q-197 168 -246 406q-16 69 -16 133q0 153 90 272q125 168 348 168t418 -166l96 125q-256 219 -551 219q-147 0 -262.5 -54t-197.5 -167q-114 -154 -114 -357 q0 -83 19 -173z" />
<glyph unicode="D" horiz-adv-x="1425" d="M-180 1434l305 -1434h512q281 0 434 209q111 151 112 347q0 77 -18 161q-61 295 -309 506q-242 211 -524 211h-512zM29 1253h340q213 0 397 -157q180 -156 229 -379q13 -63 13 -121q0 -147 -82 -260q-114 -158 -328 -158h-340z" />
<glyph unicode="E" horiz-adv-x="1206" d="M-180 1434l305 -1434h954l-39 178h-782l-94 449h612l-39 180h-614l-94 446h782l-37 181h-954z" />
<glyph unicode="F" horiz-adv-x="1144" d="M-180 1434l305 -1434h170l-131 627h612l-39 180h-614l-94 446h782l-37 181h-954z" />
<glyph unicode="G" horiz-adv-x="1505" d="M-68 717q66 -311 320 -533q260 -221 555 -221q180 0 319 90t205 250l-106 504h-598l39 -180h428l55 -267q-119 -217 -381 -217q-225 0 -420 168q-197 168 -246 406q-16 69 -16 133q0 153 90 272q125 168 348 168q129 0 257 -60.5t229 -168.5l116 102q-131 145 -300 225 t-339 80q-147 0 -262.5 -54t-197.5 -167q-114 -154 -114 -357q0 -83 19 -173z" />
<glyph unicode="H" horiz-adv-x="1341" d="M-180 1434l305 -1434h170l-131 627h747l133 -627h170l-305 1434h-170l133 -627h-749l-131 627h-172z" />
<glyph unicode="I" d="M-180 1434l305 -1434h170l-303 1434h-172z" />
<glyph unicode="J" horiz-adv-x="1032" d="M23 203q86 -111 204.5 -175.5t241.5 -64.5q190 0 295 143q75 102 75 233q0 53 -12 110l-209 985h-516l37 -181h346l172 -804q8 -36 8 -68q0 -83 -49 -148q-66 -90 -184 -90q-160 0 -274 144z" />
<glyph unicode="K" horiz-adv-x="1196" d="M-180 1434l305 -1434h170l-115 537l152 202l612 -739h203l-721 868l416 566h-240l-475 -643l-135 643h-172z" />
<glyph unicode="L" horiz-adv-x="974" d="M-180 1434l305 -1434h784l-39 178h-612l-266 1256h-172z" />
<glyph unicode="M" horiz-adv-x="1607" d="M-180 1434l305 -1434h170l-256 1208l674 -1208h182l158 1202l258 -1202h172l-305 1434h-275l-155 -1172l-656 1172h-272z" />
<glyph unicode="N" horiz-adv-x="1341" d="M-180 1434l305 -1434h170l-236 1110l985 -1110h170l-305 1434h-170l238 -1112l-985 1112h-172z" />
<glyph unicode="O" horiz-adv-x="1597" d="M-68 717q68 -313 320 -533q258 -221 555 -221q295 -1 459 221q116 157 116 358q0 83 -20 175q-68 313 -324 532t-551 219q-299 0 -460 -219q-115 -156 -115 -358q0 -83 20 -174zM102 717q-16 69 -16 133q0 153 90 272q125 168 348 168q225 0 420 -167.5t248 -405.5 q14 -67 14 -128q0 -157 -90 -278q-125 -168 -348 -168q-225 0 -420 168q-197 168 -246 406z" />
<glyph unicode="P" horiz-adv-x="1196" d="M-180 1434l305 -1434h170l-131 627h407q166 0 273 112q77 87 78 202q0 42 -11 89q-37 170 -192 293q-152 111 -320 111h-579zM29 1253h407q104 0 187 -57q95 -64 118 -166q6 -24 6 -47q0 -68 -53 -117q-59 -59 -162 -59h-409z" />
<glyph unicode="Q" horiz-adv-x="1597" d="M-68 717q31 -143 100.5 -267t184.5 -233q229 -215 504 -248l70 -327h170l-70 327q258 33 395 248q95 150 95 332q0 81 -19 168q-68 313 -324 532t-551 219q-299 0 -460 -219q-115 -156 -115 -358q0 -83 20 -174zM102 717q-16 69 -16 133q0 153 90 272q125 168 348 168 q225 0 420 -167.5t248 -405.5q14 -65 14 -125q0 -38 -6 -74q-14 -94 -61 -174q-94 -160 -287 -194l-45 208h-170l43 -208q-100 16 -192.5 64t-176.5 130q-84 80 -135 173t-74 200z" />
<glyph unicode="R" horiz-adv-x="1265" d="M-180 1434l305 -1434h170l-131 627h203q176 0 280 -125l418 -502h203l-418 502q-111 137 -162 141q125 37 189 141q45 68 46 155q0 43 -12 91q-37 170 -192 293q-152 111 -320 111h-579zM29 1253h407q104 0 187 -57q95 -64 118 -166q6 -24 6 -47q0 -68 -53 -117 q-59 -59 -162 -59h-409z" />
<glyph unicode="S" horiz-adv-x="1308" d="M-80 1051q55 -262 303 -355q113 -23 224.5 -45t222.5 -45q242 -55 276 -219q6 -26 6 -49q0 -93 -98 -145q-90 -49 -231 -50q-139 0 -252 50q-143 63 -174 194h-170q43 -201 252 -321q176 -102 383 -103q201 0 337 100q126 95 126 242q0 39 -9 82q-51 254 -303 346 q-111 23 -222.5 46.5t-223.5 45.5q-240 59 -277 226q-5 24 -5 46q0 90 83 142q86 51 211 51t231 -53q135 -63 160 -186h170q-39 193 -233 313q-170 104 -365 104q-193 0 -322 -104q-110 -93 -110 -228q0 -41 10 -85z" />
<glyph unicode="T" horiz-adv-x="1171" d="M-248 1434l39 -181h442l267 -1253h170l-267 1253h443l-37 181h-1057z" />
<glyph unicode="U" horiz-adv-x="1308" d="M-195 1434l189 -897q53 -238 246 -404q100 -86 203.5 -128t218.5 -42q225 0 348 170q88 119 88 272q0 63 -15 132l-188 897h-172l190 -897q11 -47 11 -91q0 -104 -62 -188q-82 -115 -239 -115q-78 0 -151 28t-138 87q-133 115 -170 279l-189 897h-170z" />
<glyph unicode="V" horiz-adv-x="1253" d="M-264 1434l801 -1434h182l190 1434h-182l-156 -1172l-653 1172h-182z" />
<glyph unicode="W" horiz-adv-x="1822" d="M-264 1434l694 -1434h178l66 1110l536 -1110h179l88 1434h-179l-65 -1110l-539 1110h-176l-67 -1110l-537 1110h-178z" />
<glyph unicode="X" horiz-adv-x="1269" d="M-254 1434l631 -717l-328 -717h211l256 559l494 -559h211l-633 717l327 717h-210l-256 -560l-494 560h-209z" />
<glyph unicode="Y" horiz-adv-x="1253" d="M-264 1434l659 -748l146 -686h170l-146 686l342 748h-211l-256 -560l-491 560h-213z" />
<glyph unicode="Z" horiz-adv-x="1308" d="M-195 1434l37 -181h858l-628 -1075l37 -178h1089l-37 178h-858l629 1075l-37 181h-1090z" />
<glyph unicode="[" horiz-adv-x="661" d="M-180 1434l344 -1614h407l-36 180h-240l-266 1253h237l-37 181h-409z" />
<glyph unicode="\" horiz-adv-x="851" d="M-205 1354l846 -1516l147 62l-845 1515z" />
<glyph unicode="]" horiz-adv-x="661" d="M-180 1434l39 -181h237l269 -1253h-240l39 -180h407l-342 1614h-409z" />
<glyph unicode="^" horiz-adv-x="942" d="M-18 672l139 -60l108 523l334 -523l111 60l-416 653h-137z" />
<glyph unicode="_" horiz-adv-x="892" d="M0 0h893v143h-893v-143z" />
<glyph unicode="`" horiz-adv-x="524" d="M-180 1434l215 -215h102l-145 215h-172z" />
<glyph unicode="a" horiz-adv-x="1298" d="M-31 537q27 -117 82 -215.5t148 -184.5q182 -174 403 -174q256 0 361 230l41 -193h170l-230 1075h-170l41 -194q-203 229 -457 229q-221 0 -327 -172q-77 -117 -77 -264q0 -66 15 -137zM139 537q-10 49 -10 93q0 106 59 185q86 117 242 117q154 0 289 -117 q68 -59 111 -126.5t59 -151.5q10 -47 10 -91q0 -106 -61 -188q-84 -115 -240 -115q-158 0 -291 115q-68 59 -108.5 128t-59.5 151z" />
<glyph unicode="b" horiz-adv-x="1298" d="M-180 1434l305 -1434h170l-41 193q205 -229 457 -230q219 0 331 174q74 118 74 261q0 67 -16 139q-49 233 -230 401q-184 172 -403 172q-254 0 -361 -229l-114 553h-172zM180 537q-9 46 -9 89q0 108 60 189q86 117 240 117q156 0 291 -117q66 -59 109 -126.5t59 -151.5 q9 -46 9 -89q0 -106 -58 -190q-84 -115 -242 -115q-156 0 -289 115t-170 279z" />
<glyph unicode="c" horiz-adv-x="1169" d="M-31 537q53 -238 246 -404q100 -86 203.5 -128t218.5 -42q127 0 228.5 60.5t154.5 166.5l-164 97q-88 -143 -258 -144q-158 0 -291 115q-68 59 -108.5 128t-59.5 151q-10 49 -10 93q0 106 59 185q86 117 242 117q170 0 320 -144l122 97q-100 106 -226 165.5t-253 59.5 q-225 0 -350 -168q-88 -122 -88 -276q0 -62 14 -129z" />
<glyph unicode="d" horiz-adv-x="1298" d="M-31 537q27 -117 82 -215.5t148 -184.5q182 -174 403 -174q256 0 361 230l41 -193h170l-306 1434h-170l117 -553q-203 229 -457 229q-221 0 -327 -172q-77 -117 -77 -264q0 -66 15 -137zM139 537q-10 49 -10 93q0 106 59 185q86 117 242 117q154 0 289 -117 q68 -59 111 -126.5t59 -151.5q10 -47 10 -91q0 -106 -61 -188q-84 -115 -240 -115q-158 0 -291 115q-68 59 -108.5 128t-59.5 151z" />
<glyph unicode="e" horiz-adv-x="1255" d="M-31 537q53 -238 246 -404q100 -86 203.5 -128t218.5 -42q127 0 228.5 60.5t154.5 166.5l-164 97q-84 -143 -258 -144q-129 0 -252 86q-119 82 -178 220h903q-2 23 -4 44t-8 44q-49 238 -248 405q-195 168 -418 168q-225 0 -350 -168q-88 -122 -88 -276q0 -62 14 -129z M131 627q0 135 84 219q86 86 215 86t250 -86q121 -84 180 -219h-729z" />
<glyph unicode="f" horiz-adv-x="636" d="M-123 967l39 -179h102l246 -1146h170l-246 1146h170l-36 179h-172l-48 233q-2 11 -2 21q0 24 12 43q19 28 54 28q31 0 55 -20l45 162q-64 34 -133 34h-4q-104 0 -166 -77q-38 -54 -38 -126q0 -31 7 -65l48 -233h-103z" />
<glyph unicode="g" horiz-adv-x="1298" d="M-31 537q27 -117 82 -215.5t148 -184.5q182 -174 403 -174q117 0 219 64q88 61 142 166q12 -56 12 -105q0 -107 -55 -186q-80 -117 -244 -117q-174 0 -322 143l-106 -114q209 -209 465 -209q221 0 348 170q88 122 88 280q0 59 -12 123l-193 897h-170l41 -194 q-94 106 -211 168q-61 31 -123.5 46t-122.5 15q-217 0 -327 -172q-77 -117 -77 -264q0 -66 15 -137zM139 537q-10 49 -10 93q0 106 59 185q86 117 242 117q154 0 289 -117q68 -59 111 -126.5t59 -151.5q10 -47 10 -91q0 -106 -61 -188q-84 -115 -240 -115q-158 0 -291 115 q-68 59 -108.5 128t-59.5 151z" />
<glyph unicode="h" horiz-adv-x="1120" d="M-180 1434l305 -1434h170l-137 645q-7 34 -7 66q-1 77 43 137q62 84 175 84q115 0 211 -84q98 -82 122 -203l138 -645h170l-138 645q-37 184 -180 322q-150 143 -327 143q-188 0 -273 -158l-100 482h-172z" />
<glyph unicode="i" d="M-194 1344q10 -54 53 -89.5t92 -35.5q51 -1 77 35q19 26 20 61q0 13 -3 28q-12 53 -54 89t-91 36t-77 -36q-20 -26 -20 -61q0 -12 3 -27zM-104 1075l229 -1075h170l-229 1075h-170z" />
<glyph unicode="j" d="M-194 1344q10 -54 53 -89.5t92 -35.5q51 0 77 35q20 26 20 61q0 13 -3 28q-12 53 -54 89t-91 36t-77 -36q-20 -25 -20 -61q0 -13 3 -27zM-104 1075l256 -1200q3 -13 3 -24q0 -22 -13 -39q-19 -27 -54 -27q-31 0 -59 20l-43 -161q68 -39 139 -39q102 0 164 80 q41 55 41 126q0 31 -8 64l-256 1200h-170z" />
<glyph unicode="k" horiz-adv-x="1060" d="M-180 1434l305 -1434h170l-68 322l148 200l434 -522h201l-539 651l309 424h-239l-367 -500l-182 859h-172z" />
<glyph unicode="l" d="M-180 1434l305 -1434h170l-303 1434h-172z" />
<glyph unicode="m" horiz-adv-x="1697" d="M-104 1075l229 -1075h170l-137 645q-6 35 -6 68q0 72 30 131q51 88 154 88q106 0 192 -90q86 -86 107 -197l137 -645h170l-137 645q-6 35 -6 68q0 72 30 131q51 88 152 88q109 0 195 -90q86 -86 106 -197l137 -645h170l-137 645q-20 92 -65.5 174t-116.5 150 q-147 141 -326 141q-211 0 -272 -209q-129 209 -322 209q-184 0 -258 -158l-26 123h-170z" />
<glyph unicode="n" horiz-adv-x="1120" d="M-104 1075l229 -1075h170l-137 645q-7 34 -7 66q-1 77 43 137q62 84 175 84q115 0 211 -84q98 -82 122 -203l138 -645h170l-138 645q-37 184 -180 322q-150 143 -327 143q-188 0 -273 -158l-26 123h-170z" />
<glyph unicode="o" horiz-adv-x="1255" d="M-31 537q53 -238 246 -404q100 -86 203.5 -128t218.5 -42q223 0 346 170q91 122 90 276q0 62 -14 128q-49 238 -248 405q-195 168 -418 168q-225 0 -350 -168q-88 -122 -88 -276q0 -62 14 -129zM139 537q-10 49 -10 93q0 106 59 185q86 117 242 117q154 0 289 -117 q68 -59 111 -126.5t59 -151.5q10 -47 10 -91q0 -106 -61 -188q-84 -115 -240 -115q-158 0 -291 115q-68 59 -108.5 128t-59.5 151z" />
<glyph unicode="p" horiz-adv-x="1298" d="M-104 1075l307 -1433h170l-119 551q205 -229 457 -230q219 0 331 174q74 118 74 261q0 67 -16 139q-49 233 -230 401q-184 172 -403 172q-254 0 -361 -229l-40 194h-170zM180 537q-9 46 -9 89q0 107 60 189q86 117 240 117q156 0 291 -117q66 -59 109 -126.5t59 -151.5 q9 -46 9 -89q0 -107 -58 -190q-84 -115 -242 -115q-156 0 -289 115t-170 279z" />
<glyph unicode="q" horiz-adv-x="1298" d="M-31 537q27 -117 82 -215.5t148 -184.5q182 -174 403 -174q256 0 361 230l118 -551h170l-307 1433h-170l41 -194q-203 229 -457 229q-221 0 -327 -172q-77 -117 -77 -264q0 -66 15 -137zM139 537q-10 49 -10 93q0 106 59 185q86 117 242 117q154 0 289 -117 q68 -59 111 -126.5t59 -151.5q10 -47 10 -91q0 -106 -61 -188q-84 -115 -240 -115q-158 0 -291 115q-68 59 -108.5 128t-59.5 151z" />
<glyph unicode="r" horiz-adv-x="733" d="M-104 1075l229 -1075h170l-137 645q-7 34 -7 66q-1 77 43 137q62 84 175 84q27 0 51 -5.5t53 -15.5l-41 195q-18 4 -35 4h-32q-188 0 -273 -158l-26 123h-170z" />
<glyph unicode="s" horiz-adv-x="1069" d="M-39 780q39 -201 229 -272q12 -4 95.5 -21.5t238.5 -50.5q178 -33 203 -141q4 -17 4 -33q0 -119 -227 -119q-100 0 -168 27q-100 39 -119 125h-170q31 -158 197 -252q70 -39 143.5 -59.5t153.5 -20.5q82 0 148.5 20.5t119.5 59.5q95 75 95 188q0 31 -7 64 q-23 98 -78 166.5t-151 103.5q-10 4 -93 21.5t-241 50.5q-180 35 -203 143q-3 16 -4 30q0 60 63 91q57 31 146 31q92 0 160 -31q92 -39 112 -121h170q-18 76 -65 138.5t-125 109.5q-133 82 -291 82t-254 -82q-91 -72 -91 -178q0 -33 9 -70z" />
<glyph unicode="t" horiz-adv-x="710" d="M-164 1075l41 -180h203l268 -1253h170l-268 1253h205l-39 180h-205l-51 250h-170l51 -250h-205z" />
<glyph unicode="u" horiz-adv-x="1120" d="M-121 1075l139 -645q41 -186 181 -324q156 -143 325 -143q184 0 275 158l24 -121h172l-229 1075h-172l139 -645q7 -34 7 -65q0 -79 -46 -138q-59 -84 -172 -84q-111 0 -213 84q-96 84 -121 203l-139 645h-170z" />
<glyph unicode="v" horiz-adv-x="1091" d="M-188 1075l641 -1075h184l184 1075h-184l-143 -837l-500 837h-182z" />
<glyph unicode="w" horiz-adv-x="1587" d="M-188 1075l561 -1075h178l78 784l409 -784h176l105 1075h-180l-72 -784l-414 784h-178l-74 -784l-409 784h-180z" />
<glyph unicode="x" horiz-adv-x="1030" d="M-180 1075l473 -538l-244 -537h211l174 379l332 -379h215l-475 537l246 538h-215l-170 -381l-336 381h-211z" />
<glyph unicode="y" horiz-adv-x="1091" d="M-188 1075l641 -1075l-27 -166q-6 -49 -68 -49q-35 0 -92 18l41 -180q51 -18 88 -18q174 0 203 170l223 1300h-184l-143 -837l-500 837h-182z" />
<glyph unicode="z" horiz-adv-x="1138" d="M-121 1075l41 -180h678l-526 -717l37 -178h919l-37 178h-680l527 717l-39 180h-920z" />
<glyph unicode="{" horiz-adv-x="780" d="M-27 717l37 -180h53q49 0 90.5 -29t51.5 -78l63 -305q12 -55 44 -107.5t85 -99.5q100 -98 209 -98h86l-39 180h-67q-23 0 -46.5 11.5t-44 28.5t-36 39.5t-21.5 45.5l-59 287q-14 68 -72 139q-63 76 -129 76q63 0 94 78q16 35 18.5 68.5t-3.5 68.5l-62 286q-4 25 1 47.5 t18.5 40t33 27.5t41.5 10h68l-37 181h-86q-104 0 -170 -97q-63 -96 -39 -209l66 -305q10 -49 -17.5 -77.5t-78.5 -28.5h-52z" />
<glyph unicode="|" d="M-180 1434l344 -1614h170l-342 1614h-172z" />
<glyph unicode="}" horiz-adv-x="780" d="M-180 1434l39 -181h67q47 0 92 -38.5t56 -86.5l61 -286q12 -66 72 -137q66 -78 129 -78q-59 0 -96 -76q-27 -70 -15 -139l62 -287q10 -47 -18.5 -86t-75.5 -39h-68l39 -180h86q100 0 166 98q66 96 41 207l-64 305q-10 49 17.5 78t76.5 29h52l-37 180h-51 q-51 0 -92.5 28.5t-51.5 77.5l-63 305q-25 113 -131 209q-102 96 -207 97h-86z" />
<glyph unicode="~" horiz-adv-x="937" d="M20 487l142 -53q6 76 57 76q53 0 164 -43q106 -43 162 -43q116 0 145 158l-137 55q-12 -78 -59 -78q-55 0 -162 43q-111 43 -166 43q-119 0 -146 -158z" />
<glyph unicode="&#xa1;" horiz-adv-x="491" d="M-114.5 1128.5q10.5 -53.5 53.5 -89t94 -35.5q49 0 74.5 35.5t15.5 88.5t-52 89t-94 36q-49 0 -75.5 -35.5t-16 -89zM10 860l187 -1040h170l-254 1040h-103z" />
<glyph unicode="&#xa2;" horiz-adv-x="1228" d="M2 738q-14 -93 8 -201q45 -211 211 -373q172 -162 371 -193l41 -186h170l-41 186q205 33 301 219l-164 97q-59 -102 -176 -133l-162 768q125 -31 232 -134l120 99q-174 184 -391 217l-41 186h-170l39 -186q-190 -35 -287 -195q-47 -78 -61 -171zM180 537 q-29 137 30.5 245.5t180.5 139.5l162 -768q-133 31 -238 139q-104 106 -135 244z" />
<glyph unicode="&#xa3;" horiz-adv-x="1236" d="M-88 807l39 -180h170l133 -627h852l-39 178h-680l-94 449h340l-39 180h-342l-37 178q-27 123 39 215q66 90 184 90q158 0 277 -143l133 84q-84 111 -204 174t-243 63q-190 0 -295 -143q-104 -137 -61 -340l37 -178h-170z" />
<glyph unicode="&#xa4;" horiz-adv-x="1550" d="M-47 807h168q2 -23 6 -45.5t8 -44.5q6 -23 11.5 -45.5t13.5 -44.5h-115l-22 -144h198q59 -117 144.5 -210t193.5 -167q111 -72 222.5 -107.5t228.5 -35.5q193 0 340 105l-47 219q-127 -143 -330 -144q-162 0 -318 93q-156 96 -252 247h629l19 144h-719q-10 23 -15.5 45 t-9.5 45q-6 23 -10 45t-4 45h780l21 143h-791q33 154 148 246q119 94 278 94q201 0 391 -143l23 178q-219 143 -451 143q-236 0 -391 -143q-160 -147 -180 -375h-146z" />
<glyph unicode="&#xa5;" horiz-adv-x="1423" d="M-180 1434l588 -664h-371l31 -143h426l38 -178h-426l29 -144h428l64 -305h170l-64 305h424l-31 144h-424l-36 178h424l-31 143h-369l303 664h-213l-256 -560l-491 560h-213z" />
<glyph unicode="&#xa6;" d="M-180 1434l149 -699h170l-147 699h-172zM14 520l150 -700h170l-150 700h-170z" />
<glyph unicode="&#xa7;" horiz-adv-x="1103" d="M-98 1139q37 -174 178 -250q-106 -82 -76 -236q43 -199 232 -272q10 -4 93 -21.5t238 -48.5q178 -33 203 -141q33 -152 -221 -152q-102 0 -170 27q-102 39 -119 125h-170q31 -158 197 -252q137 -80 299 -80q158 0 266 80q123 92 88 252q-37 174 -182 250q59 41 77.5 99.5 t2.5 133.5q-43 201 -230 271q-10 4 -92 21.5t-242 49.5q-178 33 -202 144q-18 80 59 121q55 31 148 30q90 0 157 -30q96 -39 113 -121h170q-35 156 -191 247q-133 82 -288 82q-160 0 -256 -82q-117 -92 -82 -247zM174 653q-16 86 55 125q55 31 146 31q88 0 168 -31 q109 -47 123 -125q20 -80 -58 -121q-61 -31 -147 -30q-86 0 -166 33q-102 39 -121 118z" />
<glyph unicode="&#xa8;" horiz-adv-x="763" d="M-160 1343q8 -37 38 -63.5t67 -26.5q35 0 54 26.5t11 63.5q-8 39 -38.5 65t-65.5 26t-54.5 -26t-11.5 -65zM180 1343q10 -37 39 -63.5t66 -26.5q35 0 55 26.5t10 63.5q-8 39 -37.5 65t-64.5 26q-37 0 -56.5 -26t-11.5 -65z" />
<glyph unicode="&#xa9;" horiz-adv-x="1325" d="M6 565q25 -119 85.5 -217t156.5 -184q195 -164 416 -164q219 0 340 164q122 170 75 401q-49 229 -243 398q-190 166 -414 165q-219 0 -344 -165q-121 -166 -72 -398zM100 565q-41 193 60 328q100 137 284 137q178 0 338 -137q164 -140 203 -328q41 -195 -61 -329 q-100 -137 -283 -138q-184 0 -342 138q-158 133 -199 329zM203 565q31 -156 162 -268q61 -55 130.5 -82t143.5 -27q147 0 231 111l-75 61q-61 -82 -174 -81q-111 0 -211 83q-98 82 -123 203q-25 117 37 201q61 86 174 86q111 0 211 -84l47 63q-123 109 -277 109 q-150 0 -229 -111q-82 -109 -47 -264z" />
<glyph unicode="&#xaa;" horiz-adv-x="1069" d="M-94 1030q41 -176 172 -299q139 -131 303 -131q190 0 270 172l31 -145h127l-172 807h-127l31 -146q-152 172 -342 172q-166 0 -248 -129q-82 -125 -45 -301zM35 1030q-25 123 37 209q68 86 180 86q115 0 217 -86t127 -209t-37 -209q-68 -86 -180 -86q-117 0 -217 86 q-102 90 -127 209z" />
<glyph unicode="&#xab;" horiz-adv-x="1390" d="M20 498l29 -144l580 -354l49 121l-500 305l369 307l-98 119zM582 498l30 -144l578 -354l49 121l-498 305l369 307l-100 119z" />
<glyph unicode="&#xac;" horiz-adv-x="933" d="M-4 608l31 -143h544l37 -178h137l-67 321h-682z" />
<glyph unicode="&#xad;" horiz-adv-x="933" d="M-4 608l31 -143h682l-31 143h-682z" />
<glyph unicode="&#xae;" horiz-adv-x="1325" d="M6 565q25 -119 85.5 -217t156.5 -184q195 -164 416 -164q219 0 340 164q122 170 75 401q-49 229 -243 398q-190 166 -414 165q-219 0 -344 -165q-121 -166 -72 -398zM100 565q-41 193 60 328q100 137 284 137q178 0 338 -137q164 -140 203 -328q43 -199 -65 -338 l-191 230q-49 61 -82 71q63 16 95 69.5t16 125.5q-18 86 -94 143q-39 29 -78 43.5t-82 14.5h-289l152 -717h84l-68 313h102q90 0 144 -63l209 -250h63q-98 -109 -260 -109q-184 0 -342 138q-158 133 -199 329zM317 834h205q51 0 96.5 -31t55.5 -80q10 -51 -21.5 -83 t-83.5 -32h-204z" />
<glyph unicode="&#xaf;" horiz-adv-x="763" d="M-180 1434l30 -144h512l-30 144h-512z" />
<glyph unicode="&#xb0;" horiz-adv-x="626" d="M-137 1237q8 -41 30.5 -78t54.5 -63.5t68.5 -42t75.5 -15.5t70 15.5t50 42t25.5 63.5t-1.5 78t-31 77t-53.5 62.5t-67.5 42t-76 15.5q-78 0 -121 -57.5t-24 -139.5zM-70 1237q-10 53 16.5 89t76.5 36q51 0 93 -36t52 -89q12 -53 -14.5 -90t-75.5 -37q-51 0 -93 37t-55 90 z" />
<glyph unicode="&#xb1;" horiz-adv-x="933" d="M-43 788l31 -143h272l62 -287h135l-62 287h273l-31 143h-272l-60 287h-137l61 -287h-272zM94 143l31 -143h682l-31 143h-682z" />
<glyph unicode="&#xb2;" horiz-adv-x="763" d="M-137 1241h86q-16 63 33 96q39 25 104 25q72 0 123 -29q63 -33 82 -100q18 -86 -78 -164l-176 -133q-90 -94 -64 -219h510l-18 90h-402q18 61 115 131q66 43 101.5 72.5t48.5 42.5q68 78 47 180q-20 98 -117 164q-86 55 -184 55q-104 0 -162 -51q-72 -55 -49 -160z" />
<glyph unicode="&#xb3;" horiz-adv-x="772" d="M-137 1323l86 -31q8 70 135 70q152 0 174 -98q8 -47 -39 -78q-39 -20 -92 -21h-51l16 -90h53q74 0 131 -35q70 -39 86 -108q16 -76 -36 -111q-45 -33 -119 -33q-133 0 -195 84l-63 -45q98 -129 276 -129q106 0 174 58q75 65 50 176q-27 129 -173 188q88 43 68 144 q-18 92 -108 145q-72 43 -170 43q-184 0 -203 -129z" />
<glyph unicode="&#xb4;" horiz-adv-x="524" d="M-135 1219h102l125 215h-170z" />
<glyph unicode="&#xb6;" horiz-adv-x="1425" d="M-94 1030q41 -178 192 -293q76 -53 156 -81.5t166 -28.5l209 -985h170l-344 1611h204l345 -1611h170l-345 1611h205l-39 181h-747q-172 0 -273 -111q-106 -121 -69 -293z" />
<glyph unicode="&#xb7;" horiz-adv-x="491" d="M10 537q12 -53 55.5 -89t92.5 -36t75.5 36t16.5 89t-53 90t-93 37q-51 0 -77.5 -37t-16.5 -90z" />
<glyph unicode="&#xb8;" horiz-adv-x="524" d="M203 -358h135q57 0 87.5 42t18.5 101q-10 49 -49 89t-90 50l2 111h-69v-160h51q35 0 65.5 -26.5t38.5 -63.5t-12.5 -63.5t-54.5 -26.5h-119z" />
<glyph unicode="&#xb9;" horiz-adv-x="518" d="M-139 1243l67 -57l97 135l129 -604h86l-152 717h-86z" />
<glyph unicode="&#xba;" horiz-adv-x="1069" d="M-94 1030q20 -90 65 -166t121 -139q143 -125 316 -125q168 0 260 125q96 127 55 305q-37 176 -184 303q-150 127 -316 127q-170 0 -260 -127q-94 -125 -57 -303zM35 1030q-25 123 37 209q68 86 180 86q115 0 217 -86t127 -209t-37 -209q-68 -86 -180 -86q-117 0 -217 86 q-102 90 -127 209z" />
<glyph unicode="&#xbb;" horiz-adv-x="1390" d="M-31 733l498 -307l-367 -305l101 -121l426 354l-31 144l-576 354zM532 733l496 -307l-364 -305l100 -121l426 354l-31 144l-577 354z" />
<glyph unicode="&#xbc;" horiz-adv-x="933" d="M-35 752l15 -72h682l-15 72h-682zM88 1282l53 -45l80 104l101 -481h69l-123 574h-67zM211 186l14 -71h297l27 -115h67l-24 115h67l-14 71h-67l-84 387h-58zM283 186l168 281l57 -281h-225z" />
<glyph unicode="&#xbd;" horiz-adv-x="933" d="M-35 752l15 -72h682l-15 72h-682zM88 1282l53 -45l80 104l101 -481h69l-123 574h-67zM174 420h68q-10 51 30 74q33 23 82 22q29 0 52.5 -6t46.5 -16q53 -29 61 -82q16 -72 -59 -131q-35 -27 -70 -53.5t-70 -53.5q-74 -70 -51 -174h406l-17 72h-317q14 49 90 106 q104 70 119 90q55 61 37 144q-14 78 -90 131q-70 45 -150 45q-76 0 -129 -41q-53 -47 -39 -127z" />
<glyph unicode="&#xbe;" horiz-adv-x="933" d="M-35 752l15 -72h682l-15 72h-682zM-10 1343l69 -24q6 57 107 57q121 0 139 -80q6 -39 -33 -59q-31 -18 -73 -18h-41l16 -72h41q55 0 104 -29q29 -16 45.5 -37.5t24.5 -48.5q10 -61 -31 -90q-37 -25 -94 -24q-111 0 -155 67l-54 -35q76 -104 224 -104q84 0 137 47 q59 49 41 139q-25 106 -140 150q70 37 56 114q-16 76 -86 117q-55 35 -137 35q-152 0 -160 -105zM211 186l14 -71h297l27 -115h67l-24 115h67l-14 71h-67l-84 387h-58zM283 186l168 281l57 -281h-225z" />
<glyph unicode="&#xbf;" horiz-adv-x="866" d="M100 117q16 -68 49 -126.5t91 -107.5q111 -98 239 -98q127 0 195 98q70 101 39 234h-170q12 -61 -17.5 -107.5t-87.5 -46.5q-55 0 -104 46t-64 108q-18 96 52 174q31 35 62.5 66.5t61.5 66.5q68 88 39 215q-2 10 -18 63.5t-47 157.5h-103q8 -59 13.5 -104t7.5 -76 q12 -139 -68 -215q-35 -29 -68.5 -56.5t-68.5 -56.5q-68 -76 -33 -235zM192.5 1128.5q10.5 -53.5 53.5 -89t92 -35.5q51 0 76.5 35.5t15.5 88.5t-53 89t-92 36t-76 -35.5t-16.5 -89z" />
<glyph unicode="&#xc0;" horiz-adv-x="1253" d="M23 1792l217 -215h102l-149 215h-170zM41 0h180l43 322h588l180 -322h180l-798 1434h-183zM287 502l92 669l373 -669h-465z" />
<glyph unicode="&#xc1;" horiz-adv-x="1253" d="M41 0h180l43 322h588l180 -322h180l-798 1434h-183zM240 1577h102l123 215h-170zM287 502l92 669l373 -669h-465z" />
<glyph unicode="&#xc2;" horiz-adv-x="1253" d="M41 0h180l43 322h588l180 -322h180l-798 1434h-183zM88 1577h102l74 129l129 -129h103l-183 215h-135zM287 502l92 669l373 -669h-465z" />
<glyph unicode="&#xc3;" horiz-adv-x="1253" d="M20 1640l107 -55q6 86 41 86q41 0 123 -47q88 -47 127 -47q90 0 98 158l-104 53q-6 -86 -41 -86q-41 0 -123 47q-84 49 -127 49q-90 0 -101 -158zM41 0h180l43 322h588l180 -322h180l-798 1434h-183zM287 502l92 669l373 -669h-465z" />
<glyph unicode="&#xc4;" horiz-adv-x="1253" d="M18 1667q8 -39 39 -64.5t66 -25.5t54 25.5t11 64.5q-8 37 -37.5 62.5t-64.5 25.5q-37 0 -57.5 -25.5t-10.5 -62.5zM41 0h180l43 322h588l180 -322h180l-798 1434h-183zM287 502l92 669l373 -669h-465zM358 1667q8 -39 39 -64.5t68 -25.5q35 0 53 25.5t10 64.5 q-8 37 -37.5 62.5t-64.5 25.5t-55.5 -25.5t-12.5 -62.5z" />
<glyph unicode="&#xc5;" horiz-adv-x="1253" d="M41 0h180l43 322h588l180 -322h180l-776 1397q66 57 45 162q-16 80 -84 139q-66 57 -143 57q-78 0 -121 -57q-41 -61 -27 -139q23 -104 121 -164zM176 1558.5q-10 53.5 16.5 89t75.5 35.5q51 0 93.5 -35.5t52.5 -88.5t-15.5 -89t-76.5 -36q-49 0 -92.5 35.5t-53.5 89z M287 502l92 669l373 -669h-465z" />
<glyph unicode="&#xc6;" horiz-adv-x="1941" d="M41 0h180l43 322h588l180 -322h783l-37 178h-613l-96 449h442l-38 180h-443l-94 446h612l-37 181h-784l195 -908l-508 908h-183zM287 502l92 669l373 -669h-465z" />
<glyph unicode="&#xc7;" horiz-adv-x="1411" d="M-68 717q61 -289 289 -504q117 -109 243 -169t267 -77v-129h49q35 0 67 -26.5t40 -63.5q6 -35 -13.5 -61.5t-54.5 -26.5h-119l-6 -55h137q57 0 87 42t20 101q-10 51 -50 91t-91 50v74q305 0 469 221l-152 123q-123 -164 -346 -164q-225 0 -420 168q-197 168 -246 406 q-53 236 74 405q125 168 348 168t418 -166l96 125q-256 219 -551 219q-147 0 -262.5 -54t-197.5 -167q-160 -217 -95 -530z" />
<glyph unicode="&#xc8;" horiz-adv-x="1206" d="M-180 1434l305 -1434h954l-39 178h-782l-94 449h612l-39 180h-614l-94 446h782l-37 181h-954zM0 1792l217 -215h102l-149 215h-170z" />
<glyph unicode="&#xc9;" horiz-adv-x="1206" d="M-180 1434l305 -1434h954l-39 178h-782l-94 449h612l-39 180h-614l-94 446h782l-37 181h-954zM217 1577h102l123 215h-170z" />
<glyph unicode="&#xca;" horiz-adv-x="1206" d="M-180 1434l305 -1434h954l-39 178h-782l-94 449h612l-39 180h-614l-94 446h782l-37 181h-954zM63 1577h101l76 129l129 -129h102l-182 215h-137z" />
<glyph unicode="&#xcb;" horiz-adv-x="1206" d="M-180 1434l305 -1434h954l-39 178h-782l-94 449h612l-39 180h-614l-94 446h782l-37 181h-954zM-8 1667q10 -39 39.5 -64.5t64.5 -25.5q37 0 56.5 25.5t11.5 64.5q-10 37 -40 62.5t-65 25.5t-55 -25.5t-12 -62.5zM334 1667q8 -39 37.5 -64.5t64.5 -25.5q37 0 56.5 25.5 t11.5 64.5q-8 37 -38 62.5t-67 25.5q-35 0 -55 -25.5t-10 -62.5z" />
<glyph unicode="&#xcc;" d="M-393 1792l217 -215h102l-149 215h-170zM-180 1434l305 -1434h170l-303 1434h-172z" />
<glyph unicode="&#xcd;" d="M-180 1434l305 -1434h170l-303 1434h-172zM-176 1577h102l123 215h-170z" />
<glyph unicode="&#xce;" d="M-328 1577h103l73 129l129 -129h103l-182 215h-136zM-180 1434l305 -1434h170l-303 1434h-172z" />
<glyph unicode="&#xcf;" d="M-399 1667q8 -39 38.5 -64.5t65.5 -25.5t54.5 25.5t11.5 64.5q-8 37 -38 62.5t-65 25.5q-37 0 -56.5 -25.5t-10.5 -62.5zM-180 1434l305 -1434h170l-303 1434h-172zM-59 1667q8 -39 38.5 -64.5t67.5 -25.5q35 0 53.5 25.5t10.5 64.5q-8 37 -38 62.5t-65 25.5t-55.5 -25.5 t-11.5 -62.5z" />
<glyph unicode="&#xd0;" horiz-adv-x="1554" d="M-88 807l31 -143h170l141 -664h512q279 0 432 209q157 213 96 508q-61 293 -311 506q-242 211 -522 211h-512l133 -627h-170zM158 1253h340q211 0 395 -157q182 -158 231 -379q45 -221 -71 -381q-115 -158 -326 -158h-340l-104 486h340l-29 143h-342z" />
<glyph unicode="&#xd1;" horiz-adv-x="1341" d="M-180 1434l305 -1434h170l-236 1110l985 -1110h170l-305 1434h-170l238 -1112l-985 1112h-172zM66 1640l106 -55q6 86 39 86q41 0 125 -47q43 -23 73.5 -35t53.5 -12q90 0 98 158l-106 53q-4 -86 -39 -86q-41 0 -123 47q-86 49 -127 49q-90 0 -100 -158z" />
<glyph unicode="&#xd2;" horiz-adv-x="1597" d="M-68 717q68 -313 320 -533q258 -221 555 -221q295 0 459 221.5t96 532.5q-68 313 -324 532t-551 219q-299 0 -460 -219q-162 -221 -95 -532zM102 717q-53 236 74 405q125 168 348 168q225 0 420 -167.5t248 -405.5q49 -238 -76 -406t-348 -168q-225 0 -420 168 q-197 168 -246 406zM195 1792l217 -215h102l-149 215h-170z" />
<glyph unicode="&#xd3;" horiz-adv-x="1597" d="M-68 717q68 -313 320 -533q258 -221 555 -221q295 0 459 221.5t96 532.5q-68 313 -324 532t-551 219q-299 0 -460 -219q-162 -221 -95 -532zM102 717q-53 236 74 405q125 168 348 168q225 0 420 -167.5t248 -405.5q49 -238 -76 -406t-348 -168q-225 0 -420 168 q-197 168 -246 406zM412 1577h102l123 215h-170z" />
<glyph unicode="&#xd4;" horiz-adv-x="1597" d="M-68 717q68 -313 320 -533q258 -221 555 -221q295 0 459 221.5t96 532.5q-68 313 -324 532t-551 219q-299 0 -460 -219q-162 -221 -95 -532zM102 717q-53 236 74 405q125 168 348 168q225 0 420 -167.5t248 -405.5q49 -238 -76 -406t-348 -168q-225 0 -420 168 q-197 168 -246 406zM260 1577h102l74 129l129 -129h103l-183 215h-135z" />
<glyph unicode="&#xd5;" horiz-adv-x="1597" d="M-68 717q68 -313 320 -533q258 -221 555 -221q295 0 459 221.5t96 532.5q-68 313 -324 532t-551 219q-299 0 -460 -219q-162 -221 -95 -532zM102 717q-53 236 74 405q125 168 348 168q225 0 420 -167.5t248 -405.5q49 -238 -76 -406t-348 -168q-225 0 -420 168 q-197 168 -246 406zM193 1640l106 -55q6 86 41 86q41 0 123 -47q88 -47 127 -47q90 0 98 158l-104 53q-6 -86 -41 -86q-41 0 -123 47q-84 49 -127 49q-90 0 -100 -158z" />
<glyph unicode="&#xd6;" horiz-adv-x="1597" d="M-68 717q68 -313 320 -533q258 -221 555 -221q295 0 459 221.5t96 532.5q-68 313 -324 532t-551 219q-299 0 -460 -219q-162 -221 -95 -532zM102 717q-53 236 74 405q125 168 348 168q225 0 420 -167.5t248 -405.5q49 -238 -76 -406t-348 -168q-225 0 -420 168 q-197 168 -246 406zM188 1667q8 -39 39 -64.5t66 -25.5t54 25.5t11 64.5q-8 37 -37.5 62.5t-64.5 25.5q-37 0 -56.5 -25.5t-11.5 -62.5zM528 1667q8 -39 39 -64.5t68 -25.5q35 0 53 25.5t10 64.5q-8 37 -37.5 62.5t-64.5 25.5t-55.5 -25.5t-12.5 -62.5z" />
<glyph unicode="&#xd7;" horiz-adv-x="925" d="M-43 791l293 -254l-187 -252l119 -103l187 254l295 -254l75 103l-293 252l187 254l-121 102l-186 -254l-293 254z" />
<glyph unicode="&#xd8;" horiz-adv-x="1597" d="M-68 717q55 -268 261 -473l-162 -191l61 -53l158 188q260 -225 557 -225q295 0 459 221.5t96 532.5q-55 266 -262 473l162 190l-62 54l-160 -189q-256 223 -553 223q-299 0 -460 -219q-162 -221 -95 -532zM102 717q-53 236 74 405q125 168 348 168q224 0 414 -164 l-645 -761q-150 154 -191 352zM352 307l647 762q150 -155 193 -352q49 -238 -76 -406t-348 -168q-225 0 -416 164z" />
<glyph unicode="&#xd9;" horiz-adv-x="1308" d="M-195 1434l189 -897q53 -238 246 -404q100 -86 203.5 -128t218.5 -42q225 0 348 170q124 168 73 404l-188 897h-172l190 -897q37 -160 -51 -279q-82 -115 -239 -115q-78 0 -151 28t-138 87q-133 115 -170 279l-189 897h-170zM49 1792l217 -215h103l-148 215h-172z" />
<glyph unicode="&#xda;" horiz-adv-x="1308" d="M-195 1434l189 -897q53 -238 246 -404q100 -86 203.5 -128t218.5 -42q225 0 348 170q124 168 73 404l-188 897h-172l190 -897q37 -160 -51 -279q-82 -115 -239 -115q-78 0 -151 28t-138 87q-133 115 -170 279l-189 897h-170zM266 1577h103l125 215h-172z" />
<glyph unicode="&#xdb;" horiz-adv-x="1308" d="M-195 1434l189 -897q53 -238 246 -404q100 -86 203.5 -128t218.5 -42q225 0 348 170q124 168 73 404l-188 897h-172l190 -897q37 -160 -51 -279q-82 -115 -239 -115q-78 0 -151 28t-138 87q-133 115 -170 279l-189 897h-170zM115 1577h102l76 129l129 -129h100l-182 215 h-135z" />
<glyph unicode="&#xdc;" horiz-adv-x="1308" d="M-195 1434l189 -897q53 -238 246 -404q100 -86 203.5 -128t218.5 -42q225 0 348 170q124 168 73 404l-188 897h-172l190 -897q37 -160 -51 -279q-82 -115 -239 -115q-78 0 -151 28t-138 87q-133 115 -170 279l-189 897h-170zM43 1667q8 -39 39 -64.5t68 -25.5 q35 0 53 25.5t10 64.5q-8 37 -38 62.5t-64 25.5q-35 0 -55.5 -25.5t-12.5 -62.5zM383 1667q8 -39 39 -64.5t67 -25.5q35 0 54.5 25.5t9.5 64.5q-8 37 -38 62.5t-64 25.5q-35 0 -55.5 -25.5t-12.5 -62.5z" />
<glyph unicode="&#xdd;" horiz-adv-x="1253" d="M-264 1434l659 -748l146 -686h170l-146 686l342 748h-211l-256 -560l-491 560h-213zM240 1577h102l123 215h-170z" />
<glyph unicode="&#xde;" horiz-adv-x="1196" d="M-180 1434l305 -1434h170l-66 313h408q168 0 272 113q107 115 70 291q-39 174 -195 293q-152 111 -319 110h-408l-65 314h-172zM94 940h410q49 0 97 -14.5t89 -44.5q96 -64 119 -164t-47 -166q-59 -57 -162 -57h-407z" />
<glyph unicode="&#xdf;" horiz-adv-x="1255" d="M-66 895l230 -1075h170l-228 1075q-35 156 27 270q61 125 203 125q299 0 340 -196q20 -98 -80 -154q-78 -45 -184 -45h-103l39 -178h103q139 0 260 -70q147 -80 174 -217q31 -143 -76 -223q-88 -63 -238 -64q-63 0 -139 17l-4 -172q94 -25 180 -25q219 0 350 115 q146 131 97 352q-25 129 -125 234q-84 90 -221 143q180 82 137 287q-41 195 -209 290q-150 84 -338 84q-213 0 -315 -176q-94 -168 -50 -397z" />
<glyph unicode="&#xe0;" horiz-adv-x="1298" d="M-31 537q27 -117 82 -215.5t148 -184.5q182 -174 403 -174q256 0 361 230l41 -193h170l-230 1075h-170l41 -194q-203 229 -457 229q-221 0 -327 -172q-111 -168 -62 -401zM102 1434l215 -215h103l-148 215h-170zM139 537q-35 166 49 278q86 117 242 117q154 0 289 -117 q68 -59 111 -126.5t59 -151.5q35 -164 -51 -279q-84 -115 -240 -115q-158 0 -291 115q-68 59 -108.5 128t-59.5 151z" />
<glyph unicode="&#xe1;" horiz-adv-x="1298" d="M-31 537q27 -117 82 -215.5t148 -184.5q182 -174 403 -174q256 0 361 230l41 -193h170l-230 1075h-170l41 -194q-203 229 -457 229q-221 0 -327 -172q-111 -168 -62 -401zM139 537q-35 166 49 278q86 117 242 117q154 0 289 -117q68 -59 111 -126.5t59 -151.5 q35 -164 -51 -279q-84 -115 -240 -115q-158 0 -291 115q-68 59 -108.5 128t-59.5 151zM317 1219h103l125 215h-170z" />
<glyph unicode="&#xe2;" horiz-adv-x="1298" d="M-31 537q27 -117 82 -215.5t148 -184.5q182 -174 403 -174q256 0 361 230l41 -193h170l-230 1075h-170l41 -194q-203 229 -457 229q-221 0 -327 -172q-111 -168 -62 -401zM139 537q-35 166 49 278q86 117 242 117q154 0 289 -117q68 -59 111 -126.5t59 -151.5 q35 -164 -51 -279q-84 -115 -240 -115q-158 0 -291 115q-68 59 -108.5 128t-59.5 151zM164 1219h102l76 129l129 -129h102l-180 215h-137z" />
<glyph unicode="&#xe3;" horiz-adv-x="1298" d="M-31 537q27 -117 82 -215.5t148 -184.5q182 -174 403 -174q256 0 361 230l41 -193h170l-230 1075h-170l41 -194q-203 229 -457 229q-221 0 -327 -172q-111 -168 -62 -401zM98 1282l107 -55q6 86 41 86q41 0 123 -47q43 -23 72.5 -35t52.5 -12q92 -1 100 157l-105 54 q-6 -86 -38 -87q-43 0 -127 48q-84 49 -125 49q-90 0 -101 -158zM139 537q-35 166 49 278q86 117 242 117q154 0 289 -117q68 -59 111 -126.5t59 -151.5q35 -164 -51 -279q-84 -115 -240 -115q-158 0 -291 115q-68 59 -108.5 128t-59.5 151z" />
<glyph unicode="&#xe4;" horiz-adv-x="1298" d="M-31 537q27 -117 82 -215.5t148 -184.5q182 -174 403 -174q256 0 361 230l41 -193h170l-230 1075h-170l41 -194q-203 229 -457 229q-221 0 -327 -172q-111 -168 -62 -401zM94 1309q10 -39 39 -64.5t66 -25.5q35 0 55 25.5t10 64.5q-8 37 -37.5 62.5t-64.5 25.5 q-37 0 -56.5 -25.5t-11.5 -62.5zM139 537q-35 166 49 278q86 117 242 117q154 0 289 -117q68 -59 111 -126.5t59 -151.5q35 -164 -51 -279q-84 -115 -240 -115q-158 0 -291 115q-68 59 -108.5 128t-59.5 151zM436 1309q8 -39 38 -64.5t65 -25.5t55 25.5t12 64.5 q-10 37 -39.5 62.5t-64.5 25.5q-37 0 -56.5 -25.5t-9.5 -62.5z" />
<glyph unicode="&#xe5;" horiz-adv-x="1298" d="M-31 537q27 -117 82 -215.5t148 -184.5q182 -174 403 -174q256 0 361 230l41 -193h170l-230 1075h-170l41 -194q-203 229 -457 229q-221 0 -327 -172q-111 -168 -62 -401zM139 537q-35 166 49 278q86 117 242 117q154 0 289 -117q68 -59 111 -126.5t59 -151.5 q35 -164 -51 -279q-84 -115 -240 -115q-158 0 -291 115q-68 59 -108.5 128t-59.5 151zM139 1415q8 -41 31 -76.5t53.5 -62.5t68.5 -42t77 -15t69.5 15t50 42t26.5 62.5t-1 76.5t-30.5 77t-53.5 62.5t-67.5 42t-75.5 15.5q-78 0 -121 -57.5t-27 -139.5zM207 1415 q-10 53 16.5 89t77.5 36q49 0 92 -36t53 -89t-15 -89t-77 -36q-51 0 -94 36t-53 89z" />
<glyph unicode="&#xe6;" horiz-adv-x="2174" d="M-31 537q27 -117 82 -215.5t148 -184.5q182 -174 403 -174q258 0 361 230l41 -193h170l-41 193q201 -229 448 -230q242 0 358 227l-163 97q-88 -143 -258 -144q-129 0 -252 86t-179 220h904q-3 45 -13 88q-49 229 -227 399q-186 174 -401 174q-264 0 -365 -229l-41 194 h-170l41 -194q-203 229 -457 229q-217 0 -327 -172q-111 -168 -62 -401zM139 537q-35 166 49 278q86 117 242 117q154 0 289 -117q68 -59 111 -126.5t59 -151.5q35 -164 -51 -279q-84 -115 -240 -115q-158 0 -291 115q-68 59 -108.5 128t-59.5 151zM1051 627q0 135 84 219 q86 86 215 86t249 -86q122 -84 181 -219h-729z" />
<glyph unicode="&#xe7;" horiz-adv-x="1169" d="M-31 537q47 -215 215 -375q86 -84 179.5 -130t197.5 -63v-131h49q35 0 67 -26.5t40 -63.5q6 -35 -13.5 -61.5t-54.5 -26.5h-119l-6 -55h138q57 0 86.5 42t17.5 101q-10 51 -49 91t-90 50v74q278 0 393 227l-164 97q-88 -143 -258 -144q-158 0 -291 115q-68 59 -108.5 128 t-59.5 151q-35 166 49 278q86 117 242 117q170 0 320 -144l122 97q-100 106 -226 165.5t-253 59.5q-225 0 -350 -168q-123 -170 -74 -405z" />
<glyph unicode="&#xe8;" horiz-adv-x="1255" d="M-31 537q53 -238 246 -404q100 -86 203.5 -128t218.5 -42q127 0 228.5 60.5t154.5 166.5l-164 97q-84 -143 -258 -144q-129 0 -252 86q-119 82 -178 220h903q-2 23 -4 44t-8 44q-49 238 -248 405q-195 168 -418 168q-225 0 -350 -168q-123 -170 -74 -405zM102 1434 l215 -215h103l-148 215h-170zM131 627q0 135 84 219q86 86 215 86t250 -86q121 -84 180 -219h-729z" />
<glyph unicode="&#xe9;" horiz-adv-x="1255" d="M-31 537q53 -238 246 -404q100 -86 203.5 -128t218.5 -42q127 0 228.5 60.5t154.5 166.5l-164 97q-84 -143 -258 -144q-129 0 -252 86q-119 82 -178 220h903q-2 23 -4 44t-8 44q-49 238 -248 405q-195 168 -418 168q-225 0 -350 -168q-123 -170 -74 -405zM131 627 q0 135 84 219q86 86 215 86t250 -86q121 -84 180 -219h-729zM317 1219h103l125 215h-170z" />
<glyph unicode="&#xea;" horiz-adv-x="1255" d="M-31 537q53 -238 246 -404q100 -86 203.5 -128t218.5 -42q127 0 228.5 60.5t154.5 166.5l-164 97q-84 -143 -258 -144q-129 0 -252 86q-119 82 -178 220h903q-2 23 -4 44t-8 44q-49 238 -248 405q-195 168 -418 168q-225 0 -350 -168q-123 -170 -74 -405zM131 627 q0 135 84 219q86 86 215 86t250 -86q121 -84 180 -219h-729zM164 1219h102l76 129l129 -129h102l-180 215h-137z" />
<glyph unicode="&#xeb;" horiz-adv-x="1255" d="M-31 537q53 -238 246 -404q100 -86 203.5 -128t218.5 -42q127 0 228.5 60.5t154.5 166.5l-164 97q-84 -143 -258 -144q-129 0 -252 86q-119 82 -178 220h903q-2 23 -4 44t-8 44q-49 238 -248 405q-195 168 -418 168q-225 0 -350 -168q-123 -170 -74 -405zM94 1309 q10 -39 39 -64.5t66 -25.5q35 0 55 25.5t10 64.5q-8 37 -37.5 62.5t-64.5 25.5q-37 0 -56.5 -25.5t-11.5 -62.5zM131 627q0 135 84 219q86 86 215 86t250 -86q121 -84 180 -219h-729zM436 1309q8 -39 38 -64.5t65 -25.5t55 25.5t12 64.5q-10 37 -39.5 62.5t-64.5 25.5 q-37 0 -56.5 -25.5t-9.5 -62.5z" />
<glyph unicode="&#xec;" d="M-315 1434l215 -215h102l-147 215h-170zM-104 1075l229 -1075h170l-229 1075h-170z" />
<glyph unicode="&#xed;" d="M-104 1075l229 -1075h170l-229 1075h-170zM-100 1219h102l125 215h-170z" />
<glyph unicode="&#xee;" d="M-252 1219h100l76 129l129 -129h103l-181 215h-137zM-104 1075l229 -1075h170l-229 1075h-170z" />
<glyph unicode="&#xef;" d="M-324 1309q10 -39 40 -64.5t65 -25.5t55 25.5t12 64.5q-10 37 -39.5 62.5t-64.5 25.5q-37 0 -56.5 -25.5t-11.5 -62.5zM-104 1075l229 -1075h170l-229 1075h-170zM18 1309q8 -39 38 -64.5t65 -25.5t55 25.5t12 64.5q-8 37 -38.5 62.5t-65.5 25.5q-37 0 -56.5 -25.5 t-9.5 -62.5z" />
<glyph unicode="&#xf0;" horiz-adv-x="1400" d="M-31 537q53 -238 246 -404q100 -86 203.5 -128t218.5 -42q223 0 346 170q127 170 76 404l-135 645h170l-31 143h-170l-25 109h-170l25 -109h-172l31 -143h170l63 -301q-203 229 -457 229q-217 0 -327 -172q-111 -168 -62 -401zM139 537q-35 166 49 278q86 117 242 117 q154 0 289 -117q68 -59 111 -126.5t59 -151.5q35 -164 -51 -279q-84 -115 -240 -115q-158 0 -291 115q-68 59 -108.5 128t-59.5 151z" />
<glyph unicode="&#xf1;" horiz-adv-x="1120" d="M-104 1075l229 -1075h170l-137 645q-25 119 36.5 203t174.5 84q115 0 211 -84q98 -82 122 -203l138 -645h170l-138 645q-37 184 -180 322q-150 143 -327 143q-188 0 -273 -158l-26 123h-170zM39 1282l106 -55q6 86 39 86q41 0 125 -47q43 -23 74 -35t53 -12 q89 -1 101 157l-109 54q-4 -86 -37 -87q-39 0 -127 48q-84 49 -125 49q-90 0 -100 -158z" />
<glyph unicode="&#xf2;" horiz-adv-x="1255" d="M-31 537q53 -238 246 -404q100 -86 203.5 -128t218.5 -42q223 0 346 170q127 171 76 404q-49 238 -248 405q-195 168 -418 168q-225 0 -350 -168q-123 -170 -74 -405zM102 1434l215 -215h103l-148 215h-170zM139 537q-35 166 49 278q86 117 242 117q154 0 289 -117 q68 -59 111 -126.5t59 -151.5q35 -164 -51 -279q-84 -115 -240 -115q-158 0 -291 115q-68 59 -108.5 128t-59.5 151z" />
<glyph unicode="&#xf3;" horiz-adv-x="1255" d="M-31 537q53 -238 246 -404q100 -86 203.5 -128t218.5 -42q223 0 346 170q127 171 76 404q-49 238 -248 405q-195 168 -418 168q-225 0 -350 -168q-123 -170 -74 -405zM139 537q-35 166 49 278q86 117 242 117q154 0 289 -117q68 -59 111 -126.5t59 -151.5 q35 -164 -51 -279q-84 -115 -240 -115q-158 0 -291 115q-68 59 -108.5 128t-59.5 151zM317 1219h103l125 215h-170z" />
<glyph unicode="&#xf4;" horiz-adv-x="1255" d="M-31 537q53 -238 246 -404q100 -86 203.5 -128t218.5 -42q223 0 346 170q127 171 76 404q-49 238 -248 405q-195 168 -418 168q-225 0 -350 -168q-123 -170 -74 -405zM139 537q-35 166 49 278q86 117 242 117q154 0 289 -117q68 -59 111 -126.5t59 -151.5 q35 -164 -51 -279q-84 -115 -240 -115q-158 0 -291 115q-68 59 -108.5 128t-59.5 151zM164 1219h102l76 129l129 -129h102l-180 215h-137z" />
<glyph unicode="&#xf5;" horiz-adv-x="1255" d="M-31 537q53 -238 246 -404q100 -86 203.5 -128t218.5 -42q223 0 346 170q127 171 76 404q-49 238 -248 405q-195 168 -418 168q-225 0 -350 -168q-123 -170 -74 -405zM98 1282l107 -55q6 86 41 86q41 0 123 -47q43 -23 72.5 -35t52.5 -12q92 -1 100 157l-105 54 q-6 -86 -38 -87q-43 0 -127 48q-84 49 -125 49q-90 0 -101 -158zM139 537q-35 166 49 278q86 117 242 117q154 0 289 -117q68 -59 111 -126.5t59 -151.5q35 -164 -51 -279q-84 -115 -240 -115q-158 0 -291 115q-68 59 -108.5 128t-59.5 151z" />
<glyph unicode="&#xf6;" horiz-adv-x="1255" d="M-31 537q53 -238 246 -404q100 -86 203.5 -128t218.5 -42q223 0 346 170q127 171 76 404q-49 238 -248 405q-195 168 -418 168q-225 0 -350 -168q-123 -170 -74 -405zM94 1309q10 -39 39 -64.5t66 -25.5q35 0 55 25.5t10 64.5q-8 37 -37.5 62.5t-64.5 25.5 q-37 0 -56.5 -25.5t-11.5 -62.5zM139 537q-35 166 49 278q86 117 242 117q154 0 289 -117q68 -59 111 -126.5t59 -151.5q35 -164 -51 -279q-84 -115 -240 -115q-158 0 -291 115q-68 59 -108.5 128t-59.5 151zM436 1309q8 -39 38 -64.5t65 -25.5t55 25.5t12 64.5 q-10 37 -39.5 62.5t-64.5 25.5q-37 0 -56.5 -25.5t-9.5 -62.5z" />
<glyph unicode="&#xf7;" horiz-adv-x="933" d="M-4 608l31 -143h682l-31 143h-682zM145 950q12 -53 53.5 -90t92.5 -37q49 0 76.5 37t15.5 90q-10 53 -53 89t-94 36q-49 0 -75 -35.5t-16 -89.5zM321.5 125q10.5 -53 52.5 -89t91 -36q51 0 77.5 36t16.5 89t-53 89t-94 36q-49 0 -75 -36t-15.5 -89z" />
<glyph unicode="&#xf8;" horiz-adv-x="1255" d="M-31 537q41 -193 183 -344l-121 -140l61 -53l119 135q197 -172 426 -172q223 0 346 170q127 170 76 404q-20 98 -66.5 183t-118.5 163l123 139l-61 53l-121 -135q-199 170 -422 170q-225 0 -350 -168q-123 -170 -74 -405zM139 537q-35 166 49 278q86 117 242 117 q148 0 281 -109l-455 -514q-90 104 -117 228zM315 252l455 514q92 -106 119 -229q35 -164 -51 -279q-84 -115 -240 -115q-150 0 -283 109z" />
<glyph unicode="&#xf9;" horiz-adv-x="1120" d="M-121 1075l139 -645q41 -186 181 -324q156 -143 325 -143q184 0 275 158l24 -121h172l-229 1075h-172l139 -645q25 -121 -39 -203q-59 -84 -172 -84q-111 0 -213 84q-96 84 -121 203l-139 645h-170zM25 1434l215 -215h102l-147 215h-170z" />
<glyph unicode="&#xfa;" horiz-adv-x="1120" d="M-121 1075l139 -645q41 -186 181 -324q156 -143 325 -143q184 0 275 158l24 -121h172l-229 1075h-172l139 -645q25 -121 -39 -203q-59 -84 -172 -84q-111 0 -213 84q-96 84 -121 203l-139 645h-170zM240 1219h102l125 215h-170z" />
<glyph unicode="&#xfb;" horiz-adv-x="1120" d="M-121 1075l139 -645q41 -186 181 -324q156 -143 325 -143q184 0 275 158l24 -121h172l-229 1075h-172l139 -645q25 -121 -39 -203q-59 -84 -172 -84q-111 0 -213 84q-96 84 -121 203l-139 645h-170zM88 1219h102l74 129l129 -129h103l-181 215h-137z" />
<glyph unicode="&#xfc;" horiz-adv-x="1120" d="M-121 1075l139 -645q41 -186 181 -324q156 -143 325 -143q184 0 275 158l24 -121h172l-229 1075h-172l139 -645q25 -121 -39 -203q-59 -84 -172 -84q-111 0 -213 84q-96 84 -121 203l-139 645h-170zM18 1309q8 -39 38 -64.5t65 -25.5t55 25.5t12 64.5q-8 37 -38.5 62.5 t-65.5 25.5q-37 0 -56.5 -25.5t-9.5 -62.5zM358 1309q8 -39 38 -64.5t67 -25.5q35 0 54 25.5t11 64.5q-8 37 -38.5 62.5t-65.5 25.5t-54.5 -25.5t-11.5 -62.5z" />
<glyph unicode="&#xfd;" horiz-adv-x="1091" d="M-188 1075l641 -1075l-27 -166q-6 -49 -68 -49q-35 0 -92 18l41 -180q51 -18 88 -18q174 0 203 170l223 1300h-184l-143 -837l-500 837h-182zM233 1219h103l127 215h-172z" />
<glyph unicode="&#xfe;" horiz-adv-x="1298" d="M-180 1434l383 -1792h170l-119 551q205 -229 457 -230q219 0 331 174q109 173 58 400q-49 233 -230 401q-184 172 -403 172q-254 0 -361 -229l-114 553h-172zM180 537q-33 164 51 278q86 117 240 117q156 0 291 -117q66 -59 109 -126.5t59 -151.5q33 -162 -49 -279 q-84 -115 -242 -115q-156 0 -289 115t-170 279z" />
<glyph unicode="&#xff;" horiz-adv-x="1091" d="M-188 1075l641 -1075l-27 -166q-6 -49 -68 -49q-35 0 -92 18l41 -180q51 -18 88 -18q174 0 203 170l223 1300h-184l-143 -837l-500 837h-182zM12 1309q8 -39 38 -64.5t67 -25.5q35 0 54 25.5t11 64.5q-8 37 -37.5 62.5t-66.5 25.5q-35 0 -54.5 -25.5t-11.5 -62.5z M352 1309q10 -39 39 -64.5t66 -25.5t56 25.5t9 64.5q-8 37 -37.5 62.5t-64.5 25.5q-37 0 -56.5 -25.5t-11.5 -62.5z" />
<glyph unicode="&#x152;" horiz-adv-x="2252" d="M-68 717q68 -313 320 -533q258 -221 555 -221q330 0 489 266l47 -229h785l-39 178h-612l-95 449h443l-41 180h-443l-94 446h613l-37 181h-785l49 -230q-266 264 -600 264q-299 0 -460 -219q-162 -221 -95 -532zM102 717q-53 236 74 405q125 168 348 168q225 0 420 -167.5 t248 -405.5q49 -238 -76 -406t-348 -168q-225 0 -420 168q-197 168 -246 406z" />
<glyph unicode="&#x153;" horiz-adv-x="2174" d="M-31 537q53 -238 246 -404q100 -86 203.5 -128t218.5 -42q139 0 245.5 71.5t155.5 196.5q102 -125 238.5 -196.5t277.5 -71.5q129 0 230.5 60.5t154.5 166.5l-163 97q-88 -143 -258 -144q-129 0 -252 86t-179 220h904q-3 45 -13 88q-49 238 -247 405q-195 168 -420 168 q-141 0 -248 -70.5t-154 -195.5q-104 125 -240.5 195.5t-275.5 70.5q-225 0 -350 -168q-123 -170 -74 -405zM139 537q-35 166 49 278q86 117 242 117q154 0 289 -117q68 -59 111 -126.5t59 -151.5q35 -164 -51 -279q-84 -115 -240 -115q-158 0 -291 115q-68 59 -108.5 128 t-59.5 151zM1051 627q0 135 84 219q86 86 215 86t249 -86q122 -84 181 -219h-729z" />
<glyph unicode="&#x178;" horiz-adv-x="1253" d="M-264 1434l659 -748l146 -686h170l-146 686l342 748h-211l-256 -560l-491 560h-213zM16 1667q8 -39 39 -64.5t66 -25.5t54 25.5t11 64.5q-8 37 -37.5 62.5t-64.5 25.5q-37 0 -56.5 -25.5t-11.5 -62.5zM356 1667q8 -39 39 -64.5t68 -25.5q35 0 53 25.5t10 64.5 q-8 37 -37.5 62.5t-64.5 25.5t-55.5 -25.5t-12.5 -62.5z" />
<glyph unicode="&#x2c6;" horiz-adv-x="661" d="M-135 1219h102l76 129l129 -129h102l-182 215h-135z" />
<glyph unicode="&#x2dc;" horiz-adv-x="765" d="M-145 1276l108 -53q0 86 39 86q43 0 123 -49q84 -47 125 -48q90 0 100 158l-104 55q-6 -86 -39 -86q-45 0 -127 45q-84 49 -125 50q-92 0 -100 -158z" />
<glyph unicode="&#x2000;" horiz-adv-x="899" />
<glyph unicode="&#x2001;" horiz-adv-x="1798" />
<glyph unicode="&#x2002;" horiz-adv-x="899" />
<glyph unicode="&#x2003;" horiz-adv-x="1798" />
<glyph unicode="&#x2004;" horiz-adv-x="599" />
<glyph unicode="&#x2005;" horiz-adv-x="449" />
<glyph unicode="&#x2006;" horiz-adv-x="299" />
<glyph unicode="&#x2007;" horiz-adv-x="299" />
<glyph unicode="&#x2008;" horiz-adv-x="224" />
<glyph unicode="&#x2009;" horiz-adv-x="359" />
<glyph unicode="&#x200a;" horiz-adv-x="99" />
<glyph unicode="&#x2010;" horiz-adv-x="933" d="M-4 608l31 -143h682l-31 143h-682z" />
<glyph unicode="&#x2011;" horiz-adv-x="933" d="M-4 608l31 -143h682l-31 143h-682z" />
<glyph unicode="&#x2012;" horiz-adv-x="933" d="M-4 608l31 -143h682l-31 143h-682z" />
<glyph unicode="&#x2013;" horiz-adv-x="763" d="M-4 608l31 -143h510l-29 143h-512z" />
<glyph unicode="&#x2014;" horiz-adv-x="1103" d="M-4 608l31 -143h852l-31 143h-852z" />
<glyph unicode="&#x2018;" horiz-adv-x="491" d="M-125 1182l51 -250h238l-51 250h-170q-16 76 2 128t61 52l-14 72q-72 0 -105 -74q-37 -74 -12 -178z" />
<glyph unicode="&#x2019;" horiz-adv-x="491" d="M-180 1434l55 -252h170q14 -74 -4 -126t-61 -52l14 -72q72 0 106 74q36 72 13 176l-54 252h-239z" />
<glyph unicode="&#x201a;" horiz-adv-x="491" d="M72 250l53 -250h170q16 -74 -2.5 -127t-61.5 -53l17 -72q70 0 102 74q38 72 15 178l-56 250h-237z" />
<glyph unicode="&#x201c;" horiz-adv-x="866" d="M-125 1182l51 -250h238l-51 250h-170q-16 76 2 128t61 52l-14 72q-72 0 -105 -74q-37 -74 -12 -178zM250 1182l51 -250h238l-52 250h-170q-16 76 2.5 128t59.5 52l-14 72q-70 0 -103 -74q-37 -74 -12 -178z" />
<glyph unicode="&#x201d;" horiz-adv-x="866" d="M-180 1434l55 -252h170q14 -74 -4 -126t-61 -52l14 -72q72 0 106 74q36 72 13 176l-54 252h-239zM195 1434l55 -252h170q14 -74 -4.5 -126t-61.5 -52l15 -72q70 0 106 74q35 72 12 176l-53 252h-239z" />
<glyph unicode="&#x201e;" horiz-adv-x="866" d="M72 250l53 -250h170q16 -74 -2.5 -127t-61.5 -53l17 -72q70 0 102 74q38 72 15 178l-56 250h-237zM446 250l54 -250h170q16 -74 -2.5 -127t-61.5 -53l17 -72q70 0 102 74q35 69 12 178l-53 250h-238z" />
<glyph unicode="&#x2022;" horiz-adv-x="866" d="M10 537q31 -131 140 -228q113 -94 235 -94q129 0 197 92q72 97 41 230q-25 131 -138 229q-111 94 -235 94q-125 0 -197 -94q-72 -96 -43 -229z" />
<glyph unicode="&#x2026;" horiz-adv-x="1376" d="M98.5 125q10.5 -53 53.5 -89t94 -36q49 0 74.5 36t15.5 89t-52 89t-91 36q-51 0 -78 -36t-16.5 -89zM540.5 125q10.5 -53 54.5 -89t93 -36t75.5 36t16.5 89t-53 89t-92 36q-51 0 -78 -36t-16.5 -89zM983 125q10 -53 54 -89t93 -36t76 36t17 89t-53.5 89t-92.5 36 q-51 0 -77.5 -36t-16.5 -89z" />
<glyph unicode="&#x202f;" horiz-adv-x="359" />
<glyph unicode="&#x2039;" horiz-adv-x="727" d="M-23 694l31 -143l461 -285l49 121l-381 236l281 233l-99 121z" />
<glyph unicode="&#x203a;" horiz-adv-x="727" d="M-57 856l381 -233l-281 -236l100 -121l340 285l-30 143l-461 283z" />
<glyph unicode="&#x205f;" horiz-adv-x="449" />
<glyph unicode="&#x20ac;" horiz-adv-x="1550" d="M-47 807h168q2 -23 6 -45.5t8 -44.5q6 -23 11.5 -45.5t13.5 -44.5h-115l-22 -144h198q59 -117 144.5 -210t193.5 -167q111 -72 222.5 -107.5t228.5 -35.5q193 0 340 105l-47 219q-127 -143 -330 -144q-162 0 -318 93q-156 96 -252 247h629l19 144h-719q-10 23 -15.5 45 t-9.5 45q-6 23 -10 45t-4 45h780l21 143h-791q33 154 148 246q119 94 278 94q201 0 391 -143l23 178q-219 143 -451 143q-236 0 -391 -143q-160 -147 -180 -375h-146z" />
<glyph unicode="&#x2122;" horiz-adv-x="1490" d="M-180 1434l28 -125h222l133 -629h119l-134 629h189l131 -629h119l-109 520l289 -520h117l67 518l109 -518h121l-160 754h-166l-74 -553l-307 553h-694z" />
<glyph unicode="&#xe000;" horiz-adv-x="1075" d="M0 0v1075h1075v-1075h-1075z" />
</font>
</defs>
</svg>
