<?xml version="1.0" standalone="no"?>
<!DOCTYPE svg PUBLIC "-//W3C//DTD SVG 1.1//EN" "http://www.w3.org/Graphics/SVG/1.1/DTD/svg11.dtd" >
<svg xmlns="http://www.w3.org/2000/svg">
<metadata></metadata>
<defs>
<font id="florencesans_compitalic" horiz-adv-x="210" >
<font-face units-per-em="2048" ascent="1638" descent="-410" />
<missing-glyph horiz-adv-x="423" />
<glyph horiz-adv-x="2048" />
<glyph horiz-adv-x="2048" />
<glyph unicode="&#xd;" horiz-adv-x="1024" />
<glyph unicode=" "  horiz-adv-x="423" />
<glyph unicode="&#x09;" horiz-adv-x="423" />
<glyph unicode="&#xa0;" horiz-adv-x="423" />
<glyph unicode="!" horiz-adv-x="245" d="M88 36q8 -36 33 -36t51.5 36t36.5 89t0 89t-33 36q-27 0 -51.5 -36t-34.5 -89t-2 -89zM180 393h53l236 1041h-84z" />
<glyph unicode="&#x22;" horiz-adv-x="450" d="M315 1014q-6 -47 13 -47q16 0 32 47l144 491h-121zM520 1014q-6 -47 12 -47q16 0 33 47l144 491h-121z" />
<glyph unicode="#" horiz-adv-x="567" d="M193 608h90l-52 -215h68l51 215h103l-52 -215h68l53 215h113l31 144h-109l57 215h97l30 143h-90l54 215h-68l-55 -215h-103l56 215h-70l-53 -215h-113l-31 -143h109l-58 -215h-98zM387 752l57 215h103l-58 -215h-102z" />
<glyph unicode="$" horiz-adv-x="669" d="M128 221q1 -74 28 -131q43 -96 129 -121l-31 -149h86l31 149q102 27 180 121q102 115 139 297q43 205 -8 301q-35 66 -135 103l104 491q49 -20 70 -68q16 -33 17 -73.5t-9 -89.5h86q16 86 16 157q0 72 -22 131q-41 100 -119 125l31 148h-86l-31 -148q-90 -25 -172 -125 q-94 -119 -127 -288q-43 -199 -2 -297q33 -76 127 -109l-106 -495q-53 12 -84 63q-33 63 -9 174h-86q-18 -92 -17 -166zM389 1051q18 96 76 163q41 49 100 68l-100 -463q-49 25 -72 66q-29 59 -4 166zM410 150l98 466q66 -25 84 -59q39 -57 14 -170q-23 -102 -73 -161.5 t-123 -75.5z" />
<glyph unicode="%" horiz-adv-x="849" d="M88 0h86l893 1434h-86zM295 856q25 -104 98 -104q70 0 144 104q71 107 102 254q31 152 4 254q-29 104 -98 104q-72 0 -142 -104q-39 -53 -63.5 -115.5t-40.5 -138.5q-31 -152 -4 -254zM365 958q-16 68 2 152q10 45 25.5 83t35.5 69q45 63 86 63q20 0 36.5 -15.5 t22.5 -45.5q16 -66 -2 -154t-63 -152q-41 -63 -86 -63q-39 0 -57 63zM496 184.5q-2 -63.5 12 -116.5q27 -104 100 -105q70 0 142 105q35 53 62.5 116.5t41.5 137.5q33 147 2 253q-25 104 -94 105q-72 0 -146 -105q-37 -53 -61.5 -115.5t-40.5 -137.5q-16 -74 -18 -137.5z M580 170q-16 66 2 152q10 45 25.5 83.5t35.5 69.5q43 61 88 62q41 0 57 -62q16 -65 -2 -153t-63 -152t-84 -64q-43 0 -59 64z" />
<glyph unicode="&#x26;" horiz-adv-x="647" d="M126 232.5q-1 -74.5 15 -140.5q33 -129 121 -129q100 0 211 141l8 -104h103l-23 244q14 23 23.5 46t19.5 46l82 194l-63 72l-78 -186l-37 385q43 45 72.5 79.5t44.5 57.5q59 92 84 213q29 137 2 225q-25 92 -88 92q-68 0 -129 -92q-63 -94 -95 -225q-6 -39 -10 -78t0 -80 q2 -12 4 -47t8 -94q-49 -51 -84.5 -97t-64.5 -87q-35 -59 -61.5 -127t-43.5 -142q-20 -92 -21 -166.5zM223 304q2 46 13 99q10 49 28.5 93.5t46.5 85.5q27 43 105 123l41 -449q-82 -115 -158 -115q-49 0 -68 78q-10 39 -8 85zM480 1109.5q1 20.5 7 43.5q12 57 39 98t56 41 t42 -42t-1 -101q-14 -78 -66 -129l-63 -68l-13 119q-2 18 -1 38.5z" />
<glyph unicode="'" horiz-adv-x="245" d="M315 1014q-6 -47 13 -47q16 0 32 47l144 491h-121z" />
<glyph unicode="(" horiz-adv-x="313" d="M135 195q-4 -90 2 -183.5t25 -191.5h51q-8 106 -6 202.5t6 184.5q6 88 24.5 192.5t43.5 227.5q29 123 54 227t58 193q29 88 69 184t93 203h-51q-115 -190 -187 -377q-68 -178 -122 -430q-25 -125 -40.5 -232.5t-19.5 -199.5z" />
<glyph unicode=")" horiz-adv-x="313" d="M25 -180h53q55 98 102 191t82 184q35 92 65.5 199.5t55.5 232.5q29 127 43 233.5t18 196.5q4 92 -2 185t-22 192h-53q6 -106 6 -203q0 -96 -8 -184q-10 -88 -24.5 -192.5t-43.5 -227.5q-25 -123 -54.5 -227.5t-58 -192.5t-68.5 -184.5t-91 -202.5z" />
<glyph unicode="*" horiz-adv-x="454" d="M244 852l6 -127l121 119l-49 -236h67l49 236l72 -119l63 127l-73 115l123 116l-11 127l-120 -118l49 233h-68l-51 -233l-70 118l-59 -127l72 -116z" />
<glyph unicode="+" horiz-adv-x="464" d="M162 465h135l-61 -287h69l60 287h137l30 143h-137l62 287h-68l-61 -287h-135z" />
<glyph unicode="," horiz-adv-x="245" d="M49 -240q-6 -47 12 -47q16 0 33 47l142 490h-119z" />
<glyph unicode="-" horiz-adv-x="464" d="M162 465h340l30 143h-339z" />
<glyph unicode="." horiz-adv-x="245" d="M88 36q8 -36 33 -36t51.5 36t36.5 89t0 89t-33 36q-27 0 -51.5 -36t-34.5 -89t-2 -89z" />
<glyph unicode="/" horiz-adv-x="425" d="M20 -100l66 -62l586 1516l-68 61z" />
<glyph unicode="0" horiz-adv-x="663" d="M162 207q12 -123 53 -183.5t107 -60.5q131 0 270 244q59 111 104 237t76 273q31 145 39 272t-4 236q-31 244 -166 243q-133 0 -264 -243q-61 -109 -106.5 -236t-77.5 -272q-61 -293 -31 -510zM248 336q-16 162 31 381q23 111 55.5 205t73.5 176q102 193 196 192 q98 0 115 -192q8 -82 -1 -176t-32 -205t-54.5 -205t-74.5 -176q-47 -98 -98 -145.5t-99 -47.5q-94 0 -112 193z" />
<glyph unicode="1" horiz-adv-x="663" d="M354 0h84l305 1434h-84l-262 -381l29 -115l184 268z" />
<glyph unicode="2" horiz-adv-x="663" d="M76 0h510l37 178h-400q61 131 199 264q92 92 147.5 148.5t75.5 83.5q117 154 160 358q47 205 -12 326q-47 111 -152 110q-98 0 -192 -100q-53 -59 -91.5 -138t-58.5 -179h84q25 121 98 188q57 51 119 51q68 0 105 -55q23 -35 25.5 -86t-11.5 -117q-37 -178 -178 -327 q-66 -68 -131.5 -135.5t-130.5 -133.5q-152 -184 -203 -436z" />
<glyph unicode="3" horiz-adv-x="663" d="M119 221q2 -127 63 -196q55 -61 129 -62q109 0 211 115q115 133 160 352q57 264 -51 377q117 86 160 287q20 96 15 167.5t-32 120.5q-49 86 -143 86q-78 0 -148 -57q-88 -66 -135 -201l66 -61q55 141 180 141q61 0 92 -37q41 -47 19 -159q-20 -96 -89 -154 q-53 -45 -108 -45h-51l-37 -178h51q66 0 109 -70q47 -80 16 -217q-27 -141 -107 -223q-63 -63 -139 -64q-133 0 -139 168z" />
<glyph unicode="4" horiz-adv-x="663" d="M119 287h375l-62 -287h86l62 287h84l36 178h-84l207 969h-73l-594 -969zM248 465l432 702l-150 -702h-282z" />
<glyph unicode="5" horiz-adv-x="663" d="M135 326q-6 -168 45 -265q51 -98 135 -98q111 0 224 156q57 78 96.5 173t66.5 210q49 229 0 382.5t-159 153.5q-88 0 -181 -100l68 315h348l37 181h-432l-147 -697l65 -65q45 88 99.5 138t105.5 50q78 0 108 -100q35 -100 4 -258q-18 -78 -44.5 -141.5t-67.5 -116.5 q-78 -100 -154 -101q-25 0 -48 15.5t-40 46.5q-37 63 -35 166z" />
<glyph unicode="6" horiz-adv-x="663" d="M166 207q35 -244 166 -244q111 0 221 154q119 160 168 389q47 229 -2 387q-49 152 -158 151q-129 0 -246 -206q29 92 60 169.5t67 139.5q88 143 170 143q90 0 111 -155l88 104q-33 229 -160 229q-131 0 -270 -243q-59 -109 -103.5 -236t-74.5 -272q-61 -293 -37 -510z M250 369.5q-2 62.5 14 134.5q35 160 109 258q74 104 149 104q74 0 111 -100q31 -110 2 -262q-18 -78 -45 -142.5t-68 -115.5q-80 -102 -153 -103q-68 0 -101 109q-16 55 -18 117.5z" />
<glyph unicode="7" horiz-adv-x="663" d="M143 0h103l612 1253l37 181h-459l-39 -181h363z" />
<glyph unicode="8" horiz-adv-x="663" d="M150 430q-49 -223 12 -352q49 -115 160 -115q109 0 213 115q110 129 159 352q55 268 -53 377q117 82 160 287q41 193 -15 288q-49 86 -145 86q-94 0 -176 -86q-102 -98 -141 -288q-43 -205 38 -287q-158 -111 -212 -377zM236 430q27 137 110 217q68 70 135 70 q70 0 113 -70q45 -82 14 -217q-14 -72 -41.5 -127t-64.5 -96q-63 -63 -142 -64q-72 0 -110 64q-45 78 -14 223zM410 1094q20 109 88 159q45 37 106 37t92 -37q44 -48 21 -159q-20 -94 -90 -154q-51 -45 -107 -45q-53 0 -86 45q-45 57 -24 154z" />
<glyph unicode="9" horiz-adv-x="663" d="M156 193q35 -229 159 -230q133 0 267 244q61 111 106 237t78 273q61 291 31 508q-25 244 -162 243q-111 0 -223 -151q-57 -80 -99.5 -176.5t-64.5 -212.5q-49 -227 0 -387q45 -152 158 -152q129 0 245 207q-57 -188 -129 -309q-84 -143 -170 -144q-88 0 -108 156z M332 670q-33 104 0 259.5t110 258.5q80 102 154 102q70 0 100 -108q35 -115 2 -252q-31 -158 -106 -260q-74 -102 -150 -103q-74 0 -110 103z" />
<glyph unicode=":" horiz-adv-x="245" d="M88 36q8 -36 33 -36t51.5 36t36.5 89t0 89t-33 36q-27 0 -51.5 -36t-34.5 -89t-2 -89zM224 681q9 -36 36 -36q25 0 50.5 36t35.5 89q12 53 1 89t-36 36t-49 -36t-37 -89q-10 -53 -1 -89z" />
<glyph unicode=";" horiz-adv-x="245" d="M49 -240q-6 -47 12 -47q16 0 33 47l142 490h-119zM224 681q9 -36 36 -36q25 0 50.5 36t35.5 89q12 53 1 89t-36 36t-49 -36t-37 -89q-10 -53 -1 -89z" />
<glyph unicode="&#x3c;" horiz-adv-x="448" d="M162 465l203 -389l61 119l-176 342l321 344l-10 118l-368 -391z" />
<glyph unicode="=" horiz-adv-x="464" d="M127 305h340l31 144h-340zM195 627h342l28 143h-340z" />
<glyph unicode="&#x3e;" horiz-adv-x="448" d="M104 195l13 -119l366 389l31 143l-201 391l-63 -118l178 -344z" />
<glyph unicode="?" horiz-adv-x="432" d="M121 36q8 -36 35 -36q25 0 51.5 36t36.5 89t-0.5 89t-34.5 36q-25 0 -50.5 -36t-35.5 -89t-2 -89zM215 393h51q16 61 26.5 106.5t18.5 73.5q18 72 46 125.5t59 89.5q27 29 51.5 56.5t52.5 56.5q29 39 51.5 98.5t38.5 139.5q31 135 4 231q-25 98 -86 98q-70 0 -129 -98 q-66 -96 -94 -231h86q12 59 42 105t59 46t39 -46t-5 -105q-20 -96 -80 -174q-29 -35 -54 -68t-54 -68q-29 -45 -51.5 -98t-36.5 -117q0 -8 -9.5 -62t-25.5 -159z" />
<glyph unicode="@" horiz-adv-x="1009" d="M133 180q-2 -164 33 -301q74 -274 256 -274q61 0 131 41l12 118q-63 -33 -116 -32q-160 0 -222 237q-61 233 9 568q72 334 233 569q164 238 322 237q158 0 219 -235q63 -238 -6 -571q-35 -154 -99 -273q-74 -139 -139 -139q-33 0 -40 51t7 117l1 6t3 16l160 625h-63 l-37 -145q-12 172 -109 172q-88 0 -180 -144q-90 -141 -129 -325q-37 -160 -12 -277q29 -115 102 -115q98 0 197 173q-25 -115 -7 -197q14 -82 74 -82q92 0 193 174q94 160 137 363q80 385 8 659q-70 272 -254 272t-371 -272q-188 -276 -268 -659q-43 -193 -45 -357z M440 322q-20 82 4 190q29 127 93 225q68 96 129 97q55 0 73 -80q10 -39 11 -88q-1 -48 -13 -103q-25 -125 -94 -227q-66 -94 -127 -94q-55 0 -76 80z" />
<glyph unicode="A" horiz-adv-x="626" d="M20 0h91l125 322h290l-10 -322h90l58 1434h-93zM305 502l258 669l-26 -669h-232z" />
<glyph unicode="B" horiz-adv-x="636" d="M63 0h306q84 0 172 113q90 112 127 290q17 78 17 139q0 126 -71 181q121 88 168 307q20 86 20 158q0 75 -22 135q-37 111 -123 111h-290zM186 178l95 449h221q49 0 76 -60q13 -37 13 -83q0 -38 -9 -81q-23 -102 -74 -165q-53 -59 -100 -60h-222zM322 807l94 446h205 q47 0 73 -57q15 -37 15 -82q0 -39 -11 -84q-23 -100 -75 -164q-47 -59 -99 -59h-202z" />
<glyph unicode="C" horiz-adv-x="706" d="M159 429v-9q0 -127 27 -236q55 -221 205 -221q147 0 301 221l-35 123q-117 -164 -229 -164q-111 0 -156 168q-22 78 -22 172q0 107 29 234q49 236 165 405q117 168 228 168t157 -166l89 125q-55 219 -209 219q-145 0 -297 -221q-76 -111 -131.5 -243t-88 -287.5 t-33.5 -287.5z" />
<glyph unicode="D" horiz-adv-x="712" d="M63 0h256q139 0 285 209q146 213 207 508q33 157 33 291q0 116 -25 215q-55 211 -196 211h-256zM186 178l230 1075h170q106 0 145 -157q20 -73 20 -160q0 -100 -26 -219q-45 -221 -156 -381q-111 -158 -213 -158h-170z" />
<glyph unicode="E" horiz-adv-x="602" d="M63 0h476l39 178h-392l95 449h307l39 180h-305l94 446h391l37 181h-477z" />
<glyph unicode="F" horiz-adv-x="571" d="M63 0h87l131 627h307l39 180h-305l94 446h391l37 181h-477z" />
<glyph unicode="G" horiz-adv-x="751" d="M159 429v-9q0 -127 27 -236q55 -221 205 -221q92 0 189.5 90t181.5 250l106 504h-299l-39 -180h215l-55 -267q-125 -217 -262 -217q-111 0 -156 168q-22 78 -22 172q0 107 29 234q49 236 165 405q117 168 228 168q66 0 109.5 -60.5t60.5 -168.5l92 102q-18 145 -78.5 225 t-146.5 80q-145 0 -297 -221q-76 -111 -131.5 -243t-88 -287.5t-33.5 -287.5z" />
<glyph unicode="H" horiz-adv-x="669" d="M63 0h87l131 627h374l-133 -627h86l303 1434h-84l-133 -627h-372l131 627h-86z" />
<glyph unicode="I" d="M63 0h87l303 1434h-86z" />
<glyph unicode="J" horiz-adv-x="516" d="M76 203q8 -111 48 -175.5t99 -64.5q94 0 193 143q96 144 139 343l211 985h-258l-39 -181h174l-172 -804q-14 -63 -36.5 -116.5t-51.5 -99.5q-61 -90 -121 -90q-80 0 -92 144z" />
<glyph unicode="K" horiz-adv-x="595" d="M63 0h87l114 537l137 202l70 -739h102l-84 868l390 566h-121l-441 -643l136 643h-86z" />
<glyph unicode="L" horiz-adv-x="487" d="M63 0h392l39 178h-308l267 1256h-86z" />
<glyph unicode="M" horiz-adv-x="802" d="M63 0h87l256 1208l-50 -1208h93l462 1202l-256 -1202h84l305 1434h-135l-452 -1172l47 1172h-137z" />
<glyph unicode="N" horiz-adv-x="669" d="M63 0h87l235 1110l137 -1110h86l303 1434h-84l-235 -1112l-139 1112h-86z" />
<glyph unicode="O" horiz-adv-x="798" d="M186 184q55 -221 205 -221q147 0 301 221q149 220 217 533q35 169 35 310q0 122 -26 222q-55 219 -209 219q-145 0 -297 -219q-152 -223 -219 -532q-33 -165 -33 -304q0 -125 26 -229zM272 311q-22 78 -22 172q0 107 29 234q49 236 165 405q117 168 228 168 q113 0 157 -168q21 -79 21 -170v-16q-2 -100 -27 -219q-27 -119 -66.5 -219.5t-99.5 -186.5q-117 -168 -229 -168q-111 0 -156 168z" />
<glyph unicode="P" horiz-adv-x="595" d="M63 0h87l131 627h204q84 0 172 112q88 115 125 291q20 86 20 158q0 75 -22 135q-37 111 -123 111h-290zM322 807l94 446h205q47 0 73 -57q15 -37 15 -82q0 -39 -11 -84q-23 -100 -75 -164q-47 -59 -99 -59h-202z" />
<glyph unicode="Q" horiz-adv-x="798" d="M159 450v-30q0 -107 19 -203q43 -215 172 -248l-71 -327h86l69 327q143 35 277 248q72 109 118.5 233t79.5 267q35 169 35 310q0 121 -26 222q-55 219 -209 219q-145 0 -297 -219q-152 -223 -219 -532q-31 -143 -34 -267zM253 517q3 93 26 200q49 236 165 405 q117 168 228 168q113 0 157 -168q21 -79 21 -170v-16q-2 -100 -27 -219q-47 -217 -143 -373q-102 -162 -207 -194l45 208h-84l-45 -208q-94 33 -125 194q-12 66 -12 141q0 16 1 32z" />
<glyph unicode="R" horiz-adv-x="630" d="M63 0h87l131 627h102q43 0 69.5 -31t30.5 -94l47 -502h103l-47 502q-16 137 -37 141q76 37 139 141q68 109 94 246q20 86 20 158q0 75 -22 135q-37 111 -123 111h-290zM322 807l94 446h205q47 0 73 -57q15 -37 15 -82q0 -39 -11 -84q-23 -100 -75 -164q-47 -59 -99 -59 h-202z" />
<glyph unicode="S" horiz-adv-x="653" d="M135 387q-16 -77 -16 -142q0 -106 43 -179q53 -102 157 -103q98 0 203 100q115 125 158 324q20 93 20 164q0 124 -61 182q-47 23 -96 46.5t-97 45.5q-77 42 -77 145q0 37 10 81q25 119 100 188q61 51 121 51q63 0 100 -53q29 -41 29 -108q0 -36 -8 -78h86q15 75 15 139 q0 19 -1 37q-6 78 -35 137q-53 104 -149 104q-98 0 -193 -104q-111 -119 -149 -313q-20 -96 -20 -169q0 -128 61 -186q47 -23 95 -45t95 -45q79 -43 79 -144q0 -34 -9 -75q-27 -131 -107 -194q-61 -49 -133 -50q-70 0 -108 50q-36 42 -35 115q0 36 8 79h-86z" />
<glyph unicode="T" horiz-adv-x="585" d="M250 0h86l266 1253h221l39 181h-528l-39 -181h223z" />
<glyph unicode="U" horiz-adv-x="653" d="M164 133q43 -170 155 -170q106 0 230 170q55 86 97 185.5t67 218.5l190 897h-84l-190 -897q-16 -82 -46 -151t-69 -128q-78 -115 -158 -115q-82 0 -106 115q-14 52 -15 113q0 8 1 15q2 69 18 151l190 897h-86l-190 -897q-26 -124 -26 -229q0 -96 22 -175z" />
<glyph unicode="V" horiz-adv-x="626" d="M266 0h92l551 1434h-88l-452 -1172l47 1172h-92z" />
<glyph unicode="W" horiz-adv-x="909" d="M215 0h88l389 1110l-86 -1110h88l502 1434h-90l-387 -1110l84 1110h-88l-389 -1110l88 1110h-90z" />
<glyph unicode="X" horiz-adv-x="634" d="M23 0h106l307 559l68 -559h104l-86 717l391 717h-104l-305 -560l-70 560h-106l88 -717z" />
<glyph unicode="Y" horiz-adv-x="626" d="M270 0h86l146 686l407 748h-104l-305 -560l-70 560h-106l92 -748z" />
<glyph unicode="Z" horiz-adv-x="653" d="M53 0h545l39 178h-430l659 1075l37 181h-545l-36 -181h430l-660 -1075z" />
<glyph unicode="[" horiz-adv-x="329" d="M25 -180h204l37 180h-116l266 1253h119l36 181h-204z" />
<glyph unicode="\" horiz-adv-x="425" d="M268 -162l94 62l60 1515l-92 -61z" />
<glyph unicode="]" horiz-adv-x="329" d="M25 -180h204l342 1614h-204l-37 -181h121l-269 -1253h-119z" />
<glyph unicode="^" horiz-adv-x="471" d="M207 672l47 -60l223 523v-523l74 60v653h-70z" />
<glyph unicode="_" horiz-adv-x="446" d="M0 0h446v143h-446v-143z" />
<glyph unicode="`" horiz-adv-x="262" d="M367 1434l41 -215h51l-6 215h-86z" />
<glyph unicode="a" horiz-adv-x="649" d="M127 322v-20q0 -88 16 -165q37 -174 146 -174q127 0 252 230l-41 -193h86l229 1075h-86l-41 -194q-27 229 -156 229q-109 0 -219 -172q-109 -172 -157 -401q-27 -117 -29 -215zM236 258q-14 57 -13 121q0 74 17 158q18 84 46.5 151.5t67.5 126.5q80 117 158 117 q41 0 66.5 -29t42.5 -88q11 -50 11 -110q0 -76 -18 -168q-33 -158 -112 -279q-82 -115 -158 -115q-78 0 -108 115z" />
<glyph unicode="b" horiz-adv-x="649" d="M63 0h87l40 193q25 -229 156 -230q111 0 217 174q55 86 94 184.5t66 215.5q26 132 26 242q0 86 -16 159q-37 172 -143 172q-129 0 -254 -229l117 553h-86zM244 386q2 69 20 151q16 84 44 151.5t69 126.5q76 117 158 117q76 0 104 -117q17 -56 17 -124q0 -71 -19 -154 q-33 -160 -115 -279q-82 -115 -157 -115q-80 0 -107 115q-14 52 -14 113v15z" />
<glyph unicode="c" horiz-adv-x="583" d="M128 318v-8q0 -95 22 -177q43 -170 157 -170q63 0 133 60.5t129 166.5l-49 97q-88 -143 -176 -144q-78 0 -108 115q-14 57 -14 121q0 74 18 158t46.5 151.5t67.5 126.5q80 117 158 117q86 0 115 -144l90 97q-16 106 -59.5 165.5t-106.5 59.5q-113 0 -229 -168 q-117 -170 -166 -405q-27 -119 -28 -219z" />
<glyph unicode="d" horiz-adv-x="649" d="M127 322v-20q0 -88 16 -165q37 -174 146 -174q127 0 252 230l-41 -193h86l305 1434h-86l-117 -553q-27 229 -156 229q-109 0 -219 -172q-109 -172 -157 -401q-27 -117 -29 -215zM236 258q-14 57 -13 121q0 74 17 158q18 84 46.5 151.5t67.5 126.5q80 117 158 117 q41 0 66.5 -29t42.5 -88q11 -50 11 -110q0 -76 -18 -168q-33 -158 -112 -279q-82 -115 -158 -115q-78 0 -108 115z" />
<glyph unicode="e" horiz-adv-x="628" d="M128 318v-8q0 -95 22 -177q43 -170 157 -170q63 0 133 60.5t129 166.5l-49 97q-88 -143 -176 -144q-68 0 -98 86q-16 43 -20 99q-2 29 -3 61q0 29 2 60h453q8 23 13 44t9 44q25 119 27 219v17q0 91 -20 169q-43 168 -156 168t-229 -168q-117 -170 -166 -405 q-27 -119 -28 -219zM264 627q43 129 113 219q68 86 135 86q61 0 96 -86q25 -58 25 -137q0 -38 -6 -82h-363z" />
<glyph unicode="f" horiz-adv-x="319" d="M14 -358h86l246 1146h84l37 179h-84l49 233q8 37 26.5 64.5t35.5 27.5q10 0 24 -20l74 162q-22 34 -58 34h-2q-53 0 -108 -77q-25 -39 -45.5 -87.5t-32.5 -103.5l-49 -233h-49l-39 -179h51z" />
<glyph unicode="g" horiz-adv-x="649" d="M63 -186q41 -209 166 -209q113 0 228 170q121 170 166 403l192 897h-86l-41 -194q-12 104 -53 168q-41 61 -103 61q-109 0 -219 -172q-109 -172 -157 -401q-27 -117 -29 -215v-20q0 -88 16 -165q37 -174 146 -174q59 0 129 64q68 61 123 166q-18 -86 -46 -160t-69 -131 q-74 -117 -160 -117q-84 0 -114 143zM236 258q-14 57 -14 121q0 74 18 158t46.5 151.5t67.5 126.5q80 117 158 117q41 0 66.5 -29t42.5 -88q11 -50 11 -110q0 -76 -18 -168q-33 -158 -112 -279q-82 -115 -158 -115q-78 0 -108 115z" />
<glyph unicode="h" horiz-adv-x="561" d="M63 0h87l137 645q12 59 32.5 110.5t49.5 92.5q59 84 114 84t78 -84q11 -41 11 -90q0 -53 -13 -113l-137 -645h84l137 645q19 92 23 173q1 17 0 33q0 62 -13 116q-27 143 -116 143q-92 0 -187 -158l103 482h-86z" />
<glyph unicode="i" d="M63 0h87l229 1075h-86zM331 1254q9 -36 34 -35q25 0 50.5 35.5t35.5 88.5q5 27 5 50q0 22 -4 39q-10 36 -34 36q-27 0 -50.5 -35.5t-35.5 -89.5q-5 -28 -5 -51q0 -21 4 -38z" />
<glyph unicode="j" d="M-123 -356q27 -39 57 -39q49 0 111 80q25 39 45.5 87t30.5 103l258 1200h-86l-258 -1200q-8 -37 -26.5 -63.5t-35.5 -26.5q-14 0 -22 20zM331 1254q9 -35 34 -35t50.5 35.5t35.5 88.5q5 27 5 50q0 21 -4 39q-10 36 -34 36q-27 0 -50.5 -35.5t-35.5 -89.5q-5 -28 -5 -51 q0 -21 4 -38z" />
<glyph unicode="k" horiz-adv-x="528" d="M63 0h87l67 322l135 200l51 -522h103l-64 651l293 424h-121l-344 -500l183 859h-86z" />
<glyph unicode="l" d="M63 0h87l303 1434h-86z" />
<glyph unicode="m" horiz-adv-x="849" d="M63 0h87l137 645q10 57 27.5 106.5t45.5 92.5q51 88 105 88q51 0 70 -90q3 -27 3 -58q0 -16 -1 -32q-2 -50 -13 -107l-137 -645h84l137 645q10 57 29.5 106.5t44.5 92.5q55 88 109 88q49 0 65 -90q4 -32 4 -68q0 -60 -12 -129l-139 -645h86l139 645q18 92 21 174v26 q0 67 -13 124q-27 141 -115 141q-111 0 -204 -209q0 209 -95 209q-90 0 -178 -158l29 123h-86z" />
<glyph unicode="n" horiz-adv-x="561" d="M63 0h87l137 645q12 59 32.5 110.5t49.5 92.5q59 84 114 84t78 -84q11 -41 11 -90q0 -53 -13 -113l-137 -645h84l137 645q19 92 23 173q1 17 0 33q0 62 -13 116q-27 143 -116 143q-92 0 -187 -158l29 123h-86z" />
<glyph unicode="o" horiz-adv-x="628" d="M128 318v-8q0 -95 22 -177q43 -170 157 -170q111 0 228 170q59 86 98.5 185.5t66.5 218.5q25 119 27 219v17q0 91 -20 169q-43 168 -156 168t-229 -168q-117 -170 -166 -405q-27 -119 -28 -219zM236 258q-14 57 -14 121q0 74 18 158t46.5 151.5t67.5 126.5 q80 117 158 117q41 0 66.5 -29t42.5 -88q11 -50 11 -110q0 -76 -18 -168q-33 -158 -112 -279q-82 -115 -158 -115q-78 0 -108 115z" />
<glyph unicode="p" horiz-adv-x="649" d="M-14 -358h86l118 551q25 -229 156 -230q111 0 217 174q55 86 94 184.5t66 215.5q26 132 26 242q0 86 -16 159q-37 172 -143 172q-129 0 -254 -229l43 194h-86zM244 386q2 69 20 151q16 84 44 151.5t69 126.5q76 117 158 117q76 0 104 -117q17 -56 17 -124q0 -71 -19 -154 q-33 -160 -115 -279q-82 -115 -157 -115q-80 0 -107 115q-14 52 -14 113v15z" />
<glyph unicode="q" horiz-adv-x="649" d="M127 322v-20q0 -88 16 -165q37 -174 146 -174q127 0 252 230l-119 -551h86l307 1433h-86l-41 -194q-27 229 -156 229q-109 0 -219 -172q-109 -172 -157 -401q-27 -117 -29 -215zM236 258q-14 57 -14 121q0 74 18 158t46.5 151.5t67.5 126.5q80 117 158 117q41 0 66.5 -29 t42.5 -88q11 -50 11 -110q0 -76 -18 -168q-33 -158 -112 -279q-82 -115 -158 -115q-78 0 -108 115z" />
<glyph unicode="r" horiz-adv-x="364" d="M63 0h87l137 645q12 59 32.5 110.5t49.5 92.5q59 84 114 84q23 -1 43 -21l41 195q-8 4 -30 4q-92 0 -187 -158l29 123h-86z" />
<glyph unicode="s" horiz-adv-x="534" d="M117 295q-13 -60 -13 -111q0 -80 31 -141q45 -80 125 -80q41 0 79 20.5t79 59.5q94 98 125 252q16 73 16 129q0 96 -47 141q-2 8 -145 72q-59 27 -59 98q0 21 5 45q18 80 68 121q39 31 84 31q43 0 72 -31q16 -20 20 -50q1 -9 1 -18q0 -24 -7 -53h86q15 63 14 117 q0 75 -28 131q-43 82 -119 82q-78 0 -154 -82q-45 -47 -75.5 -109.5t-47.5 -138.5q-15 -75 -15 -132q0 -97 44 -140q8 -6 145 -72q62 -27 62 -96q0 -21 -6 -45q-31 -152 -160 -152q-49 0 -76 27q-24 24 -24 71q0 24 6 54h-86z" />
<glyph unicode="t" horiz-adv-x="356" d="M57 -358h86l267 1253h102l39 180h-100l51 250h-86l-51 -250h-103l-41 -180h103z" />
<glyph unicode="u" horiz-adv-x="561" d="M135 106q29 -144 115 -143q94 0 186 158l-24 -121h84l229 1075h-84l-137 -645q-25 -117 -84 -203q-59 -84 -113 -84q-57 0 -80 84q-9 36 -9 82q0 54 13 121l138 645h-86l-138 -645q-22 -103 -22 -194q0 -69 12 -130z" />
<glyph unicode="v" horiz-adv-x="544" d="M225 0h94l435 1075h-92l-340 -837l20 837h-92z" />
<glyph unicode="w" horiz-adv-x="794" d="M186 0h90l287 784l-45 -784h90l393 1075h-88l-290 -784l47 784h-88l-289 -784l45 784h-88z" />
<glyph unicode="x" horiz-adv-x="514" d="M23 0h106l207 379l47 -379h109l-68 537l297 538h-109l-209 -381l-45 381h-106l67 -538z" />
<glyph unicode="y" horiz-adv-x="544" d="M33 -377q20 -18 37 -18q90 0 155 170l529 1300h-92l-340 -837l20 837h-92l-25 -1075l-67 -166q-18 -49 -52 -49q-16 0 -34 18z" />
<glyph unicode="z" horiz-adv-x="567" d="M53 0h461l37 178h-340l494 717l38 180h-460l-39 -180h338l-490 -717z" />
<glyph unicode="{" horiz-adv-x="391" d="M170 -82q27 -98 78 -98h41l37 180h-33q-23 0 -33 39t0 86l62 287q12 68 6 139q-8 76 -41 76q31 0 75 78q16 35 30 68.5t20 68.5l61 286q10 47 37 86t49 39h35l37 181h-41q-51 0 -117 -97q-57 -94 -84 -209l-65 -305q-10 -49 -35 -77.5t-49 -28.5h-25l-37 -180h25 q25 0 36 -29t1 -78l-64 -305q-25 -111 -6 -207z" />
<glyph unicode="|" d="M25 -180h86l342 1614h-86z" />
<glyph unicode="}" horiz-adv-x="391" d="M25 -180h43q51 0 112 98q63 100 88 207l66 305q10 49 32.5 78t49.5 29h24l39 180h-26q-25 0 -35 28.5t0 77.5l63 305q12 55 13 107q0 53 -11 102q-25 96 -73 97h-43l-37 -181h35q23 0 32 -38.5t-2 -86.5l-59 -286q-8 -35 -10 -69t4 -68q2 -78 35 -78q-31 0 -70 -76 t-51 -139l-62 -287q-10 -47 -36.5 -86t-49.5 -39h-33z" />
<glyph unicode="~" horiz-adv-x="468" d="M166 487l51 -53q31 76 55 76q29 0 66 -43q43 -43 70 -43q61 0 122 158l-51 55q-33 -78 -57 -78q-25 0 -68 43q-37 43 -63 43q-63 0 -125 -158z" />
<glyph unicode="&#xa1;" horiz-adv-x="245" d="M43 -180h84l205 1040h-53zM301 1039.5q8 -35.5 35 -35.5q23 0 49.5 35.5t36.5 88.5t1 89t-34 36q-27 0 -51.5 -35.5t-34.5 -89t-2 -89z" />
<glyph unicode="&#xa2;" horiz-adv-x="614" d="M162 164q35 -164 125 -193l-41 -186h86l41 186q112 33 221 219l-53 97q-63 -102 -131 -133l163 768q57 -33 76 -134l88 99q-29 184 -125 217l39 186h-86l-39 -186q-104 -33 -204 -195q-100 -154 -144 -372q-47 -215 -16 -373zM244 407.5q4 61.5 20 129.5q14 70 36 131 t54 114q66 109 133 140l-163 -768q-51 31 -74 139q-10 53 -6 114.5z" />
<glyph unicode="&#xa3;" horiz-adv-x="618" d="M125 0h426l39 178h-340l94 449h170l39 180h-170l39 178q25 125 86 215q66 90 123 90q76 0 92 -143l94 84q-8 111 -48 174t-101 63q-94 0 -193 -143q-96 -137 -139 -340l-39 -178h-84l-39 -180h84z" />
<glyph unicode="&#xa4;" horiz-adv-x="774" d="M164 483h100q-6 -117 5.5 -210t43.5 -167q66 -143 181 -143q96 0 200 105l47 219q-109 -143 -211 -144q-78 0 -127 93q-49 94 -49 247h314l55 144h-358q4 23 7 45t7 45q6 23 11 45t13 45h392l55 143h-395q33 78 71.5 138.5t81.5 107.5q86 94 166 94q102 0 150 -143 l69 178q-61 143 -182 143q-111 0 -240 -143q-61 -72 -112 -165t-94 -210h-74l-55 -143h83q-8 -23 -13 -45.5t-11 -44.5q-4 -23 -8 -45.5t-8 -44.5h-58z" />
<glyph unicode="&#xa5;" horiz-adv-x="710" d="M164 305h215l-66 -305h84l66 305h213l31 144h-213l36 178h213l31 143h-184l362 664h-104l-305 -560l-70 560h-106l82 -664h-185l-31 -143h213l-38 -178h-213z" />
<glyph unicode="&#xa6;" d="M25 -180h86l149 700h-86zM219 735h86l148 699h-86z" />
<glyph unicode="&#xa7;" horiz-adv-x="550" d="M98 170q-31 -164 19 -252q45 -80 125 -80t157 80q94 94 125 252q20 88 16.5 149.5t-26.5 100.5q39 41 68.5 99.5t46.5 133.5q41 199 -31 271q-4 8 -145 71q-37 16 -52.5 53t-3.5 91q18 80 68 121q43 31 86 30q41 0 70 -30q33 -39 16 -121h86q31 152 -14 247 q-43 82 -121 82t-152 -82q-47 -47 -76.5 -109.5t-46.5 -137.5q-37 -176 9 -250q-80 -82 -111 -236q-43 -197 25 -272q8 -4 43.5 -21.5t103.5 -48.5q80 -35 55 -141q-31 -152 -159 -152q-49 0 -76 27q-39 43 -19 125h-86zM295 653q18 86 67 125q39 31 82 31q41 0 76 -31 q39 -43 23 -125q-18 -82 -70 -121q-37 -31 -80 -30q-49 0 -76 33q-41 43 -22 118z" />
<glyph unicode="&#xa8;" horiz-adv-x="380" d="M347 1279.5q9 -26.5 26 -26.5q16 0 33.5 26.5t27.5 63.5q8 39 1 65t-25 26q-16 0 -35 -26t-27 -65q-10 -37 -1 -63.5zM518 1279.5q8 -26.5 25 -26.5q16 0 34.5 26.5t26.5 63.5q8 39 1 65t-25 26q-16 0 -35 -26t-27 -65q-8 -37 0 -63.5z" />
<glyph unicode="&#xa9;" horiz-adv-x="663" d="M178 164q43 -164 152 -164q111 0 225 164q113 165 164 401q25 117 25.5 215.5t-21.5 182.5q-43 166 -154 165q-111 0 -223 -165q-115 -162 -164 -397.5t-4 -401.5zM223 236q-35 135 6 329q39 188 136 328q96 137 184 137t129 -137q16 -70 15 -151t-21 -177 q-20 -98 -54 -180t-81 -149q-94 -137 -187 -138q-88 0 -127 138zM276 297q27 -109 103 -109q75 0 149 111l-16 61q-57 -82 -115 -81q-57 0 -75 83q-23 82 0 203q25 119 86 201q55 86 112 86q55 0 78 -84l45 63q-16 55 -39.5 82t-64.5 27q-76 0 -150 -111q-78 -111 -110 -264 q-31 -162 -3 -268z" />
<glyph unicode="&#xaa;" horiz-adv-x="534" d="M274 731q20 -131 107 -131q94 0 190 172l-32 -145h65l172 807h-65l-31 -146q-23 172 -115 172q-88 0 -164 -129q-41 -63 -70.5 -138t-49.5 -163q-37 -174 -7 -299zM340 821q-20 86 4 209q29 125 86 209q61 86 119 86q57 0 80 -86q10 -43 10 -96q0 -54 -14 -113 q-25 -121 -86 -209q-55 -86 -117 -86q-55 0 -82 86z" />
<glyph unicode="&#xab;" horiz-adv-x="694" d="M137 354l176 -354l64 121l-152 305l283 307l-14 119l-326 -354zM420 354l174 -354l61 121l-147 305l278 307l-10 119l-325 -354z" />
<glyph unicode="&#xac;" horiz-adv-x="464" d="M162 465h272l-39 -178h70l67 321h-339z" />
<glyph unicode="&#xad;" horiz-adv-x="464" d="M162 465h340l30 143h-339z" />
<glyph unicode="&#xae;" horiz-adv-x="663" d="M178 164q43 -164 152 -164q111 0 225 164q113 165 164 401q25 117 25.5 215.5t-21.5 182.5q-43 166 -154 165q-111 0 -223 -165q-115 -162 -164 -397.5t-4 -401.5zM223 236q-35 135 6 329q39 188 136 328q96 137 184 137t129 -137q16 -70 15 -151t-21 -177 q-43 -197 -140 -338l-24 230q-2 59 -14 71q35 16 68.5 69.5t47.5 125.5q18 82 -2 143q-23 57 -63 58h-146l-151 -717h43l67 313h50q45 0 51 -63l22 -250h33q-41 -53 -81 -81t-83 -28q-88 0 -127 138zM377 608l47 226h102q27 0 39 -31t2 -80q-10 -51 -36.5 -83t-51.5 -32 h-102z" />
<glyph unicode="&#xaf;" horiz-adv-x="380" d="M336 1290h258l29 144h-256z" />
<glyph unicode="&#xb0;" horiz-adv-x="313" d="M323 1095.5q13 -57.5 54 -57.5q39 0 80 57.5t57 141.5q16 82 1 139.5t-54 57.5q-41 0 -79 -57.5t-56 -139.5q-16 -84 -3 -141.5zM357 1147q-9 37 3 90q10 53 35 89t51 36q25 0 34 -36t-1 -89t-36.5 -90t-49.5 -37q-27 0 -36 37z" />
<glyph unicode="&#xb1;" horiz-adv-x="464" d="M63 0h340l31 143h-342zM201 645h135l-60 -287h68l62 287h135l30 143h-135l60 287h-68l-61 -287h-136z" />
<glyph unicode="&#xb2;" horiz-adv-x="380" d="M215 717h256l21 90h-201q12 33 36.5 64.5t59.5 66.5q47 43 74.5 72.5t38.5 42.5q29 39 49 83t31 97q23 102 -5 164q-29 55 -77 55q-51 0 -97 -51q-55 -61 -75 -160h43q16 66 49 96q27 25 61 25q33 0 49 -29q10 -16 14.5 -40.5t-5.5 -59.5q-16 -84 -88 -164l-132 -133 q-76 -94 -102 -219z" />
<glyph unicode="&#xb3;" horiz-adv-x="387" d="M238 827q6 -129 98 -129q53 0 104 58q57 63 82 176q25 133 -28 188q61 45 81 144q18 92 -10 145q-23 43 -69 43q-94 0 -144 -129l35 -31q25 70 92 70q74 0 53 -98q-12 -47 -45 -78q-12 -10 -26.5 -15.5t-24.5 -5.5h-28l-17 -90h27q31 0 51 -35q10 -20 14 -46.5t-4 -61.5 q-16 -74 -55 -111q-31 -33 -68 -33q-66 0 -71 84z" />
<glyph unicode="&#xb4;" horiz-adv-x="262" d="M322 1219h53l129 215h-84z" />
<glyph unicode="&#xb6;" horiz-adv-x="712" d="M199 -358h84l344 1611h102l-344 -1611h86l344 1611h103l36 181h-374q-84 0 -172 -111q-88 -123 -127 -293q-37 -174 4 -293q41 -111 123 -110z" />
<glyph unicode="&#xb7;" horiz-adv-x="245" d="M175 448q9 -36 34 -36t50.5 36t37.5 89q10 53 0 90t-33 37q-27 0 -51.5 -37t-34.5 -90q-12 -53 -3 -89z" />
<glyph unicode="&#xb8;" horiz-adv-x="262" d="M-14 -358h67q29 0 58 42t41 101q10 49 4 89t-27 50l35 111h-35l-51 -160h26q16 0 23.5 -26.5t-0.5 -63.5q-6 -37 -25.5 -63.5t-35.5 -26.5h-60z" />
<glyph unicode="&#xb9;" horiz-adv-x="258" d="M305 717h43l152 717h-43l-129 -191l14 -57l92 135z" />
<glyph unicode="&#xba;" horiz-adv-x="534" d="M276 725q31 -125 117 -125t172 125q88 129 125 305q37 180 4 303q-35 127 -116 127q-86 0 -172 -127q-84 -125 -125 -303q-37 -180 -5 -305zM340 821q-20 86 4 209q29 125 86 209q61 86 119 86q57 0 80 -86q10 -43 10 -96q0 -54 -14 -113q-25 -121 -86 -209 q-55 -86 -117 -86q-55 0 -82 86z" />
<glyph unicode="&#xbb;" horiz-adv-x="694" d="M88 121l12 -121l326 354l31 144l-176 354l-62 -119l152 -307zM369 121l12 -121l326 354l30 144l-174 354l-63 -119l151 -307z" />
<glyph unicode="&#xbc;" horiz-adv-x="464" d="M150 115h149l-25 -115h33l27 115h33l14 71h-33l82 387h-29l-237 -387zM199 186l174 281l-60 -281h-114zM207 680h342l14 72h-342zM436 860h33l123 574h-35l-104 -152l12 -45l72 104z" />
<glyph unicode="&#xbd;" horiz-adv-x="464" d="M131 0h205l14 72h-157q10 27 29.5 52.5t45.5 53.5q39 35 59.5 57.5t30.5 32.5q45 59 64 144q10 41 8 72.5t-12 58.5q-18 45 -60 45q-37 0 -77 -41q-45 -47 -60 -127h33q12 51 39 74q23 23 47 22q29 0 41 -22q18 -27 8 -82q-14 -70 -74 -131q-27 -27 -51 -53.5t-51 -53.5 q-61 -78 -82 -174zM207 680h342l14 72h-342zM436 860h33l123 574h-35l-104 -152l12 -45l72 104z" />
<glyph unicode="&#xbe;" horiz-adv-x="464" d="M150 115h149l-25 -115h33l27 115h33l14 71h-33l82 387h-29l-237 -387zM199 186l174 281l-60 -281h-114zM207 680h342l14 72h-342zM332 950q2 -104 76 -104q43 0 86 47q43 49 61 139q25 106 -18 150q23 18 38 45.5t23 68.5q16 80 -4 117q-20 35 -57 35q-72 0 -115 -105 l27 -24q25 57 71 57q59 0 45 -80q-8 -39 -35 -59q-12 -10 -21 -14t-22 -4h-20l-16 -72h20q31 0 45 -29q16 -39 6 -86q-12 -55 -43 -90q-25 -25 -57 -24q-49 0 -55 67z" />
<glyph unicode="&#xbf;" horiz-adv-x="432" d="M82 -117q20 -98 88 -98q61 0 127 98q67 95 96 234h-84q-14 -61 -42.5 -107.5t-57.5 -46.5t-39 46t4 108q18 96 76 174q29 35 54.5 66.5t51.5 66.5q63 92 90 215q2 10 11.5 63.5t25.5 157.5h-49q-18 -59 -29.5 -104t-17.5 -76q-41 -141 -104 -215q-25 -29 -51.5 -56.5 t-53.5 -56.5q-29 -39 -51.5 -98t-38.5 -137q-31 -135 -6 -234zM454.5 1039.5q8.5 -35.5 34.5 -35.5q25 0 50.5 35.5t35.5 88.5t1 89t-33 36q-27 0 -51.5 -35.5t-35 -89t-2 -89z" />
<glyph unicode="&#xc0;" horiz-adv-x="626" d="M20 0h91l125 322h290l-10 -322h90l58 1434h-93zM305 502l258 669l-26 -669h-232zM584 1792l39 -215h51l-4 215h-86z" />
<glyph unicode="&#xc1;" horiz-adv-x="626" d="M20 0h91l125 322h290l-10 -322h90l58 1434h-93zM305 502l258 669l-26 -669h-232zM623 1577h51l133 215h-86z" />
<glyph unicode="&#xc2;" horiz-adv-x="626" d="M20 0h91l125 322h290l-10 -322h90l58 1434h-93zM305 502l258 669l-26 -669h-232zM547 1577h49l80 129l22 -129h54l-23 215h-67z" />
<glyph unicode="&#xc3;" horiz-adv-x="626" d="M20 0h91l125 322h290l-10 -322h90l58 1434h-93zM305 502l258 669l-26 -669h-232zM532 1640l35 -55q33 86 47 86q20 0 52 -47q23 -47 45 -47q43 0 100 158l-37 53q-29 -86 -47 -86t-47 47q-25 49 -45 49q-47 0 -103 -158z" />
<glyph unicode="&#xc4;" horiz-adv-x="626" d="M20 0h91l125 322h290l-10 -322h90l58 1434h-93zM305 502l258 669l-26 -669h-232zM539 1602.5q6 -25.5 24 -25.5t36 25.5t26 64.5q10 37 1.5 62.5t-26.5 25.5q-16 0 -33.5 -25.5t-25.5 -62.5q-8 -39 -2 -64.5zM709 1602.5q6 -25.5 24 -25.5t36 25.5t26 64.5 q10 37 1.5 62.5t-26.5 25.5q-16 0 -32.5 -25.5t-26.5 -62.5q-8 -39 -2 -64.5z" />
<glyph unicode="&#xc5;" horiz-adv-x="626" d="M20 0h91l125 322h290l-10 -322h90l58 1397q25 29 44 68.5t29 93.5q18 80 0 139q-12 57 -51 57t-78 -57q-23 -29 -35 -64t-22 -75q-23 -109 4 -164zM305 502l258 669l-26 -669h-232zM583 1469.5q-8 35.5 2.5 89t35 89t51.5 35.5q25 0 34 -35.5t-1 -88.5t-36 -89t-51 -36 q-27 0 -35 35.5z" />
<glyph unicode="&#xc6;" horiz-adv-x="968" d="M20 0h91l125 322h290l-10 -322h391l37 178h-307l96 449h221l41 180h-223l94 446h308l36 181h-389l-194 -908l37 908h-93zM305 502l258 669l-26 -669h-232z" />
<glyph unicode="&#xc7;" horiz-adv-x="706" d="M178 213q43 -213 174 -246l-39 -129h25q18 0 25.5 -26.5t-1.5 -63.5q-8 -35 -26.5 -61.5t-34.5 -26.5h-59l-21 -55h68q29 0 57.5 42t40.5 101q10 51 5 91t-27 50l22 74q151 0 305 221l-35 123q-117 -164 -229 -164q-111 0 -156 168q-47 168 7 406q49 236 165 405 q117 168 228 168t157 -166l89 125q-55 219 -209 219q-145 0 -297 -221q-76 -111 -131.5 -243t-87.5 -287q-61 -287 -15 -504z" />
<glyph unicode="&#xc8;" horiz-adv-x="602" d="M63 0h476l39 178h-392l95 449h307l39 180h-305l94 446h391l37 181h-477zM571 1792l39 -215h52l-5 215h-86z" />
<glyph unicode="&#xc9;" horiz-adv-x="602" d="M63 0h476l39 178h-392l95 449h307l39 180h-305l94 446h391l37 181h-477zM610 1577h52l133 215h-86z" />
<glyph unicode="&#xca;" horiz-adv-x="602" d="M63 0h476l39 178h-392l95 449h307l39 180h-305l94 446h391l37 181h-477zM535 1577h51l78 129l24 -129h49l-20 215h-68z" />
<glyph unicode="&#xcb;" horiz-adv-x="602" d="M63 0h476l39 178h-392l95 449h307l39 180h-305l94 446h391l37 181h-477zM526 1602.5q6 -25.5 25 -25.5q18 0 35.5 25.5t25.5 64.5q8 37 1 62.5t-23 25.5q-18 0 -35.5 -25.5t-26.5 -62.5q-8 -39 -2 -64.5zM696 1602.5q6 -25.5 27 -25.5q16 0 33.5 25.5t25.5 64.5 q10 37 2 62.5t-24 25.5q-18 0 -35.5 -25.5t-26.5 -62.5q-8 -39 -2 -64.5z" />
<glyph unicode="&#xcc;" d="M63 0h87l303 1434h-86zM377 1792l39 -215h49l-2 215h-86z" />
<glyph unicode="&#xcd;" d="M63 0h87l303 1434h-86zM416 1577h49l133 215h-86z" />
<glyph unicode="&#xce;" d="M63 0h87l303 1434h-86zM338 1577h51l78 129l25 -129h51l-21 215h-69z" />
<glyph unicode="&#xcf;" d="M63 0h87l303 1434h-86zM331 1602.5q7 -25.5 23 -25.5q18 0 37 25.5t27 64.5q8 37 1 62.5t-26 25.5q-18 0 -34.5 -25.5t-24.5 -62.5q-10 -39 -3 -64.5zM502 1602.5q6 -25.5 22 -25.5q20 0 38 25.5t26 64.5q8 37 1 62.5t-26 25.5q-18 0 -34.5 -25.5t-24.5 -62.5 q-8 -39 -2 -64.5z" />
<glyph unicode="&#xd0;" horiz-adv-x="776" d="M125 0h256q139 0 285 209q76 106 126.5 233.5t81.5 274.5t33 273t-26 233q-51 211 -195 211h-256l-133 -627h-84l-31 -143h84zM250 178l102 486h170l31 143h-170l96 446h170q106 0 146 -157q42 -156 -7 -379q-25 -113 -61.5 -207t-93.5 -174q-109 -158 -213 -158h-170z " />
<glyph unicode="&#xd1;" horiz-adv-x="669" d="M63 0h87l235 1110l137 -1110h86l303 1434h-84l-235 -1112l-139 1112h-86zM553 1640l39 -55q27 86 45 86q20 0 49 -47q25 -47 47 -47q44 0 101 158l-37 53q-29 -86 -45 -86t-52 47q-25 49 -45 49q-41 0 -102 -158z" />
<glyph unicode="&#xd2;" horiz-adv-x="798" d="M186 184q55 -221 205 -221q147 0 301 221q149 220 217 533q66 315 9 532q-55 219 -209 219q-145 0 -297 -219q-152 -223 -219 -532q-63 -311 -7 -533zM272 311q-47 168 7 406q49 236 165 405q117 168 228 168q113 0 157 -168q23 -86 21 -186t-27 -219 q-27 -119 -66.5 -219.5t-99.5 -186.5q-117 -168 -229 -168q-111 0 -156 168zM670 1792l39 -215h51l-6 215h-84z" />
<glyph unicode="&#xd3;" horiz-adv-x="798" d="M186 184q55 -221 205 -221q147 0 301 221q149 220 217 533q66 315 9 532q-55 219 -209 219q-145 0 -297 -219q-152 -223 -219 -532q-63 -311 -7 -533zM272 311q-47 168 7 406q49 236 165 405q117 168 228 168q113 0 157 -168q23 -86 21 -186t-27 -219 q-27 -119 -66.5 -219.5t-99.5 -186.5q-117 -168 -229 -168q-111 0 -156 168zM709 1577h51l131 215h-84z" />
<glyph unicode="&#xd4;" horiz-adv-x="798" d="M186 184q55 -221 205 -221q147 0 301 221q149 220 217 533q66 315 9 532q-55 219 -209 219q-145 0 -297 -219q-152 -223 -219 -532q-63 -311 -7 -533zM272 311q-47 168 7 406q49 236 165 405q117 168 228 168q113 0 157 -168q23 -86 21 -186t-27 -219 q-27 -119 -66.5 -219.5t-99.5 -186.5q-117 -168 -229 -168q-111 0 -156 168zM631 1577h51l78 129l24 -129h52l-23 215h-68z" />
<glyph unicode="&#xd5;" horiz-adv-x="798" d="M186 184q55 -221 205 -221q147 0 301 221q149 220 217 533q66 315 9 532q-55 219 -209 219q-145 0 -297 -219q-152 -223 -219 -532q-63 -311 -7 -533zM272 311q-47 168 7 406q49 236 165 405q117 168 228 168q113 0 157 -168q23 -86 21 -186t-27 -219 q-27 -119 -66.5 -219.5t-99.5 -186.5q-117 -168 -229 -168q-111 0 -156 168zM618 1640l37 -55q27 86 47 86q18 0 48 -47q25 -47 45 -47q49 0 100 158l-33 53q-35 -86 -47 -86q-20 0 -49 47q-25 49 -47 49q-45 0 -101 -158z" />
<glyph unicode="&#xd6;" horiz-adv-x="798" d="M186 184q55 -221 205 -221q147 0 301 221q149 220 217 533q66 315 9 532q-55 219 -209 219q-145 0 -297 -219q-152 -223 -219 -532q-63 -311 -7 -533zM272 311q-47 168 7 406q49 236 165 405q117 168 228 168q113 0 157 -168q23 -86 21 -186t-27 -219 q-27 -119 -66.5 -219.5t-99.5 -186.5q-117 -168 -229 -168q-111 0 -156 168zM623 1602.5q6 -25.5 26 -25.5q16 0 35 25.5t27 64.5q10 37 0.5 62.5t-25.5 25.5q-18 0 -34.5 -25.5t-26.5 -62.5q-8 -39 -2 -64.5zM794 1602.5q7 -25.5 25 -25.5q16 0 35 25.5t27 64.5 q10 37 1.5 62.5t-26.5 25.5t-34.5 -25.5t-26.5 -62.5q-8 -39 -1 -64.5z" />
<glyph unicode="&#xd7;" horiz-adv-x="462" d="M123 285l27 -103l174 254l67 -254l70 103l-68 252l174 254l-26 102l-174 -254l-66 254l-70 -102l66 -254z" />
<glyph unicode="&#xd8;" horiz-adv-x="798" d="M31 53l16 -53l137 188q61 -225 207 -225q147 0 301 221q150 219 217 533q29 135 34 251.5t-15 221.5l143 190l-14 54l-139 -189q-57 223 -209 223q-145 0 -297 -219q-152 -223 -219 -532q-55 -264 -21 -473zM253 530.5q3 87.5 26 186.5q49 236 165 405q117 168 228 168 q112 0 157 -164l-567 -761q-12 78 -9 165.5zM272 307l568 762q26 -151 -17 -352q-27 -119 -66.5 -219.5t-99.5 -186.5q-117 -168 -229 -168q-113 0 -156 164z" />
<glyph unicode="&#xd9;" horiz-adv-x="653" d="M164 133q43 -170 155 -170q106 0 230 170q55 86 97 185.5t67 218.5l190 897h-84l-190 -897q-16 -82 -46 -151t-69 -128q-78 -115 -158 -115q-82 0 -106 115q-16 59 -14 128t18 151l190 897h-86l-190 -897q-49 -238 -4 -404zM598 1792l39 -215h51l-6 215h-84z" />
<glyph unicode="&#xda;" horiz-adv-x="653" d="M164 133q43 -170 155 -170q106 0 230 170q55 86 97 185.5t67 218.5l190 897h-84l-190 -897q-16 -82 -46 -151t-69 -128q-78 -115 -158 -115q-82 0 -106 115q-16 59 -14 128t18 151l190 897h-86l-190 -897q-49 -238 -4 -404zM637 1577h51l131 215h-84z" />
<glyph unicode="&#xdb;" horiz-adv-x="653" d="M164 133q43 -170 155 -170q106 0 230 170q55 86 97 185.5t67 218.5l190 897h-84l-190 -897q-16 -82 -46 -151t-69 -128q-78 -115 -158 -115q-82 0 -106 115q-16 59 -14 128t18 151l190 897h-86l-190 -897q-49 -238 -4 -404zM559 1577h51l78 129l25 -129h51l-23 215h-67z " />
<glyph unicode="&#xdc;" horiz-adv-x="653" d="M164 133q43 -170 155 -170q106 0 230 170q55 86 97 185.5t67 218.5l190 897h-84l-190 -897q-16 -82 -46 -151t-69 -128q-78 -115 -158 -115q-82 0 -106 115q-16 59 -14 128t18 151l190 897h-86l-190 -897q-49 -238 -4 -404zM552 1602.5q7 -25.5 26 -25.5q16 0 34.5 25.5 t26.5 64.5q10 37 1 62.5t-26 25.5q-16 0 -33.5 -25.5t-27.5 -62.5q-8 -39 -1 -64.5zM722 1602.5q7 -25.5 26 -25.5q16 0 34.5 25.5t26.5 64.5q10 37 2 62.5t-27 25.5q-16 0 -33.5 -25.5t-27.5 -62.5q-8 -39 -1 -64.5z" />
<glyph unicode="&#xdd;" horiz-adv-x="626" d="M270 0h86l146 686l407 748h-104l-305 -560l-70 560h-106l92 -748zM623 1577h51l133 215h-86z" />
<glyph unicode="&#xde;" horiz-adv-x="595" d="M63 0h87l65 313h205q86 0 172 113q88 115 125 291q37 172 -4 293q-39 111 -121 110h-205l66 314h-86zM252 494l98 446h203q47 0 74 -59q26 -70 6 -164q-10 -49 -29.5 -91t-48.5 -75q-49 -57 -98 -57h-205z" />
<glyph unicode="&#xdf;" horiz-adv-x="628" d="M25 -180h86l227 1075q33 154 98 270q74 125 144 125q147 0 108 -196q-20 -96 -90 -154q-53 -45 -106 -45h-52l-37 -178h50q72 0 110 -70q45 -84 17 -217q-14 -72 -42 -127t-67 -96q-63 -63 -139 -64q-33 0 -66 17l-55 -172q37 -25 82 -25q109 0 211 115q113 127 162 352 q12 66 16 124t-4 110q-10 47 -24.5 81.5t-41.5 61.5q117 86 160 287q41 193 -14 290q-43 84 -142 84q-106 0 -213 -176q-104 -172 -151 -397z" />
<glyph unicode="&#xe0;" horiz-adv-x="649" d="M127 321.5q-2 -98.5 16 -184.5q37 -174 146 -174q127 0 252 230l-41 -193h86l229 1075h-86l-41 -194q-27 229 -156 229q-109 0 -219 -172q-109 -172 -157 -401q-27 -117 -29 -215.5zM236 258q-29 121 4 279q18 84 46.5 151.5t67.5 126.5q80 117 158 117q41 0 66.5 -29 t42.5 -88q26 -114 -7 -278q-33 -158 -112 -279q-82 -115 -158 -115q-78 0 -108 115zM508 1434l41 -215h49l-4 215h-86z" />
<glyph unicode="&#xe1;" horiz-adv-x="649" d="M127 321.5q-2 -98.5 16 -184.5q37 -174 146 -174q127 0 252 230l-41 -193h86l229 1075h-86l-41 -194q-27 229 -156 229q-109 0 -219 -172q-109 -172 -157 -401q-27 -117 -29 -215.5zM236 258q-29 121 4 279q18 84 46.5 151.5t67.5 126.5q80 117 158 117q41 0 66.5 -29 t42.5 -88q26 -114 -7 -278q-33 -158 -112 -279q-82 -115 -158 -115q-78 0 -108 115zM549 1219h49l131 215h-86z" />
<glyph unicode="&#xe2;" horiz-adv-x="649" d="M127 321.5q-2 -98.5 16 -184.5q37 -174 146 -174q127 0 252 230l-41 -193h86l229 1075h-86l-41 -194q-27 229 -156 229q-109 0 -219 -172q-109 -172 -157 -401q-27 -117 -29 -215.5zM236 258q-29 121 4 279q18 84 46.5 151.5t67.5 126.5q80 117 158 117q41 0 66.5 -29 t42.5 -88q26 -114 -7 -278q-33 -158 -112 -279q-82 -115 -158 -115q-78 0 -108 115zM471 1219h51l78 129l23 -129h53l-25 215h-67z" />
<glyph unicode="&#xe3;" horiz-adv-x="649" d="M127 321.5q-2 -98.5 16 -184.5q37 -174 146 -174q127 0 252 230l-41 -193h86l229 1075h-86l-41 -194q-27 229 -156 229q-109 0 -219 -172q-109 -172 -157 -401q-27 -117 -29 -215.5zM236 258q-29 121 4 279q18 84 46.5 151.5t67.5 126.5q80 117 158 117q41 0 66.5 -29 t42.5 -88q26 -114 -7 -278q-33 -158 -112 -279q-82 -115 -158 -115q-78 0 -108 115zM459 1282l35 -55q27 86 47 86q18 0 46.5 -47t49.5 -47q43 -1 98 157l-35 54q-31 -86 -49 -87q-20 0 -45 48q-25 49 -47 49q-47 0 -100 -158z" />
<glyph unicode="&#xe4;" horiz-adv-x="649" d="M127 321.5q-2 -98.5 16 -184.5q37 -174 146 -174q127 0 252 230l-41 -193h86l229 1075h-86l-41 -194q-27 229 -156 229q-109 0 -219 -172q-109 -172 -157 -401q-27 -117 -29 -215.5zM236 258q-29 121 4 279q18 84 46.5 151.5t67.5 126.5q80 117 158 117q41 0 66.5 -29 t42.5 -88q26 -114 -7 -278q-33 -158 -112 -279q-82 -115 -158 -115q-78 0 -108 115zM463 1244.5q8 -25.5 24 -25.5q18 0 35 25.5t27 64.5q8 37 2 62.5t-27 25.5q-16 0 -33.5 -25.5t-25.5 -62.5q-10 -39 -2 -64.5zM633 1244.5q8 -25.5 24 -25.5q18 0 36 25.5t26 64.5 q8 37 2 62.5t-27 25.5q-16 0 -33.5 -25.5t-25.5 -62.5q-10 -39 -2 -64.5z" />
<glyph unicode="&#xe5;" horiz-adv-x="649" d="M127 321.5q-2 -98.5 16 -184.5q37 -174 146 -174q127 0 252 230l-41 -193h86l229 1075h-86l-41 -194q-27 229 -156 229q-109 0 -219 -172q-109 -172 -157 -401q-27 -117 -29 -215.5zM236 258q-29 121 4 279q18 84 46.5 151.5t67.5 126.5q80 117 158 117q41 0 66.5 -29 t42.5 -88q26 -114 -7 -278q-33 -158 -112 -279q-82 -115 -158 -115q-78 0 -108 115zM519.5 1276q15.5 -57 53.5 -57q39 0 78.5 57t57.5 139q16 84 1.5 140.5t-55.5 56.5q-39 0 -77.5 -56.5t-55.5 -140.5q-18 -82 -2.5 -139zM554 1326q-9 36 1 89t35.5 89t50.5 36 q27 0 35 -36t-2 -89t-35 -89t-51 -36q-25 0 -34 36z" />
<glyph unicode="&#xe6;" horiz-adv-x="1087" d="M127 321.5q-2 -98.5 16 -184.5q37 -174 146 -174q131 0 252 230l-41 -193h86l41 193q29 -229 153 -230q121 0 250 227l-51 97q-88 -143 -176 -144q-66 0 -96 86q-33 84 -21 220h451q8 23 13 44t9 44q49 229 12 399q-33 174 -141 174q-133 0 -256 -229l41 194h-86 l-41 -194q-27 229 -156 229q-109 0 -219 -172q-109 -172 -157 -401q-27 -117 -29 -215.5zM236 258q-29 121 4 279q18 84 46.5 151.5t67.5 126.5q80 117 158 117q41 0 66.5 -29t42.5 -88q26 -114 -7 -278q-33 -158 -112 -279q-82 -115 -158 -115q-78 0 -108 115zM723 627 q23 66 51.5 121t63.5 98q68 86 133 86q66 0 96 -86q20 -43 24 -98t-4 -121h-364z" />
<glyph unicode="&#xe7;" horiz-adv-x="583" d="M135 -395h70q27 0 56.5 42t41.5 101q10 51 4 91t-28 50l24 74q135 0 266 227l-49 97q-88 -143 -176 -144q-78 0 -108 115q-29 121 4 279q18 84 46.5 151.5t67.5 126.5q80 117 158 117q86 0 115 -144l90 97q-16 106 -59.5 165.5t-106.5 59.5q-113 0 -229 -168 q-117 -170 -166 -405q-47 -213 -13 -375q31 -162 125 -193l-41 -131h27q18 0 24.5 -26.5t-2.5 -63.5q-8 -35 -25.5 -61.5t-33.5 -26.5h-61z" />
<glyph unicode="&#xe8;" horiz-adv-x="628" d="M128 318.5q-1 -99.5 22 -185.5q43 -170 157 -170q63 0 133 60.5t129 166.5l-49 97q-88 -143 -176 -144q-68 0 -98 86q-16 43 -20.5 98.5t-0.5 121.5h453q8 23 13 44t9 44q25 119 27 219t-20 186q-43 168 -156 168t-229 -168q-117 -170 -166 -405q-27 -119 -28 -218.5z M264 627q43 129 113 219q68 86 135 86q61 0 96 -86q37 -86 19 -219h-363zM508 1434l41 -215h49l-4 215h-86z" />
<glyph unicode="&#xe9;" horiz-adv-x="628" d="M128 318.5q-1 -99.5 22 -185.5q43 -170 157 -170q63 0 133 60.5t129 166.5l-49 97q-88 -143 -176 -144q-68 0 -98 86q-16 43 -20.5 98.5t-0.5 121.5h453q8 23 13 44t9 44q25 119 27 219t-20 186q-43 168 -156 168t-229 -168q-117 -170 -166 -405q-27 -119 -28 -218.5z M264 627q43 129 113 219q68 86 135 86q61 0 96 -86q37 -86 19 -219h-363zM549 1219h49l131 215h-86z" />
<glyph unicode="&#xea;" horiz-adv-x="628" d="M128 318.5q-1 -99.5 22 -185.5q43 -170 157 -170q63 0 133 60.5t129 166.5l-49 97q-88 -143 -176 -144q-68 0 -98 86q-16 43 -20.5 98.5t-0.5 121.5h453q8 23 13 44t9 44q25 119 27 219t-20 186q-43 168 -156 168t-229 -168q-117 -170 -166 -405q-27 -119 -28 -218.5z M264 627q43 129 113 219q68 86 135 86q61 0 96 -86q37 -86 19 -219h-363zM471 1219h51l78 129l23 -129h53l-25 215h-67z" />
<glyph unicode="&#xeb;" horiz-adv-x="628" d="M128 318.5q-1 -99.5 22 -185.5q43 -170 157 -170q63 0 133 60.5t129 166.5l-49 97q-88 -143 -176 -144q-68 0 -98 86q-16 43 -20.5 98.5t-0.5 121.5h453q8 23 13 44t9 44q25 119 27 219t-20 186q-43 168 -156 168t-229 -168q-117 -170 -166 -405q-27 -119 -28 -218.5z M264 627q43 129 113 219q68 86 135 86q61 0 96 -86q37 -86 19 -219h-363zM463 1244.5q8 -25.5 24 -25.5q18 0 35 25.5t27 64.5q8 37 2 62.5t-27 25.5q-16 0 -33.5 -25.5t-25.5 -62.5q-10 -39 -2 -64.5zM633 1244.5q8 -25.5 24 -25.5q18 0 36 25.5t26 64.5q8 37 2 62.5 t-27 25.5q-16 0 -33.5 -25.5t-25.5 -62.5q-10 -39 -2 -64.5z" />
<glyph unicode="&#xec;" d="M63 0h87l229 1075h-86zM299 1434l41 -215h51l-6 215h-86z" />
<glyph unicode="&#xed;" d="M63 0h87l229 1075h-86zM340 1219h51l131 215h-86z" />
<glyph unicode="&#xee;" d="M63 0h87l229 1075h-86zM264 1219h49l80 129l23 -129h51l-23 215h-67z" />
<glyph unicode="&#xef;" d="M63 0h87l229 1075h-86zM255 1244.5q7 -25.5 24 -25.5q20 0 36.5 25.5t24.5 64.5q8 37 2 62.5t-25 25.5q-18 0 -35.5 -25.5t-25.5 -62.5q-8 -39 -1 -64.5zM425 1244.5q7 -25.5 26 -25.5q18 0 34.5 25.5t24.5 64.5q10 37 3 62.5t-26 25.5q-16 0 -34.5 -25.5t-26.5 -62.5 q-8 -39 -1 -64.5z" />
<glyph unicode="&#xf0;" horiz-adv-x="698" d="M128 318.5q-1 -99.5 22 -185.5q43 -170 157 -170q111 0 228 170q59 86 99 185.5t66 218.5l138 645h84l30 143h-86l25 109h-86l-25 -109h-84l-30 -143h86l-64 -301q-27 229 -156 229q-109 0 -219 -172q-109 -172 -157 -401q-27 -119 -28 -218.5zM236 258q-29 121 4 279 q18 84 46.5 151.5t67.5 126.5q80 117 158 117q41 0 66.5 -29t42.5 -88q26 -114 -7 -278q-33 -158 -112 -279q-82 -115 -158 -115q-78 0 -108 115z" />
<glyph unicode="&#xf1;" horiz-adv-x="561" d="M63 0h87l137 645q12 59 32.5 110.5t49.5 92.5q59 84 114 84t78 -84q23 -86 -2 -203l-137 -645h84l137 645q18 92 22.5 173t-12.5 149q-27 143 -116 143q-92 0 -187 -158l29 123h-86zM426 1282l39 -55q27 86 45 86q23 0 47 -47q29 -47 51 -47q42 -1 99 157l-37 54 q-29 -86 -47 -87q-18 0 -48 48q-29 49 -47 49q-43 0 -102 -158z" />
<glyph unicode="&#xf2;" horiz-adv-x="628" d="M128 318.5q-1 -99.5 22 -185.5q43 -170 157 -170q111 0 228 170q59 86 98.5 185.5t66.5 218.5q25 119 27 219t-20 186q-43 168 -156 168t-229 -168q-117 -170 -166 -405q-27 -119 -28 -218.5zM236 258q-29 121 4 279q18 84 46.5 151.5t67.5 126.5q80 117 158 117 q41 0 66.5 -29t42.5 -88q26 -114 -7 -278q-33 -158 -112 -279q-82 -115 -158 -115q-78 0 -108 115zM508 1434l41 -215h49l-4 215h-86z" />
<glyph unicode="&#xf3;" horiz-adv-x="628" d="M128 318.5q-1 -99.5 22 -185.5q43 -170 157 -170q111 0 228 170q59 86 98.5 185.5t66.5 218.5q25 119 27 219t-20 186q-43 168 -156 168t-229 -168q-117 -170 -166 -405q-27 -119 -28 -218.5zM236 258q-29 121 4 279q18 84 46.5 151.5t67.5 126.5q80 117 158 117 q41 0 66.5 -29t42.5 -88q26 -114 -7 -278q-33 -158 -112 -279q-82 -115 -158 -115q-78 0 -108 115zM549 1219h49l131 215h-86z" />
<glyph unicode="&#xf4;" horiz-adv-x="628" d="M128 318.5q-1 -99.5 22 -185.5q43 -170 157 -170q111 0 228 170q59 86 98.5 185.5t66.5 218.5q25 119 27 219t-20 186q-43 168 -156 168t-229 -168q-117 -170 -166 -405q-27 -119 -28 -218.5zM236 258q-29 121 4 279q18 84 46.5 151.5t67.5 126.5q80 117 158 117 q41 0 66.5 -29t42.5 -88q26 -114 -7 -278q-33 -158 -112 -279q-82 -115 -158 -115q-78 0 -108 115zM471 1219h51l78 129l23 -129h53l-25 215h-67z" />
<glyph unicode="&#xf5;" horiz-adv-x="628" d="M128 318.5q-1 -99.5 22 -185.5q43 -170 157 -170q111 0 228 170q59 86 98.5 185.5t66.5 218.5q25 119 27 219t-20 186q-43 168 -156 168t-229 -168q-117 -170 -166 -405q-27 -119 -28 -218.5zM236 258q-29 121 4 279q18 84 46.5 151.5t67.5 126.5q80 117 158 117 q41 0 66.5 -29t42.5 -88q26 -114 -7 -278q-33 -158 -112 -279q-82 -115 -158 -115q-78 0 -108 115zM459 1282l35 -55q27 86 47 86q18 0 46.5 -47t49.5 -47q43 -1 98 157l-35 54q-31 -86 -49 -87q-20 0 -45 48q-25 49 -47 49q-47 0 -100 -158z" />
<glyph unicode="&#xf6;" horiz-adv-x="628" d="M128 318.5q-1 -99.5 22 -185.5q43 -170 157 -170q111 0 228 170q59 86 98.5 185.5t66.5 218.5q25 119 27 219t-20 186q-43 168 -156 168t-229 -168q-117 -170 -166 -405q-27 -119 -28 -218.5zM236 258q-29 121 4 279q18 84 46.5 151.5t67.5 126.5q80 117 158 117 q41 0 66.5 -29t42.5 -88q26 -114 -7 -278q-33 -158 -112 -279q-82 -115 -158 -115q-78 0 -108 115zM463 1244.5q8 -25.5 24 -25.5q18 0 35 25.5t27 64.5q8 37 2 62.5t-27 25.5q-16 0 -33.5 -25.5t-25.5 -62.5q-10 -39 -2 -64.5zM633 1244.5q8 -25.5 24 -25.5q18 0 36 25.5 t26 64.5q8 37 2 62.5t-27 25.5q-16 0 -33.5 -25.5t-25.5 -62.5q-10 -39 -2 -64.5z" />
<glyph unicode="&#xf7;" horiz-adv-x="464" d="M162 465h340l30 143h-339zM198.5 36q8.5 -36 34.5 -36q23 0 49.5 36t36.5 89t1 89t-33 36q-27 0 -51.5 -36t-35 -89t-2 -89zM374 860q9 -37 34 -37t50.5 37t35.5 90t0.5 89t-31.5 36q-27 0 -51.5 -35.5t-34.5 -89.5q-12 -53 -3 -90z" />
<glyph unicode="&#xf8;" horiz-adv-x="628" d="M31 53l16 -53l100 135q45 -172 160 -172q111 0 228 170q59 86 99 185.5t66 218.5q39 193 19 346l104 139l-12 53l-102 -135q-43 170 -158 170q-113 0 -229 -168q-117 -170 -166 -405q-20 -96 -25.5 -182.5t6.5 -161.5zM223 418.5q2 56.5 17 118.5q18 84 46.5 151.5 t67.5 126.5q80 117 158 117q71 0 106 -109l-391 -514q-6 53 -4 109.5zM238 252l391 514q12 -108 -15 -229q-33 -158 -112 -279q-82 -115 -158 -115q-74 0 -106 109z" />
<glyph unicode="&#xf9;" horiz-adv-x="561" d="M135 106.5q29 -143.5 115 -143.5q94 0 186 158l-24 -121h84l229 1075h-84l-137 -645q-25 -117 -84 -203q-59 -84 -113 -84q-57 0 -80 84q-20 80 4 203l138 645h-86l-138 -645q-39 -180 -10 -323.5zM469 1434l41 -215h51l-6 215h-86z" />
<glyph unicode="&#xfa;" horiz-adv-x="561" d="M135 106.5q29 -143.5 115 -143.5q94 0 186 158l-24 -121h84l229 1075h-84l-137 -645q-25 -117 -84 -203q-59 -84 -113 -84q-57 0 -80 84q-20 80 4 203l138 645h-86l-138 -645q-39 -180 -10 -323.5zM510 1219h51l131 215h-86z" />
<glyph unicode="&#xfb;" horiz-adv-x="561" d="M135 106.5q29 -143.5 115 -143.5q94 0 186 158l-24 -121h84l229 1075h-84l-137 -645q-25 -117 -84 -203q-59 -84 -113 -84q-57 0 -80 84q-20 80 4 203l138 645h-86l-138 -645q-39 -180 -10 -323.5zM434 1219h49l80 129l23 -129h51l-23 215h-67z" />
<glyph unicode="&#xfc;" horiz-adv-x="561" d="M135 106.5q29 -143.5 115 -143.5q94 0 186 158l-24 -121h84l229 1075h-84l-137 -645q-25 -117 -84 -203q-59 -84 -113 -84q-57 0 -80 84q-20 80 4 203l138 645h-86l-138 -645q-39 -180 -10 -323.5zM425 1244.5q7 -25.5 26 -25.5q18 0 34.5 25.5t24.5 64.5q10 37 3 62.5 t-26 25.5q-16 0 -34.5 -25.5t-26.5 -62.5q-8 -39 -1 -64.5zM595 1244.5q7 -25.5 26 -25.5q18 0 34.5 25.5t24.5 64.5q10 37 3 62.5t-26 25.5q-16 0 -33.5 -25.5t-27.5 -62.5q-8 -39 -1 -64.5z" />
<glyph unicode="&#xfd;" horiz-adv-x="544" d="M33 -377q20 -18 37 -18q90 0 155 170l529 1300h-92l-340 -837l20 837h-92l-25 -1075l-67 -166q-18 -49 -52 -49q-16 0 -34 18zM508 1219h49l131 215h-86z" />
<glyph unicode="&#xfe;" horiz-adv-x="649" d="M-14 -358h86l118 551q25 -229 156 -230q111 0 217 174q55 86 94 184.5t66 215.5q47 236 10 401q-37 172 -143 172q-129 0 -254 -229l117 553h-86zM244 386q2 69 20 151q16 84 44 151.5t69 126.5q76 117 158 117q76 0 104 -117q35 -116 -2 -278q-33 -160 -115 -279 q-82 -115 -157 -115q-80 0 -107 115q-16 59 -14 128z" />
<glyph unicode="&#xff;" horiz-adv-x="544" d="M33 -377q20 -18 37 -18q90 0 155 170l529 1300h-92l-340 -837l20 837h-92l-25 -1075l-67 -166q-18 -49 -52 -49q-16 0 -34 18zM421 1244.5q7 -25.5 28 -25.5q16 0 32.5 25.5t26.5 64.5q8 37 1 62.5t-24 25.5q-18 0 -35.5 -25.5t-27.5 -62.5q-8 -39 -1 -64.5zM592 1244.5 q8 -25.5 24 -25.5q18 0 35 25.5t27 64.5q8 37 2 62.5t-27 25.5q-16 0 -33.5 -25.5t-25.5 -62.5q-10 -39 -2 -64.5z" />
<glyph unicode="&#x152;" horiz-adv-x="1124" d="M186 184q55 -221 205 -221q162 0 328 266l-49 -229h393l37 178h-305l94 449h221l39 180h-221l96 446h305l39 181h-393l-49 -230q-49 264 -217 264q-145 0 -297 -219q-152 -223 -219 -532q-63 -311 -7 -533zM272 311q-47 168 7 406q49 236 165 405q117 168 228 168 q113 0 157 -168q23 -86 21 -186t-27 -219q-27 -119 -66.5 -219.5t-99.5 -186.5q-117 -168 -229 -168q-111 0 -156 168z" />
<glyph unicode="&#x153;" horiz-adv-x="1087" d="M128 318.5q-1 -99.5 22 -185.5q43 -170 157 -170q70 0 145.5 71.5t139.5 196.5q12 -125 58 -196.5t116 -71.5q66 0 134.5 60.5t129.5 166.5l-51 97q-88 -143 -176 -144q-66 0 -96 86q-33 84 -21 220h451q8 23 13 44t9 44q49 242 8 405q-45 168 -157 168q-70 0 -146 -70.5 t-141 -195.5q-10 125 -56 195.5t-116 70.5q-113 0 -229 -168q-117 -170 -166 -405q-27 -119 -28 -218.5zM236 258q-29 121 4 279q18 84 46.5 151.5t67.5 126.5q80 117 158 117q41 0 66.5 -29t42.5 -88q26 -114 -7 -278q-33 -158 -112 -279q-82 -115 -158 -115 q-78 0 -108 115zM723 627q23 66 51.5 121t63.5 98q68 86 133 86q66 0 96 -86q20 -43 24 -98t-4 -121h-364z" />
<glyph unicode="&#x178;" horiz-adv-x="626" d="M270 0h86l146 686l407 748h-104l-305 -560l-70 560h-106l92 -748zM539 1602.5q6 -25.5 24 -25.5t36 25.5t26 64.5q10 37 1.5 62.5t-26.5 25.5q-16 0 -33.5 -25.5t-25.5 -62.5q-8 -39 -2 -64.5zM709 1602.5q6 -25.5 24 -25.5t36 25.5t26 64.5q10 37 1.5 62.5t-26.5 25.5 q-16 0 -32.5 -25.5t-26.5 -62.5q-8 -39 -2 -64.5z" />
<glyph unicode="&#x2c6;" horiz-adv-x="329" d="M322 1219h53l76 129l26 -129h49l-22 215h-68z" />
<glyph unicode="&#x2dc;" horiz-adv-x="382" d="M334 1276l37 -53q31 86 47 86q20 0 45 -49q31 -47 49 -48q45 0 100 158l-34 55q-35 -86 -48 -86q-23 0 -49 45q-25 49 -47 50q-45 0 -100 -158z" />
<glyph unicode="&#x2000;" horiz-adv-x="899" />
<glyph unicode="&#x2001;" horiz-adv-x="1798" />
<glyph unicode="&#x2002;" horiz-adv-x="899" />
<glyph unicode="&#x2003;" horiz-adv-x="1798" />
<glyph unicode="&#x2004;" horiz-adv-x="599" />
<glyph unicode="&#x2005;" horiz-adv-x="449" />
<glyph unicode="&#x2006;" horiz-adv-x="299" />
<glyph unicode="&#x2007;" horiz-adv-x="299" />
<glyph unicode="&#x2008;" horiz-adv-x="224" />
<glyph unicode="&#x2009;" horiz-adv-x="359" />
<glyph unicode="&#x200a;" horiz-adv-x="99" />
<glyph unicode="&#x2010;" horiz-adv-x="464" d="M162 465h340l30 143h-339z" />
<glyph unicode="&#x2011;" horiz-adv-x="464" d="M162 465h340l30 143h-339z" />
<glyph unicode="&#x2012;" horiz-adv-x="464" d="M162 465h340l30 143h-339z" />
<glyph unicode="&#x2013;" horiz-adv-x="380" d="M162 465h256l31 143h-256z" />
<glyph unicode="&#x2014;" horiz-adv-x="550" d="M162 465h426l30 143h-425z" />
<glyph unicode="&#x2018;" horiz-adv-x="245" d="M262 932h119l53 250h-86q16 76 42 128t48 52l15 72q-35 0 -78 -74q-39 -76 -62 -178z" />
<glyph unicode="&#x2019;" horiz-adv-x="245" d="M295 932q37 0 74 74q45 72 65 176l53 252h-120l-54 -252h86q-16 -74 -42.5 -126t-47.5 -52z" />
<glyph unicode="&#x201a;" horiz-adv-x="245" d="M43 -252q35 0 76 74q40 72 63 178l54 250h-119l-54 -250h87q-16 -74 -43 -127t-48 -53z" />
<glyph unicode="&#x201c;" horiz-adv-x="432" d="M262 932h119l53 250h-86q16 76 42 128t48 52l15 72q-35 0 -78 -74q-39 -76 -62 -178zM451 932h116l54 250h-84q16 76 40.5 128t47.5 52l14 72q-37 0 -76 -74q-20 -37 -34.5 -81t-26.5 -97z" />
<glyph unicode="&#x201d;" horiz-adv-x="432" d="M295 932q37 0 74 74q45 72 65 176l53 252h-120l-54 -252h86q-16 -74 -42.5 -126t-47.5 -52zM483 932q33 0 74 74q20 35 37 79t27 97l53 252h-119l-53 -252h84q-16 -74 -42 -126t-46 -52z" />
<glyph unicode="&#x201e;" horiz-adv-x="432" d="M43 -252q35 0 76 74q40 72 63 178l54 250h-119l-54 -250h87q-16 -74 -43 -127t-48 -53zM231 -252q31 0 76 74q39 74 62 178l53 250h-117l-55 -250h86q-16 -74 -42 -127t-46 -53z" />
<glyph unicode="&#x2022;" horiz-adv-x="432" d="M174 309q25 -94 90 -94q59 0 124.5 92.5t94.5 229.5q29 139 2 229q-25 94 -86 94q-63 0 -129 -94q-33 -47 -56.5 -105.5t-35.5 -123.5q-31 -127 -4 -228z" />
<glyph unicode="&#x2026;" horiz-adv-x="688" d="M88 36q8 -36 33 -36t51.5 36t36.5 89t0 89t-33 36q-27 0 -51.5 -36t-34.5 -89t-2 -89zM309 36q8 -36 35 -36q25 0 50.5 36t35.5 89t1 89t-34 36t-50 -36t-35.5 -89t-2.5 -89zM530.5 36q8.5 -36 34.5 -36q23 0 49.5 36t36.5 89t1 89t-34 36q-27 0 -51 -36t-34.5 -89 t-2 -89z" />
<glyph unicode="&#x202f;" horiz-adv-x="359" />
<glyph unicode="&#x2039;" horiz-adv-x="362" d="M178 551l141 -285l62 121l-115 236l215 233l-12 121l-260 -283z" />
<glyph unicode="&#x203a;" horiz-adv-x="362" d="M145 387l13 -121l258 285l30 143l-139 283l-61 -121l114 -233z" />
<glyph unicode="&#x205f;" horiz-adv-x="449" />
<glyph unicode="&#x20ac;" horiz-adv-x="774" d="M164 483h100q-6 -117 5.5 -210t43.5 -167q66 -143 181 -143q96 0 200 105l47 219q-109 -143 -211 -144q-78 0 -127 93q-49 94 -49 247h314l55 144h-358q4 23 7 45t7 45q6 23 11 45t13 45h392l55 143h-395q33 78 71.5 138.5t81.5 107.5q86 94 166 94q102 0 150 -143 l69 178q-61 143 -182 143q-111 0 -240 -143q-61 -72 -112 -165t-94 -210h-74l-55 -143h83q-8 -23 -13 -45.5t-11 -44.5q-4 -23 -8 -45.5t-8 -44.5h-58z" />
<glyph unicode="&#x2122;" horiz-adv-x="745" d="M319 680h60l131 629h94l-133 -629h61l109 520l-20 -520h57l201 518l-111 -518h59l160 754h-84l-211 -553l21 553h-346l-27 -125h111z" />
<glyph unicode="&#xe000;" horiz-adv-x="1075" d="M0 0v1075h1075v-1075h-1075z" />
</font>
</defs>
</svg>
