<?xml version="1.0" standalone="no"?>
<!DOCTYPE svg PUBLIC "-//W3C//DTD SVG 1.1//EN" "http://www.w3.org/Graphics/SVG/1.1/DTD/svg11.dtd" >
<svg xmlns="http://www.w3.org/2000/svg">
<metadata></metadata>
<defs>
<font id="florencesans_condbold_italic" horiz-adv-x="1038" >
<font-face units-per-em="2048" ascent="1638" descent="-410" />
<missing-glyph horiz-adv-x="677" />
<glyph horiz-adv-x="2048" />
<glyph horiz-adv-x="2048" />
<glyph unicode="&#xd;" horiz-adv-x="1024" />
<glyph unicode=" "  horiz-adv-x="677" />
<glyph unicode="&#x09;" horiz-adv-x="677" />
<glyph unicode="&#xa0;" horiz-adv-x="677" />
<glyph unicode="!" horiz-adv-x="425" d="M127 124.5q-14 -61.5 9.5 -104.5t70.5 -43t88 43.5t55 104.5q12 61 -10.5 104t-69.5 43t-88 -43t-55 -104.5zM233 373h115l258 1081h-170z" />
<glyph unicode="&#x22;" horiz-adv-x="751" d="M375 1010q-2 -31 6 -47.5t33 -16.5q43 0 65 64l172 516h-229zM702 1010q-6 -63 37 -64q45 0 68 64l172 516h-227z" />
<glyph unicode="#" horiz-adv-x="942" d="M225 588h148l-62 -215h142l61 215h131l-61 -215h141l61 215h181l39 186h-168l47 172h155l41 187h-143l59 215h-143l-59 -215h-129l59 215h-143l-60 -215h-182l-39 -187h170l-49 -172h-158zM565 774l47 172h131l-49 -172h-129z" />
<glyph unicode="$" horiz-adv-x="1105" d="M176.5 216.5q13.5 -85.5 65.5 -144.5q76 -92 215 -121l-33 -152h170l31 152q154 29 270 121q149 118 190 315q45 213 -51 320q-63 61 -225 102l94 446q35 -8 58.5 -22t42.5 -37q27 -29 30.5 -71t-8.5 -97h170q43 205 -43 326q-74 102 -201 129l31 151h-168l-33 -151 q-139 -29 -252 -129q-139 -119 -180 -303q-43 -205 41 -314q63 -78 209 -112l-96 -453q-74 16 -117 59q-57 57 -33 177h-168q-23 -106 -9.5 -191.5zM520 1051q10 45 32.5 80.5t57.5 64.5q55 43 125 59l-88 -409q-35 10 -60.5 25.5t-37.5 31.5q-49 53 -29 148zM672 172 l90 418q43 -10 71.5 -23.5t47.5 -29.5q60 -48 37 -150q-37 -178 -246 -215z" />
<glyph unicode="%" horiz-adv-x="1392" d="M117 -23h180l1284 1477h-182zM336 1110q-35 -158 29 -268q59 -111 182 -111q115 0 225 111q55 57 90 123.5t51 144.5q35 158 -28 268q-63 113 -176 113q-123 0 -230 -113q-111 -113 -143 -268zM479 1110q14 80 72 137q53 57 117 58q57 0 90 -56q30 -51 14 -139 q-10 -41 -27.5 -75t-46.5 -62q-51 -55 -112 -55t-92 55q-35 61 -15 137zM770 177.5q6 -66.5 39 -124.5q59 -111 182 -110q115 0 226 110q110 113 141 269q37 154 -27 268q-63 113 -178 112q-123 0 -229 -112q-55 -57 -90 -124t-54 -144q-16 -78 -10 -144.5zM924 322 q18 86 71 139q55 55 117 55q59 0 92 -55q31 -55 13 -139q-16 -82 -71.5 -137.5t-115.5 -55.5q-63 0 -92 55q-33 55 -14 138z" />
<glyph unicode="&#x26;" horiz-adv-x="1069" d="M184 399q-39 -188 33 -323q74 -133 219 -133q160 0 314 129l24 -95h203l-74 267q33 45 68 112h-2l102 185l-135 90l-92 -170l-96 334q59 41 99 73.5t62 55.5q84 98 111 227q31 141 -27 242v-2q-57 100 -164 100q-106 0 -206 -100q-49 -51 -80 -110.5t-47 -129.5 q-8 -41 -10.5 -84t8.5 -86q2 -10 10 -40t24 -83q-68 -47 -117 -91t-83 -85q-109 -125 -144 -283zM354 403q18 90 92 162q20 23 54.5 49.5t79.5 61.5l116 -416q-104 -96 -215 -96q-76 0 -108 69q-39 76 -19 170zM666 1081q-6 33 0 72q10 47 42.5 82t71.5 35t60.5 -35 t11.5 -86q-16 -70 -78 -111l-80 -57l-26 102z" />
<glyph unicode="'" horiz-adv-x="425" d="M375 1010q-2 -31 6 -47.5t33 -16.5q43 0 65 64l172 516h-229z" />
<glyph unicode="(" horiz-adv-x="534" d="M193 188q8 -182 90 -389h118q-51 229 -51 412q2 90 13.5 192.5t38 223.5t57 223t65.5 190q78 180 230 414h-117q-86 -100 -149.5 -197.5t-108.5 -191.5q-45 -92 -82 -201.5t-64 -236.5q-29 -127 -38 -235.5t-2 -203.5z" />
<glyph unicode=")" horiz-adv-x="534" d="M47 -201h117q84 102 148.5 198.5t109.5 190.5q47 94 80.5 203t62.5 236q27 127 39 235.5t4 202.5q-4 94 -27.5 191.5t-62.5 197.5h-119q27 -119 40.5 -221.5t9.5 -192.5q2 -88 -12.5 -190t-41.5 -223q-49 -236 -123 -416q-37 -90 -92 -192.5t-133 -219.5z" />
<glyph unicode="*" horiz-adv-x="759" d="M279 858l36 -162l166 111l-45 -219h142l45 219l120 -111l103 162l-119 109l166 110l-35 162l-166 -113l45 222h-141l-45 -222l-121 113l-106 -162l120 -110z" />
<glyph unicode="+" horiz-adv-x="780" d="M195 444h219l-62 -286h142l59 286h219l39 187h-217l59 287h-139l-61 -287h-217z" />
<glyph unicode="," horiz-adv-x="425" d="M106 -244q0 -31 8.5 -48t32.5 -17q41 0 64 65l172 516h-227z" />
<glyph unicode="-" horiz-adv-x="780" d="M195 444h577l39 187h-575z" />
<glyph unicode="." horiz-adv-x="425" d="M127 124.5q-14 -61.5 9.5 -104.5t70.5 -43t88 43.5t55 104.5q12 61 -10.5 104t-69.5 43t-88 -43t-55 -104.5z" />
<glyph unicode="/" horiz-adv-x="712" d="M39 -113l143 -75l758 1556l-141 74z" />
<glyph unicode="0" horiz-adv-x="1093" d="M219 717q-63 -297 10 -522q86 -252 306 -252q219 0 409 252q168 223 234 522q33 150 28.5 280.5t-39.5 241.5q-86 252 -303 252q-221 0 -413 -252q-86 -111 -142.5 -242t-89.5 -280zM385 346q-43 160 2 371q23 106 60.5 198.5t95.5 171.5q123 180 272 181q72 0 122 -44 t73 -137q23 -80 22 -172q1 -92 -22 -198t-61 -199.5t-97 -171.5q-121 -182 -270 -182q-147 0 -197 182z" />
<glyph unicode="1" horiz-adv-x="1093" d="M496 1053l82 -144l233 244l-250 -1176h168l315 1477h-157z" />
<glyph unicode="2" horiz-adv-x="1093" d="M115 -23h850l47 224h-627q82 111 254 223q276 184 332 233q88 80 141 173.5t76 201.5q49 215 -62 344q-98 115 -262 115q-86 0 -161.5 -26.5t-147.5 -80.5q-166 -121 -217 -356h170q25 131 125 191q76 49 176 49q53 0 95 -11.5t71 -39.5q74 -68 45 -185 q-33 -162 -236 -309h2q-96 -68 -189 -134.5t-191 -131.5q-229 -195 -291 -480z" />
<glyph unicode="3" horiz-adv-x="1093" d="M158 229q31 -154 137 -223q94 -63 219 -63q184 0 334 118q176 138 221 369q55 256 -106 377q152 90 194 287q43 201 -65 307q-96 90 -248 90q-127 0 -236 -59q-139 -76 -215 -234l144 -76q68 145 258 146q92 0 145 -33q68 -45 49 -141q-18 -80 -108 -133 q-80 -43 -158 -43h-100l-48 -224h99q113 0 178 -65q76 -74 49 -199q-27 -131 -135 -205q-90 -61 -203 -61q-203 0 -235 178z" />
<glyph unicode="4" horiz-adv-x="1093" d="M150 264h600l-62 -287h168l62 287h135l49 223h-135l204 967h-141l-837 -981zM393 487l537 623l-133 -623h-404z" />
<glyph unicode="5" horiz-adv-x="1093" d="M174 342q16 -199 111 -299q100 -100 237 -100q186 0 350 159q171 158 224 400q47 242 -54 399q-98 160 -282 160q-131 0 -256 -84l53 256h555l49 221h-725l-157 -731l137 -78q59 92 138 142.5t157 50.5q117 0 180 -95q66 -96 35 -241q-16 -72 -51 -133.5t-87 -108.5 q-53 -47 -106 -71.5t-113 -24.5q-84 0 -147 57q-59 59 -72 176z" />
<glyph unicode="6" horiz-adv-x="1093" d="M231 717q-63 -297 11 -522q82 -252 305 -252q184 0 348 157q88 84 143 185.5t82 220.5q25 119 12.5 218t-65.5 185q-98 158 -283 158q-176 0 -319 -149q49 129 125 215q113 135 237 135q133 0 193 -164l160 133q-90 254 -303 254q-221 0 -412 -252q-86 -111 -143.5 -242 t-90.5 -280zM395 504q31 145 127 241q104 98 215 99q111 0 181 -94q61 -101 34 -246q-35 -147 -137 -242q-111 -98 -221 -98q-102 0 -166 104q-59 106 -33 236z" />
<glyph unicode="7" horiz-adv-x="1093" d="M213 -23h201l827 1272l45 205h-766l-49 -221h565z" />
<glyph unicode="8" horiz-adv-x="1093" d="M177 221q18 -92 73 -160q104 -119 285 -118q182 0 331 118q175 138 224 369q53 258 -109 377q152 90 195 287q43 201 -66 307q-94 90 -246 90q-154 0 -284 -90q-156 -106 -199 -307q-43 -195 74 -287q-215 -117 -271 -377q-25 -117 -7 -209zM352 430q27 125 140 199 q92 66 202 65q109 0 174 -65q41 -37 53.5 -86.5t0.5 -112.5q-29 -133 -136 -205q-92 -61 -204 -61q-117 0 -179 61q-76 70 -51 205zM551 1094q18 92 102 141q72 33 162 33t143 -33q68 -45 50 -141q-18 -80 -109 -133q-78 -43 -158 -43q-78 0 -139 43q-72 53 -51 133z" />
<glyph unicode="9" horiz-adv-x="1093" d="M217 197q92 -254 305 -254q109 0 212.5 62.5t199.5 189.5q168 225 231 522q33 150 29 280.5t-39 241.5q-84 252 -303 252q-186 0 -350 -158q-176 -166 -226 -405q-51 -233 54 -404q98 -158 282 -157q178 0 322 147q-29 -61 -59.5 -114.5t-65.5 -98.5q-115 -137 -240 -137 q-135 0 -190 166zM446 930q31 150 136 241q109 96 221 97q100 0 164 -103q65 -104 34 -235q-31 -145 -131 -244q-96 -96 -211 -96q-113 0 -180 96q-63 98 -33 244z" />
<glyph unicode=":" horiz-adv-x="425" d="M127 124.5q-14 -61.5 9.5 -104.5t70.5 -43t88 43.5t55 104.5q12 61 -10.5 104t-69.5 43t-88 -43t-55 -104.5zM264 770q-12 -61 11.5 -104t70.5 -43t87 43t52 104q14 61 -8 104.5t-69 43.5t-89.5 -43.5t-54.5 -104.5z" />
<glyph unicode=";" horiz-adv-x="425" d="M106 -244q0 -31 8.5 -48t32.5 -17q41 0 64 65l172 516h-227zM264 770q-12 -61 11.5 -104t70.5 -43t87 43t52 104q14 61 -8 104.5t-69 43.5t-89.5 -43.5t-54.5 -104.5z" />
<glyph unicode="&#x3c;" horiz-adv-x="751" d="M197 453l391 -408l112 158l-323 334l467 335l-47 158l-564 -407z" />
<glyph unicode="=" horiz-adv-x="780" d="M162 283h575l41 186h-577zM229 606h578l39 187h-578z" />
<glyph unicode="&#x3e;" horiz-adv-x="751" d="M135 203l45 -158l568 408l34 170l-391 407l-112 -158l323 -335z" />
<glyph unicode="?" horiz-adv-x="724" d="M180 125q-12 -61 11.5 -104.5t70.5 -43.5t88.5 43.5t55.5 104.5q12 61 -11.5 104t-70.5 43t-88 -43t-56 -104zM291 373h110q18 59 34 112.5t24 83.5q41 131 127 201q39 29 75.5 56.5t77.5 56.5q90 88 127 256q27 141 -24 245q-55 106 -162 107q-111 0 -211 -107 q-96 -106 -133 -268h170q14 59 50 105.5t75 46.5t57.5 -38t7.5 -91q-18 -90 -96 -158q-37 -35 -70.5 -63.5t-72.5 -63.5q-51 -53 -84 -112.5t-49 -127.5q-2 -6 -5.5 -38.5t-13.5 -92.5q-4 -20 -8 -52t-6 -58z" />
<glyph unicode="@" horiz-adv-x="1652" d="M215 537q-84 -393 70 -672q156 -281 452 -281q53 0 108.5 11.5t121.5 35.5v160q-104 -39 -193 -39q-246 0 -375 232q-61 115 -76.5 253t19.5 299.5t108.5 300t184.5 255.5q227 231 473 231t373 -229q123 -227 55 -557q-16 -72 -44 -137.5t-69 -123.5q-96 -129 -194 -129 q-41 0 -56.5 45.5t-5.5 100.5q0 4 1 7t6 13l180 650h-133l-31 -109q-53 135 -195 135q-139 0 -280 -151q-135 -154 -174 -340q-16 -86 -12.5 -157t34.5 -134q57 -121 187 -121q145 0 272 139q-8 -88 25 -157q39 -90 135 -91q160 0 305 185q133 170 178 375q84 399 -70 673 q-154 281 -452 281q-297 0 -574 -281q-272 -281 -354 -673zM673 415q-3 44 7 97q10 59 41 112.5t72 98.5q45 43 89 65.5t91 22.5q80 0 121 -72q16 -35 21 -79t-5 -97q-27 -123 -115 -213v2q-86 -88 -180 -88q-78 0 -119 72q-20 35 -23 79z" />
<glyph unicode="A" d="M20 -23h179l159 324h447l20 -324h181l-95 1477h-168zM467 522l287 588l37 -588h-324z" />
<glyph unicode="B" horiz-adv-x="1052" d="M94 -23h508q137 0 272 119q138 121 177 307q11 56 12 104q0 149 -111 218q158 96 201 305q15 62 14 117q0 108 -55 192q-84 115 -221 115h-481zM311 201l86 405h340q72 0 115 -55q35 -43 35 -99q0 -23 -6 -49q-18 -92 -90 -147q-68 -55 -140 -55h-340zM444 827l86 406 h312q72 0 119 -55q29 -39 29 -96q0 -24 -5 -52q-18 -90 -88 -147q-68 -55 -141 -56h-312z" />
<glyph unicode="C" horiz-adv-x="1163" d="M220 717q-24 -113 -25 -216q0 -185 79 -333q127 -225 369 -225q240 0 465 227l6 31l-80 137q-170 -174 -342 -174q-176 0 -266 162q-57 104 -57 236q0 73 18 155q49 225 205 391q156 160 332 160q170 0 272 -172l152 151q-133 244 -375 244t-465 -229 q-220 -227 -288 -545z" />
<glyph unicode="D" horiz-adv-x="1173" d="M94 -23h428q229 0 441 218q109 111 176 239.5t100 282.5q23 110 23 207q0 178 -78 315q-117 215 -346 215h-428zM311 201l219 1032h258q164 0 244 -152q53 -96 53 -220q0 -68 -16 -144q-23 -109 -70 -200t-120 -167q-146 -149 -308 -149h-2h-258z" />
<glyph unicode="E" horiz-adv-x="997" d="M94 -23h797l47 224h-627l86 405h492l47 221h-492l86 406h627l49 221h-796z" />
<glyph unicode="F" horiz-adv-x="950" d="M94 -23h170l133 629h492l47 221h-492l86 406h627l49 221h-796z" />
<glyph unicode="G" horiz-adv-x="1236" d="M220 717q-25 -113 -25 -216q0 -184 79 -333q127 -225 369 -225q147 0 298 93t267 255l4 12l113 524h-512l-47 -221h344l-53 -241q-164 -201 -365 -201q-176 0 -266 162q-57 104 -57 236q0 73 18 155q49 225 205 391q156 160 332 160q98 0 176 -62.5t119 -175.5l165 127 q-55 160 -163.5 247t-247.5 87q-242 0 -465 -229q-221 -227 -288 -545z" />
<glyph unicode="H" horiz-adv-x="1105" d="M94 -23h170l133 629h568l-136 -629h168l316 1477h-168l-135 -627h-566l136 627h-170z" />
<glyph unicode="I" horiz-adv-x="370" d="M94 -23h170l316 1477h-170z" />
<glyph unicode="J" horiz-adv-x="858" d="M92 211q29 -123 104.5 -195.5t178.5 -72.5q156 0 303 149q72 76 118.5 164.5t69.5 192.5l215 1005h-446l-49 -221h278l-168 -784q-25 -121 -104 -201q-80 -84 -170 -84q-119 0 -160 151z" />
<glyph unicode="K" horiz-adv-x="991" d="M94 -23h170l117 553l172 177l205 -730h200l-247 889l571 588h-235l-598 -614l131 614h-170z" />
<glyph unicode="L" horiz-adv-x="813" d="M94 -23h660l49 224h-492l269 1253h-170z" />
<glyph unicode="M" horiz-adv-x="1316" d="M94 -23h170l236 1108l69 -1108h168l541 1104l-236 -1104h168l316 1477h-244l-555 -1132l-72 1132h-245z" />
<glyph unicode="N" horiz-adv-x="1105" d="M94 -23h170l228 1065l346 -1065h159l316 1477h-168l-227 -1063l-347 1063h-161z" />
<glyph unicode="O" horiz-adv-x="1310" d="M219 717q-24 -113 -24 -215q0 -186 81 -332q125 -227 367 -227q240 0 465 227q219 230 287 547q25 115 26 218q-1 40 -5 77q-14 135 -77 252q-127 227 -366 227q-242 0 -465 -227q-221 -231 -289 -547zM387 717q49 225 205 391q156 160 332 160q172 0 262 -160 q48 -82 56 -179q2 -25 2 -50q0 -76 -19 -162q-45 -225 -203 -391q-162 -162 -330 -162q-176 0 -266 162q-57 104 -57 236q0 73 18 155z" />
<glyph unicode="P" horiz-adv-x="991" d="M94 -23h170l133 629h312q143 0 272 117q135 119 172 307q15 62 14 117q0 108 -55 192q-84 115 -221 115h-481zM444 827l86 406h312q72 0 119 -55q29 -39 29 -96q0 -24 -5 -52q-18 -90 -88 -147q-68 -55 -141 -56h-312z" />
<glyph unicode="Q" horiz-adv-x="1310" d="M219 717q-23 -109 -23 -210q0 -164 62 -304q96 -211 301 -252l-70 -332h168l70 332q111 20 212 83.5t200 168.5q195 217 256 514q25 115 25 218q0 39 -4 77q-13 135 -77 252q-127 227 -366 227q-242 0 -465 -227q-221 -231 -289 -547zM387 717q49 225 205 391 q156 160 332 160q172 0 262 -160q47 -82 56 -179q2 -25 2 -50q0 -76 -19 -162q-43 -207 -174 -359q-127 -145 -275 -182l43 203h-168l-43 -203q-66 18 -116 64.5t-78 117.5q-43 94 -43 209q0 71 16 150z" />
<glyph unicode="R" horiz-adv-x="1044" d="M94 -23h170l133 629h150q131 0 162 -117l143 -512h201l-148 537q-12 43 -25.5 73.5t-25.5 49.5q94 45 172 133q100 115 127 260q15 62 14 117q0 108 -55 192q-84 115 -221 115h-481zM444 827l86 406h312q72 0 119 -55q29 -39 29 -96q0 -24 -5 -52q-18 -90 -88 -147 q-68 -55 -141 -56h-312z" />
<glyph unicode="S" horiz-adv-x="1079" d="M172 408q-13 -63 -13 -119q0 -146 93 -240q104 -106 274 -106q166 0 320 104q180 125 227 340q13 64 13 118q0 174 -134 249q-41 10 -78.5 22t-78.5 24.5t-80 24t-78 23.5q-135 40 -135 152q0 24 6 51q20 106 123 168h-2q82 49 180 49q94 0 158 -51q55 -41 55 -122 q0 -31 -8 -67h168q15 68 15 127q0 138 -81 227q-102 109 -260 109q-162 0 -307 -109q-168 -125 -211 -331q-14 -69 -14 -126q0 -178 137 -251q37 -12 75.5 -23.5t79.5 -21.5h-2q41 -12 81 -23.5t81 -21.5h-2q135 -41 135 -154q0 -20 -4 -43q-25 -117 -135 -176 q-90 -47 -195 -47q-109 0 -178 47q-64 45 -63 135q0 29 6 62h-168z" />
<glyph unicode="T" horiz-adv-x="968" d="M307 1233h355l-269 -1256h170l266 1256h355l49 221h-877z" />
<glyph unicode="U" horiz-adv-x="1079" d="M201 537q-19 -85 -19 -161q0 -142 66 -257q90 -176 278 -176q182 0 357 176q86 88 140 191.5t83 226.5l194 917h-167l-195 -917q-18 -78 -54 -144.5t-89 -120.5q-101 -108 -218 -108h-2q-61 0 -105 27.5t-77 80.5q-36 72 -36 159q0 50 12 106l196 917h-170z" />
<glyph unicode="V" d="M336 1454l92 -1477h168l725 1477h-180l-555 -1132l-72 1132h-178z" />
<glyph unicode="W" horiz-adv-x="1488" d="M336 1454l8 -1477h164l457 1051l2 -1051h168l637 1477h-175l-454 -1048l-4 1048h-166l-455 -1048l-6 1048h-176z" />
<glyph unicode="X" horiz-adv-x="1048" d="M18 -23h209l410 545l172 -545h211l-240 740l555 737h-211l-405 -543l-176 543h-209l237 -737z" />
<glyph unicode="Y" horiz-adv-x="1036" d="M326 1454l252 -774l-152 -703h170l152 703l579 774h-209l-407 -543l-174 543h-211z" />
<glyph unicode="Z" horiz-adv-x="1079" d="M80 -23h905l49 224h-669l890 1046l45 207h-905l-47 -221h668l-891 -1047z" />
<glyph unicode="[" horiz-adv-x="561" d="M57 -201h359l49 221h-191l256 1213h191l47 221h-358z" />
<glyph unicode="\" horiz-adv-x="712" d="M352 1368l101 -1556l174 75l-99 1555z" />
<glyph unicode="]" horiz-adv-x="561" d="M57 -201h359l352 1655h-358l-48 -221h189l-256 -1213h-189z" />
<glyph unicode="^" horiz-adv-x="786" d="M236 662l112 -78l275 497l61 -497l147 78l-86 686h-131z" />
<glyph unicode="_" horiz-adv-x="749" d="M0 -23h750v187h-750v-187z" />
<glyph unicode="`" horiz-adv-x="452" d="M393 1454l107 -258h114l-43 258h-178z" />
<glyph unicode="a" horiz-adv-x="1071" d="M162 314q8 -104 53 -191q80 -180 264 -180q190 0 350 188l-34 -154h170l237 1119h-168l-33 -152q-82 188 -268 189q-186 0 -342 -181q-80 -86 -132 -190.5t-79 -224.5q-19 -92 -19 -174q-1 -25 1 -49zM339 392q-2 19 -2 38q0 50 13 107q31 154 137 264q103 108 224 108h2 q117 0 176 -108q38 -71 38 -159q0 -50 -12 -105q-35 -156 -139 -264.5t-221 -108.5q-121 0 -180 108q-29 53 -36 120z" />
<glyph unicode="b" horiz-adv-x="1071" d="M94 -23h170l33 154q84 -188 270 -188q182 0 344 180q154 172 207 414q19 91 19 172q0 134 -52 243q-84 180 -264 181q-96 0 -182 -48.5t-170 -140.5l111 510h-170zM383 537q35 160 139 264q103 108 224 108h2q115 0 176 -108q37 -69 37 -159q0 -49 -11 -105 q-18 -78 -53 -144.5t-88 -120.5q-103 -108 -217 -108h-2q-121 0 -182 108q-37 69 -37 157q0 51 12 108z" />
<glyph unicode="c" horiz-adv-x="968" d="M180 537q-18 -83 -18 -159q0 -143 63 -259q94 -176 283 -176q104 0 212.5 62.5t194.5 172.5l3 29l-107 108q-122 -151 -254 -151h-2q-121 0 -180 108q-29 53 -36 120q-2 19 -2 38q0 50 13 107q31 154 137 264q103 108 224 108h2q133 0 194 -149l168 121 q-43 119 -127 185.5t-188 66.5q-186 0 -354 -177q-174 -176 -226 -419z" />
<glyph unicode="d" horiz-adv-x="1071" d="M162 314q8 -104 53 -191q80 -180 264 -180q190 0 350 188l-34 -154h170l315 1477h-170l-109 -510q-82 188 -268 189q-186 0 -342 -181q-80 -86 -132 -190.5t-79 -224.5q-19 -92 -19 -174q-1 -25 1 -49zM339 392q-2 19 -2 38q0 50 13 107q31 154 137 264q103 108 224 108 h2q117 0 176 -108q38 -71 38 -159q0 -50 -12 -105q-35 -156 -139 -264.5t-221 -108.5q-121 0 -180 108q-29 53 -36 120z" />
<glyph unicode="e" d="M180 537q-18 -83 -18 -159q0 -143 63 -259q94 -176 283 -176q104 0 216 66.5t206 185.5l-119 120q-59 -76 -124.5 -113.5t-131.5 -37.5q-98 0 -162 82q-53 72 -53 180h715q10 35 17 61.5t11 49.5q20 90 20 169q0 29 -3 57q-10 103 -60 193q-94 176 -280 177 q-186 0 -354 -177q-174 -176 -226 -419zM387 649q45 102 131 180q94 80 195 80q98 0 157 -80q51 -68 56 -180h-539z" />
<glyph unicode="f" horiz-adv-x="542" d="M68 -381h168l243 1147h137l48 223h-138l45 211q6 29 25.5 49.5t42.5 20.5q18 0 41 -31l121 201q-51 51 -115 51q-45 0 -89 -21.5t-83 -64.5q-82 -82 -111 -205l-45 -211h-82l-47 -223h82z" />
<glyph unicode="g" horiz-adv-x="1071" d="M121 -182q94 -233 311 -234q180 0 354 176q88 88 141.5 191.5t80.5 226.5l194 918h-168l-33 -154q-16 39 -39.5 68.5t-52.5 56.5q-76 66 -176 66q-182 0 -342 -181q-80 -86 -132 -190.5t-79 -224.5q-19 -92 -19 -174q0 -25 1 -49q8 -103 53 -191q82 -180 264 -180 q106 0 207 63q72 45 139 119q-39 -121 -120 -209q-104 -111 -226 -111q-70 0 -118 39t-82 115zM339 392q-2 19 -2 38q0 51 13 107q31 154 137 264q103 108 224 108h2q117 0 176 -108q38 -71 38 -159q0 -50 -12 -105q-35 -156 -139 -264.5t-221 -108.5q-121 0 -180 108 q-29 53 -36 120z" />
<glyph unicode="h" horiz-adv-x="929" d="M94 -23h170l144 668q23 113 98 189q71 75 158 75h2q82 0 127 -75q25 -47 25 -109q0 -37 -9 -80l-143 -668h170l143 668q15 74 16 140q0 109 -43 196q-66 152 -215 152q-133 0 -256 -125l99 446h-170z" />
<glyph unicode="i" horiz-adv-x="370" d="M94 -23h170l238 1119h-168zM358 1343q-4 -21 -4 -39q0 -36 16 -65q24 -43 70 -43q47 0 88.5 43t51.5 104q6 24 6 45q0 34 -14 60q-22 44 -68 43q-49 0 -90 -43t-56 -105z" />
<glyph unicode="j" horiz-adv-x="370" d="M-156 -365q53 -51 119 -51q86 0 172 86q82 82 107 205l260 1221h-168l-260 -1221q-6 -29 -24.5 -49.5t-41.5 -20.5q-20 0 -41 31zM358 1343q-4 -21 -4 -39q0 -37 16 -65q23 -43 70 -43t88.5 43t51.5 104q6 24 6 45q0 33 -14 60q-21 43 -68 43q-49 0 -90 -43t-56 -105z " />
<glyph unicode="k" horiz-adv-x="880" d="M94 -23h170l72 338l168 172l145 -510h201l-186 674l432 445h-234l-461 -471l179 829h-170z" />
<glyph unicode="l" horiz-adv-x="370" d="M94 -23h170l316 1477h-170z" />
<glyph unicode="m" horiz-adv-x="1392" d="M94 -23h170l144 668q23 109 86 184q70 80 143 80q74 0 108 -82q20 -46 20 -102q0 -38 -9 -80l-144 -668h168l144 668q23 109 86 184q70 80 145 80q74 0 109 -82q19 -45 19 -100q0 -38 -9 -82l-144 -668h168l144 668q16 78 16 148q0 17 -1 34q-5 84 -40 156 q-70 150 -215 150q-164 0 -293 -183q-35 182 -184 183q-131 0 -242 -119l19 82h-168z" />
<glyph unicode="n" horiz-adv-x="929" d="M94 -23h170l144 668q23 113 98 189q71 75 158 75h2q82 0 127 -75q25 -47 25 -109q0 -37 -9 -80l-143 -668h170l143 668q15 74 16 140q0 109 -43 196q-66 152 -215 152q-133 0 -256 -125l21 88h-168z" />
<glyph unicode="o" d="M180 537q-18 -83 -18 -159q0 -143 63 -259q94 -176 283 -176q184 0 354 176q88 88 141 191.5t80 226.5q20 90 20 169q0 29 -3 57q-10 103 -60 193q-94 176 -280 177q-186 0 -354 -177q-174 -176 -226 -419zM339 392q-2 19 -2 38q0 50 13 107q31 154 137 264 q103 108 224 108h2q117 0 176 -108q38 -71 38 -159q0 -50 -12 -105q-35 -156 -139 -264.5t-221 -108.5q-121 0 -180 108q-29 53 -36 120z" />
<glyph unicode="p" horiz-adv-x="1071" d="M20 -381h168l109 512q84 -188 270 -188q182 0 344 180q154 172 207 414q19 91 19 172q0 134 -52 243q-84 180 -264 181q-96 0 -182 -48.5t-170 -140.5l33 152h-168zM383 537q35 160 139 264q103 108 224 108h2q115 0 176 -108q37 -69 37 -159q0 -49 -11 -105 q-18 -78 -53 -144.5t-88 -120.5q-103 -108 -217 -108h-2q-121 0 -182 108q-37 69 -37 157q0 51 12 108z" />
<glyph unicode="q" horiz-adv-x="1071" d="M162 314q8 -103 53 -191q80 -180 264 -180q190 0 350 188l-108 -512h168l313 1477h-168l-33 -152q-82 188 -268 189q-186 0 -342 -181q-80 -86 -132 -190.5t-79 -224.5q-19 -92 -19 -174q0 -25 1 -49zM339 392q-2 19 -2 38q0 51 13 107q31 154 137 264q103 108 224 108h2 q117 0 176 -108q38 -71 38 -159q0 -50 -12 -105q-35 -156 -139 -264.5t-221 -108.5q-121 0 -180 108q-29 53 -36 120z" />
<glyph unicode="r" horiz-adv-x="620" d="M94 -23h170l144 668q23 113 98 189q71 75 158 75h2q33 0 69 -16l25 18l45 213q-20 4 -37.5 6.5t-30.5 2.5q-133 0 -256 -125l21 88h-168z" />
<glyph unicode="s" horiz-adv-x="888" d="M154 317q-12 -54 -12 -102q0 -118 73 -190q88 -82 217 -82q131 0 250 82q145 100 182 270q12 56 13 102q0 131 -99 189h2q-16 10 -248 71q-101 30 -101 99q0 11 3 24q16 68 82 101q51 28 116 28h5q66 0 113 -28q35 -25 35 -78q0 -20 -5 -45h168q11 55 11 102 q0 114 -66 187q-80 86 -209 86q-127 0 -246 -86q-133 -96 -174 -267q-11 -53 -11 -98q0 -136 99 -195q10 -6 70.5 -23.5t171.5 -47.5q103 -28 103 -98q0 -11 -3 -23q-27 -131 -215 -131q-39 0 -66.5 7t-50.5 19h3q-48 25 -48 85q0 19 5 42h-168z" />
<glyph unicode="t" horiz-adv-x="602" d="M135 -381h170l266 1255h164l45 222h-162l54 252h-168l-53 -252h-166l-47 -222h165z" />
<glyph unicode="u" horiz-adv-x="929" d="M178 430q-17 -76 -17 -143q0 -107 42 -195q68 -149 213 -149h2q133 0 256 123l-21 -89h170l238 1119h-168l-141 -666q-25 -109 -101 -188q-37 -37 -75.5 -57.5t-81.5 -20.5q-84 0 -127 78q-29 52 -30 116q0 34 9 72l141 666h-168z" />
<glyph unicode="v" horiz-adv-x="905" d="M258 1096l104 -1119h168l584 1119h-184l-414 -801l-76 801h-182z" />
<glyph unicode="w" horiz-adv-x="1304" d="M260 1096l37 -1119h166l342 740l24 -740h166l514 1119h-176l-340 -740l-26 740h-166l-338 -740l-27 740h-176z" />
<glyph unicode="x" horiz-adv-x="856" d="M18 -23h209l273 365l118 -365h209l-180 560l420 559h-211l-274 -363l-117 363h-209l180 -559z" />
<glyph unicode="y" horiz-adv-x="905" d="M98 -391q29 -14 47.5 -19.5t32.5 -5.5q147 0 244 183v-3l692 1332h-184l-414 -801l-76 801h-182l102 -1096l-81 -158q-18 -37 -56 -37q-20 0 -78 29z" />
<glyph unicode="z" horiz-adv-x="942" d="M80 -23h770l47 224h-520l665 688l45 207h-768l-47 -222h523l-670 -688z" />
<glyph unicode="{" horiz-adv-x="657" d="M209 516h57q33 0 51.5 -22.5t10.5 -63.5l-64 -305q-25 -121 25 -221q49 -104 139 -105h84l49 221h-69q-31 0 -49.5 33t-10.5 72l62 287q14 76 -7 151q-6 23 -14 38t-18 26q29 23 59 65q53 72 70 150l61 286q8 39 41 72t62 33h69l49 221h-86q-90 0 -186 -102 q-92 -104 -117 -224l-65 -305q-10 -41 -37 -63.5t-60 -22.5h-57z" />
<glyph unicode="|" horiz-adv-x="370" d="M57 -201h168l355 1655h-170z" />
<glyph unicode="}" horiz-adv-x="657" d="M57 -201h86q88 0 185 105q94 102 118 221l64 305q10 41 37.5 63.5t60.5 22.5h58l47 221h-58q-33 0 -52 22.5t-9 63.5l65 305q23 115 -24 224q-49 102 -139 102h-86l-48 -221h72q29 0 47.5 -32t10.5 -73l-62 -286q-16 -76 6 -150q6 -23 13.5 -39t17.5 -26q-31 -25 -59 -64 q-51 -76 -70 -151l-59 -287q-10 -39 -41 -72t-60 -33h-72z" />
<glyph unicode="~" horiz-adv-x="784" d="M197 475l116 -69q41 84 70 83q37 0 106 -40q72 -45 121 -46q109 0 195 172l-4 27l-103 64q-43 -86 -69 -86q-39 0 -107 43q-74 43 -121 43q-104 0 -204 -191z" />
<glyph unicode="&#xa1;" horiz-adv-x="425" d="M84 -201h168l205 1082h-115zM340 1128.5q-14 -61.5 10.5 -104.5t71.5 -43t87 43t54 104q12 61 -10.5 104.5t-69.5 43.5t-88 -43t-55 -104.5z" />
<glyph unicode="&#xa2;" horiz-adv-x="1015" d="M215 537q-49 -217 27 -387q37 -80 89 -129.5t126 -67.5l-39 -191h168l39 191q178 37 325 225l2 29l-106 108q-80 -98 -170 -133l149 711q72 -35 117 -133l168 121q-41 98 -98.5 159.5t-137.5 81.5l41 189h-167l-41 -189q-84 -20 -157 -69t-142 -129q-147 -170 -193 -387z M371 412.5q-2 58.5 12 124.5q29 135 111 233q35 45 75.5 74.5t87.5 48.5l-149 -711q-78 33 -115 123q-20 49 -22 107.5z" />
<glyph unicode="&#xa3;" horiz-adv-x="1021" d="M195 606h137l-135 -629h712l49 224h-544l86 405h272l47 221h-272l33 158q25 119 106 201q78 82 170 82q57 0 98 -37t62 -113l172 105q-29 123 -105.5 195.5t-177.5 72.5q-158 0 -303 -152q-74 -76 -121 -162.5t-69 -191.5l-33 -158h-137z" />
<glyph unicode="&#xa4;" horiz-adv-x="1273" d="M193 463h167q12 -233 134 -373q119 -147 313 -147q78 0 161 27.5t169 86.5l59 277q-94 -86 -178 -128t-164 -42q-125 0 -209 90q-76 78 -100 209h489l90 186h-585q2 33 12 68q4 16 7 33.5t9 33.5h625l90 187h-631q41 63 87 115.5t104 93.5q121 88 245 88q160 0 263 -158 l106 223q-125 158 -319 158q-193 0 -379 -150q-180 -141 -291 -370h-115l-92 -187h137q-4 -16 -8 -33.5t-8 -33.5q-4 -18 -7 -34.5t-5 -33.5h-84z" />
<glyph unicode="&#xa5;" horiz-adv-x="1171" d="M221 283h340l-67 -306h172l65 306h340l39 186h-340l29 137h340l41 187h-281l498 661h-211l-406 -543l-176 543h-211l215 -661h-280l-39 -187h340l-29 -137h-340z" />
<glyph unicode="&#xa6;" horiz-adv-x="370" d="M57 -201h168l158 742h-168zM252 713h170l158 741h-170z" />
<glyph unicode="&#xa7;" horiz-adv-x="915" d="M141 193q-41 -195 60 -293q88 -82 219 -82t250 82q143 96 180 270q35 168 -35 252q106 84 137 231q43 215 -86 291q-6 10 -243 72q-117 33 -99 123q16 68 82 100q51 29 121 29q66 0 111 -29q47 -35 34 -98l-6 -25h172q41 190 -55 289q-80 86 -207 86q-131 0 -248 -86 q-137 -98 -172 -266q-16 -86 -8 -147.5t43 -102.5q-106 -92 -137 -236q-45 -213 84 -291q10 -6 71.5 -23t172.5 -48q119 -35 98 -121q-25 -131 -213 -131q-39 0 -68.5 7t-52.5 17h2q-61 37 -43 101l4 29h-168zM422 653q14 70 78 105q55 31 123 30q66 0 114 -30 q63 -39 47 -105q-14 -66 -79 -102q-29 -12 -60 -20.5t-63 -8.5q-35 0 -61.5 8.5t-51.5 22.5q-61 37 -47 100z" />
<glyph unicode="&#xa8;" horiz-adv-x="643" d="M385 1343.5q-10 -47.5 8.5 -79t55.5 -31.5q35 0 64.5 31.5t39.5 78.5t-6.5 79t-50.5 32q-35 0 -68 -31.5t-43 -79zM657.5 1343.5q-10.5 -47.5 8 -79t55.5 -31.5q35 0 64.5 31.5t39.5 78.5t-6 79t-51 32t-67.5 -31.5t-43 -79z" />
<glyph unicode="&#xa9;" horiz-adv-x="1093" d="M221 565q-51 -244 41 -416t279 -172q182 0 352 173q168 173 217 415q53 244 -43 414q-96 172 -276 172t-353 -174q-168 -174 -217 -412zM328 565q37 180 166 314q125 131 268 131q137 0 209 -131q70 -130 33 -314q-37 -182 -166 -315q-129 -129 -267 -129 q-143 0 -211 129q-72 131 -32 315zM367 411.5q8 -69.5 41 -128.5q61 -117 188 -117q63 0 120.5 29.5t117.5 89.5l4 30l-43 74q-84 -90 -172 -90q-84 0 -125 78q-45 78 -21 188q12 53 37 101.5t64 85.5q72 78 159 77q86 0 133 -90l93 90q-72 133 -197 134q-129 0 -242 -119 q-55 -59 -93 -128t-54 -151q-18 -84 -10 -153.5z" />
<glyph unicode="&#xaa;" horiz-adv-x="888" d="M319 1030q-41 -182 25 -313q63 -137 205 -137q137 0 254 129l-23 -103h135l181 848h-133l-25 -102q-61 131 -199 131q-141 0 -260 -137q-119 -129 -160 -316zM453 1030q25 113 102 195q80 80 168 80q84 0 127 -82q45 -82 20 -193q-25 -113 -102 -194q-74 -80 -162 -80 t-133 82q-43 84 -20 192z" />
<glyph unicode="&#xab;" horiz-adv-x="1144" d="M174 342l342 -373l113 156l-277 301l404 301l-45 156l-502 -373zM623 342l342 -373l114 156l-276 301l403 301l-47 156l-500 -373z" />
<glyph unicode="&#xac;" horiz-adv-x="780" d="M195 444h436l-39 -180h141l78 367h-575z" />
<glyph unicode="&#xad;" horiz-adv-x="780" d="M195 444h577l39 187h-575z" />
<glyph unicode="&#xae;" horiz-adv-x="1093" d="M221 565q-51 -244 41 -416t279 -172q182 0 352 173q168 173 217 415q53 244 -43 414q-96 172 -276 172t-353 -174q-168 -174 -217 -412zM328 565q37 180 166 314l26 26l-145 -684q-7 9 -15 29q-72 131 -32 315zM408 184h59l68 314h63q61 0 80 -54l74 -260h10 q-90 -63 -191 -63q-100 0 -163 63zM563 631l37 180h148q35 0 56 -23.5t13 -64.5q-10 -41 -42 -66.5t-66 -25.5h-146zM569 944q94 66 193 66q137 0 209 -131q70 -130 33 -314q-37 -174 -154 -303l-57 207l-2 -2q-6 16 -11.5 30.5t-9.5 24.5q51 27 91 81t57 120q20 96 -25 158 q-45 63 -117 63h-207z" />
<glyph unicode="&#xaf;" horiz-adv-x="643" d="M369 1268h440l43 186h-442z" />
<glyph unicode="&#xb0;" horiz-adv-x="534" d="M358.5 1150q3.5 -40 20 -68.5t43.5 -46t61 -17.5q70 0 130.5 63.5t80.5 155.5t-14.5 154.5t-101.5 62.5q-35 0 -70 -17.5t-63.5 -46t-50 -68.5t-29.5 -85q-10 -47 -6.5 -87zM450.5 1237q10.5 43 39 72.5t61.5 29.5t50 -29.5t7 -72.5t-38.5 -73.5t-61.5 -30.5 q-35 0 -51.5 30.5t-6 73.5z" />
<glyph unicode="&#xb1;" horiz-adv-x="780" d="M94 -23h578l41 187h-578zM233 623h218l-60 -287h139l62 287h217l41 186h-219l61 287h-141l-59 -287h-220z" />
<glyph unicode="&#xb2;" horiz-adv-x="643" d="M248 694h440l29 133h-307q20 23 48.5 46.5t63.5 46.5q68 47 110 75.5t56 42.5q90 78 115 195q25 115 -33 180q-51 59 -133 60q-86 0 -162 -54q-88 -66 -115 -198h101q6 35 21.5 58.5t35.5 37.5q39 23 84 22q55 0 78 -24q35 -29 22 -82q-14 -76 -112 -146h2l-191 -133 q-119 -100 -153 -260z" />
<glyph unicode="&#xb3;" horiz-adv-x="651" d="M272 836q33 -158 189 -158q92 0 170 59q90 72 119 195q25 125 -48 188q68 47 91 144q20 104 -37 161q-47 47 -125 48q-166 0 -240 -162l84 -45q37 74 127 73q104 0 90 -75q-8 -33 -49 -58q-37 -20 -74 -20h-59l-29 -133h60q55 0 82 -29q37 -33 26 -92q-16 -61 -63 -94 q-41 -29 -97 -29q-96 0 -114 94z" />
<glyph unicode="&#xb4;" horiz-adv-x="452" d="M344 1196h119l217 258h-182z" />
<glyph unicode="&#xb6;" horiz-adv-x="1173" d="M319 1030q-41 -188 46 -307q80 -115 204 -117l-209 -987h168l342 1614h131l-342 -1614h168l342 1614h164l49 221h-614q-139 0 -272 -115q-137 -127 -177 -309z" />
<glyph unicode="&#xb7;" horiz-adv-x="425" d="M215 537q-14 -61 9.5 -103.5t70.5 -42.5t88 42.5t53 103.5q14 63 -8 105t-70 42q-47 0 -88 -42t-55 -105z" />
<glyph unicode="&#xb8;" horiz-adv-x="452" d="M14 -381h131q53 0 99.5 48t60.5 118q12 53 -2 96t-49 60l47 116h-90l-76 -204h60q23 0 33 -19.5t3.5 -48.5t-26 -48.5t-41.5 -19.5h-107z" />
<glyph unicode="&#xb9;" horiz-adv-x="446" d="M360 1243l48 -88l106 113l-121 -574h101l161 760h-90z" />
<glyph unicode="&#xba;" horiz-adv-x="888" d="M319 1030q-41 -184 31 -319q76 -131 217 -131q139 0 269 131q133 137 170 319q39 182 -35 317.5t-211 135.5q-143 0 -273 -135q-66 -68 -106.5 -147t-61.5 -171zM453 1030q25 113 102 195q80 80 168 80q84 0 127 -82q45 -82 20 -193q-25 -113 -102 -194q-74 -80 -162 -80 q-86 0 -133 80q-45 86 -20 194z" />
<glyph unicode="&#xbb;" horiz-adv-x="1144" d="M121 125l45 -156l502 373l37 168l-343 373l-114 -156l274 -301zM569 125l47 -156l502 373l35 168l-342 373l-115 -156l277 -301z" />
<glyph unicode="&#xbc;" horiz-adv-x="780" d="M221 92h238l-25 -115h88l25 115h53l25 115h-54l82 387h-71l-340 -401zM240 659h577l25 115h-578zM354 207l170 201l-41 -201h-129zM555 1280l41 -72l84 84l-98 -454h88l133 616h-78z" />
<glyph unicode="&#xbd;" horiz-adv-x="780" d="M207 -23h356l25 115h-238q14 16 33.5 32.5t46.5 35.5q55 35 88 58.5t45 33.5q37 35 59.5 74t32.5 86q18 92 -24 149q-41 47 -109 47q-74 0 -131 -43q-72 -49 -96 -168h86q14 57 43 78q37 18 70 19q43 0 59 -19q27 -20 16 -63q-12 -59 -88 -113q-37 -27 -75.5 -53.5 t-75.5 -52.5q-96 -80 -123 -216zM240 659h577l25 115h-578zM555 1280l41 -72l84 84l-98 -454h88l133 616h-78z" />
<glyph unicode="&#xbe;" horiz-adv-x="780" d="M221 92h238l-25 -115h88l25 115h53l25 115h-54l82 387h-71l-340 -401zM240 659h577l25 115h-578zM354 207l170 201l-41 -201h-129zM406 956q25 -133 153 -133q70 0 137 51q74 56 97 158q23 98 -35 150q55 45 69 114q18 88 -30 136q-37 37 -103 36q-129 0 -196 -137 l71 -39q33 61 103 62q80 0 67 -58q-2 -12 -11 -21t-21 -20q-33 -16 -60 -16h-51l-25 -115h52q16 0 33.5 -5t31.5 -19q27 -31 19 -68q-4 -25 -17.5 -43t-30.5 -28q-35 -23 -77 -23q-74 0 -86 78z" />
<glyph unicode="&#xbf;" horiz-adv-x="724" d="M125 117q-29 -147 22 -248q55 -106 164 -107q104 0 209 107q47 53 80 114.5t49 133.5l-12 20h-154q-14 -59 -51 -105t-74 -46q-39 0 -57 38.5t-8 92.5q23 90 98 157q39 35 71 63t70 62q102 104 134 240q0 8 5 40t13 91q6 20 10 53t8 58h-112q-18 -59 -32.5 -113.5 t-25.5 -83.5q-39 -131 -126 -201q-39 -29 -77 -56.5t-77 -55.5q-90 -88 -127 -254zM585.5 1128.5q-14.5 -61.5 9 -104.5t71.5 -43q47 0 88 43t55 104q12 61 -10.5 104.5t-69.5 43.5t-88 -43t-55.5 -104.5z" />
<glyph unicode="&#xc0;" d="M20 -23h179l159 324h447l20 -324h181l-95 1477h-168zM467 522l287 588l37 -588h-324zM690 1812l107 -258h116l-41 258h-182z" />
<glyph unicode="&#xc1;" d="M20 -23h179l159 324h447l20 -324h181l-95 1477h-168zM467 522l287 588l37 -588h-324zM780 1554h115l221 258h-182z" />
<glyph unicode="&#xc2;" d="M20 -23h179l159 324h447l20 -324h181l-95 1477h-168zM467 522l287 588l37 -588h-324zM651 1554h123l98 117l50 -117h118l-73 258h-129z" />
<glyph unicode="&#xc3;" d="M20 -23h179l159 324h447l20 -324h181l-95 1477h-168zM467 522l287 588l37 -588h-324zM637 1628l90 -74q43 96 57 97q31 0 74 -45q57 -51 90 -52q84 0 160 175l-2 26l-82 66q-39 -96 -57 -97q-29 0 -72 43q-51 51 -88 52q-84 0 -170 -191z" />
<glyph unicode="&#xc4;" d="M20 -23h179l159 324h447l20 -324h181l-95 1477h-168zM467 522l287 588l37 -588h-324zM651.5 1667q-10.5 -47 8 -80t53.5 -33t66.5 33t41.5 80t-7 79t-52 32q-37 0 -68.5 -32t-42 -79zM923.5 1667q-10.5 -47 8 -80t53.5 -33t67 33t42 80t-7.5 79t-52.5 32q-37 0 -68.5 -32 t-42 -79z" />
<glyph unicode="&#xc5;" d="M20 -23h179l159 324h447l20 -324h181l-88 1409q74 61 98 173q18 88 -21 153q-31 66 -100 66q-66 0 -131 -66q-63 -68 -82 -153q-25 -113 27 -175zM467 522l287 588l37 -588h-324zM770 1559q10 43 38 73.5t62 30.5q33 0 49.5 -30.5t6.5 -73.5t-38 -74t-61 -31 q-35 0 -51 31t-6 74z" />
<glyph unicode="&#xc6;" horiz-adv-x="1583" d="M20 -23h179l159 324h447l20 -324h654l47 224h-488l86 405h353l47 221h-355l86 406h490l49 221h-657l-172 -807l-54 807h-168zM467 522l287 588l37 -588h-324z" />
<glyph unicode="&#xc7;" horiz-adv-x="1163" d="M219 717q-61 -297 43 -518q98 -213 303 -250l-51 -131h61q23 0 33 -20.5t2 -49.5q-4 -29 -22.5 -48t-40.5 -19h-109l-43 -97h131q53 0 98.5 48.5t59.5 115.5q12 53 -1 96t-46 62l14 37q240 6 457 227l6 31l-80 137q-170 -174 -342 -174q-176 0 -266 162q-88 162 -39 391 q49 225 205 391q156 160 332 160q170 0 272 -172l152 151q-133 244 -375 244t-465 -229q-221 -227 -289 -545z" />
<glyph unicode="&#xc8;" horiz-adv-x="997" d="M94 -23h797l47 224h-627l86 405h492l47 221h-492l86 406h627l49 221h-796zM672 1812l108 -258h115l-43 258h-180z" />
<glyph unicode="&#xc9;" horiz-adv-x="997" d="M94 -23h797l47 224h-627l86 405h492l47 221h-492l86 406h627l49 221h-796zM760 1554h119l217 258h-185z" />
<glyph unicode="&#xca;" horiz-adv-x="997" d="M94 -23h797l47 224h-627l86 405h492l47 221h-492l86 406h627l49 221h-796zM633 1554h123l96 117l49 -117h123l-78 258h-127z" />
<glyph unicode="&#xcb;" horiz-adv-x="997" d="M94 -23h797l47 224h-627l86 405h492l47 221h-492l86 406h627l49 221h-796zM633 1667q-10 -47 7 -80t52 -33t67 33t42 80t-7.5 79t-54.5 32q-35 0 -65.5 -32t-40.5 -79zM905 1667q-10 -47 7.5 -80t52.5 -33t66.5 33t41.5 80t-7 79t-54 32q-35 0 -66 -32t-41 -79z" />
<glyph unicode="&#xcc;" horiz-adv-x="370" d="M94 -23h170l316 1477h-170zM358 1812l107 -258h117l-45 258h-179z" />
<glyph unicode="&#xcd;" horiz-adv-x="370" d="M94 -23h170l316 1477h-170zM449 1554h116l217 258h-182z" />
<glyph unicode="&#xce;" horiz-adv-x="370" d="M94 -23h170l316 1477h-170zM319 1554h123l99 117l47 -117h121l-74 258h-129z" />
<glyph unicode="&#xcf;" horiz-adv-x="370" d="M94 -23h170l316 1477h-170zM319.5 1667q-10.5 -47 7 -80t52.5 -33t66.5 33t41.5 80t-7 79t-52 32q-37 0 -67.5 -32t-41 -79zM592 1667q-10 -47 7 -80t52 -33t67 33t42 80t-7.5 79t-52.5 32q-37 0 -67.5 -32t-40.5 -79z" />
<glyph unicode="&#xd0;" horiz-adv-x="1275" d="M197 -23h426q231 0 442 218q109 111 175 239.5t99 282.5q66 309 -51 520q-117 217 -350 217h-426l-133 -627h-137l-39 -186h135zM414 201l94 440h272l39 186h-272l86 406h258q164 0 244 -152q81 -149 36 -364q-23 -109 -69.5 -200t-120.5 -167q-147 -150 -309 -149h-258z " />
<glyph unicode="&#xd1;" horiz-adv-x="1105" d="M94 -23h170l228 1065l346 -1065h159l316 1477h-168l-227 -1063l-347 1063h-161zM672 1628l92 -74q43 96 57 97q31 0 74 -45q55 -51 88 -52q86 0 160 175l-4 26l-78 66q-39 -96 -57 -97q-29 0 -72 43q-55 51 -90 52q-84 0 -170 -191z" />
<glyph unicode="&#xd2;" horiz-adv-x="1310" d="M219 717q-68 -322 57 -547q125 -227 367 -227q240 0 465 227q219 230 287 547q35 160 21.5 295t-77.5 252q-127 227 -366 227q-242 0 -465 -227q-221 -231 -289 -547zM387 717q49 225 205 391q156 160 332 160q172 0 262 -160q47 -82 55.5 -179t-16.5 -212 q-45 -225 -203 -391q-162 -162 -330 -162q-176 0 -266 162q-88 162 -39 391zM827 1812l109 -258h117l-43 258h-183z" />
<glyph unicode="&#xd3;" horiz-adv-x="1310" d="M219 717q-68 -322 57 -547q125 -227 367 -227q240 0 465 227q219 230 287 547q35 160 21.5 295t-77.5 252q-127 227 -366 227q-242 0 -465 -227q-221 -231 -289 -547zM387 717q49 225 205 391q156 160 332 160q172 0 262 -160q47 -82 55.5 -179t-16.5 -212 q-45 -225 -203 -391q-162 -162 -330 -162q-176 0 -266 162q-88 162 -39 391zM918 1554h116l219 258h-184z" />
<glyph unicode="&#xd4;" horiz-adv-x="1310" d="M219 717q-68 -322 57 -547q125 -227 367 -227q240 0 465 227q219 230 287 547q35 160 21.5 295t-77.5 252q-127 227 -366 227q-242 0 -465 -227q-221 -231 -289 -547zM387 717q49 225 205 391q156 160 332 160q172 0 262 -160q47 -82 55.5 -179t-16.5 -212 q-45 -225 -203 -391q-162 -162 -330 -162q-176 0 -266 162q-88 162 -39 391zM788 1554h123l99 117l49 -117h121l-76 258h-127z" />
<glyph unicode="&#xd5;" horiz-adv-x="1310" d="M219 717q-68 -322 57 -547q125 -227 367 -227q240 0 465 227q219 230 287 547q35 160 21.5 295t-77.5 252q-127 227 -366 227q-242 0 -465 -227q-221 -231 -289 -547zM387 717q49 225 205 391q156 160 332 160q172 0 262 -160q47 -82 55.5 -179t-16.5 -212 q-45 -225 -203 -391q-162 -162 -330 -162q-176 0 -266 162q-88 162 -39 391zM774 1628l92 -74q43 96 58 97q29 0 71 -45q57 -51 90 -52q86 0 160 175l-4 26l-78 66q-39 -96 -57 -97q-29 0 -72 43q-55 51 -90 52q-84 0 -170 -191z" />
<glyph unicode="&#xd6;" horiz-adv-x="1310" d="M219 717q-68 -322 57 -547q125 -227 367 -227q240 0 465 227q219 230 287 547q35 160 21.5 295t-77.5 252q-127 227 -366 227q-242 0 -465 -227q-221 -231 -289 -547zM387 717q49 225 205 391q156 160 332 160q172 0 262 -160q47 -82 55.5 -179t-16.5 -212 q-45 -225 -203 -391q-162 -162 -330 -162q-176 0 -266 162q-88 162 -39 391zM788.5 1667q-10.5 -47 7 -80t54.5 -33q35 0 65.5 33t40.5 80t-7 79t-52 32t-66.5 -32t-42 -79zM1061 1667q-10 -47 7 -80t54 -33q35 0 66 33t41 80t-7.5 79t-52.5 32t-66.5 -32t-41.5 -79z" />
<glyph unicode="&#xd7;" horiz-adv-x="772" d="M156 285l69 -131l248 254l137 -254l127 131l-135 252l244 254l-72 131l-246 -254l-139 254l-125 -131l139 -254z" />
<glyph unicode="&#xd8;" horiz-adv-x="1310" d="M37 55l47 -84l199 189q125 -217 360 -217q240 0 465 227q219 229 287 547q55 266 -23 469l203 192l-45 84l-199 -188q-125 217 -358 217q-242 0 -465 -227q-221 -231 -289 -547q-57 -260 21 -471zM387 717q49 225 205 391q156 160 332 160q164 0 252 -142l-779 -733 q-47 138 -10 324zM436 305l783 733q47 -141 6 -321q-45 -225 -203 -391q-162 -162 -330 -162q-166 0 -256 141z" />
<glyph unicode="&#xd9;" horiz-adv-x="1079" d="M201 537q-55 -242 47 -418q90 -176 278 -176q182 0 357 176q86 88 140 191.5t83 226.5l194 917h-167l-195 -917q-18 -78 -54 -144.5t-89 -120.5q-102 -109 -220 -108q-61 0 -105 27.5t-77 80.5q-57 113 -24 265l196 917h-170zM711 1812l110 -258h115l-43 258h-182z" />
<glyph unicode="&#xda;" horiz-adv-x="1079" d="M201 537q-55 -242 47 -418q90 -176 278 -176q182 0 357 176q86 88 140 191.5t83 226.5l194 917h-167l-195 -917q-18 -78 -54 -144.5t-89 -120.5q-102 -109 -220 -108q-61 0 -105 27.5t-77 80.5q-57 113 -24 265l196 917h-170zM801 1554h119l219 258h-187z" />
<glyph unicode="&#xdb;" horiz-adv-x="1079" d="M201 537q-55 -242 47 -418q90 -176 278 -176q182 0 357 176q86 88 140 191.5t83 226.5l194 917h-167l-195 -917q-18 -78 -54 -144.5t-89 -120.5q-102 -109 -220 -108q-61 0 -105 27.5t-77 80.5q-57 113 -24 265l196 917h-170zM674 1554h121l100 117l47 -117h121l-76 258 h-127z" />
<glyph unicode="&#xdc;" horiz-adv-x="1079" d="M201 537q-55 -242 47 -418q90 -176 278 -176q182 0 357 176q86 88 140 191.5t83 226.5l194 917h-167l-195 -917q-18 -78 -54 -144.5t-89 -120.5q-102 -109 -220 -108q-61 0 -105 27.5t-77 80.5q-57 113 -24 265l196 917h-170zM674 1667q-10 -47 7 -80t52 -33t67 33t42 80 t-7.5 79t-54.5 32q-35 0 -65.5 -32t-40.5 -79zM946 1667q-10 -47 7.5 -80t52.5 -33t66.5 33t41.5 80t-7 79t-54 32q-35 0 -66 -32t-41 -79z" />
<glyph unicode="&#xdd;" horiz-adv-x="1036" d="M326 1454l252 -774l-152 -703h170l152 703l579 774h-209l-407 -543l-174 543h-211zM780 1554h115l221 258h-182z" />
<glyph unicode="&#xde;" horiz-adv-x="991" d="M94 -23h170l68 316h311q137 0 272 117q70 61 111 138t61 169q18 92 9 169t-49 138q-84 117 -224 117h-313l70 313h-170zM379 514l86 406h311q74 0 117 -56q45 -57 27 -147t-89 -148q-72 -55 -141 -55h-311z" />
<glyph unicode="&#xdf;" d="M57 -201h168l234 1096q31 152 121 258q88 115 194 115q219 0 187 -174q-10 -43 -38 -76t-71 -57q-80 -43 -158 -43h-100l-47 -224h98q111 0 178 -65q76 -74 49 -199q-29 -133 -133 -205q-92 -61 -204 -61q-45 0 -117 22l-86 -215q72 -29 153 -28q184 0 334 118 q174 136 221 369q31 141 -10 246h2q-33 82 -98 131q152 90 194 287q45 205 -63 309q-88 88 -242 88q-178 0 -334 -184q-150 -178 -198 -412z" />
<glyph unicode="&#xe0;" horiz-adv-x="1071" d="M162.5 314.5q7.5 -103.5 52.5 -191.5q80 -180 264 -180q190 0 350 188l-34 -154h170l237 1119h-168l-33 -152q-82 188 -268 189q-186 0 -342 -181q-80 -86 -132 -190.5t-79 -224.5q-25 -119 -17.5 -222.5zM339 392q-7 67 11 145q31 154 137 264q104 109 226 108 q117 0 176 -108q59 -110 26 -264q-35 -156 -139 -264.5t-221 -108.5q-121 0 -180 108q-29 53 -36 120zM616 1454l107 -258h117l-43 258h-181z" />
<glyph unicode="&#xe1;" horiz-adv-x="1071" d="M162.5 314.5q7.5 -103.5 52.5 -191.5q80 -180 264 -180q190 0 350 188l-34 -154h170l237 1119h-168l-33 -152q-82 188 -268 189q-186 0 -342 -181q-80 -86 -132 -190.5t-79 -224.5q-25 -119 -17.5 -222.5zM339 392q-7 67 11 145q31 154 137 264q104 109 226 108 q117 0 176 -108q59 -110 26 -264q-35 -156 -139 -264.5t-221 -108.5q-121 0 -180 108q-29 53 -36 120zM707 1196h116l219 258h-184z" />
<glyph unicode="&#xe2;" horiz-adv-x="1071" d="M162.5 314.5q7.5 -103.5 52.5 -191.5q80 -180 264 -180q190 0 350 188l-34 -154h170l237 1119h-168l-33 -152q-82 188 -268 189q-186 0 -342 -181q-80 -86 -132 -190.5t-79 -224.5q-25 -119 -17.5 -222.5zM339 392q-7 67 11 145q31 154 137 264q104 109 226 108 q117 0 176 -108q59 -110 26 -264q-35 -156 -139 -264.5t-221 -108.5q-121 0 -180 108q-29 53 -36 120zM578 1196h122l99 117l49 -117h119l-74 258h-127z" />
<glyph unicode="&#xe3;" horiz-adv-x="1071" d="M162.5 314.5q7.5 -103.5 52.5 -191.5q80 -180 264 -180q190 0 350 188l-34 -154h170l237 1119h-168l-33 -152q-82 188 -268 189q-186 0 -342 -181q-80 -86 -132 -190.5t-79 -224.5q-25 -119 -17.5 -222.5zM339 392q-7 67 11 145q31 154 137 264q104 109 226 108 q117 0 176 -108q59 -110 26 -264q-35 -156 -139 -264.5t-221 -108.5q-121 0 -180 108q-29 53 -36 120zM563 1270l90 -74q41 96 56 96q33 0 75 -45q55 -51 90 -51q84 0 160 174l-4 27l-80 65q-39 -96 -55 -96q-29 0 -74 43q-55 51 -90 51q-82 0 -168 -190z" />
<glyph unicode="&#xe4;" horiz-adv-x="1071" d="M162.5 314.5q7.5 -103.5 52.5 -191.5q80 -180 264 -180q190 0 350 188l-34 -154h170l237 1119h-168l-33 -152q-82 188 -268 189q-186 0 -342 -181q-80 -86 -132 -190.5t-79 -224.5q-25 -119 -17.5 -222.5zM339 392q-7 67 11 145q31 154 137 264q104 109 226 108 q117 0 176 -108q59 -110 26 -264q-35 -156 -139 -264.5t-221 -108.5q-121 0 -180 108q-29 53 -36 120zM575.5 1309q-10.5 -47 8 -80t53.5 -33t65.5 33t40.5 80t-7 78.5t-52 31.5t-66.5 -31.5t-42 -78.5zM848 1309q-10 -47 8 -80t53 -33t66 33t41 80t-7.5 78.5t-52.5 31.5 t-66.5 -31.5t-41.5 -78.5z" />
<glyph unicode="&#xe5;" horiz-adv-x="1071" d="M162.5 314.5q7.5 -103.5 52.5 -191.5q80 -180 264 -180q190 0 350 188l-34 -154h170l237 1119h-168l-33 -152q-82 188 -268 189q-186 0 -342 -181q-80 -86 -132 -190.5t-79 -224.5q-25 -119 -17.5 -222.5zM339 392q-7 67 11 145q31 154 137 264q104 109 226 108 q117 0 176 -108q59 -110 26 -264q-35 -156 -139 -264.5t-221 -108.5q-121 0 -180 108q-29 53 -36 120zM653 1415q-20 -92 14.5 -155.5t106.5 -63.5q35 0 69 17.5t61.5 47t49 69.5t31.5 85q18 92 -15.5 155.5t-103.5 63.5q-35 0 -68.5 -17.5t-62 -46t-50 -69.5t-32.5 -86z M739.5 1415q10.5 43 39 74t63.5 31q31 0 48 -31t7 -74t-39 -73.5t-59 -30.5q-35 0 -52.5 30.5t-7 73.5z" />
<glyph unicode="&#xe6;" horiz-adv-x="1773" d="M162.5 314.5q7.5 -103.5 52.5 -191.5q82 -180 264 -180q190 0 348 186l-32 -152h170l30 152q86 -186 269 -186q201 0 401 252l-117 120q-127 -152 -258 -151q-98 0 -162 82q-51 72 -53 180h715q10 35 17.5 61.5t13.5 49.5q49 238 -31 413q-84 182 -264 183 q-98 0 -186.5 -48.5t-170.5 -140.5l33 152h-168l-33 -152q-82 188 -268 189q-182 0 -342 -181q-80 -86 -132 -190.5t-79 -224.5q-25 -119 -17.5 -222.5zM339 392q-7 67 11 145q31 154 137 264q104 109 226 108q117 0 176 -108q59 -110 26 -264q-35 -156 -139 -264.5 t-221 -108.5q-121 0 -180 108q-29 53 -36 120zM1122 649q45 102 131 180q98 80 195 80q98 0 158 -80q55 -72 55 -180h-539z" />
<glyph unicode="&#xe7;" horiz-adv-x="968" d="M180 537q-45 -217 29 -390q72 -160 219 -196l-49 -133h59q23 0 33 -20.5t4 -49.5t-24.5 -48t-40.5 -19h-107l-43 -97h131q53 0 97 48.5t61 115.5q12 53 -2.5 96t-46.5 62l14 37q223 6 401 235l3 29l-107 108q-123 -152 -256 -151q-121 0 -180 108q-29 53 -36 120t11 145 q31 154 137 264q104 109 226 108q133 0 194 -149l168 121q-43 119 -127 185.5t-188 66.5q-186 0 -354 -177q-174 -176 -226 -419z" />
<glyph unicode="&#xe8;" d="M180 537q-51 -240 45 -418q94 -176 283 -176q104 0 216 66.5t206 185.5l-119 120q-59 -76 -124.5 -113.5t-131.5 -37.5q-98 0 -162 82q-53 72 -53 180h715q10 35 17 61.5t11 49.5q27 123 17 226t-60 193q-94 176 -280 177q-186 0 -354 -177q-174 -176 -226 -419zM387 649 q45 102 131 180q94 80 195 80q98 0 157 -80q51 -68 56 -180h-539zM616 1454l107 -258h117l-43 258h-181z" />
<glyph unicode="&#xe9;" d="M180 537q-51 -240 45 -418q94 -176 283 -176q104 0 216 66.5t206 185.5l-119 120q-59 -76 -124.5 -113.5t-131.5 -37.5q-98 0 -162 82q-53 72 -53 180h715q10 35 17 61.5t11 49.5q27 123 17 226t-60 193q-94 176 -280 177q-186 0 -354 -177q-174 -176 -226 -419zM387 649 q45 102 131 180q94 80 195 80q98 0 157 -80q51 -68 56 -180h-539zM707 1196h116l219 258h-184z" />
<glyph unicode="&#xea;" d="M180 537q-51 -240 45 -418q94 -176 283 -176q104 0 216 66.5t206 185.5l-119 120q-59 -76 -124.5 -113.5t-131.5 -37.5q-98 0 -162 82q-53 72 -53 180h715q10 35 17 61.5t11 49.5q27 123 17 226t-60 193q-94 176 -280 177q-186 0 -354 -177q-174 -176 -226 -419zM387 649 q45 102 131 180q94 80 195 80q98 0 157 -80q51 -68 56 -180h-539zM578 1196h122l99 117l49 -117h119l-74 258h-127z" />
<glyph unicode="&#xeb;" d="M180 537q-51 -240 45 -418q94 -176 283 -176q104 0 216 66.5t206 185.5l-119 120q-59 -76 -124.5 -113.5t-131.5 -37.5q-98 0 -162 82q-53 72 -53 180h715q10 35 17 61.5t11 49.5q27 123 17 226t-60 193q-94 176 -280 177q-186 0 -354 -177q-174 -176 -226 -419zM387 649 q45 102 131 180q94 80 195 80q98 0 157 -80q51 -68 56 -180h-539zM575.5 1309q-10.5 -47 8 -80t53.5 -33t65.5 33t40.5 80t-7 78.5t-52 31.5t-66.5 -31.5t-42 -78.5zM848 1309q-10 -47 8 -80t53 -33t66 33t41 80t-7.5 78.5t-52.5 31.5t-66.5 -31.5t-41.5 -78.5z" />
<glyph unicode="&#xec;" horiz-adv-x="370" d="M94 -23h170l238 1119h-168zM283 1454l108 -258h117l-45 258h-180z" />
<glyph unicode="&#xed;" horiz-adv-x="370" d="M94 -23h170l238 1119h-168zM373 1196h116l220 258h-185z" />
<glyph unicode="&#xee;" horiz-adv-x="370" d="M94 -23h170l238 1119h-168zM244 1196h123l98 117l47 -117h123l-76 258h-129z" />
<glyph unicode="&#xef;" horiz-adv-x="370" d="M94 -23h170l238 1119h-168zM241.5 1309q-10.5 -47 8 -80t55.5 -33q35 0 65 33t40 80t-7.5 78.5t-52.5 31.5t-66.5 -31.5t-42 -78.5zM514 1309q-10 -47 8.5 -80t55.5 -33q35 0 64.5 33t39.5 80t-7.5 78.5t-51.5 31.5q-35 0 -67 -31.5t-42 -78.5z" />
<glyph unicode="&#xf0;" horiz-adv-x="1153" d="M180 537q-51 -240 45 -418q94 -176 283 -176q184 0 354 176q88 88 141.5 191.5t79.5 226.5l134 624h137l39 187h-138l25 106h-170l-23 -106h-135l-41 -187h138l-48 -217q-82 188 -268 189q-182 0 -342 -181q-80 -86 -132 -190.5t-79 -224.5zM339 392q-7 67 11 145 q31 154 137 264q104 109 226 108q117 0 176 -108q59 -110 26 -264q-35 -156 -139 -264.5t-221 -108.5q-121 0 -180 108q-29 53 -36 120z" />
<glyph unicode="&#xf1;" horiz-adv-x="929" d="M94 -23h170l144 668q23 113 98 189q72 76 160 75q82 0 127 -75q39 -74 16 -189l-143 -668h170l143 668q41 197 -27 336q-66 152 -215 152q-133 0 -256 -125l21 88h-168zM516 1270l92 -74q37 96 56 96q31 0 73 -45q55 -51 88 -51q86 0 162 174l-4 27l-80 65 q-39 -96 -55 -96q-31 0 -76 43q-55 51 -90 51q-84 0 -166 -190z" />
<glyph unicode="&#xf2;" d="M180 537q-51 -240 45 -418q94 -176 283 -176q184 0 354 176q88 88 141 191.5t80 226.5t17 226t-60 193q-94 176 -280 177q-186 0 -354 -177q-174 -176 -226 -419zM339 392q-7 67 11 145q31 154 137 264q104 109 226 108q117 0 176 -108q59 -110 26 -264 q-35 -156 -139 -264.5t-221 -108.5q-121 0 -180 108q-29 53 -36 120zM616 1454l107 -258h117l-43 258h-181z" />
<glyph unicode="&#xf3;" d="M180 537q-51 -240 45 -418q94 -176 283 -176q184 0 354 176q88 88 141 191.5t80 226.5t17 226t-60 193q-94 176 -280 177q-186 0 -354 -177q-174 -176 -226 -419zM339 392q-7 67 11 145q31 154 137 264q104 109 226 108q117 0 176 -108q59 -110 26 -264 q-35 -156 -139 -264.5t-221 -108.5q-121 0 -180 108q-29 53 -36 120zM707 1196h116l219 258h-184z" />
<glyph unicode="&#xf4;" d="M180 537q-51 -240 45 -418q94 -176 283 -176q184 0 354 176q88 88 141 191.5t80 226.5t17 226t-60 193q-94 176 -280 177q-186 0 -354 -177q-174 -176 -226 -419zM339 392q-7 67 11 145q31 154 137 264q104 109 226 108q117 0 176 -108q59 -110 26 -264 q-35 -156 -139 -264.5t-221 -108.5q-121 0 -180 108q-29 53 -36 120zM578 1196h122l99 117l49 -117h119l-74 258h-127z" />
<glyph unicode="&#xf5;" d="M180 537q-51 -240 45 -418q94 -176 283 -176q184 0 354 176q88 88 141 191.5t80 226.5t17 226t-60 193q-94 176 -280 177q-186 0 -354 -177q-174 -176 -226 -419zM339 392q-7 67 11 145q31 154 137 264q104 109 226 108q117 0 176 -108q59 -110 26 -264 q-35 -156 -139 -264.5t-221 -108.5q-121 0 -180 108q-29 53 -36 120zM563 1270l90 -74q41 96 56 96q33 0 75 -45q55 -51 90 -51q84 0 160 174l-4 27l-80 65q-39 -96 -55 -96q-29 0 -74 43q-55 51 -90 51q-82 0 -168 -190z" />
<glyph unicode="&#xf6;" d="M180 537q-51 -240 45 -418q94 -176 283 -176q184 0 354 176q88 88 141 191.5t80 226.5t17 226t-60 193q-94 176 -280 177q-186 0 -354 -177q-174 -176 -226 -419zM339 392q-7 67 11 145q31 154 137 264q104 109 226 108q117 0 176 -108q59 -110 26 -264 q-35 -156 -139 -264.5t-221 -108.5q-121 0 -180 108q-29 53 -36 120zM575.5 1309q-10.5 -47 8 -80t53.5 -33t65.5 33t40.5 80t-7 78.5t-52 31.5t-66.5 -31.5t-42 -78.5zM848 1309q-10 -47 8 -80t53 -33t66 33t41 80t-7.5 78.5t-52.5 31.5t-66.5 -31.5t-41.5 -78.5z" />
<glyph unicode="&#xf7;" horiz-adv-x="780" d="M195 444h577l39 187h-575zM305 125q-14 -61 9.5 -104.5t70.5 -43.5t87 43.5t54 104.5t-8 104t-69 43q-49 0 -90.5 -43t-53.5 -104zM479 950q-12 -63 10.5 -105t71.5 -42q47 0 87 42t54 105q12 61 -10 103.5t-69 42.5t-89 -42t-55 -104z" />
<glyph unicode="&#xf8;" d="M37 55l47 -84l147 135q94 -164 277 -163q184 0 354 176q88 88 141.5 191.5t79.5 226.5q41 193 -8 344l152 139l-45 84l-146 -135q-100 164 -276 164q-186 0 -354 -177q-174 -176 -226 -419q-41 -193 10 -342zM339 436.5q-1 47.5 11 100.5q31 154 137 264q104 109 226 108 q106 0 161 -86l-524 -481q-10 47 -11 94.5zM391 252l524 481q20 -92 0 -196q-35 -156 -139 -264.5t-221 -108.5q-102 0 -164 88z" />
<glyph unicode="&#xf9;" horiz-adv-x="929" d="M178 430q-43 -195 25 -338q68 -150 215 -149q133 0 256 123l-21 -89h170l238 1119h-168l-141 -666q-25 -109 -101 -188q-37 -37 -75.5 -57.5t-81.5 -20.5q-84 0 -127 78q-45 80 -21 188l141 666h-168zM555 1454l109 -258h116l-43 258h-182z" />
<glyph unicode="&#xfa;" horiz-adv-x="929" d="M178 430q-43 -195 25 -338q68 -150 215 -149q133 0 256 123l-21 -89h170l238 1119h-168l-141 -666q-25 -109 -101 -188q-37 -37 -75.5 -57.5t-81.5 -20.5q-84 0 -127 78q-45 80 -21 188l141 666h-168zM645 1196h117l219 258h-184z" />
<glyph unicode="&#xfb;" horiz-adv-x="929" d="M178 430q-43 -195 25 -338q68 -150 215 -149q133 0 256 123l-21 -89h170l238 1119h-168l-141 -666q-25 -109 -101 -188q-37 -37 -75.5 -57.5t-81.5 -20.5q-84 0 -127 78q-45 80 -21 188l141 666h-168zM516 1196h123l98 117l47 -117h123l-76 258h-129z" />
<glyph unicode="&#xfc;" horiz-adv-x="929" d="M178 430q-43 -195 25 -338q68 -150 215 -149q133 0 256 123l-21 -89h170l238 1119h-168l-141 -666q-25 -109 -101 -188q-37 -37 -75.5 -57.5t-81.5 -20.5q-84 0 -127 78q-45 80 -21 188l141 666h-168zM514 1309q-10 -47 8.5 -80t55.5 -33q35 0 64.5 33t39.5 80t-7.5 78.5 t-51.5 31.5q-35 0 -67 -31.5t-42 -78.5zM786.5 1309q-10.5 -47 8 -80t55.5 -33q35 0 64.5 33t39.5 80t-7 78.5t-52 31.5t-66.5 -31.5t-42 -78.5z" />
<glyph unicode="&#xfd;" horiz-adv-x="905" d="M98 -391q29 -14 47.5 -19.5t32.5 -5.5q147 0 244 183v-3l692 1332h-184l-414 -801l-76 801h-182l102 -1096l-81 -158q-18 -37 -56 -37q-20 0 -78 29zM639 1196h115l219 258h-180z" />
<glyph unicode="&#xfe;" horiz-adv-x="1071" d="M20 -381h168l109 512q84 -188 270 -188q182 0 344 180q154 172 207 414q51 240 -33 415q-84 180 -264 181q-96 0 -182 -48.5t-170 -140.5l111 510h-170zM383 537q35 160 139 264q104 109 226 108q115 0 176 -108q57 -106 26 -264q-18 -78 -53 -144.5t-88 -120.5 q-104 -109 -219 -108q-121 0 -182 108q-59 109 -25 265z" />
<glyph unicode="&#xff;" horiz-adv-x="905" d="M98 -391q29 -14 47.5 -19.5t32.5 -5.5q147 0 244 183v-3l692 1332h-184l-414 -801l-76 801h-182l102 -1096l-81 -158q-18 -37 -56 -37q-20 0 -78 29zM510 1309q-10 -47 7.5 -80t53.5 -33q35 0 67 33t42 80t-8.5 78.5t-53.5 31.5q-37 0 -67.5 -31.5t-40.5 -78.5z M782.5 1309q-10.5 -47 7 -80t54.5 -33q35 0 66.5 33t41.5 80t-8 78.5t-53 31.5q-37 0 -67.5 -31.5t-41 -78.5z" />
<glyph unicode="&#x152;" horiz-adv-x="1835" d="M219 717q-68 -322 57 -547q125 -227 367 -227q252 0 467 229l-43 -195h659l50 224h-492l86 405h356l46 221h-355l86 406h492l47 221h-660l-43 -194q-115 231 -366 231q-242 0 -465 -227q-221 -231 -289 -547zM387 717q49 225 205 391q156 160 332 160q172 0 262 -160 q47 -82 55.5 -179t-16.5 -212q-45 -225 -203 -391q-162 -162 -330 -162q-176 0 -266 162q-88 162 -39 391z" />
<glyph unicode="&#x153;" horiz-adv-x="1773" d="M180 537q-51 -240 45 -418q94 -176 283 -176q109 0 219.5 66.5t200.5 183.5q37 -117 119.5 -183.5t193.5 -66.5q106 0 218 66.5t206 185.5l-117 120q-127 -152 -258 -151q-98 0 -162 82q-51 72 -53 180h715q10 35 17.5 61.5t13.5 49.5q51 244 -43 419q-96 176 -283 177 q-111 0 -222.5 -67t-199.5 -185q-39 119 -122 185.5t-191 66.5q-186 0 -354 -177q-174 -176 -226 -419zM339 392q-7 67 11 145q31 154 137 264q104 109 226 108q117 0 176 -108q59 -110 26 -264q-35 -156 -139 -264.5t-221 -108.5q-121 0 -180 108q-29 53 -36 120zM1122 649 q45 102 131 180q98 80 195 80q98 0 158 -80q55 -72 55 -180h-539z" />
<glyph unicode="&#x178;" horiz-adv-x="1036" d="M326 1454l252 -774l-152 -703h170l152 703l579 774h-209l-407 -543l-174 543h-211zM651.5 1667q-10.5 -47 7 -80t52.5 -33t67.5 33t42.5 80t-8 79t-53 32q-37 0 -67.5 -32t-41 -79zM923.5 1667q-10.5 -47 7 -80t52.5 -33t68 33t43 80t-8.5 79t-53.5 32q-37 0 -67.5 -32 t-41 -79z" />
<glyph unicode="&#x2c6;" horiz-adv-x="561" d="M338 1196h125l98 117l47 -117h121l-76 258h-127z" />
<glyph unicode="&#x2dc;" horiz-adv-x="647" d="M365 1266l92 -76q43 96 57 96q33 0 72 -45q29 -23 50 -36t42 -13q84 0 160 174l-4 25l-80 65q-43 -96 -58 -96q-31 0 -75 43q-49 51 -86 51q-84 0 -170 -188z" />
<glyph unicode="&#x2000;" horiz-adv-x="910" />
<glyph unicode="&#x2001;" horiz-adv-x="1821" />
<glyph unicode="&#x2002;" horiz-adv-x="910" />
<glyph unicode="&#x2003;" horiz-adv-x="1821" />
<glyph unicode="&#x2004;" horiz-adv-x="607" />
<glyph unicode="&#x2005;" horiz-adv-x="455" />
<glyph unicode="&#x2006;" horiz-adv-x="303" />
<glyph unicode="&#x2007;" horiz-adv-x="303" />
<glyph unicode="&#x2008;" horiz-adv-x="227" />
<glyph unicode="&#x2009;" horiz-adv-x="364" />
<glyph unicode="&#x200a;" horiz-adv-x="101" />
<glyph unicode="&#x2010;" horiz-adv-x="780" d="M195 444h577l39 187h-575z" />
<glyph unicode="&#x2011;" horiz-adv-x="780" d="M195 444h577l39 187h-575z" />
<glyph unicode="&#x2012;" horiz-adv-x="780" d="M195 444h577l39 187h-575z" />
<glyph unicode="&#x2013;" horiz-adv-x="643" d="M195 444h442l39 187h-440z" />
<glyph unicode="&#x2014;" horiz-adv-x="915" d="M195 444h714l39 187h-712z" />
<glyph unicode="&#x2018;" horiz-adv-x="425" d="M293 909h223l64 295h-136q16 57 47 96t62 39l27 115q-80 0 -144 -82q-29 -39 -51.5 -86t-34.5 -104z" />
<glyph unicode="&#x2019;" horiz-adv-x="425" d="M348 909q80 0 146 84q29 39 48 86.5t31 102.5l60 272h-223l-62 -293h133q-16 -59 -47 -98t-61 -39z" />
<glyph unicode="&#x201a;" horiz-adv-x="425" d="M94 -23h135q-16 -55 -46.5 -95t-61.5 -40l-25 -114q84 0 144 82q62 79 82 190l57 272h-221z" />
<glyph unicode="&#x201c;" horiz-adv-x="724" d="M293 909h223l64 295h-136q16 57 47 96t62 39l27 115q-80 0 -144 -82q-29 -39 -51.5 -86t-34.5 -104zM594 909h223l64 295h-138q16 57 47 96t62 39l27 115q-80 0 -144 -82q-29 -39 -51 -86t-33 -104z" />
<glyph unicode="&#x201d;" horiz-adv-x="724" d="M348 909q80 0 146 84q29 39 48 86.5t31 102.5l60 272h-223l-62 -293h133q-16 -59 -47 -98t-61 -39zM647 1161h133q-16 -59 -47 -98t-59 -39l-25 -115q82 0 144 84q56 74 81 189l60 272h-225z" />
<glyph unicode="&#x201e;" horiz-adv-x="724" d="M94 -23h135q-16 -55 -46.5 -95t-61.5 -40l-25 -114q84 0 144 82q62 79 82 190l57 272h-221zM393 -23h135q-16 -55 -46.5 -95t-59.5 -40l-25 -114q82 0 142 82q64 81 84 190l57 272h-223z" />
<glyph unicode="&#x2022;" horiz-adv-x="724" d="M215 537q-31 -139 27 -242q55 -102 161 -102q104 0 205 100q49 53 82 112.5t47 131.5q16 72 9 131t-35 112q-55 100 -160 101q-109 0 -207 -100.5t-129 -243.5z" />
<glyph unicode="&#x2026;" horiz-adv-x="1134" d="M127 124.5q-14 -61.5 9.5 -104.5t70.5 -43t88 43.5t55 104.5q12 61 -10.5 104t-69.5 43t-88 -43t-55 -104.5zM481 125q-12 -61 10.5 -104.5t69.5 -43.5t88.5 43.5t55.5 104.5t-10.5 104t-71.5 43t-87 -43t-55 -104zM836 125q-14 -61 9 -104.5t70 -43.5t88.5 43.5 t55.5 104.5t-9.5 104t-70.5 43t-89 -43t-54 -104z" />
<glyph unicode="&#x202f;" horiz-adv-x="364" />
<glyph unicode="&#x2039;" horiz-adv-x="614" d="M215 537l277 -301l114 157l-213 230l309 229l-49 156l-403 -301z" />
<glyph unicode="&#x203a;" horiz-adv-x="614" d="M178 393l45 -157l406 301l37 170l-279 301l-113 -156l209 -229z" />
<glyph unicode="&#x205f;" horiz-adv-x="455" />
<glyph unicode="&#x20ac;" horiz-adv-x="1273" d="M193 463h167q12 -233 134 -373q119 -147 313 -147q78 0 161 27.5t169 86.5l59 277q-94 -86 -178 -128t-164 -42q-125 0 -209 90q-76 78 -100 209h489l90 186h-585q2 33 12 68q4 16 7 33.5t9 33.5h625l90 187h-631q41 63 87 115.5t104 93.5q121 88 245 88q160 0 263 -158 l106 223q-125 158 -319 158q-193 0 -379 -150q-180 -141 -291 -370h-115l-92 -187h137q-4 -16 -8 -33.5t-8 -33.5q-4 -18 -7 -34.5t-5 -33.5h-84z" />
<glyph unicode="&#x2122;" horiz-adv-x="1224" d="M375 1286h176l-133 -627h127l135 627h117l-133 -627h127l90 420l26 -420h115l205 418l-88 -418h127l170 795h-160l-252 -512l-31 512h-583z" />
<glyph unicode="&#xe000;" horiz-adv-x="1095" d="M0 0v1096h1096v-1096h-1096z" />
</font>
</defs>
</svg>
