<?xml version="1.0" standalone="no"?>
<!DOCTYPE svg PUBLIC "-//W3C//DTD SVG 1.1//EN" "http://www.w3.org/Graphics/SVG/1.1/DTD/svg11.dtd" >
<svg xmlns="http://www.w3.org/2000/svg">
<metadata></metadata>
<defs>
<font id="florencesans_expbold" horiz-adv-x="583" >
<font-face units-per-em="2048" ascent="1638" descent="-410" />
<missing-glyph horiz-adv-x="1071" />
<glyph horiz-adv-x="2048" />
<glyph horiz-adv-x="2048" />
<glyph unicode="&#xd;" horiz-adv-x="1024" />
<glyph unicode=" "  horiz-adv-x="1071" />
<glyph unicode="&#x09;" horiz-adv-x="1071" />
<glyph unicode="&#xa0;" horiz-adv-x="1071" />
<glyph unicode="!" horiz-adv-x="669" d="M160 125q0 -61 50 -104.5t126 -43.5q74 0 125 43.5t51 104.5t-51 104t-125 43q-76 0 -126 -43t-50 -104zM203 1454l43 -1081h180l43 1081h-266z" />
<glyph unicode="&#x22;" horiz-adv-x="1185" d="M154 1526l100 -516q12 -63 82 -64q37 0 55.5 16.5t26.5 47.5l98 516h-362zM670 1526l100 -516q12 -63 82 -64q37 0 55.5 16.5t26.5 47.5l98 516h-362z" />
<glyph unicode="#" horiz-adv-x="1486" d="M160 588h229l-22 -215h225l20 215h207l-22 -215h225l20 215h287v186h-266l18 172h248v187h-229l22 215h-223l-20 -215h-209l22 215h-223l-20 -215h-289v-187h268l-20 -172h-248v-186zM633 774l18 172h207l-20 -172h-205z" />
<glyph unicode="$" horiz-adv-x="1744" d="M160 408q0 -217 196 -336q154 -92 383 -121v-152h269v152q223 27 381 121q198 120 198 315q0 215 -190 320q-125 61 -389 102v446q104 -16 174 -59q96 -53 96 -168h266q0 205 -178 326q-74 51 -165 82.5t-193 46.5v151h-269v-151q-213 -29 -360 -129q-176 -119 -176 -303 q0 -205 170 -314q59 -37 149 -65.5t217 -46.5v-453q-121 14 -202 59q-111 55 -111 177h-266zM469 1051q0 92 94 145q74 45 176 59v-409q-59 10 -104 25.5t-74 31.5q-92 51 -92 148zM1008 172v418q137 -23 202 -53q111 -52 111 -150q0 -178 -313 -215z" />
<glyph unicode="%" horiz-adv-x="2197" d="M160 1110q0 -156 133 -268q68 -57 148.5 -84t172.5 -27q190 0 322 111q135 116 135 268t-135 268q-133 113 -322 113q-188 0 -321 -112.5t-133 -268.5zM193 -23h284l1526 1477h-283zM383 1110q0 80 67.5 137.5t163.5 57.5q98 0 166 -56q68 -57 68 -139q0 -80 -68 -137 q-68 -55 -166 -55q-96 0 -163 55q-68 61 -68 137zM1126 322q0 -156 134 -269q135 -111 323 -110q188 0 320 110q137 115 137 269t-137 268q-133 113 -320 112q-186 0 -323 -112q-133 -113 -134 -268zM1352 322q0 84 65 139q68 55 166 55t166 -55q66 -55 66 -139 q0 -82 -66 -138q-68 -55 -166 -55t-166 55q-66 55 -65 138z" />
<glyph unicode="&#x26;" horiz-adv-x="1687" d="M160 399q0 -193 159 -323q162 -133 390 -133q248 0 450 129l74 -95h317l-207 267q16 23 34 50.5t38 61.5h-4l98 185l-241 90l-92 -170l-263 334q80 41 131.5 73.5t77.5 55.5q102 96 103 227q0 141 -125 242v-2q-119 100 -291 100q-170 0 -291 -100.5t-121 -239.5 q0 -82 54 -170q8 -10 29.5 -40t66.5 -83q-176 -94 -258 -176q-129 -127 -129 -283zM426 403q0 92 90 162q51 45 174 111l322 -416q-66 -49 -142.5 -72.5t-160.5 -23.5q-119 0 -201 69.5t-82 169.5zM666 1153q0 47 39.5 82t99.5 35q63 0 108 -35t45 -86q0 -70 -86 -111 l-102 -57l-80 102v-2q-25 33 -24 72z" />
<glyph unicode="'" horiz-adv-x="669" d="M154 1526l100 -516q12 -63 82 -64q37 0 55.5 16.5t26.5 47.5l98 516h-362z" />
<glyph unicode="(" horiz-adv-x="841" d="M160 627q0 -256 78 -439q84 -188 278 -389h184q-162 236 -219 412q-55 178 -55 416t55 413q29 90 84.5 192.5t134.5 221.5h-184q-98 -100 -167.5 -197.5t-110.5 -191.5q-41 -92 -59.5 -201.5t-18.5 -236.5z" />
<glyph unicode=")" horiz-adv-x="841" d="M141 -201h185q199 201 278 389q80 187 80 439q0 250 -80 438q-82 193 -278 389h-185q164 -238 221 -414q27 -88 41.5 -190t14.5 -223t-15.5 -223.5t-44.5 -192.5q-55 -180 -217 -412z" />
<glyph unicode="*" horiz-adv-x="1200" d="M150 858l112 -162l225 111v-219h224v219l227 -111l113 162l-230 109l230 110l-113 162l-227 -113v222h-224v-222l-225 113l-112 -162l227 -110z" />
<glyph unicode="+" horiz-adv-x="1228" d="M160 444h344v-286h223v286h344v187h-344v287h-223v-287h-344v-187z" />
<glyph unicode="," horiz-adv-x="669" d="M154 272l100 -516q12 -66 82 -65q37 0 55.5 17.5t26.5 47.5l98 516h-362z" />
<glyph unicode="-" horiz-adv-x="1228" d="M160 444h911v187h-911v-187z" />
<glyph unicode="." horiz-adv-x="669" d="M160 125q0 -61 50 -104.5t126 -43.5q74 0 125 43.5t51 104.5t-51 104t-125 43q-76 0 -126 -43t-50 -104z" />
<glyph unicode="/" horiz-adv-x="1126" d="M98 -113l250 -75l680 1556l-250 74z" />
<glyph unicode="0" horiz-adv-x="1724" d="M106 717q0 -299 191 -522q217 -252 565 -252q346 0 565 252q193 227 193 522q0 299 -193 522q-219 252 -565 252q-348 0 -565 -252q-190 -221 -191 -522zM373 717q0 106 28.5 198.5t92.5 171.5q66 92 158.5 136.5t209.5 44.5q233 0 371 -181q121 -161 121 -370 q0 -213 -121 -371q-139 -182 -371 -182q-236 0 -368 182q-63 78 -92 171t-29 200z" />
<glyph unicode="1" horiz-adv-x="1724" d="M430 1053l174 -144l291 244v-1176h266v1477h-250z" />
<glyph unicode="2" horiz-adv-x="1724" d="M193 -23h1341v224h-995q94 111 329 223q186 92 297 150.5t146 82.5q223 160 223 375q0 217 -219 344q-188 115 -453 115q-256 0 -450 -107q-219 -121 -219 -356h266q0 133 131 191q111 49 262 49q86 0 154.5 -11.5t123.5 -39.5q137 -63 138 -185q0 -164 -271 -309h2 q-260 -137 -514 -266q-293 -195 -292 -480z" />
<glyph unicode="3" horiz-adv-x="1724" d="M172 229q104 -158 293 -223q170 -63 366 -63q287 0 488 118q227 138 227 369q0 256 -299 377q213 92 213 287q0 199 -209 307q-174 90 -420 90q-199 0 -352 -59q-195 -76 -258 -234l250 -76q61 145 360 146q76 0 135.5 -8.5t106.5 -24.5q121 -47 121 -141 q0 -80 -127 -133q-111 -43 -236 -43h-153v-224h153q174 0 299 -65q150 -76 150 -199q0 -131 -143 -205q-127 -61 -306 -61q-317 0 -430 178z" />
<glyph unicode="4" horiz-adv-x="1724" d="M150 264h946v-287h266v287h215v223h-215v967h-223l-989 -981v-209zM459 487l637 623v-623h-637z" />
<glyph unicode="5" horiz-adv-x="1724" d="M160 342q45 -98 113.5 -173t162.5 -126q190 -100 410 -100q289 0 497 159q216 160 216 400q0 238 -216 399q-209 160 -497 160q-207 0 -381 -84v256h878v221h-1142v-731l237 -78q66 92 175.5 142.5t232.5 50.5q180 0 307 -95q139 -96 139 -241t-139 -242 q-131 -96 -307 -96q-139 0 -252 57q-111 57 -174 176z" />
<glyph unicode="6" horiz-adv-x="1724" d="M125 717q0 -295 190 -522q221 -252 566 -252q291 0 499 157q219 166 219 406q0 233 -219 403q-213 158 -499 158q-281 0 -459 -149q43 125 129 215q66 68 148.5 101.5t181.5 33.5q211 0 358 -164l209 133q-231 254 -567 254q-344 0 -566 -252q-190 -225 -190 -522z M453 504q0 147 125 241q123 98 303 99q180 0 315 -94q137 -101 137 -246q0 -150 -137 -242q-133 -98 -315 -98q-158 0 -293 104.5t-135 235.5z" />
<glyph unicode="7" horiz-adv-x="1724" d="M332 1233h893l-881 -1256h315l885 1272v205h-1212v-221z" />
<glyph unicode="8" horiz-adv-x="1724" d="M150 430q0 -233 227 -369q195 -119 485 -118q287 0 486 118q113 68 171 160t58 209q0 256 -299 377q213 90 213 287q0 199 -209 307q-176 90 -420 90t-420 -90q-207 -106 -206 -307q0 -199 213 -287q-299 -119 -299 -377zM416 430q0 125 147 199q129 66 299 65 q174 0 299 -65q150 -76 150 -199q0 -131 -146 -205q-123 -61 -303 -61t-303 61q-143 74 -143 205zM502 1094q0 96 121 141q47 16 106 24.5t133 8.5t134.5 -8.5t107.5 -24.5q121 -47 121 -141q0 -82 -129 -133q-109 -43 -234 -43t-235 43q-125 53 -125 133z" />
<glyph unicode="9" horiz-adv-x="1724" d="M125 928q0 -236 219 -404q211 -158 498 -157q281 0 458 147q-43 -123 -126 -213q-133 -137 -332 -137q-213 0 -357 166l-206 -133q229 -254 563 -254q346 0 567 252q190 223 190 522q0 301 -190 522q-221 252 -567 252q-291 0 -498 -158q-219 -164 -219 -405zM391 930 q0 150 135 241q133 96 316 97q162 0 297 -103q66 -53 98.5 -110t32.5 -125q0 -143 -123 -244q-125 -96 -305 -96q-90 0 -167 24.5t-149 71.5q-135 98 -135 244z" />
<glyph unicode=":" horiz-adv-x="669" d="M160 125q0 -61 50 -104.5t126 -43.5q74 0 125 43.5t51 104.5t-51 104t-125 43q-76 0 -126 -43t-50 -104zM160 770q0 -61 50 -104t126 -43q74 0 125 43t51 104t-51 104.5t-125 43.5q-76 0 -126 -43.5t-50 -104.5z" />
<glyph unicode=";" horiz-adv-x="669" d="M154 272l100 -516q12 -66 82 -65q37 0 55.5 17.5t26.5 47.5l98 516h-362zM160 770q0 -61 50 -104t126 -43q74 0 125 43t51 104t-51 104.5t-125 43.5q-76 0 -126 -43.5t-50 -104.5z" />
<glyph unicode="&#x3c;" horiz-adv-x="1183" d="M160 453l753 -408l123 158l-620 334l620 335l-123 158l-753 -407v-170z" />
<glyph unicode="=" horiz-adv-x="1228" d="M160 283h911v186h-911v-186zM160 606h911v187h-911v-187z" />
<glyph unicode="&#x3e;" horiz-adv-x="1183" d="M150 203l120 -158l754 408v170l-754 407l-120 -158l616 -335z" />
<glyph unicode="?" horiz-adv-x="1142" d="M160 1116h266q2 59 44 105.5t101 46.5q61 0 104.5 -38t43.5 -91q0 -88 -98 -158q-53 -35 -94.5 -63.5t-90.5 -63.5q-129 -109 -129 -240q0 -6 3 -38.5t12 -92.5q0 -20 4 -52t8 -58h174q10 59 16 112.5t11 83.5q20 131 131 201q51 29 102 56.5t102 56.5q115 86 115 256 q0 141 -121 245q-121 106 -293 107q-174 0 -292 -107q-119 -100 -119 -268zM246 125q0 -61 50 -104.5t126 -43.5q74 0 125 43.5t51 104.5t-51 104t-125 43q-76 0 -126 -43t-50 -104z" />
<glyph unicode="@" horiz-adv-x="2605" d="M160 537q0 -393 334 -672q338 -281 809 -281q82 0 167.5 11.5t182.5 35.5l-54 160q-154 -39 -296 -39q-387 0 -666 232q-274 225 -275 553q0 326 275 555q279 231 666 231q389 0 667 -229q274 -231 275 -557q0 -147 -93 -261q-102 -129 -260 -129q-66 0 -104.5 45.5 t-38.5 100.5v6q0 4 2 14l66 650h-213l-11 -109q-66 68 -153.5 101.5t-196.5 33.5q-225 0 -393 -151q-162 -150 -162 -340q0 -166 129 -291q133 -121 336 -121q117 0 212 35t173 104q14 -86 92 -157q96 -90 248 -91q250 0 416 185q153 168 153 375q0 395 -338 673 q-340 281 -806 281q-467 0 -809 -281q-334 -279 -334 -673zM901 512q0 121 109 211q106 88 252 88q129 0 213 -72q86 -70 86 -176q0 -125 -107 -213v2q-109 -88 -254 -88q-129 0 -213 72q-86 70 -86 176z" />
<glyph unicode="A" horiz-adv-x="1636" d="M41 -23h281l143 324h704l142 -324h284l-645 1477h-264zM561 522l256 588l256 -588h-512z" />
<glyph unicode="B" horiz-adv-x="1658" d="M160 -23h798q219 0 394 119q172 123 172 307q0 229 -267 322q223 98 224 305q0 182 -176 309q-168 115 -390 115h-755v-1477zM426 201v405h532q119 0 205 -55q92 -60 92 -148q0 -92 -92 -147q-86 -55 -205 -55h-532zM426 827v406h489q119 0 205 -55q92 -60 92 -148 q0 -90 -92 -147q-86 -55 -205 -56h-489z" />
<glyph unicode="C" horiz-adv-x="1837" d="M106 717q0 -322 271 -549q274 -225 657 -225q381 0 656 227v31l-172 137q-211 -174 -484 -174q-272 0 -469 162q-192 161 -192 389q0 231 192 393q193 160 469 160q274 0 484 -172l192 151q-293 244 -676 244q-381 0 -655 -229q-272 -223 -273 -545z" />
<glyph unicode="D" horiz-adv-x="1853" d="M160 -23h669q365 0 625 218q262 219 262 522q0 309 -262 522q-258 215 -625 215h-669v-1477zM426 201v1032h403q258 0 439 -152q182 -151 182 -364q0 -215 -182 -367q-175 -149 -436 -149h-3h-403z" />
<glyph unicode="E" horiz-adv-x="1572" d="M160 -23h1255v224h-989v405h774v221h-774v406h989v221h-1255v-1477z" />
<glyph unicode="F" horiz-adv-x="1497" d="M160 -23h266v629h774v221h-774v406h989v221h-1255v-1477z" />
<glyph unicode="G" horiz-adv-x="1953" d="M106 717q0 -322 271 -549q274 -225 657 -225q117 0 228.5 24.5t212 69.5t186.5 109.5t149 144.5l5 12v524h-805v-221h538v-241q-195 -201 -514 -201q-272 0 -469 162q-192 161 -192 389q0 231 192 393q193 160 469 160q154 0 297.5 -62.5t247.5 -175.5l219 127 q-141 160 -341 247t-423 87q-381 0 -655 -229q-272 -223 -273 -545z" />
<glyph unicode="H" horiz-adv-x="1744" d="M160 -23h266v629h895v-629h266v1477h-266v-627h-895v627h-266v-1477z" />
<glyph unicode="I" d="M160 -23h266v1477h-266v-1477z" />
<glyph unicode="J" horiz-adv-x="1353" d="M74 211q43 -61 102.5 -110.5t129 -84t147 -54t157.5 -19.5q246 0 426.5 149.5t180.5 356.5v1005h-703v-221h436v-784q0 -119 -98 -201q-100 -84 -242 -84q-190 0 -301 151z" />
<glyph unicode="K" horiz-adv-x="1562" d="M160 -23h266v553l211 177l567 -730h320l-695 889l707 588h-373l-737 -614v614h-266v-1477z" />
<glyph unicode="L" horiz-adv-x="1282" d="M160 -23h1040v224h-774v1253h-266v-1477z" />
<glyph unicode="M" horiz-adv-x="2082" d="M160 -23h266v1108l483 -1108h265l481 1104v-1104h268v1477h-387l-496 -1132l-493 1132h-387v-1477z" />
<glyph unicode="N" horiz-adv-x="1744" d="M160 -23h266v1065l907 -1065h254v1477h-266v-1063l-909 1063h-252v-1477z" />
<glyph unicode="O" horiz-adv-x="2068" d="M106 717q0 -160 67 -296t206 -251q272 -227 655 -227q381 0 655.5 227.5t274.5 546.5q0 315 -274 547q-274 227 -656 227q-383 0 -655.5 -227.5t-272.5 -546.5zM565 1108q193 160 469 160q274 0 469 -160q195 -164 195 -391t-195 -391q-197 -162 -469 -162t-469 162 q-192 161 -192 389q0 231 192 393z" />
<glyph unicode="P" horiz-adv-x="1562" d="M160 -23h266v629h489q221 0 394 117q172 123 172 307q0 182 -176 309q-168 115 -390 115h-755v-1477zM426 827v406h489q119 0 205 -55q92 -60 92 -148q0 -90 -92 -147q-86 -55 -205 -56h-489z" />
<glyph unicode="Q" horiz-adv-x="2068" d="M106 717q0 -295 234 -514q231 -213 561 -252v-332h266v332q166 20 306.5 83.5t255.5 168.5q235 223 235 514q0 315 -274 547q-274 227 -656 227q-383 0 -655.5 -227.5t-272.5 -546.5zM373 717q0 229 192 391q193 160 469 160q274 0 469 -160q195 -164 195 -391 q0 -203 -160 -359q-147 -145 -371 -182v203h-266v-203q-219 37 -371 182q-158 154 -157 359z" />
<glyph unicode="R" horiz-adv-x="1648" d="M160 -23h266v629h231q213 0 299 -117l398 -512h319l-418 537q-66 82 -118 123q131 43 227 133q117 117 117 260q0 182 -176 309q-168 115 -390 115h-755v-1477zM426 827v406h489q119 0 205 -55q92 -60 92 -148q0 -90 -92 -147q-86 -55 -205 -56h-489z" />
<glyph unicode="S" horiz-adv-x="1701" d="M137 408q0 -233 246 -359q201 -106 469 -106q260 0 469 104q246 127 246 340q0 268 -316 367q-68 10 -132 22t-132 25q-70 12 -136.5 23.5t-131.5 23.5q-270 49 -270 203q0 106 135 168h-2q117 49 270 49q152 0 266 -51q137 -57 137 -189h269q0 227 -226 354 q-195 109 -446 109q-129 0 -238.5 -27.5t-207.5 -81.5q-225 -127 -226 -331q0 -279 318 -377q68 -12 131 -23.5t133 -21.5h-2q68 -12 134.5 -23.5t135.5 -21.5h-2q270 -49 270 -197q0 -117 -151 -176q-125 -47 -295 -47q-86 0 -158.5 12t-136.5 35q-152 57 -151 197h-269z " />
<glyph unicode="T" horiz-adv-x="1529" d="M74 1233h559v-1256h266v1256h559v221h-1384v-221z" />
<glyph unicode="U" horiz-adv-x="1701" d="M137 537q0 -244 211 -418q213 -176 504 -176q293 0 502 176q213 174 213 418v917h-269v-917q0 -156 -131 -264.5t-315 -108.5q-186 0 -317 108q-129 106 -129 265v917h-269v-917z" />
<glyph unicode="V" horiz-adv-x="1636" d="M41 1454l645 -1477h264l645 1477h-284l-494 -1132l-495 1132h-281z" />
<glyph unicode="W" horiz-adv-x="2353" d="M43 1454l508 -1477h262l363 1051l362 -1051h260l512 1477h-278l-363 -1048l-360 1048h-265l-364 -1048l-358 1048h-279z" />
<glyph unicode="X" horiz-adv-x="1654" d="M39 -23h328l460 545l461 -545h328l-623 740l623 737h-328l-461 -543l-460 543h-328l625 -737z" />
<glyph unicode="Y" horiz-adv-x="1634" d="M29 1454l655 -774v-703h266v703l656 774h-328l-461 -543l-461 543h-327z" />
<glyph unicode="Z" horiz-adv-x="1701" d="M137 -23h1430v224h-1055l1055 1046v207h-1430v-221h1055l-1055 -1047v-209z" />
<glyph unicode="[" horiz-adv-x="884" d="M160 -201h567v221h-301v1213h301v221h-567v-1655z" />
<glyph unicode="\" horiz-adv-x="1126" d="M98 1368l680 -1556l250 75l-680 1555z" />
<glyph unicode="]" horiz-adv-x="884" d="M160 20v-221h567v1655h-567v-221h301v-1213h-301z" />
<glyph unicode="^" horiz-adv-x="1243" d="M150 662l204 -78l269 497l266 -497l205 78l-371 686h-205z" />
<glyph unicode="_" horiz-adv-x="1122" d="M0 -23h1122v187h-1122v-187z" />
<glyph unicode="`" horiz-adv-x="712" d="M129 1454l258 -258h182l-153 258h-287z" />
<glyph unicode="a" horiz-adv-x="1691" d="M106 537q0 -240 187 -414q193 -180 483 -180q297 0 492 188v-154h266v1119h-266v-152q-98 92 -220 140.5t-272 48.5q-141 0 -263 -44.5t-216 -136.5q-190 -172 -191 -415zM373 537q0 156 129 264q130 108 314 108h3q186 0 317.5 -108t131.5 -264t-131 -264.5t-318 -108.5 q-186 0 -317 108q-129 106 -129 265z" />
<glyph unicode="b" horiz-adv-x="1691" d="M160 -23h266v154q195 -188 489 -188q289 0 482 180q190 172 190 414q0 244 -190 415q-197 180 -482 181q-150 0 -270.5 -48.5t-218.5 -140.5v510h-266v-1477zM426 537q0 156 129 264q130 108 314 108h3q186 0 317.5 -108t131.5 -264t-131 -264.5t-318 -108.5 q-186 0 -317 108q-129 106 -129 265z" />
<glyph unicode="c" horiz-adv-x="1527" d="M106 537q0 -246 209 -418q213 -176 504 -176q166 0 316.5 62.5t250.5 172.5l-8 29l-198 108q-155 -151 -358 -151h-3q-186 0 -317 108q-129 106 -129 265q0 156 129 264q130 108 314 108h3q209 0 361 -149l221 121q-109 119 -262.5 185.5t-319.5 66.5q-291 0 -504 -177 q-209 -176 -209 -419z" />
<glyph unicode="d" horiz-adv-x="1691" d="M106 537q0 -240 187 -414q193 -180 483 -180q297 0 492 188v-154h266v1477h-266v-510q-98 92 -220 140.5t-272 48.5q-141 0 -263 -44.5t-216 -136.5q-190 -172 -191 -415zM373 537q0 156 129 264q130 108 314 108h3q186 0 317.5 -108t131.5 -264t-131 -264.5t-318 -108.5 q-186 0 -317 108q-129 106 -129 265z" />
<glyph unicode="e" horiz-adv-x="1638" d="M106 537q0 -246 209 -418q213 -176 504 -176q166 0 319.5 66.5t262.5 185.5l-221 120q-151 -151 -358 -151h-3q-80 0 -148.5 20.5t-131.5 61.5q-106 72 -146 180h1127q6 35 10 61.5t4 49.5q0 242 -211 419q-209 176 -504 177q-291 0 -504 -177q-209 -176 -209 -419z M393 649q40 104 146 180q125 80 280 80q160 0 277 -80q106 -68 149 -180h-852z" />
<glyph unicode="f" horiz-adv-x="858" d="M106 766h130v-1147h266v1147h215v223h-215v211q0 29 22.5 49.5t57.5 20.5q29 0 75 -31l125 201q-98 51 -200 51q-139 0 -246 -86q-100 -86 -100 -205v-211h-130v-223z" />
<glyph unicode="g" horiz-adv-x="1691" d="M106 537q0 -240 187 -414q201 -180 483 -180q80 0 157 15t148 48q51 23 95.5 53.5t83.5 65.5q-18 -119 -121 -209q-61 -53 -140 -82t-180 -29q-106 0 -196.5 39t-167.5 115l-205 -141q236 -233 569 -234q295 0 504 176q211 174 211 418v918h-266v-154q-41 39 -87 68.5 t-100 56.5q-154 66 -305 66q-285 0 -479 -181q-190 -172 -191 -415zM373 537q0 156 129 264q130 108 314 108h3q186 0 317.5 -108t131.5 -264t-131 -264.5t-318 -108.5q-186 0 -317 108q-129 106 -129 265z" />
<glyph unicode="h" horiz-adv-x="1466" d="M160 -23h266v668q0 109 92 189q93 75 222 75h3q133 0 226 -75q94 -78 94 -189v-668h266v668q0 195 -149 336q-162 152 -394 152q-215 0 -360 -125v446h-266v-1477z" />
<glyph unicode="i" d="M117 1343q0 -61 50 -104t126 -43q74 0 125 43t51 104t-51 104.5t-125 43.5q-76 0 -126 -43t-50 -105zM160 -23h266v1119h-266v-1119z" />
<glyph unicode="j" d="M-123 -365q102 -51 201 -51q141 0 244 86q104 86 104 205v1221h-266v-1221q0 -29 -24.5 -49.5t-57.5 -20.5q-12 0 -32.5 8.5t-43.5 22.5zM117 1343q0 -61 50 -104t126 -43q74 0 125 43t51 104t-51 104.5t-125 43.5q-76 0 -126 -43t-50 -105z" />
<glyph unicode="k" horiz-adv-x="1390" d="M160 -23h266v338l207 172l399 -510h320l-525 674l537 445h-373l-565 -471v829h-266v-1477z" />
<glyph unicode="l" d="M160 -23h266v1477h-266v-1477z" />
<glyph unicode="m" horiz-adv-x="2197" d="M160 -23h266v668q0 109 78 184q80 80 196 80q119 0 201 -82q76 -76 76 -182v-668h266v668q0 109 78 184q80 80 197 80q119 0 200 -82q76 -76 76 -182v-668h266v668q0 197 -149 338q-162 150 -393 150q-260 0 -400 -183q-117 182 -352 183q-209 0 -340 -119v82h-266v-1119 z" />
<glyph unicode="n" horiz-adv-x="1466" d="M160 -23h266v668q0 109 92 189q93 75 222 75h3q133 0 226 -75q94 -78 94 -189v-668h266v668q0 195 -149 336q-162 152 -394 152q-215 0 -360 -125v88h-266v-1119z" />
<glyph unicode="o" horiz-adv-x="1638" d="M106 537q0 -246 209 -418q213 -176 504 -176q295 0 504 176q211 174 211 418q0 242 -211 419q-209 176 -504 177q-291 0 -504 -177q-209 -176 -209 -419zM373 537q0 156 129 264q130 108 314 108h3q186 0 317.5 -108t131.5 -264t-131 -264.5t-318 -108.5q-186 0 -317 108 q-129 106 -129 265z" />
<glyph unicode="p" horiz-adv-x="1691" d="M160 -381h266v512q195 -188 489 -188q289 0 482 180q190 172 190 414q0 244 -190 415q-197 180 -482 181q-150 0 -270.5 -48.5t-218.5 -140.5v152h-266v-1477zM426 537q0 156 129 264q130 108 314 108h3q186 0 317.5 -108t131.5 -264t-131 -264.5t-318 -108.5 q-186 0 -317 108q-129 106 -129 265z" />
<glyph unicode="q" horiz-adv-x="1691" d="M106 537q0 -240 187 -414q193 -180 483 -180q297 0 492 188v-512h266v1477h-266v-152q-98 92 -220 140.5t-272 48.5q-141 0 -263 -44.5t-216 -136.5q-190 -172 -191 -415zM373 537q0 156 129 264q130 108 314 108h3q186 0 317.5 -108t131.5 -264t-131 -264.5t-318 -108.5 q-186 0 -317 108q-129 106 -129 265z" />
<glyph unicode="r" horiz-adv-x="978" d="M160 -23h266v668q0 109 92 189q93 75 222 75h3q57 0 117 -16l35 18v213q-35 4 -61.5 6.5t-47.5 2.5q-215 0 -360 -125v88h-266v-1119z" />
<glyph unicode="s" horiz-adv-x="1400" d="M137 317q0 -190 195 -292q164 -82 368 -82q207 0 371 82q195 102 195 270q0 213 -236 291h2q-23 10 -409 71q-197 35 -197 123q0 66 92 101q73 28 175 28h7q109 0 183 -28q94 -35 94 -123h266q0 190 -182 289q-158 86 -361 86q-205 0 -358 -86q-182 -98 -182 -267 q0 -217 233 -293q18 -6 118.5 -23.5t291.5 -47.5q195 -35 194 -121q0 -131 -297 -131q-59 0 -107 7t-87 19h2q-102 33 -102 127h-269z" />
<glyph unicode="t" horiz-adv-x="950" d="M84 874h258v-1255h266v1255h258v222h-258v252h-266v-252h-258v-222z" />
<glyph unicode="u" horiz-adv-x="1466" d="M137 430q0 -195 152 -338q155 -149 388 -149h3q207 0 360 123v-89h269v1119h-269v-666q0 -113 -92 -188q-45 -37 -102.5 -57.5t-122.5 -20.5q-131 0 -227 78q-90 78 -90 188v666h-269v-666z" />
<glyph unicode="v" horiz-adv-x="1429" d="M41 1096l539 -1119h268l543 1119h-287l-391 -801l-387 801h-285z" />
<glyph unicode="w" horiz-adv-x="2056" d="M43 1096l436 -1119h260l291 740l289 -740h260l434 1119h-274l-289 -740l-291 740h-260l-289 -740l-288 740h-279z" />
<glyph unicode="x" horiz-adv-x="1353" d="M39 -23h328l309 365l305 -365h332l-473 560l473 559h-332l-305 -363l-309 363h-328l469 -559z" />
<glyph unicode="y" horiz-adv-x="1429" d="M41 1096l528 -1096l-75 -158q-16 -37 -74 -37q-35 0 -133 29v-225q45 -14 77.5 -19.5t55.5 -5.5q238 0 323 183v-3l648 1332h-287l-391 -801l-387 801h-285z" />
<glyph unicode="z" horiz-adv-x="1486" d="M137 -23h1215v224h-826l826 688v207h-1215v-222h824l-824 -688v-209z" />
<glyph unicode="{" horiz-adv-x="1036" d="M160 516h90q53 0 89 -22.5t36 -63.5v-305q0 -119 110 -221q113 -104 258 -105h136v221h-113q-25 0 -47.5 9.5t-39.5 24t-27.5 33.5t-10.5 38v287q0 74 -61 151q-35 43 -72 64q20 10 37.5 26.5t34.5 38.5q61 74 61 150v286q0 41 39 73t86 32h113v221h-136 q-72 0 -136 -24.5t-122 -77.5q-111 -102 -110 -224v-305q0 -41 -36 -63.5t-89 -22.5h-90v-221z" />
<glyph unicode="|" d="M160 -201h266v1655h-266v-1655z" />
<glyph unicode="}" horiz-adv-x="1036" d="M160 20v-221h133q141 0 256 104.5t115 221.5v305q0 41 35.5 63.5t86.5 22.5h93v221h-93q-51 0 -86.5 22.5t-35.5 63.5v305q0 59 -30 114.5t-85 109.5q-111 102 -256 102h-133v-221h110q47 0 86 -32t39 -73v-286q0 -37 15.5 -75t44.5 -75q35 -45 73 -65q-41 -23 -73 -64 q-29 -39 -44.5 -75.5t-15.5 -75.5v-287q0 -18 -10 -37.5t-27.5 -34t-40 -24t-47.5 -9.5h-110z" />
<glyph unicode="~" horiz-adv-x="1239" d="M152 475l206 -69q39 84 82 83q63 0 183 -40q127 -45 204 -46q170 0 250 172l-12 27l-184 64q-43 -86 -84 -86q-59 0 -183 43q-129 43 -204 43q-168 0 -258 -191z" />
<glyph unicode="&#xa1;" horiz-adv-x="669" d="M160 1128q0 -61 50 -104t126 -43q74 0 125 43t51 104t-51 104.5t-125 43.5q-76 0 -126 -43t-50 -105zM203 -201h266l-43 1082h-180z" />
<glyph unicode="&#xa2;" horiz-adv-x="1603" d="M160 537q0 -221 172 -387q166 -160 407 -197v-191h269v191q266 37 432 225l-8 29l-199 108q-51 -49 -105.5 -82.5t-119.5 -50.5v711q66 -18 121 -52t106 -81l219 121q-92 98 -203.5 159.5t-242.5 81.5v189h-269v-189q-244 -41 -407 -198q-172 -166 -172 -387zM426 537 q0 133 96 233q82 86 217 123v-711q-131 33 -217 123q-96 100 -96 232z" />
<glyph unicode="&#xa3;" horiz-adv-x="1611" d="M106 606h216v-629h1126v224h-860v405h430v221h-430v158q0 119 98 201q100 82 240 82q188 0 301 -150l237 105q-43 61 -103.5 110t-130 84t-147 54.5t-157.5 19.5q-242 0 -428 -152q-176 -150 -176 -354v-158h-216v-221z" />
<glyph unicode="&#xa4;" horiz-adv-x="2011" d="M150 463h266q94 -229 329 -373q242 -147 547 -147q123 0 243 27.5t239 86.5v277q-231 -170 -482 -170q-199 0 -358 90q-145 78 -227 209h768l81 186h-921q-4 16 -4 33v35v33q0 18 4 34h981l82 187h-991q80 125 227 209q162 88 358 88q248 0 467 -158l96 223 q-258 158 -563 158q-154 0 -289 -38t-258 -112q-236 -143 -329 -370h-183l-83 -187h215v-67v-68h-132z" />
<glyph unicode="&#xa5;" horiz-adv-x="1849" d="M135 1454l559 -661h-440v-187h539v-137h-539v-186h539v-306h264v306h538v186h-538v137h538v187h-442l559 661h-328l-460 -543l-459 543h-330z" />
<glyph unicode="&#xa6;" d="M160 -201h266v742h-266v-742zM160 713h266v741h-266v-741z" />
<glyph unicode="&#xa7;" horiz-adv-x="1443" d="M160 193q0 -195 192 -293q82 -41 173 -61.5t198 -20.5q104 0 196.5 20.5t174.5 61.5q192 98 192 270q0 166 -143 252q143 86 143 231q0 213 -233 291q-20 10 -410 72q-195 35 -194 123q0 66 90 100q39 14 84 21.5t100 7.5q106 0 182 -29q92 -35 92 -98v-25h269 q0 188 -185 289q-154 86 -358 86q-209 0 -358 -86q-184 -100 -185 -266q0 -168 142 -250q-141 -90 -142 -236q0 -213 236 -291q16 -6 117.5 -23t289.5 -48q197 -35 197 -121q0 -131 -297 -131q-59 0 -108.5 7t-90.5 17h2q-100 37 -100 101v29h-266zM449 653q0 72 88 105 q76 31 180 30q106 0 192 -30q111 -42 111 -105q0 -66 -94 -102q-41 -12 -85 -20.5t-98 -8.5q-51 0 -98 8.5t-94 22.5q-102 37 -102 100z" />
<glyph unicode="&#xa8;" horiz-adv-x="1013" d="M160 1343q0 -47 38 -78.5t95 -31.5q55 0 94 31.5t39 78.5t-39 79t-94 32q-57 0 -95 -31.5t-38 -79.5zM590 1343q0 -47 38 -78.5t95 -31.5q55 0 94 31.5t39 78.5t-39 79t-94 32q-57 0 -95 -31.5t-38 -79.5z" />
<glyph unicode="&#xa9;" horiz-adv-x="1724" d="M160 565q0 -244 204.5 -416t497.5 -172q287 0 494 173q211 173 211 415q0 244 -211 414q-203 172 -494 172q-287 0 -497 -174q-205 -172 -205 -412zM330 565q0 186 153 314q160 131 379 131q221 0 377 -131q158 -134 158 -314q0 -182 -158 -315q-154 -129 -377 -129 t-379 129q-154 127 -153 315zM408 565q0 -84 33.5 -153.5t105.5 -128.5q141 -117 336 -117q193 0 340 119v30l-97 74q-109 -90 -243 -90q-131 0 -226 78q-92 76 -92 188q0 111 92 187q94 78 226 77q135 0 243 -90l113 90q-158 133 -356 134q-197 0 -336 -119 q-72 -59 -105.5 -128t-33.5 -151z" />
<glyph unicode="&#xaa;" horiz-adv-x="1400" d="M160 1030q0 -182 143 -313q74 -72 165 -104.5t200 -32.5q221 0 362 129v-103h213v848h-213v-102q-143 131 -362 131q-109 0 -201 -34t-164 -103q-143 -131 -143 -316zM373 1030q0 113 92 195q98 80 235 80q135 0 232 -82q98 -84 98 -193q0 -115 -96 -194.5t-234 -79.5 q-133 0 -235 82q-92 80 -92 192z" />
<glyph unicode="&#xab;" horiz-adv-x="1808" d="M160 342l665 -373l125 156l-534 301l534 301l-125 156l-665 -373v-168zM868 342l668 -373l123 156l-535 301l535 301l-123 156l-668 -373v-168z" />
<glyph unicode="&#xac;" horiz-adv-x="1228" d="M160 444h688v-180h223v367h-911v-187z" />
<glyph unicode="&#xad;" horiz-adv-x="1228" d="M160 444h911v187h-911v-187z" />
<glyph unicode="&#xae;" horiz-adv-x="1724" d="M160 565q0 -244 204.5 -416t497.5 -172q287 0 494 173q211 173 211 415q0 244 -211 414q-203 172 -494 172q-287 0 -497 -174q-205 -172 -205 -412zM330 565q0 186 153 314q8 6 16.5 12t18.5 14v-684q-19 13 -35 29q-154 127 -153 315zM580 184h98v314h102q98 0 142 -54 l200 -260h17q-121 -63 -277 -63q-158 0 -282 63zM582 944q127 66 280 66q221 0 377 -131q158 -134 158 -314q0 -174 -146 -303l-161 207v-2q-12 16 -25.5 30.5t-24.5 24.5q74 27 119 81t45 120q0 96 -90 158q-90 63 -205 63h-327zM678 631v180h231q53 0 94 -23.5t41 -64.5 t-40.5 -66.5t-94.5 -25.5h-231z" />
<glyph unicode="&#xaf;" horiz-adv-x="1013" d="M160 1268h696v186h-696v-186z" />
<glyph unicode="&#xb0;" horiz-adv-x="841" d="M160 1237q0 -47 20.5 -87t56 -68.5t83 -46t102.5 -17.5t102 17.5t83 46t56.5 68.5t20.5 87q0 45 -20.5 85t-56.5 68.5t-83 46t-102 17.5t-102.5 -17.5t-83 -46t-56 -68.5t-20.5 -85zM297 1237q0 43 36 72.5t89 29.5t89 -29.5t36 -72.5t-36 -73.5t-89 -30.5t-89 30.5 t-36 73.5z" />
<glyph unicode="&#xb1;" horiz-adv-x="1228" d="M160 -23h911v187h-911v-187zM160 623h344v-287h223v287h344v186h-344v287h-223v-287h-344v-186z" />
<glyph unicode="&#xb2;" horiz-adv-x="1013" d="M160 694h696v133h-483q25 23 59.5 46.5t83.5 46.5q94 47 150.5 75.5t72.5 42.5q117 80 117 195q0 113 -115 180q-94 59 -233 60q-135 0 -232 -54q-117 -63 -116 -198h159q0 70 58 96q51 23 125 22q41 0 73.5 -5t59.5 -19q61 -29 61 -82q0 -76 -129 -146h2l-256 -133 q-154 -102 -153 -260z" />
<glyph unicode="&#xb3;" horiz-adv-x="1028" d="M150 836q106 -158 348 -158q145 0 252 59q118 76 118 195q0 123 -135 188q92 49 92 144q0 104 -112 161q-88 47 -215 48q-254 0 -322 -162l148 -45q33 74 174 73q168 0 168 -75q0 -33 -56 -58q-51 -20 -112 -20h-90v-133h90q88 0 143 -29q68 -35 68 -92q0 -61 -64 -94 q-61 -29 -147 -29q-145 0 -209 94z" />
<glyph unicode="&#xb4;" horiz-adv-x="712" d="M141 1196h185l258 258h-287z" />
<glyph unicode="&#xb6;" horiz-adv-x="1853" d="M160 1030q0 -188 174 -307q78 -55 168 -85t194 -32v-987h269v1614h204v-1614h269v1614h258v221h-973q-221 0 -389 -115q-174 -125 -174 -309z" />
<glyph unicode="&#xb7;" horiz-adv-x="669" d="M160 537q0 -61 50 -103.5t126 -42.5q74 0 125 42.5t51 103.5q0 63 -51 105t-125 42q-76 0 -126 -42t-50 -105z" />
<glyph unicode="&#xb8;" horiz-adv-x="712" d="M150 -381h206q82 0 140.5 48t58.5 118q0 53 -38 96t-95 60l31 116h-140l-53 -204h96q35 0 58.5 -19.5t23.5 -48.5t-23.5 -48.5t-58.5 -19.5h-166z" />
<glyph unicode="&#xb9;" horiz-adv-x="706" d="M150 1243l106 -88l131 113v-574h160v760h-141z" />
<glyph unicode="&#xba;" horiz-adv-x="1400" d="M160 1030q0 -186 159 -319q158 -131 381 -131t381 131q162 135 162 319q0 182 -162 318q-160 135 -381 135t-381 -135q-160 -133 -159 -318zM373 1030q0 113 92 195q98 80 235 80q135 0 232 -82q98 -84 98 -193q0 -115 -96 -194.5t-234 -79.5q-133 0 -231 80 q-96 84 -96 194z" />
<glyph unicode="&#xbb;" horiz-adv-x="1808" d="M150 125l122 -156l666 373v168l-666 373l-122 -156l534 -301zM858 125l123 -156l668 373v168l-668 373l-123 -156l537 -301z" />
<glyph unicode="&#xbc;" horiz-adv-x="1228" d="M160 659h911v115h-911v-115zM315 92h377v-115h137v115h86v115h-86v387h-110l-404 -401v-101zM444 1280l93 -72l100 84v-454h139v616h-121zM487 207l205 201v-201h-205z" />
<glyph unicode="&#xbd;" horiz-adv-x="1228" d="M160 659h911v115h-911v-115zM334 -23h565v115h-379q18 16 44 32.5t61 35.5q74 35 118.5 58.5t61.5 33.5q94 68 94 160q0 90 -92 149q-80 47 -191 47q-109 0 -188 -43q-94 -51 -94 -168h137q0 59 43 78q39 18 98 19q33 0 58.5 -4.5t46.5 -14.5q45 -23 45 -63 q0 -59 -103 -113h5q-53 -27 -105.5 -53.5t-103.5 -52.5q-121 -84 -121 -216zM444 1280l93 -72l100 84v-454h139v616h-121z" />
<glyph unicode="&#xbe;" horiz-adv-x="1228" d="M160 659h911v115h-911v-115zM315 92h377v-115h137v115h86v115h-86v387h-110l-404 -401v-101zM319 956q84 -133 285 -133q117 0 203 51q98 58 98 158t-106 150q72 41 71 114q0 88 -90 136q-74 37 -176 36q-207 0 -264 -137l129 -39q25 61 135 62q129 0 129 -58 q0 -23 -41 -41q-43 -16 -88 -16h-78v-115h78q29 0 56.5 -5t52.5 -19q29 -14 41 -30.5t12 -37.5q0 -51 -47 -71q-45 -23 -115 -23q-115 0 -164 78zM487 207l205 201v-201h-205z" />
<glyph unicode="&#xbf;" horiz-adv-x="1142" d="M160 117q0 -147 119 -248q119 -106 292 -107q172 0 293 107q121 104 121 248l-27 20h-239q-2 -59 -45 -105t-103 -46q-59 0 -102 38.5t-43 92.5q0 84 98 157q51 35 93 63t92 62q129 106 129 240q0 8 -4.5 40t-10.5 91q-2 20 -6 53t-8 58h-174q-10 -59 -15.5 -113.5 t-9.5 -83.5q-25 -135 -133 -201q-51 -29 -101 -56.5t-104 -55.5q-113 -86 -112 -254zM547 1128q0 -61 50 -104t126 -43q74 0 125 43t51 104t-51 104.5t-125 43.5q-76 0 -126 -43t-50 -105z" />
<glyph unicode="&#xc0;" horiz-adv-x="1636" d="M41 -23h281l143 324h704l142 -324h284l-645 1477h-264zM481 1812l258 -258h185l-158 258h-285zM561 522l256 588l256 -588h-512z" />
<glyph unicode="&#xc1;" horiz-adv-x="1636" d="M41 -23h281l143 324h704l142 -324h284l-645 1477h-264zM561 522l256 588l256 -588h-512zM709 1554h186l258 258h-289z" />
<glyph unicode="&#xc2;" horiz-adv-x="1636" d="M41 -23h281l143 324h704l142 -324h284l-645 1477h-264zM508 1554h192l117 117l117 -117h190l-206 258h-201zM561 522l256 588l256 -588h-512z" />
<glyph unicode="&#xc3;" horiz-adv-x="1636" d="M41 -23h281l143 324h704l142 -324h284l-645 1477h-264zM461 1628l170 -74q31 96 55 97q49 0 131 -45q106 -51 160 -52q131 0 192 175l-12 26l-147 66q-33 -96 -58 -97q-45 0 -133 43q-102 51 -155 52q-135 0 -203 -191zM561 522l256 588l256 -588h-512z" />
<glyph unicode="&#xc4;" horiz-adv-x="1636" d="M41 -23h281l143 324h704l142 -324h284l-645 1477h-264zM471 1667q0 -47 38 -80t95 -33t95 33t38 80t-37.5 79t-95.5 32q-57 0 -95 -32t-38 -79zM561 522l256 588l256 -588h-512zM901 1667q0 -47 38 -80t95 -33t95 33t38 80t-37.5 79t-95.5 32q-57 0 -95 -32t-38 -79z" />
<glyph unicode="&#xc5;" horiz-adv-x="1636" d="M41 -23h281l143 324h704l142 -324h284l-614 1409q98 63 98 173q0 88 -80 153q-76 66 -182 66q-102 0 -184 -66q-78 -63 -78 -153q0 -113 98 -175zM561 522l256 588l256 -588h-512zM692 1559q0 43 37 73.5t88 30.5t88 -30.5t37 -73.5t-37 -74t-88 -31t-88 31t-37 74z" />
<glyph unicode="&#xc6;" horiz-adv-x="2502" d="M41 -23h281l143 324h704l142 -324h1032v224h-774v405h559v221h-559v406h774v221h-1040v-807l-353 807h-264zM561 522l256 588l256 -588h-512z" />
<glyph unicode="&#xc7;" horiz-adv-x="1837" d="M106 717q0 -299 238 -518q229 -213 563 -250l-35 -131h97q35 0 59.5 -20.5t24.5 -49.5t-24.5 -48t-59.5 -19h-166l-39 -97h205q41 0 77.5 13.5t63.5 35t42 51t15 64.5q0 53 -37.5 96t-95.5 62l10 37q379 6 646 227v31l-172 137q-211 -174 -484 -174q-272 0 -469 162 q-193 162 -192 391q0 229 192 391q193 160 469 160q274 0 484 -172l192 151q-293 244 -676 244q-381 0 -655 -229q-272 -223 -273 -545z" />
<glyph unicode="&#xc8;" horiz-adv-x="1572" d="M160 -23h1255v224h-989v405h774v221h-774v406h989v221h-1255v-1477zM451 1812l258 -258h184l-156 258h-286z" />
<glyph unicode="&#xc9;" horiz-adv-x="1572" d="M160 -23h1255v224h-989v405h774v221h-774v406h989v221h-1255v-1477zM680 1554h184l258 258h-286z" />
<glyph unicode="&#xca;" horiz-adv-x="1572" d="M160 -23h1255v224h-989v405h774v221h-774v406h989v221h-1255v-1477zM479 1554h191l116 117l117 -117h193l-207 258h-203z" />
<glyph unicode="&#xcb;" horiz-adv-x="1572" d="M160 -23h1255v224h-989v405h774v221h-774v406h989v221h-1255v-1477zM438 1667q0 -47 38 -80t95 -33t96.5 33t39.5 80t-39 79t-97 32q-57 0 -95 -32t-38 -79zM868 1667q0 -47 38 -80t95 -33t96.5 33t39.5 80t-39 79t-97 32q-57 0 -95 -32t-38 -79z" />
<glyph unicode="&#xcc;" d="M-43 1812l258 -258h182l-153 258h-287zM160 -23h266v1477h-266v-1477z" />
<glyph unicode="&#xcd;" d="M160 -23h266v1477h-266v-1477zM184 1554h185l258 258h-287z" />
<glyph unicode="&#xce;" d="M-14 1554h190l117 117l115 -117h192l-207 258h-200zM160 -23h266v1477h-266v-1477z" />
<glyph unicode="&#xcf;" d="M-55 1667q0 -47 37.5 -80t95.5 -33q55 0 94 33t39 80t-39 79t-94 32q-57 0 -95 -32t-38 -79zM160 -23h266v1477h-266v-1477zM375 1667q0 -47 38 -80t95 -33q55 0 94 33t39 80t-39 79t-94 32q-57 0 -95 -32t-38 -79z" />
<glyph unicode="&#xd0;" horiz-adv-x="2013" d="M106 641h216v-664h669q362 0 623 218q264 219 264 522q0 307 -262 520q-256 217 -625 217h-669v-627h-216v-186zM588 201v440h430v186h-430v406h403q258 0 439 -152q182 -151 182 -364q0 -215 -182 -367q-176 -150 -439 -149h-403z" />
<glyph unicode="&#xd1;" horiz-adv-x="1744" d="M160 -23h266v1065l907 -1065h254v1477h-266v-1063l-909 1063h-252v-1477zM516 1628l170 -74q35 96 55 97q49 0 131 -45q53 -25 92.5 -38.5t67.5 -13.5q131 0 193 175l-13 26l-147 66q-33 -96 -55 -97q-47 0 -136 43q-49 25 -86.5 38.5t-68.5 13.5q-135 0 -203 -191z" />
<glyph unicode="&#xd2;" horiz-adv-x="2068" d="M106 717q0 -160 67 -296t206 -251q272 -227 655 -227q381 0 655.5 227.5t274.5 546.5q0 315 -274 547q-274 227 -656 227q-383 0 -655.5 -227.5t-272.5 -546.5zM373 717q0 229 192 391q193 160 469 160q274 0 469 -160q195 -164 195 -391t-195 -391q-197 -162 -469 -162 t-469 162q-193 162 -192 391zM698 1812l258 -258h183l-154 258h-287z" />
<glyph unicode="&#xd3;" horiz-adv-x="2068" d="M106 717q0 -160 67 -296t206 -251q272 -227 655 -227q381 0 655.5 227.5t274.5 546.5q0 315 -274 547q-274 227 -656 227q-383 0 -655.5 -227.5t-272.5 -546.5zM373 717q0 229 192 391q193 160 469 160q274 0 469 -160q195 -164 195 -391t-195 -391q-197 -162 -469 -162 t-469 162q-193 162 -192 391zM926 1554h184l258 258h-287z" />
<glyph unicode="&#xd4;" horiz-adv-x="2068" d="M106 717q0 -160 67 -296t206 -251q272 -227 655 -227q381 0 655.5 227.5t274.5 546.5q0 315 -274 547q-274 227 -656 227q-383 0 -655.5 -227.5t-272.5 -546.5zM373 717q0 229 192 391q193 160 469 160q274 0 469 -160q195 -164 195 -391t-195 -391q-197 -162 -469 -162 t-469 162q-193 162 -192 391zM727 1554h191l116 117l117 -117h190l-204 258h-203z" />
<glyph unicode="&#xd5;" horiz-adv-x="2068" d="M106 717q0 -160 67 -296t206 -251q272 -227 655 -227q381 0 655.5 227.5t274.5 546.5q0 315 -274 547q-274 227 -656 227q-383 0 -655.5 -227.5t-272.5 -546.5zM373 717q0 229 192 391q193 160 469 160q274 0 469 -160q195 -164 195 -391t-195 -391q-197 -162 -469 -162 t-469 162q-193 162 -192 391zM678 1628l170 -74q31 96 55 97q49 0 131 -45q53 -25 91 -38.5t69 -13.5q131 0 192 175l-12 26l-149 66q-31 -96 -56 -97q-45 0 -133 43q-49 25 -87 38.5t-68 13.5q-135 0 -203 -191z" />
<glyph unicode="&#xd6;" horiz-adv-x="2068" d="M106 717q0 -160 67 -296t206 -251q272 -227 655 -227q381 0 655.5 227.5t274.5 546.5q0 315 -274 547q-274 227 -656 227q-383 0 -655.5 -227.5t-272.5 -546.5zM373 717q0 229 192 391q193 160 469 160q274 0 469 -160q195 -164 195 -391t-195 -391q-197 -162 -469 -162 t-469 162q-193 162 -192 391zM686 1667q0 -47 38 -80t95 -33t95 33t38 80t-37.5 79t-95.5 32q-57 0 -95 -32t-38 -79zM1116 1667q0 -47 38 -80t95 -33t95 33t38 80t-37.5 79t-95.5 32q-57 0 -95 -32t-38 -79z" />
<glyph unicode="&#xd7;" horiz-adv-x="1222" d="M150 285l157 -131l303 254l303 -254l158 131l-305 252l305 254l-158 131l-303 -254l-303 254l-157 -131l303 -254z" />
<glyph unicode="&#xd8;" horiz-adv-x="2068" d="M41 55l100 -84l252 189q268 -217 641 -217q381 0 655.5 227t274.5 547q0 262 -195 469l259 192l-101 84l-252 -188q-268 217 -641 217q-383 0 -655.5 -227.5t-272.5 -546.5q0 -266 191 -471zM373 717q0 229 192 391q193 160 469 160q129 0 239.5 -35t203.5 -107 l-983 -733q-121 140 -121 324zM590 305l983 733q125 -143 125 -321q0 -227 -195 -391q-197 -162 -469 -162q-129 0 -240.5 34.5t-203.5 106.5z" />
<glyph unicode="&#xd9;" horiz-adv-x="1701" d="M137 537q0 -244 211 -418q213 -176 504 -176q293 0 502 176q213 174 213 418v917h-269v-917q0 -156 -131 -264.5t-315 -108.5q-186 0 -317 108q-129 106 -129 265v917h-269v-917zM516 1812l258 -258h182l-153 258h-287z" />
<glyph unicode="&#xda;" horiz-adv-x="1701" d="M137 537q0 -244 211 -418q213 -176 504 -176q293 0 502 176q213 174 213 418v917h-269v-917q0 -156 -131 -264.5t-315 -108.5q-186 0 -317 108q-129 106 -129 265v917h-269v-917zM743 1554h185l258 258h-287z" />
<glyph unicode="&#xdb;" horiz-adv-x="1701" d="M137 537q0 -244 211 -418q213 -176 504 -176q293 0 502 176q213 174 213 418v917h-269v-917q0 -156 -131 -264.5t-315 -108.5q-186 0 -317 108q-129 106 -129 265v917h-269v-917zM545 1554h190l117 117l115 -117h192l-207 258h-200z" />
<glyph unicode="&#xdc;" horiz-adv-x="1701" d="M137 537q0 -244 211 -418q213 -176 504 -176q293 0 502 176q213 174 213 418v917h-269v-917q0 -156 -131 -264.5t-315 -108.5q-186 0 -317 108q-129 106 -129 265v917h-269v-917zM504 1667q0 -47 38 -80t95 -33q55 0 94 33t39 80t-39 79t-94 32q-57 0 -95 -32t-38 -79z M934 1667q0 -47 38 -80t95 -33q55 0 94 33t39 80t-39 79t-94 32q-57 0 -95 -32t-38 -79z" />
<glyph unicode="&#xdd;" horiz-adv-x="1634" d="M29 1454l655 -774v-703h266v703l656 774h-328l-461 -543l-461 543h-327zM709 1554h186l258 258h-289z" />
<glyph unicode="&#xde;" horiz-adv-x="1562" d="M160 -23h266v316h489q221 0 394 117q172 123 172 307t-176 307q-166 117 -390 117h-489v313h-266v-1477zM426 514v406h489q119 0 205 -56q92 -59 92 -147q0 -90 -92 -148q-86 -55 -205 -55h-489z" />
<glyph unicode="&#xdf;" horiz-adv-x="1638" d="M160 -201h266v1096q0 150 100 258q51 59 120 87t151 28q352 0 352 -174q0 -84 -127 -133q-111 -43 -236 -43h-153v-224h153q174 0 299 -65q150 -76 150 -199q0 -131 -145 -205q-121 -61 -304 -61q-74 0 -192 22l-64 -215q70 -16 133.5 -22t122.5 -6q287 0 486 118 q229 138 229 369q0 137 -102 246h2q-72 82 -199 131q213 90 213 287q0 201 -203 309q-166 88 -415 88q-139 0 -255 -46t-208 -138q-174 -174 -174 -412v-1096z" />
<glyph unicode="&#xe0;" horiz-adv-x="1691" d="M106 537q0 -240 187 -414q193 -180 483 -180q297 0 492 188v-154h266v1119h-266v-152q-98 92 -220 140.5t-272 48.5q-141 0 -263 -44.5t-216 -136.5q-190 -172 -191 -415zM373 537q0 156 129 264q131 109 317 108q186 0 317.5 -108t131.5 -264t-131 -264.5t-318 -108.5 q-186 0 -317 108q-129 106 -129 265zM483 1454l258 -258h183l-154 258h-287z" />
<glyph unicode="&#xe1;" horiz-adv-x="1691" d="M106 537q0 -240 187 -414q193 -180 483 -180q297 0 492 188v-154h266v1119h-266v-152q-98 92 -220 140.5t-272 48.5q-141 0 -263 -44.5t-216 -136.5q-190 -172 -191 -415zM373 537q0 156 129 264q131 109 317 108q186 0 317.5 -108t131.5 -264t-131 -264.5t-318 -108.5 q-186 0 -317 108q-129 106 -129 265zM711 1196h184l258 258h-287z" />
<glyph unicode="&#xe2;" horiz-adv-x="1691" d="M106 537q0 -240 187 -414q193 -180 483 -180q297 0 492 188v-154h266v1119h-266v-152q-98 92 -220 140.5t-272 48.5q-141 0 -263 -44.5t-216 -136.5q-190 -172 -191 -415zM373 537q0 156 129 264q131 109 317 108q186 0 317.5 -108t131.5 -264t-131 -264.5t-318 -108.5 q-186 0 -317 108q-129 106 -129 265zM512 1196h190l117 117l117 -117h190l-204 258h-203z" />
<glyph unicode="&#xe3;" horiz-adv-x="1691" d="M106 537q0 -240 187 -414q193 -180 483 -180q297 0 492 188v-154h266v1119h-266v-152q-98 92 -220 140.5t-272 48.5q-141 0 -263 -44.5t-216 -136.5q-190 -172 -191 -415zM373 537q0 156 129 264q131 109 317 108q186 0 317.5 -108t131.5 -264t-131 -264.5t-318 -108.5 q-186 0 -317 108q-129 106 -129 265zM463 1270l170 -74q31 96 55 96q49 0 131 -45q53 -25 91 -38t69 -13q131 0 192 174l-12 27l-149 65q-31 -96 -56 -96q-45 0 -133 43q-49 25 -87 38t-68 13q-135 0 -203 -190z" />
<glyph unicode="&#xe4;" horiz-adv-x="1691" d="M106 537q0 -240 187 -414q193 -180 483 -180q297 0 492 188v-154h266v1119h-266v-152q-98 92 -220 140.5t-272 48.5q-141 0 -263 -44.5t-216 -136.5q-190 -172 -191 -415zM373 537q0 156 129 264q131 109 317 108q186 0 317.5 -108t131.5 -264t-131 -264.5t-318 -108.5 q-186 0 -317 108q-129 106 -129 265zM471 1309q0 -47 38 -80t95 -33t95 33t38 80t-37.5 78.5t-95.5 31.5q-57 0 -95 -31.5t-38 -78.5zM901 1309q0 -47 38 -80t95 -33t95 33t38 80t-37.5 78.5t-95.5 31.5q-57 0 -95 -31.5t-38 -78.5z" />
<glyph unicode="&#xe5;" horiz-adv-x="1691" d="M106 537q0 -240 187 -414q193 -180 483 -180q297 0 492 188v-154h266v1119h-266v-152q-98 92 -220 140.5t-272 48.5q-141 0 -263 -44.5t-216 -136.5q-190 -172 -191 -415zM373 537q0 156 129 264q131 109 317 108q186 0 317.5 -108t131.5 -264t-131 -264.5t-318 -108.5 q-186 0 -317 108q-129 106 -129 265zM557 1415q0 -45 20.5 -85t56.5 -69.5t83 -47t102 -17.5t103.5 17.5t83 47t55 69.5t20.5 85t-20.5 86t-55 69.5t-83 46t-103.5 17.5t-102 -17.5t-83 -46t-56.5 -69.5t-20.5 -86zM694 1415q0 43 37 74t88 31q53 0 89 -31t36 -74t-36 -73.5 t-89 -30.5q-51 0 -88 30.5t-37 73.5z" />
<glyph unicode="&#xe6;" horiz-adv-x="2799" d="M106 537q0 -240 187 -414q201 -180 483 -180q154 0 273.5 47t218.5 139v-152h266v152q186 -186 479 -186q322 0 549 252l-221 120q-156 -152 -361 -151q-80 0 -148.5 20.5t-131.5 61.5q-106 72 -146 180h1127q6 35 10 61.5t4 49.5q0 238 -188 413q-195 182 -477 183 q-307 0 -496 -189v152h-266v-152q-98 92 -220 140.5t-272 48.5q-285 0 -479 -181q-190 -172 -191 -415zM373 537q0 156 129 264q131 109 317 108q186 0 317.5 -108t131.5 -264t-131 -264.5t-318 -108.5q-186 0 -317 108q-129 106 -129 265zM1554 649q40 104 146 180 q125 80 280 80q160 0 277 -80q106 -68 149 -180h-852z" />
<glyph unicode="&#xe7;" horiz-adv-x="1527" d="M106 537q0 -221 175 -390q166 -160 411 -196l-35 -133h97q35 0 59.5 -20.5t24.5 -49.5t-25 -48t-59 -19h-166l-39 -97h205q41 0 77.5 13.5t63.5 35t42 51t15 64.5q0 53 -37.5 96t-95.5 62l10 37q172 4 311.5 61t245.5 174l-8 29l-198 108q-156 -152 -361 -151 q-186 0 -317 108q-129 106 -129 265q0 156 129 264q131 109 317 108q209 0 361 -149l221 121q-109 119 -262.5 185.5t-319.5 66.5q-291 0 -504 -177q-209 -176 -209 -419z" />
<glyph unicode="&#xe8;" horiz-adv-x="1638" d="M106 537q0 -246 209 -418q213 -176 504 -176q166 0 319.5 66.5t262.5 185.5l-221 120q-152 -152 -361 -151q-80 0 -148.5 20.5t-131.5 61.5q-106 72 -146 180h1127q6 35 10 61.5t4 49.5q0 242 -211 419q-209 176 -504 177q-291 0 -504 -177q-209 -176 -209 -419zM393 649 q40 104 146 180q125 80 280 80q160 0 277 -80q106 -68 149 -180h-852zM483 1454l258 -258h183l-154 258h-287z" />
<glyph unicode="&#xe9;" horiz-adv-x="1638" d="M106 537q0 -246 209 -418q213 -176 504 -176q166 0 319.5 66.5t262.5 185.5l-221 120q-152 -152 -361 -151q-80 0 -148.5 20.5t-131.5 61.5q-106 72 -146 180h1127q6 35 10 61.5t4 49.5q0 242 -211 419q-209 176 -504 177q-291 0 -504 -177q-209 -176 -209 -419zM393 649 q40 104 146 180q125 80 280 80q160 0 277 -80q106 -68 149 -180h-852zM711 1196h184l258 258h-287z" />
<glyph unicode="&#xea;" horiz-adv-x="1638" d="M106 537q0 -246 209 -418q213 -176 504 -176q166 0 319.5 66.5t262.5 185.5l-221 120q-152 -152 -361 -151q-80 0 -148.5 20.5t-131.5 61.5q-106 72 -146 180h1127q6 35 10 61.5t4 49.5q0 242 -211 419q-209 176 -504 177q-291 0 -504 -177q-209 -176 -209 -419zM393 649 q40 104 146 180q125 80 280 80q160 0 277 -80q106 -68 149 -180h-852zM512 1196h190l117 117l117 -117h190l-204 258h-203z" />
<glyph unicode="&#xeb;" horiz-adv-x="1638" d="M106 537q0 -246 209 -418q213 -176 504 -176q166 0 319.5 66.5t262.5 185.5l-221 120q-152 -152 -361 -151q-80 0 -148.5 20.5t-131.5 61.5q-106 72 -146 180h1127q6 35 10 61.5t4 49.5q0 242 -211 419q-209 176 -504 177q-291 0 -504 -177q-209 -176 -209 -419zM393 649 q40 104 146 180q125 80 280 80q160 0 277 -80q106 -68 149 -180h-852zM471 1309q0 -47 38 -80t95 -33t95 33t38 80t-37.5 78.5t-95.5 31.5q-57 0 -95 -31.5t-38 -78.5zM901 1309q0 -47 38 -80t95 -33t95 33t38 80t-37.5 78.5t-95.5 31.5q-57 0 -95 -31.5t-38 -78.5z" />
<glyph unicode="&#xec;" d="M-43 1454l258 -258h182l-153 258h-287zM160 -23h266v1119h-266v-1119z" />
<glyph unicode="&#xed;" d="M160 -23h266v1119h-266v-1119zM184 1196h185l258 258h-287z" />
<glyph unicode="&#xee;" d="M-14 1196h190l117 117l115 -117h192l-207 258h-200zM160 -23h266v1119h-266v-1119z" />
<glyph unicode="&#xef;" d="M-55 1309q0 -47 37.5 -80t95.5 -33q55 0 94 33t39 80t-39 78.5t-94 31.5q-57 0 -95 -31.5t-38 -78.5zM160 -23h266v1119h-266v-1119zM375 1309q0 -47 38 -80t95 -33q55 0 94 33t39 80t-39 78.5t-94 31.5q-57 0 -95 -31.5t-38 -78.5z" />
<glyph unicode="&#xf0;" horiz-adv-x="1820" d="M106 537q0 -246 209 -418q213 -176 504 -176q295 0 504 176q211 174 211 418v624h215v187h-215v106h-266v-106h-215v-187h215v-217q-98 92 -220 140.5t-272 48.5q-285 0 -479 -181q-190 -172 -191 -415zM373 537q0 156 129 264q131 109 317 108q186 0 317.5 -108 t131.5 -264t-131 -264.5t-318 -108.5q-186 0 -317 108q-129 106 -129 265z" />
<glyph unicode="&#xf1;" horiz-adv-x="1466" d="M160 -23h266v668q0 109 92 189q94 76 225 75q133 0 226 -75q94 -78 94 -189v-668h266v668q0 195 -149 336q-162 152 -394 152q-215 0 -360 -125v88h-266v-1119zM387 1270l170 -74q35 96 55 96q49 0 131 -45q53 -25 92 -38t68 -13q131 0 193 174l-13 27l-147 65 q-33 -96 -55 -96q-47 0 -136 43q-49 25 -86.5 38t-68.5 13q-135 0 -203 -190z" />
<glyph unicode="&#xf2;" horiz-adv-x="1638" d="M106 537q0 -246 209 -418q213 -176 504 -176q295 0 504 176q211 174 211 418q0 242 -211 419q-209 176 -504 177q-291 0 -504 -177q-209 -176 -209 -419zM373 537q0 156 129 264q131 109 317 108q186 0 317.5 -108t131.5 -264t-131 -264.5t-318 -108.5q-186 0 -317 108 q-129 106 -129 265zM483 1454l258 -258h183l-154 258h-287z" />
<glyph unicode="&#xf3;" horiz-adv-x="1638" d="M106 537q0 -246 209 -418q213 -176 504 -176q295 0 504 176q211 174 211 418q0 242 -211 419q-209 176 -504 177q-291 0 -504 -177q-209 -176 -209 -419zM373 537q0 156 129 264q131 109 317 108q186 0 317.5 -108t131.5 -264t-131 -264.5t-318 -108.5q-186 0 -317 108 q-129 106 -129 265zM711 1196h184l258 258h-287z" />
<glyph unicode="&#xf4;" horiz-adv-x="1638" d="M106 537q0 -246 209 -418q213 -176 504 -176q295 0 504 176q211 174 211 418q0 242 -211 419q-209 176 -504 177q-291 0 -504 -177q-209 -176 -209 -419zM373 537q0 156 129 264q131 109 317 108q186 0 317.5 -108t131.5 -264t-131 -264.5t-318 -108.5q-186 0 -317 108 q-129 106 -129 265zM512 1196h190l117 117l117 -117h190l-204 258h-203z" />
<glyph unicode="&#xf5;" horiz-adv-x="1638" d="M106 537q0 -246 209 -418q213 -176 504 -176q295 0 504 176q211 174 211 418q0 242 -211 419q-209 176 -504 177q-291 0 -504 -177q-209 -176 -209 -419zM373 537q0 156 129 264q131 109 317 108q186 0 317.5 -108t131.5 -264t-131 -264.5t-318 -108.5q-186 0 -317 108 q-129 106 -129 265zM463 1270l170 -74q31 96 55 96q49 0 131 -45q53 -25 91 -38t69 -13q131 0 192 174l-12 27l-149 65q-31 -96 -56 -96q-45 0 -133 43q-49 25 -87 38t-68 13q-135 0 -203 -190z" />
<glyph unicode="&#xf6;" horiz-adv-x="1638" d="M106 537q0 -246 209 -418q213 -176 504 -176q295 0 504 176q211 174 211 418q0 242 -211 419q-209 176 -504 177q-291 0 -504 -177q-209 -176 -209 -419zM373 537q0 156 129 264q131 109 317 108q186 0 317.5 -108t131.5 -264t-131 -264.5t-318 -108.5q-186 0 -317 108 q-129 106 -129 265zM471 1309q0 -47 38 -80t95 -33t95 33t38 80t-37.5 78.5t-95.5 31.5q-57 0 -95 -31.5t-38 -78.5zM901 1309q0 -47 38 -80t95 -33t95 33t38 80t-37.5 78.5t-95.5 31.5q-57 0 -95 -31.5t-38 -78.5z" />
<glyph unicode="&#xf7;" horiz-adv-x="1228" d="M160 444h911v187h-911v-187zM438 125q0 -61 51.5 -104.5t124.5 -43.5q74 0 126.5 43.5t52.5 104.5t-52.5 104t-126.5 43t-125 -43t-51 -104zM438 950q0 -63 51.5 -105t124.5 -42q74 0 126.5 42t52.5 105q0 61 -52.5 103.5t-126.5 42.5t-125 -42t-51 -104z" />
<glyph unicode="&#xf8;" horiz-adv-x="1638" d="M41 55l100 -84l189 135q201 -164 489 -163q295 0 504 176q211 174 211 418q0 186 -133 344l196 139l-100 84l-186 -135q-209 164 -492 164q-291 0 -504 -177q-209 -176 -209 -419q0 -188 130 -342zM373 537q0 156 129 264q131 109 317 108q164 0 287 -86l-668 -481 q-65 91 -65 195zM530 252l666 481q72 -94 72 -196q0 -156 -131 -264.5t-318 -108.5q-164 0 -289 88z" />
<glyph unicode="&#xf9;" horiz-adv-x="1466" d="M137 430q0 -195 152 -338q156 -150 391 -149q207 0 360 123v-89h269v1119h-269v-666q0 -113 -92 -188q-45 -37 -102.5 -57.5t-122.5 -20.5q-131 0 -227 78q-90 78 -90 188v666h-269v-666zM387 1454l258 -258h182l-153 258h-287z" />
<glyph unicode="&#xfa;" horiz-adv-x="1466" d="M137 430q0 -195 152 -338q156 -150 391 -149q207 0 360 123v-89h269v1119h-269v-666q0 -113 -92 -188q-45 -37 -102.5 -57.5t-122.5 -20.5q-131 0 -227 78q-90 78 -90 188v666h-269v-666zM614 1196h185l258 258h-287z" />
<glyph unicode="&#xfb;" horiz-adv-x="1466" d="M137 430q0 -195 152 -338q156 -150 391 -149q207 0 360 123v-89h269v1119h-269v-666q0 -113 -92 -188q-45 -37 -102.5 -57.5t-122.5 -20.5q-131 0 -227 78q-90 78 -90 188v666h-269v-666zM416 1196h190l117 117l115 -117h192l-207 258h-200z" />
<glyph unicode="&#xfc;" horiz-adv-x="1466" d="M137 430q0 -195 152 -338q156 -150 391 -149q207 0 360 123v-89h269v1119h-269v-666q0 -113 -92 -188q-45 -37 -102.5 -57.5t-122.5 -20.5q-131 0 -227 78q-90 78 -90 188v666h-269v-666zM375 1309q0 -47 38 -80t95 -33q55 0 94 33t39 80t-39 78.5t-94 31.5 q-57 0 -95 -31.5t-38 -78.5zM805 1309q0 -47 38 -80t95 -33q55 0 94 33t39 80t-39 78.5t-94 31.5q-57 0 -95 -31.5t-38 -78.5z" />
<glyph unicode="&#xfd;" horiz-adv-x="1429" d="M41 1096l528 -1096l-75 -158q-16 -37 -74 -37q-35 0 -133 29v-225q45 -14 77.5 -19.5t55.5 -5.5q238 0 323 183v-3l648 1332h-287l-391 -801l-387 801h-285zM606 1196h187l258 258h-289z" />
<glyph unicode="&#xfe;" horiz-adv-x="1691" d="M160 -381h266v512q195 -188 489 -188q289 0 482 180q190 172 190 414q0 244 -190 415q-197 180 -482 181q-150 0 -270.5 -48.5t-218.5 -140.5v510h-266v-1835zM426 537q0 156 129 264q131 109 317 108q186 0 317.5 -108t131.5 -264t-131 -264.5t-318 -108.5 q-186 0 -317 108q-129 106 -129 265z" />
<glyph unicode="&#xff;" horiz-adv-x="1429" d="M41 1096l528 -1096l-75 -158q-16 -37 -74 -37q-35 0 -133 29v-225q45 -14 77.5 -19.5t55.5 -5.5q238 0 323 183v-3l648 1332h-287l-391 -801l-387 801h-285zM367 1309q0 -47 38.5 -80t96.5 -33q57 0 95 33t38 80t-38 78.5t-95 31.5t-96 -31.5t-39 -78.5zM797 1309 q0 -47 38.5 -80t96.5 -33q57 0 95 33t38 80t-38 78.5t-95 31.5t-96 -31.5t-39 -78.5z" />
<glyph unicode="&#x152;" horiz-adv-x="2895" d="M106 717q0 -160 67 -296t206 -251q272 -227 655 -227q395 0 664 229v-195h1040v224h-774v405h559v221h-559v406h774v221h-1040v-194q-272 231 -664 231q-383 0 -655.5 -227.5t-272.5 -546.5zM373 717q0 229 192 391q193 160 469 160q274 0 469 -160q195 -164 195 -391 t-195 -391q-197 -162 -469 -162t-469 162q-193 162 -192 391z" />
<glyph unicode="&#x153;" horiz-adv-x="2799" d="M106 537q0 -246 209 -418q213 -176 504 -176q174 0 327.5 66.5t252.5 183.5q102 -117 254.5 -183.5t326.5 -66.5q166 0 320 66.5t262 185.5l-221 120q-156 -152 -361 -151q-80 0 -148.5 20.5t-131.5 61.5q-106 72 -146 180h1127q6 35 10 61.5t4 49.5q0 242 -211 419 q-209 176 -504 177q-174 0 -326.5 -67t-254.5 -185q-98 119 -252 185.5t-328 66.5q-291 0 -504 -177q-209 -176 -209 -419zM373 537q0 156 129 264q131 109 317 108q186 0 317.5 -108t131.5 -264t-131 -264.5t-318 -108.5q-186 0 -317 108q-129 106 -129 265zM1554 649 q40 104 146 180q125 80 280 80q160 0 277 -80q106 -68 149 -180h-852z" />
<glyph unicode="&#x178;" horiz-adv-x="1634" d="M29 1454l655 -774v-703h266v703l656 774h-328l-461 -543l-461 543h-327zM469 1667q0 -47 38 -80t95 -33t95 33t38 80t-38 79t-95 32t-95 -32t-38 -79zM899 1667q0 -47 38 -80t95 -33t95 33t38 80t-37.5 79t-95.5 32q-57 0 -95 -32t-38 -79z" />
<glyph unicode="&#x2c6;" horiz-adv-x="884" d="M135 1196h191l116 117l117 -117h193l-207 258h-203z" />
<glyph unicode="&#x2dc;" horiz-adv-x="1021" d="M152 1266l170 -76q35 96 57 96q47 0 129 -45q53 -23 92 -36t68 -13q133 0 194 174l-12 25l-150 65q-31 -96 -55 -96q-47 0 -133 43q-94 51 -158 51q-135 0 -202 -188z" />
<glyph unicode="&#x2000;" horiz-adv-x="910" />
<glyph unicode="&#x2001;" horiz-adv-x="1821" />
<glyph unicode="&#x2002;" horiz-adv-x="910" />
<glyph unicode="&#x2003;" horiz-adv-x="1821" />
<glyph unicode="&#x2004;" horiz-adv-x="607" />
<glyph unicode="&#x2005;" horiz-adv-x="455" />
<glyph unicode="&#x2006;" horiz-adv-x="303" />
<glyph unicode="&#x2007;" horiz-adv-x="303" />
<glyph unicode="&#x2008;" horiz-adv-x="227" />
<glyph unicode="&#x2009;" horiz-adv-x="364" />
<glyph unicode="&#x200a;" horiz-adv-x="101" />
<glyph unicode="&#x2010;" horiz-adv-x="1228" d="M160 444h911v187h-911v-187z" />
<glyph unicode="&#x2011;" horiz-adv-x="1228" d="M160 444h911v187h-911v-187z" />
<glyph unicode="&#x2012;" horiz-adv-x="1228" d="M160 444h911v187h-911v-187z" />
<glyph unicode="&#x2013;" horiz-adv-x="1013" d="M160 444h696v187h-696v-187z" />
<glyph unicode="&#x2014;" horiz-adv-x="1443" d="M160 444h1126v187h-1126v-187z" />
<glyph unicode="&#x2018;" horiz-adv-x="669" d="M160 909h352v295h-215q6 57 44 96t85 39v115q-129 0 -201 -82q-66 -78 -65 -190v-273z" />
<glyph unicode="&#x2019;" horiz-adv-x="669" d="M160 1161h213q-6 -59 -43 -98t-84 -39v-115q129 0 196 84q37 39 53.5 86.5t16.5 102.5v272h-352v-293z" />
<glyph unicode="&#x201a;" horiz-adv-x="669" d="M160 -23h213q-6 -55 -43 -95t-84 -40v-114q127 0 196 82q37 41 53.5 87t16.5 103v272h-352v-295z" />
<glyph unicode="&#x201c;" horiz-adv-x="1142" d="M160 909h352v295h-215q6 57 44 96t85 39v115q-129 0 -201 -82q-66 -78 -65 -190v-273zM633 909h352v295h-215q6 57 44 96t85 39v115q-129 0 -201 -82q-66 -78 -65 -190v-273z" />
<glyph unicode="&#x201d;" horiz-adv-x="1142" d="M160 1161h213q-6 -59 -43 -98t-84 -39v-115q129 0 196 84q37 39 53.5 86.5t16.5 102.5v272h-352v-293zM633 1161h213q-6 -59 -43 -98t-84 -39v-115q129 0 196 84q37 39 53.5 86.5t16.5 102.5v272h-352v-293z" />
<glyph unicode="&#x201e;" horiz-adv-x="1142" d="M160 -23h213q-6 -55 -43 -95t-84 -40v-114q127 0 196 82q37 41 53.5 87t16.5 103v272h-352v-295zM633 -23h213q-6 -55 -43 -95t-84 -40v-114q127 0 196 82q37 41 53.5 87t16.5 103v272h-352v-295z" />
<glyph unicode="&#x2022;" horiz-adv-x="1142" d="M160 537q0 -137 121 -242q127 -102 290 -102q170 0 291 100q123 105 123 244t-123 243q-121 100 -291 101q-166 0 -290 -101q-121 -104 -121 -243z" />
<glyph unicode="&#x2026;" horiz-adv-x="1787" d="M160 125q0 -61 50 -104.5t126 -43.5q74 0 125 43.5t51 104.5t-51 104t-125 43q-76 0 -126 -43t-50 -104zM719 125q0 -61 50 -104.5t126 -43.5q74 0 125 43.5t51 104.5t-51 104t-125 43q-76 0 -126 -43t-50 -104zM1278 125q0 -61 50 -104.5t126 -43.5q74 0 125 43.5 t51 104.5t-51 104t-125 43q-76 0 -126 -43t-50 -104z" />
<glyph unicode="&#x202f;" horiz-adv-x="364" />
<glyph unicode="&#x2039;" horiz-adv-x="968" d="M160 537l536 -301l125 157l-405 230l405 229l-125 156l-536 -301v-170z" />
<glyph unicode="&#x203a;" horiz-adv-x="968" d="M150 393l122 -157l537 301v170l-537 301l-122 -156l405 -229z" />
<glyph unicode="&#x205f;" horiz-adv-x="455" />
<glyph unicode="&#x20ac;" horiz-adv-x="2011" d="M150 463h266q94 -229 329 -373q242 -147 547 -147q123 0 243 27.5t239 86.5v277q-231 -170 -482 -170q-199 0 -358 90q-145 78 -227 209h768l81 186h-921q-4 16 -4 33v35v33q0 18 4 34h981l82 187h-991q80 125 227 209q162 88 358 88q248 0 467 -158l96 223 q-258 158 -563 158q-154 0 -289 -38t-258 -112q-236 -143 -329 -370h-183l-83 -187h215v-67v-68h-132z" />
<glyph unicode="&#x2122;" horiz-adv-x="1935" d="M160 1286h278v-627h203v627h184v-627h203v420l182 -420h181l182 418v-418h203v795h-250l-226 -512l-223 512h-917v-168z" />
<glyph unicode="&#xe000;" horiz-adv-x="1095" d="M0 0v1096h1096v-1096h-1096z" />
</font>
</defs>
</svg>
