<?xml version="1.0" standalone="no"?>
<!DOCTYPE svg PUBLIC "-//W3C//DTD SVG 1.1//EN" "http://www.w3.org/Graphics/SVG/1.1/DTD/svg11.dtd" >
<svg xmlns="http://www.w3.org/2000/svg">
<metadata></metadata>
<defs>
<font id="florencesans_expregular" horiz-adv-x="534" >
<font-face units-per-em="2048" ascent="1638" descent="-410" />
<missing-glyph horiz-adv-x="1071" />
<glyph horiz-adv-x="2048" />
<glyph horiz-adv-x="2048" />
<glyph unicode="&#xd;" horiz-adv-x="1024" />
<glyph unicode=" "  horiz-adv-x="1071" />
<glyph unicode="&#x09;" horiz-adv-x="1071" />
<glyph unicode="&#xa0;" horiz-adv-x="1071" />
<glyph unicode="!" horiz-adv-x="620" d="M160 125q0 -53 43 -89t106 -36t107.5 36t44.5 89t-44 89t-108 36q-63 0 -106 -36t-43 -89zM203 1434l43 -1041h129l43 1041h-215z" />
<glyph unicode="&#x22;" horiz-adv-x="1136" d="M160 1505l94 -491q10 -47 55 -47t56 47l96 491h-301zM676 1505l94 -491q10 -47 55 -47t56 47l96 491h-301z" />
<glyph unicode="#" horiz-adv-x="1437" d="M160 608h231l-22 -215h172l22 215h258l-22 -215h172l22 215h285v144h-268l22 215h246v143h-231l20 215h-172l-21 -215h-258l21 215h-172l-21 -215h-284v-143h270l-22 -215h-248v-144zM580 752l22 215h258l-22 -215h-258z" />
<glyph unicode="$" horiz-adv-x="1695" d="M160 387q0 -184 186 -297q154 -96 393 -121v-149h215v149q117 12 216.5 42t177.5 79q188 115 188 297q0 201 -180 301q-121 66 -402 103v491q66 -10 121 -25.5t96 -42.5q106 -63 107 -163h215q0 174 -170 288q-152 100 -369 125v148h-215v-148q-215 -25 -366 -125 q-170 -115 -170 -288q0 -197 159 -297q59 -35 152.5 -63.5t224.5 -45.5v-495q-152 12 -243 63q-121 66 -121 174h-215zM418 1051q0 100 104 163q43 27 97.5 42.5t119.5 25.5v-463q-145 25 -219 66q-102 57 -102 166zM954 150v466q168 -25 242 -59q125 -55 125 -170 q0 -203 -367 -237z" />
<glyph unicode="%" horiz-adv-x="2146" d="M160 1110q0 -150 123 -254q125 -104 307 -104q176 0 303 104t127 254t-127 254t-303 104q-182 0 -307 -104q-123 -104 -123 -254zM223 0h215l1485 1434h-215zM332 1110q0 90 76 152q76 63 182 63q109 0 182 -61q76 -64 76 -154q0 -88 -76 -151.5t-182 -63.5 q-102 0 -182 63q-76 63 -76 152zM1126 322q0 -150 125 -254.5t305 -104.5q176 0 303.5 104.5t127.5 254.5t-127 254t-304 104q-180 0 -305 -104.5t-125 -253.5zM1298 322q0 90 76 153q74 61 182 62q106 0 185 -62q74 -63 74 -153q0 -88 -74 -152q-80 -63 -185 -64 q-106 0 -182 63.5t-76 152.5z" />
<glyph unicode="&#x26;" horiz-adv-x="1636" d="M160 399q0 -178 151 -307q156 -129 369 -129q262 0 459 141l80 -104h258l-189 244q16 23 31.5 46t28.5 46h-2l104 194l-197 72l-100 -186l-301 385q86 45 141.5 79.5t83.5 57.5q96 90 97 213q0 135 -117 225q-111 92 -275 92q-78 0 -147.5 -22.5t-126.5 -69.5 q-111 -96 -111 -225q0 -74 54 -158q8 -12 33.5 -47t72.5 -94q-96 -51 -163.5 -97t-112.5 -87q-121 -121 -121 -269zM375 403q0 98 98 179q55 45 201 123l348 -449q-145 -115 -342 -115q-61 0 -115.5 18.5t-99.5 59.5q-90 78 -90 184zM612 1153q0 57 48.5 98t117.5 41 q37 0 70 -11t57.5 -30.5t38.5 -45t14 -56.5q0 -80 -96 -129l-125 -68l-94 119q-31 37 -31 82z" />
<glyph unicode="'" horiz-adv-x="620" d="M160 1505l94 -491q10 -47 55 -47t56 47l96 491h-301z" />
<glyph unicode="(" horiz-adv-x="792" d="M160 627q0 -250 76 -432q41 -90 106.5 -183.5t161.5 -191.5h129q-145 211 -203 387q-55 174 -55 420q0 244 55 420q27 88 79 184t124 203h-129q-188 -190 -268 -377q-76 -176 -76 -430z" />
<glyph unicode=")" horiz-adv-x="792" d="M160 -180h129q96 98 161.5 191t104.5 184q78 186 78 432q0 250 -78 430q-78 184 -266 377h-129q143 -213 202 -387q27 -88 41.5 -192.5t14.5 -227.5q0 -242 -60 -420q-55 -178 -198 -387z" />
<glyph unicode="*" horiz-adv-x="1148" d="M160 852l86 -127l241 119v-236h172v236l244 -119l86 127l-244 115l244 116l-86 127l-244 -118v233h-172v-233l-241 118l-86 -127l241 -116z" />
<glyph unicode="+" horiz-adv-x="1179" d="M160 465h344v-287h172v287h344v143h-344v287h-172v-287h-344v-143z" />
<glyph unicode="," horiz-adv-x="620" d="M160 250l94 -490q10 -47 55 -47t56 47l96 490h-301z" />
<glyph unicode="-" horiz-adv-x="1179" d="M160 465h860v143h-860v-143z" />
<glyph unicode="." horiz-adv-x="620" d="M160 125q0 -53 43 -89t106 -36t107.5 36t44.5 89t-44 89t-108 36q-63 0 -106 -36t-43 -89z" />
<glyph unicode="/" horiz-adv-x="1075" d="M106 -100l201 -62l662 1516l-203 61z" />
<glyph unicode="0" horiz-adv-x="1673" d="M106 717q0 -293 187 -510q209 -244 545 -244q330 0 542 244q189 219 189 510t-189 508q-211 244 -542 243q-338 0 -545 -243q-94 -109 -140.5 -236t-46.5 -272zM322 717q0 217 122 381q145 193 394 192q244 0 389 -192q127 -164 127 -381t-127 -381q-143 -193 -389 -193 q-250 0 -394 193q-123 162 -122 381z" />
<glyph unicode="1" horiz-adv-x="1673" d="M438 1053l140 -115l317 268v-1206h215v1434h-215z" />
<glyph unicode="2" horiz-adv-x="1673" d="M193 0h1290v178h-1014q86 129 360 264q184 92 293 148.5t146 83.5q215 154 215 358q0 203 -207 326q-184 111 -438 110q-254 0 -437 -100q-209 -117 -208 -317h215q0 125 143 188q115 51 274 51q172 0 293 -55q150 -72 150 -203q0 -174 -281 -327q-129 -68 -258 -135.5 t-258 -133.5q-279 -182 -278 -436z" />
<glyph unicode="3" horiz-adv-x="1673" d="M180 221q86 -131 271 -196q162 -61 356 -62q276 0 471 115q217 131 217 352q0 266 -336 377q250 86 250 287q0 190 -197 288q-164 86 -405 86q-197 0 -342 -57q-180 -63 -238 -201l203 -61q57 141 377 141q152 0 250 -37q137 -49 137 -159q0 -96 -141 -154 q-111 -45 -246 -45h-129v-178h129q172 0 311 -70q162 -82 162 -217q0 -143 -158 -223q-127 -63 -315 -64q-336 0 -442 168z" />
<glyph unicode="4" horiz-adv-x="1673" d="M150 287h946v-287h215v287h215v178h-215v969h-187l-974 -969v-178zM377 465l719 702v-702h-719z" />
<glyph unicode="5" horiz-adv-x="1673" d="M168 326q76 -166 258 -265q178 -98 393 -98q276 0 481 156q207 152 207 383t-207 383q-203 154 -481 153q-223 0 -403 -100v315h876v181h-1091v-697l200 -65q63 88 176 138t242 50q96 0 176 -25.5t152 -74.5q145 -104 145 -258t-145 -258q-72 -49 -152 -75t-176 -26 q-141 0 -264 62q-121 59 -176 166z" />
<glyph unicode="6" horiz-adv-x="1673" d="M125 717q0 -293 186 -510q209 -244 545 -244q279 0 481 154q211 158 211 389q0 225 -211 387q-201 152 -481 151q-328 0 -506 -206q37 188 156 309q139 143 350 143q223 0 361 -155l167 104q-205 229 -528 229q-166 0 -303 -60t-242 -183q-94 -109 -140 -236t-46 -272z M401 504q0 158 134 258q131 104 321 104q188 0 330 -100q147 -110 147 -262q0 -158 -143 -258q-145 -102 -334 -103q-176 0 -311 109q-143 113 -144 252z" />
<glyph unicode="7" horiz-adv-x="1673" d="M332 1253h911l-878 -1253h256l872 1253v181h-1161v-181z" />
<glyph unicode="8" horiz-adv-x="1673" d="M150 430q0 -223 215 -352q195 -115 473 -115q276 0 471 115q217 131 217 352q0 264 -336 377q250 84 250 287q0 190 -197 288q-166 86 -405 86q-246 0 -408 -86q-195 -98 -194 -288q0 -203 247 -287q-334 -111 -333 -377zM365 430q0 137 159 217q137 70 314 70 q172 0 311 -70q162 -82 162 -217q0 -143 -158 -223q-127 -63 -315 -64q-190 0 -318 64q-156 80 -155 223zM451 1094q0 111 133 159q100 37 254 37q152 0 249 -37q138 -48 138 -159q0 -94 -144 -154q-55 -23 -116.5 -34t-126.5 -11q-137 0 -246 45q-141 57 -141 154z" />
<glyph unicode="9" horiz-adv-x="1673" d="M125 928q0 -227 211 -387q201 -152 481 -152q328 0 506 207q-37 -188 -156 -309q-139 -143 -350 -144q-221 0 -362 156l-166 -106q207 -229 528 -230q336 0 545 244q186 221 186 510q0 291 -186 508q-104 123 -241.5 183t-303.5 60q-281 0 -481 -151q-211 -160 -211 -389 zM340 930q0 158 143 258q145 102 334 102q168 0 311 -108q142 -109 142 -252q0 -154 -131 -260q-133 -102 -322 -103q-188 0 -334 103q-143 104 -143 260z" />
<glyph unicode=":" horiz-adv-x="620" d="M160 125q0 -53 43 -89t106 -36t107.5 36t44.5 89t-44 89t-108 36q-63 0 -106 -36t-43 -89zM160 770q0 -53 43 -89t106 -36t107.5 36t44.5 89t-44 89t-108 36q-63 0 -106 -36t-43 -89z" />
<glyph unicode=";" horiz-adv-x="620" d="M160 250l94 -490q10 -47 55 -47t56 47l96 490h-301zM160 770q0 -53 43 -89t106 -36t107.5 36t44.5 89t-44 89t-108 36q-63 0 -106 -36t-43 -89z" />
<glyph unicode="&#x3c;" horiz-adv-x="1132" d="M160 465l721 -389l94 119l-633 342l633 344l-94 118l-721 -391v-143z" />
<glyph unicode="=" horiz-adv-x="1179" d="M160 305h860v144h-860v-144zM160 627h860v143h-860v-143z" />
<glyph unicode="&#x3e;" horiz-adv-x="1132" d="M160 195l94 -119l721 389v143l-721 391l-94 -118l633 -344z" />
<glyph unicode="?" horiz-adv-x="1093" d="M160 1139h215q2 59 51 105t121 46t122 -46t50 -105q0 -94 -109 -174q-49 -35 -98 -68t-96 -68q-109 -90 -109 -215q0 -16 25 -221h129q8 61 12 106.5t8 73.5q10 72 47 125.5t97 89.5q51 29 102 56.5t102 56.5q105 76 105 238q0 133 -115 231q-111 98 -272 98 q-166 0 -277 -98q-111 -96 -110 -231zM246 125q0 -53 43 -89t106 -36t107.5 36t44.5 89t-44 89t-108 36q-63 0 -106 -36t-43 -89z" />
<glyph unicode="@" horiz-adv-x="2555" d="M160 537q0 -385 325 -658q334 -274 793 -274q152 0 315 41l-39 118q-131 -33 -276 -32q-401 0 -684 237q-285 238 -285 568q0 332 285 569q283 238 684 237q401 0 682 -235q285 -236 285 -571q0 -156 -97 -273q-111 -139 -280 -139q-78 0 -124 51t-46 117v22l65 625h-161 l-15 -145q-127 172 -370 172q-217 0 -375 -144q-154 -141 -154 -325q0 -160 121 -277q131 -115 317 -115q248 0 408 173q0 -115 90 -197q88 -82 227 -82q236 0 396 174q149 166 149 363q0 385 -330 659q-164 137 -361.5 204.5t-426.5 67.5q-463 0 -793 -272 q-326 -274 -325 -659zM850 512q0 127 117 225q115 96 270 97q137 0 229 -80q95 -78 95 -191q0 -131 -117 -227q-117 -94 -270 -94q-135 0 -230 80q-94 76 -94 190z" />
<glyph unicode="A" horiz-adv-x="1583" d="M51 0h228l143 322h739l142 -322h231l-627 1434h-229zM498 502l295 669l290 -669h-585z" />
<glyph unicode="B" horiz-adv-x="1609" d="M160 0h774q213 0 375 113q161 116 161 290q0 240 -303 320q260 88 260 307q0 172 -165 293q-158 111 -371 111h-731v-1434zM375 178v449h559q127 0 219 -60q102 -64 102 -164q0 -102 -102 -165q-96 -59 -219 -60h-559zM375 807v446h516q125 0 219 -57q102 -64 102 -166 q0 -100 -102 -164q-92 -59 -219 -59h-516z" />
<glyph unicode="C" horiz-adv-x="1783" d="M106 717q0 -309 263 -533q270 -221 641 -221q373 0 637 221l-154 123q-205 -164 -483 -164q-287 0 -487.5 168t-200.5 406t200.5 405.5t487.5 167.5q281 0 483 -166l154 125q-262 219 -637 219t-641 -221q-262 -219 -263 -530z" />
<glyph unicode="D" horiz-adv-x="1802" d="M160 0h645q354 0 606 209q254 211 254 508q0 295 -254 506q-250 211 -606 211h-645v-1434zM375 178v1075h430q266 0 455 -157q190 -158 190 -379t-190 -381q-193 -158 -455 -158h-430z" />
<glyph unicode="E" horiz-adv-x="1523" d="M160 0h1204v178h-989v449h774v180h-774v446h989v181h-1204v-1434z" />
<glyph unicode="F" horiz-adv-x="1447" d="M160 0h215v627h774v180h-774v446h989v181h-1204v-1434z" />
<glyph unicode="G" horiz-adv-x="1900" d="M106 717q0 -309 263 -533q270 -221 641 -221q113 0 221 23.5t205.5 67.5t181.5 106.5t145 142.5v504h-753v-180h538v-267q-205 -217 -538 -217q-287 0 -487.5 168t-200.5 406t200.5 405.5t487.5 167.5q162 0 306 -60.5t243 -168.5l176 102q-127 145 -318.5 225t-406.5 80 q-375 0 -641 -221q-262 -219 -263 -530z" />
<glyph unicode="H" horiz-adv-x="1695" d="M160 0h215v627h946v-627h215v1434h-215v-627h-946v627h-215v-1434z" />
<glyph unicode="I" d="M160 0h215v1434h-215v-1434z" />
<glyph unicode="J" horiz-adv-x="1302" d="M84 203q39 -55 93 -99.5t118.5 -75t137.5 -48t151 -17.5q242 0 409 143q172 142 172 343v985h-651v-181h436v-804q0 -125 -108 -216q-106 -90 -258 -90q-201 0 -308 144z" />
<glyph unicode="K" horiz-adv-x="1511" d="M160 0h215v537l241 202l578 -739h256l-678 868l678 566h-303l-772 -643v643h-215v-1434z" />
<glyph unicode="L" horiz-adv-x="1232" d="M160 0h989v178h-774v1256h-215v-1434z" />
<glyph unicode="M" horiz-adv-x="2029" d="M160 0h215v1208l526 -1208h229l525 1202v-1202h215v1434h-344l-512 -1172l-510 1172h-344v-1434z" />
<glyph unicode="N" horiz-adv-x="1695" d="M160 0h215v1110l946 -1110h215v1434h-215v-1112l-946 1112h-215v-1434z" />
<glyph unicode="O" horiz-adv-x="2017" d="M106 717q0 -313 263 -533q266 -221 641 -221q373 0 637 221q266 222 266 533t-266 532q-262 219 -637 219q-377 0 -641 -219q-262 -219 -263 -532zM322 717q0 238 200.5 405.5t487.5 167.5q281 0 485 -168q203 -169 203 -405q0 -238 -203 -406q-205 -168 -485 -168 q-287 0 -487.5 168t-200.5 406z" />
<glyph unicode="P" horiz-adv-x="1511" d="M160 0h215v627h516q209 0 375 112q161 117 161 291q0 172 -165 293q-158 111 -371 111h-731v-1434zM375 807v446h516q125 0 219 -57q102 -64 102 -166q0 -100 -102 -164q-92 -59 -219 -59h-516z" />
<glyph unicode="Q" horiz-adv-x="2017" d="M106 717q0 -287 228 -500q229 -215 567 -248v-327h215v327q334 33 567 248q230 215 230 500q0 311 -266 532q-262 219 -637 219q-377 0 -641 -219q-262 -219 -263 -532zM322 717q0 238 200.5 405.5t487.5 167.5q281 0 485 -168q203 -169 203 -405q0 -211 -168 -373 q-160 -160 -414 -194v208h-215v-208q-125 16 -229.5 64t-186.5 130q-164 160 -163 373z" />
<glyph unicode="R" horiz-adv-x="1597" d="M160 0h215v627h258q225 0 319 -125l391 -502h256l-391 502q-104 137 -168 141q168 37 279 141q109 104 108 246q0 172 -165 293q-158 111 -371 111h-731v-1434zM375 807v446h516q125 0 219 -57q102 -64 102 -166q0 -100 -102 -164q-92 -59 -219 -59h-516z" />
<glyph unicode="S" horiz-adv-x="1652" d="M137 387q0 -201 232 -321q201 -102 456 -103q256 0 457 100q231 121 231 324q0 254 -288 346q-135 23 -269.5 46.5t-269.5 45.5q-291 59 -291 226q0 121 152 188q121 51 278 51q156 0 281 -53q150 -63 149 -186h215q0 193 -213 313q-188 104 -432 104q-246 0 -432 -104 q-213 -119 -213 -313q0 -262 291 -355q135 -23 269 -45t270 -45q288 -55 288 -218q0 -132 -168 -195q-127 -49 -305 -50q-176 0 -305 50q-168 63 -168 194h-215z" />
<glyph unicode="T" horiz-adv-x="1480" d="M74 1253h559v-1253h215v1253h559v181h-1333v-181z" />
<glyph unicode="U" horiz-adv-x="1652" d="M137 537q0 -236 203 -404q205 -170 485 -170q281 0 486 170q202 166 202 404v897h-215v-897q0 -162 -139 -279q-135 -115 -334 -115q-201 0 -333 115q-139 115 -140 279v897h-215v-897z" />
<glyph unicode="V" horiz-adv-x="1583" d="M51 1434l627 -1434h229l627 1434h-231l-510 -1172l-514 1172h-228z" />
<glyph unicode="W" horiz-adv-x="2299" d="M51 1434l494 -1434h221l385 1110l379 -1110h225l494 1434h-224l-383 -1110l-380 1110h-224l-383 -1110l-379 1110h-225z" />
<glyph unicode="X" horiz-adv-x="1603" d="M63 0h267l473 559l473 -559h264l-604 717l604 717h-264l-473 -560l-473 560h-267l605 -717z" />
<glyph unicode="Y" horiz-adv-x="1583" d="M51 1434l633 -748v-686h215v686l631 748h-264l-473 -560l-474 560h-268z" />
<glyph unicode="Z" horiz-adv-x="1652" d="M137 0h1376v178h-1083l1083 1075v181h-1376v-181h1086l-1086 -1075v-178z" />
<glyph unicode="[" horiz-adv-x="835" d="M160 -180h516v180h-301v1253h301v181h-516v-1614z" />
<glyph unicode="\" horiz-adv-x="1075" d="M106 1354l660 -1516l203 62l-662 1515z" />
<glyph unicode="]" horiz-adv-x="835" d="M160 0v-180h516v1614h-516v-181h301v-1253h-301z" />
<glyph unicode="^" horiz-adv-x="1191" d="M160 672l155 -60l279 523l280 -523l158 60l-352 653h-172z" />
<glyph unicode="_" horiz-adv-x="1071" d="M0 0h1071v143h-1071v-143z" />
<glyph unicode="`" horiz-adv-x="663" d="M160 1434l215 -215h129l-129 215h-215z" />
<glyph unicode="a" horiz-adv-x="1640" d="M106 537q0 -117 44.5 -215.5t138.5 -184.5q182 -174 463 -174q322 0 516 230v-193h215v1075h-215v-194q-193 229 -516 229q-281 0 -461 -172q-184 -170 -185 -401zM322 537q0 166 137 278q137 117 336 117q193 0 331 -117q70 -59 106 -126.5t36 -151.5q0 -160 -142 -279 q-135 -115 -331 -115q-201 0 -336 115q-137 113 -137 279z" />
<glyph unicode="b" horiz-adv-x="1640" d="M160 0h215v193q195 -229 516 -230q274 0 463 174q182 171 182 400t-184 401q-188 172 -461 172q-324 0 -516 -229v553h-215v-1434zM375 537q0 162 137 278.5t336 116.5q193 0 334 -117q68 -59 103.5 -126.5t35.5 -151.5q0 -158 -139 -279q-139 -115 -334 -115 q-201 0 -336 115q-137 117 -137 279z" />
<glyph unicode="c" horiz-adv-x="1476" d="M106 537q0 -236 201 -404q205 -170 488 -170q160 0 303 60.5t241 166.5l-180 97q-147 -143 -364 -144q-201 0 -336 115q-137 113 -137 279t137 278q137 117 336 117q217 0 364 -144l180 97q-98 106 -241.5 165.5t-302.5 59.5q-287 0 -488 -168t-201 -405z" />
<glyph unicode="d" horiz-adv-x="1640" d="M106 537q0 -117 44.5 -215.5t138.5 -184.5q182 -174 463 -174q322 0 516 230v-193h215v1434h-215v-553q-193 229 -516 229q-281 0 -461 -172q-184 -170 -185 -401zM322 537q0 166 137 278q137 117 336 117q193 0 331 -117q70 -59 106 -126.5t36 -151.5q0 -160 -142 -279 q-135 -115 -331 -115q-201 0 -336 115q-137 113 -137 279z" />
<glyph unicode="e" horiz-adv-x="1587" d="M106 537q0 -236 201 -404q205 -170 488 -170q160 0 303 60.5t241 166.5l-180 97q-143 -143 -364 -144q-162 0 -297 86q-129 86 -164 220h1139q6 23 8 44t2 44q0 236 -203 405q-205 168 -485 168q-287 0 -488 -168t-201 -405zM334 627q35 133 164 219q135 86 297 86 t290 -86q131 -84 168 -219h-919z" />
<glyph unicode="f" horiz-adv-x="806" d="M106 788h130v-1146h215v1146h215v179h-215v233q0 37 30.5 64.5t75.5 27.5q35 0 66 -20l100 162q-72 34 -161 34h-5q-133 0 -227 -77q-94 -76 -94 -191v-233h-130v-179z" />
<glyph unicode="g" horiz-adv-x="1640" d="M106 537q0 -117 44.5 -215.5t138.5 -184.5q188 -174 463 -174q147 0 290 64q133 61 226 166q0 -86 -34 -160t-101 -131q-133 -117 -338 -117q-219 0 -367 143l-166 -114q209 -209 533 -209q279 0 485 170q203 170 203 403v897h-215v-194q-90 104 -226 168 q-139 61 -290 61q-274 0 -461 -172q-184 -170 -185 -401zM322 537q0 166 137 278q137 117 336 117q193 0 331 -117q70 -59 106 -126.5t36 -151.5q0 -160 -142 -279q-135 -115 -331 -115q-201 0 -336 115q-137 113 -137 279z" />
<glyph unicode="h" horiz-adv-x="1415" d="M160 0h215v645q0 121 100 203q100 84 244 84q141 0 242 -84q102 -84 102 -203v-645h215v645q0 186 -145 322q-150 143 -371 143q-238 0 -387 -158v482h-215v-1434z" />
<glyph unicode="i" d="M117 1343q0 -53 43 -88.5t106 -35.5t107.5 35.5t44.5 88.5t-44 89t-108 36q-63 0 -106 -35.5t-43 -89.5zM160 0h215v1075h-215v-1075z" />
<glyph unicode="j" d="M-115 -356q78 -39 166 -39q131 0 228 80q96 77 96 190v1200h-215v-1200q0 -37 -33 -63.5t-76 -26.5q-39 0 -65 20zM117 1343q0 -53 43 -88.5t106 -35.5t107.5 35.5t44.5 88.5t-44 89t-108 36q-63 0 -106 -35.5t-43 -89.5z" />
<glyph unicode="k" horiz-adv-x="1339" d="M160 0h215v322l237 200l410 -522h256l-508 651l508 424h-303l-600 -500v859h-215v-1434z" />
<glyph unicode="l" d="M160 0h215v1434h-215v-1434z" />
<glyph unicode="m" horiz-adv-x="2146" d="M160 0h215v645q0 115 84 199q86 88 217 88q133 0 219 -90q82 -86 82 -197v-645h215v645q0 115 84 199q86 88 217 88q133 0 219 -90q82 -86 82 -197v-645h215v645q0 188 -145 324q-147 141 -371 141q-268 0 -403 -209q-104 209 -351 209q-231 0 -364 -158v123h-215v-1075z " />
<glyph unicode="n" horiz-adv-x="1415" d="M160 0h215v645q0 121 100 203q100 84 244 84q141 0 242 -84q102 -84 102 -203v-645h215v645q0 186 -145 322q-150 143 -371 143q-238 0 -387 -158v123h-215v-1075z" />
<glyph unicode="o" horiz-adv-x="1587" d="M106 537q0 -236 201 -404q205 -170 488 -170q279 0 485 170q203 168 203 404t-203 405q-205 168 -485 168q-287 0 -488 -168t-201 -405zM322 537q0 166 137 278q137 117 336 117q193 0 331 -117q70 -59 106 -126.5t36 -151.5q0 -160 -142 -279q-135 -115 -331 -115 q-201 0 -336 115q-137 113 -137 279z" />
<glyph unicode="p" horiz-adv-x="1640" d="M160 -358h215v551q195 -229 516 -230q274 0 463 174q182 171 182 400t-184 401q-188 172 -461 172q-324 0 -516 -229v194h-215v-1433zM375 537q0 162 137 278.5t336 116.5q193 0 334 -117q68 -59 103.5 -126.5t35.5 -151.5q0 -158 -139 -279q-139 -115 -334 -115 q-201 0 -336 115q-137 117 -137 279z" />
<glyph unicode="q" horiz-adv-x="1640" d="M106 537q0 -117 44.5 -215.5t138.5 -184.5q182 -174 463 -174q322 0 516 230v-551h215v1433h-215v-194q-193 229 -516 229q-281 0 -461 -172q-184 -170 -185 -401zM322 537q0 166 137 278q137 117 336 117q193 0 331 -117q70 -59 106 -126.5t36 -151.5q0 -160 -142 -279 q-135 -115 -331 -115q-201 0 -336 115q-137 113 -137 279z" />
<glyph unicode="r" horiz-adv-x="925" d="M160 0h215v645q0 121 100 203q100 84 244 84q33 0 63.5 -5.5t59.5 -15.5v195q-20 4 -41 4h-39q-238 0 -387 -158v123h-215v-1075z" />
<glyph unicode="s" horiz-adv-x="1351" d="M137 295q0 -158 182 -252q78 -39 165 -59.5t192 -20.5q100 0 189 20.5t167 59.5q180 94 180 252q0 199 -217 270q-10 4 -110.5 21.5t-292.5 50.5q-217 35 -217 143q0 82 106 121q82 31 195 31t192 -31q109 -41 109 -121h215q0 154 -172 248q-145 82 -344 82t-344 -82 q-172 -92 -172 -248q0 -201 217 -272q14 -4 113.5 -21.5t289.5 -50.5q217 -35 217 -141q0 -152 -321 -152q-127 0 -205 27q-119 39 -119 125h-215z" />
<glyph unicode="t" horiz-adv-x="899" d="M84 895h258v-1253h215v1253h258v180h-258v250h-215v-250h-258v-180z" />
<glyph unicode="u" horiz-adv-x="1415" d="M137 430q0 -186 144 -324q156 -143 372 -143q233 0 387 158v-121h215v1075h-215v-645q0 -121 -102 -203q-100 -84 -242 -84q-141 0 -243 84q-100 84 -101 203v645h-215v-645z" />
<glyph unicode="v" horiz-adv-x="1378" d="M51 1075l520 -1075h234l520 1075h-229l-408 -837l-405 837h-232z" />
<glyph unicode="w" horiz-adv-x="2007" d="M51 1075l420 -1075h225l308 784l307 -784h225l420 1075h-227l-306 -784l-307 784h-225l-307 -784l-305 784h-228z" />
<glyph unicode="x" horiz-adv-x="1300" d="M63 0h267l319 379l320 -379h270l-457 537l457 538h-270l-320 -381l-319 381h-267l453 -538z" />
<glyph unicode="y" horiz-adv-x="1378" d="M51 1075l520 -1075l-77 -166q-25 -49 -101 -49q-43 0 -106 18v-180q63 -18 106 -18q221 0 301 170l631 1300h-229l-408 -837l-405 837h-232z" />
<glyph unicode="z" horiz-adv-x="1437" d="M137 0h1161v178h-858l858 717v180h-1161v-180h858l-858 -717v-178z" />
<glyph unicode="{" horiz-adv-x="985" d="M160 537h63q63 0 107.5 -29t44.5 -78v-305q0 -115 104 -207q106 -98 240 -98h106v180h-86q-29 0 -55.5 11.5t-47 28.5t-33.5 39.5t-13 45.5v287q0 35 -14.5 69.5t-40.5 69.5q-61 76 -142 76q82 0 142 78q27 35 41 68.5t14 68.5v286q0 25 13 47.5t33.5 40t47.5 27.5t55 10 h86v181h-106q-131 0 -240 -97q-104 -96 -104 -209v-305q0 -49 -44 -77.5t-108 -28.5h-63v-180z" />
<glyph unicode="|" d="M160 -180h215v1614h-215v-1614z" />
<glyph unicode="}" horiz-adv-x="985" d="M160 0v-180h106q129 0 238 98q106 96 106 207v305q0 49 44 78t108 29h63v180h-63q-63 0 -107.5 28.5t-44.5 77.5v305q0 109 -106 209q-109 96 -238 97h-106v-181h86q29 0 55.5 -10t48 -27.5t33.5 -40t12 -47.5v-286q0 -35 14.5 -69t41.5 -68q63 -78 141 -78 q-78 0 -141 -76q-27 -35 -41.5 -70t-14.5 -69v-287q0 -23 -12 -45.5t-33.5 -39.5t-48.5 -28.5t-55 -11.5h-86z" />
<glyph unicode="~" horiz-adv-x="1185" d="M160 487l159 -53q33 76 97 76q66 0 192 -43q125 -43 195 -43q151 0 225 158l-160 55q-33 -78 -96 -78q-68 0 -192 43q-129 43 -195 43q-156 0 -225 -158z" />
<glyph unicode="&#xa1;" horiz-adv-x="620" d="M160 1128q0 -53 43 -88.5t106 -35.5t107.5 35.5t44.5 88.5t-44 89t-108 36q-63 0 -106 -35.5t-43 -89.5zM203 -180h215l-43 1040h-129z" />
<glyph unicode="&#xa2;" horiz-adv-x="1552" d="M160 537q0 -213 164 -373q172 -162 415 -193v-186h215v186q271 33 441 219l-183 97q-100 -102 -258 -133v768q158 -31 258 -134l179 99q-168 182 -437 217v186h-215v-186q-250 -35 -415 -195q-164 -158 -164 -372zM375 537q0 141 102 245q104 109 262 140v-768 q-158 31 -262 139q-102 104 -102 244z" />
<glyph unicode="&#xa3;" horiz-adv-x="1560" d="M106 627h216v-627h1075v178h-860v449h430v180h-430v178q0 127 106 215q106 90 258 90q201 0 309 -143l191 84q-39 55 -93.5 99t-119 75t-138 47t-149.5 16q-242 0 -409 -143q-170 -139 -170 -340v-178h-216v-180z" />
<glyph unicode="&#xa4;" horiz-adv-x="1957" d="M160 483h248q90 -227 327 -377q121 -72 253 -107.5t280 -35.5q242 0 454 105v219q-199 -143 -454 -144q-203 0 -375 93q-170 94 -256 247h795l63 144h-907q-6 23 -7 45t-1 45t1 45t7 45h985l63 143h-999q86 156 256 246q170 94 375 94q256 0 454 -143l76 178 q-236 143 -530 143q-295 0 -533 -143q-236 -145 -327 -375h-185l-63 -143h209q-4 -23 -4 -45v-45v-45q0 -23 4 -45h-146z" />
<glyph unicode="&#xa5;" horiz-adv-x="1798" d="M160 1434l561 -664h-467v-143h539v-178h-539v-144h539v-305h215v305h536v144h-536v178h536v143h-467l561 664h-266l-473 -560l-473 560h-266z" />
<glyph unicode="&#xa6;" d="M160 -180h215v700h-215v-700zM160 735h215v699h-215v-699z" />
<glyph unicode="&#xa7;" horiz-adv-x="1394" d="M160 170q0 -160 180 -252q154 -80 356 -80q203 0 357 80q182 92 182 252q0 174 -164 250q164 82 164 233q0 199 -217 271q-12 4 -112.5 21.5t-293.5 49.5q-217 35 -217 144q0 80 109 121q80 31 192 30q115 0 195 -30q111 -39 106 -121h215q0 154 -172 247 q-145 82 -344 82t-344 -82q-172 -92 -172 -247q0 -174 160 -250q-160 -84 -160 -236q0 -199 217 -272q16 -4 115.5 -21.5t290.5 -48.5q217 -35 217 -141q0 -152 -324 -152q-125 0 -204 27q-119 39 -117 125h-215zM395 653q0 84 103 125q80 31 192 31q109 0 205 -31 q125 -45 125 -125t-109 -121q-84 -31 -192 -30q-111 0 -203 33q-121 41 -121 118z" />
<glyph unicode="&#xa8;" horiz-adv-x="964" d="M160 1343q0 -37 30.5 -63.5t75.5 -26.5t77 26.5t32 63.5q0 39 -32 65t-77 26t-75.5 -26t-30.5 -65zM590 1343q0 -37 30.5 -63.5t75.5 -26.5t77 26.5t32 63.5q0 39 -32 65t-77 26t-75.5 -26t-30.5 -65z" />
<glyph unicode="&#xa9;" horiz-adv-x="1673" d="M160 565q0 -233 196 -401q102 -82 221 -123t261 -41q276 0 475 164q200 168 200 401t-200 398q-197 166 -475 165q-279 0 -482 -165q-197 -166 -196 -398zM279 565q0 190 161 328q168 137 398 137q225 0 391 -137q168 -140 168 -328q0 -193 -168 -329 q-162 -137 -391 -138q-233 0 -398 138q-162 135 -161 329zM408 565q0 -158 129 -268q129 -109 321 -109q187 0 322 111l-80 61q-96 -82 -242 -81q-143 0 -243.5 83.5t-100.5 202.5q0 117 100 201q98 86 244 86q141 0 242 -84l80 63q-133 109 -322 109q-190 0 -321 -111 q-129 -111 -129 -264z" />
<glyph unicode="&#xaa;" horiz-adv-x="1351" d="M160 1030q0 -174 137 -299q137 -131 346 -131q242 0 387 172v-145h162v807h-162v-146q-145 172 -387 172q-209 0 -346 -129q-137 -125 -137 -301zM322 1030q0 123 100 209q106 86 254 86q145 0 248 -86q106 -86 106 -209q0 -121 -106 -209q-102 -86 -248 -86 q-147 0 -254 86q-100 88 -100 209z" />
<glyph unicode="&#xab;" horiz-adv-x="1755" d="M160 354l635 -354l94 121l-547 305l547 307l-94 119l-635 -354v-144zM868 354l635 -354l94 121l-544 305l544 307l-94 119l-635 -354v-144z" />
<glyph unicode="&#xac;" horiz-adv-x="1179" d="M160 465h688v-178h172v321h-860v-143z" />
<glyph unicode="&#xad;" horiz-adv-x="1179" d="M160 465h860v143h-860v-143z" />
<glyph unicode="&#xae;" horiz-adv-x="1673" d="M160 565q0 -233 196 -401q102 -82 221 -123t261 -41q276 0 475 164q200 168 200 401t-200 398q-197 166 -475 165q-279 0 -482 -165q-197 -166 -196 -398zM279 565q0 190 161 328q168 137 398 137q225 0 391 -137q168 -140 168 -328q0 -199 -174 -338l-181 230 q-47 61 -84 71q86 16 140.5 69.5t54.5 125.5q0 84 -82 143q-82 57 -188 58h-365v-717h107v313h129q111 0 161 -63l195 -250h84q-158 -109 -356 -109q-233 0 -398 138q-162 135 -161 329zM625 608v226h258q63 0 112 -31t49 -80q0 -51 -49 -83t-112 -32h-258z" />
<glyph unicode="&#xaf;" horiz-adv-x="964" d="M160 1290h645v144h-645v-144z" />
<glyph unicode="&#xb0;" horiz-adv-x="792" d="M160 1237q0 -41 18.5 -78t50 -63.5t74.5 -42t92 -15.5t92 15.5t76 42t51.5 63.5t18.5 78t-18.5 77t-51.5 62.5t-76 42t-92 15.5t-92 -15.5t-74.5 -42t-50 -62.5t-18.5 -77zM246 1237q0 53 43 89t106 36t107.5 -36t44.5 -89t-44 -90t-108 -37q-63 0 -106 37t-43 90z" />
<glyph unicode="&#xb1;" horiz-adv-x="1179" d="M160 0h860v143h-860v-143zM160 645h344v-287h172v287h344v143h-344v287h-172v-287h-344v-143z" />
<glyph unicode="&#xb2;" horiz-adv-x="964" d="M160 717h645v90h-508q39 61 180 131q92 43 147.5 72.5t71.5 42.5q109 80 109 180q0 98 -105 164q-96 55 -219 55q-129 0 -217 -51q-104 -57 -104 -160h106q0 61 70 96q57 25 139 25q88 0 148 -29q74 -35 73 -100q0 -86 -139 -164l-258 -133q-139 -92 -139 -219z" />
<glyph unicode="&#xb3;" horiz-adv-x="976" d="M160 827q86 -129 313 -129q133 0 236 58q108 65 108 176q0 131 -168 188q125 43 125 144q0 92 -98 145q-41 23 -92.5 33t-110.5 10q-236 0 -291 -129l101 -31q31 70 190 70q193 0 193 -98q0 -47 -72 -78q-49 -20 -121 -21h-65v-90h65q90 0 154 -35q82 -41 82 -108 q0 -74 -76 -111q-63 -33 -160 -33q-164 0 -223 84z" />
<glyph unicode="&#xb4;" horiz-adv-x="663" d="M160 1219h129l215 215h-215z" />
<glyph unicode="&#xb6;" horiz-adv-x="1802" d="M160 1030q0 -176 164 -293q164 -111 372 -110v-985h215v1611h258v-1611h215v1611h258v181h-946q-213 0 -372 -111q-164 -121 -164 -293z" />
<glyph unicode="&#xb7;" horiz-adv-x="620" d="M160 537q0 -53 43 -89t106 -36t107.5 36t44.5 89t-44 90t-108 37q-63 0 -106 -37t-43 -90z" />
<glyph unicode="&#xb8;" horiz-adv-x="663" d="M160 -358h172q72 0 122 42t50 101q0 49 -40 89t-99 50l30 111h-86l-43 -160h66q43 0 74.5 -26.5t31.5 -63.5t-31.5 -63.5t-74.5 -26.5h-152z" />
<glyph unicode="&#xb9;" horiz-adv-x="653" d="M160 1243l67 -57l160 135v-604h107v717h-107z" />
<glyph unicode="&#xba;" horiz-adv-x="1351" d="M160 1030q0 -182 149 -305q150 -125 367 -125q213 0 362 125q154 129 154 305q0 174 -154 303q-152 127 -362 127q-215 0 -367 -127q-150 -123 -149 -303zM322 1030q0 123 100 209q106 86 254 86q145 0 248 -86q106 -86 106 -209q0 -121 -106 -209q-102 -86 -248 -86 q-147 0 -254 86q-100 88 -100 209z" />
<glyph unicode="&#xbb;" horiz-adv-x="1755" d="M160 121l94 -121l635 354v144l-635 354l-94 -119l547 -307zM868 121l97 -121l632 354v144l-632 354l-97 -119l547 -307z" />
<glyph unicode="&#xbc;" horiz-adv-x="1179" d="M160 680h860v72h-860v-72zM315 115h377v-115h86v115h86v71h-86v387h-71l-392 -387v-71zM408 186l284 281v-281h-284zM455 1282l57 -45l125 104v-481h86v574h-86z" />
<glyph unicode="&#xbd;" horiz-adv-x="1179" d="M160 680h860v72h-860v-72zM334 0h514v72h-406q33 49 146 106q72 35 114.5 57.5t59.5 32.5q86 61 86 144q0 78 -82 131q-72 45 -174 45t-174 -41q-84 -47 -84 -127h86q0 53 57 74q49 23 111 22q63 0 114 -22q59 -29 60 -82q0 -68 -113 -131q-53 -27 -103 -53.5t-102 -53.5 q-111 -72 -110 -174zM455 1282l57 -45l125 104v-481h86v574h-86z" />
<glyph unicode="&#xbe;" horiz-adv-x="1179" d="M160 680h860v72h-860v-72zM315 115h377v-115h86v115h86v71h-86v387h-71l-392 -387v-71zM326 950q70 -104 254 -104q104 0 186 47q86 49 86 139q0 106 -133 150q100 37 100 114q0 78 -78 117q-63 35 -161 35q-188 0 -234 -105l82 -24q23 57 152 57q154 0 153 -80 q0 -37 -55 -59q-47 -18 -98 -18h-54v-72h54q33 0 63.5 -6t58.5 -23q63 -33 64 -86q0 -59 -59 -90q-55 -25 -127 -24q-135 0 -179 67zM408 186l284 281v-281h-284z" />
<glyph unicode="&#xbf;" horiz-adv-x="1093" d="M160 117q0 -137 110 -234q113 -98 277 -98q158 0 272.5 98.5t114.5 233.5h-215q-2 -61 -51.5 -107.5t-120.5 -46.5q-72 0 -122 46t-50 108q0 94 106 174q98 66 197 133q106 88 106 215q0 10 -6 63.5t-16 157.5h-129q-8 -59 -13.5 -104t-9.5 -76q-25 -143 -145 -215 q-49 -29 -99.5 -56.5t-103.5 -56.5q-102 -76 -102 -235zM547 1128q0 -53 43 -88.5t106 -35.5t107.5 35.5t44.5 88.5t-44 89t-108 36q-63 0 -106 -35.5t-43 -89.5z" />
<glyph unicode="&#xc0;" horiz-adv-x="1583" d="M51 0h228l143 322h739l142 -322h231l-627 1434h-229zM498 502l295 669l290 -669h-585zM512 1792l215 -215h129l-129 215h-215z" />
<glyph unicode="&#xc1;" horiz-adv-x="1583" d="M51 0h228l143 322h739l142 -322h231l-627 1434h-229zM498 502l295 669l290 -669h-585zM727 1577h129l215 215h-215z" />
<glyph unicode="&#xc2;" horiz-adv-x="1583" d="M51 0h228l143 322h739l142 -322h231l-627 1434h-229zM498 502l295 669l290 -669h-585zM535 1577h129l129 129l129 -129h129l-172 215h-172z" />
<glyph unicode="&#xc3;" horiz-adv-x="1583" d="M51 0h228l143 322h739l142 -322h231l-627 1434h-229zM465 1640l123 -55q27 86 71 86q51 0 145.5 -47t145.5 -47q113 0 168 158l-119 53q-29 -86 -73 -86q-51 0 -146 47q-90 49 -143 49q-113 0 -172 -158zM498 502l295 669l290 -669h-585z" />
<glyph unicode="&#xc4;" horiz-adv-x="1583" d="M51 0h228l143 322h739l142 -322h231l-627 1434h-229zM471 1667q0 -39 30.5 -64.5t78.5 -25.5q43 0 74.5 25.5t31.5 64.5q0 37 -31.5 62.5t-74.5 25.5q-47 0 -78 -25.5t-31 -62.5zM498 502l295 669l290 -669h-585zM901 1667q0 -39 31 -64.5t78 -25.5q43 0 74.5 25.5 t31.5 64.5q0 37 -31.5 62.5t-74.5 25.5q-47 0 -78 -25.5t-31 -62.5z" />
<glyph unicode="&#xc5;" horiz-adv-x="1583" d="M51 0h228l143 322h739l142 -322h231l-610 1397q104 57 104 162q0 80 -72 139q-66 57 -163 57q-100 0 -170 -57q-68 -61 -68 -139q0 -106 104 -164zM498 502l295 669l290 -669h-585zM641 1559q0 53 44 88.5t108 35.5q61 0 105 -35.5t44 -88.5t-44 -89t-105 -36 q-63 0 -107.5 35.5t-44.5 89.5z" />
<glyph unicode="&#xc6;" horiz-adv-x="2451" d="M51 0h228l143 322h739l142 -322h989v178h-774v449h559v180h-559v446h774v181h-989v-908l-396 908h-229zM498 502l295 669l290 -669h-585z" />
<glyph unicode="&#xc7;" horiz-adv-x="1783" d="M106 717q0 -289 230 -504q238 -215 577 -246l-32 -129h63q43 0 76 -26.5t33 -63.5q0 -35 -33 -61.5t-76 -26.5h-149l-23 -55h172q72 0 122 42t50 101q0 51 -39 91t-98 50l18 74q386 0 650 221l-154 123q-205 -164 -483 -164q-287 0 -487.5 168t-200.5 406t200.5 405.5 t487.5 167.5q281 0 483 -166l154 125q-262 219 -637 219t-641 -221q-262 -219 -263 -530z" />
<glyph unicode="&#xc8;" horiz-adv-x="1523" d="M160 0h1204v178h-989v449h774v180h-774v446h989v181h-1204v-1434zM481 1792l215 -215h129l-129 215h-215z" />
<glyph unicode="&#xc9;" horiz-adv-x="1523" d="M160 0h1204v178h-989v449h774v180h-774v446h989v181h-1204v-1434zM696 1577h129l215 215h-215z" />
<glyph unicode="&#xca;" horiz-adv-x="1523" d="M160 0h1204v178h-989v449h774v180h-774v446h989v181h-1204v-1434zM504 1577h129l129 129l129 -129h129l-172 215h-172z" />
<glyph unicode="&#xcb;" horiz-adv-x="1523" d="M160 0h1204v178h-989v449h774v180h-774v446h989v181h-1204v-1434zM438 1667q0 -39 31 -64.5t78 -25.5q45 0 75.5 25.5t30.5 64.5q0 37 -30.5 62.5t-75.5 25.5q-47 0 -78 -25.5t-31 -62.5zM868 1667q0 -39 31 -64.5t78 -25.5q45 0 75.5 25.5t30.5 64.5q0 37 -30.5 62.5 t-75.5 25.5q-47 0 -78 -25.5t-31 -62.5z" />
<glyph unicode="&#xcc;" d="M-12 1792l215 -215h129l-129 215h-215zM160 0h215v1434h-215v-1434z" />
<glyph unicode="&#xcd;" d="M160 0h215v1434h-215v-1434zM203 1577h129l215 215h-215z" />
<glyph unicode="&#xce;" d="M8 1577h129l129 129l129 -129h129l-172 215h-172zM160 0h215v1434h-215v-1434z" />
<glyph unicode="&#xcf;" d="M-55 1667q0 -39 30.5 -64.5t75.5 -25.5t77 25.5t32 64.5q0 37 -32 62.5t-77 25.5t-75.5 -25.5t-30.5 -62.5zM160 0h215v1434h-215v-1434zM375 1667q0 -39 30.5 -64.5t75.5 -25.5t77 25.5t32 64.5q0 37 -32 62.5t-77 25.5t-75.5 -25.5t-30.5 -62.5z" />
<glyph unicode="&#xd0;" horiz-adv-x="1964" d="M106 664h216v-664h645q354 0 604 209q256 213 256 508q0 293 -256 506q-248 211 -604 211h-645v-627h-216v-143zM537 178v486h430v143h-430v446h430q266 0 454 -157q191 -158 191 -379t-191 -381q-193 -158 -454 -158h-430z" />
<glyph unicode="&#xd1;" horiz-adv-x="1695" d="M160 0h215v1110l946 -1110h215v1434h-215v-1112l-946 1112h-215v-1434zM522 1640l121 -55q31 86 74 86q49 0 143 -47q47 -23 83 -35t65 -12q115 0 166 158l-119 53q-29 -86 -74 -86q-49 0 -143 47q-92 49 -146 49q-115 0 -170 -158z" />
<glyph unicode="&#xd2;" horiz-adv-x="2017" d="M106 717q0 -313 263 -533q266 -221 641 -221q373 0 637 221q266 222 266 533t-266 532q-262 219 -637 219q-377 0 -641 -219q-262 -219 -263 -532zM322 717q0 238 200.5 405.5t487.5 167.5q281 0 485 -168q203 -169 203 -405q0 -238 -203 -406q-205 -168 -485 -168 q-287 0 -487.5 168t-200.5 406zM729 1792l215 -215h129l-129 215h-215z" />
<glyph unicode="&#xd3;" horiz-adv-x="2017" d="M106 717q0 -313 263 -533q266 -221 641 -221q373 0 637 221q266 222 266 533t-266 532q-262 219 -637 219q-377 0 -641 -219q-262 -219 -263 -532zM322 717q0 238 200.5 405.5t487.5 167.5q281 0 485 -168q203 -169 203 -405q0 -238 -203 -406q-205 -168 -485 -168 q-287 0 -487.5 168t-200.5 406zM944 1577h129l215 215h-215z" />
<glyph unicode="&#xd4;" horiz-adv-x="2017" d="M106 717q0 -313 263 -533q266 -221 641 -221q373 0 637 221q266 222 266 533t-266 532q-262 219 -637 219q-377 0 -641 -219q-262 -219 -263 -532zM322 717q0 238 200.5 405.5t487.5 167.5q281 0 485 -168q203 -169 203 -405q0 -238 -203 -406q-205 -168 -485 -168 q-287 0 -487.5 168t-200.5 406zM752 1577h129l129 129l129 -129h129l-172 215h-172z" />
<glyph unicode="&#xd5;" horiz-adv-x="2017" d="M106 717q0 -313 263 -533q266 -221 641 -221q373 0 637 221q266 222 266 533t-266 532q-262 219 -637 219q-377 0 -641 -219q-262 -219 -263 -532zM322 717q0 238 200.5 405.5t487.5 167.5q281 0 485 -168q203 -169 203 -405q0 -238 -203 -406q-205 -168 -485 -168 q-287 0 -487.5 168t-200.5 406zM684 1640l121 -55q27 86 74 86q49 0 143 -47t145 -47q113 0 168 158l-118 53q-31 -86 -74 -86q-47 0 -146 47q-90 49 -145 49q-113 0 -168 -158z" />
<glyph unicode="&#xd6;" horiz-adv-x="2017" d="M106 717q0 -313 263 -533q266 -221 641 -221q373 0 637 221q266 222 266 533t-266 532q-262 219 -637 219q-377 0 -641 -219q-262 -219 -263 -532zM322 717q0 238 200.5 405.5t487.5 167.5q281 0 485 -168q203 -169 203 -405q0 -238 -203 -406q-205 -168 -485 -168 q-287 0 -487.5 168t-200.5 406zM686 1667q0 -39 31 -64.5t78 -25.5q43 0 74.5 25.5t31.5 64.5q0 37 -31.5 62.5t-74.5 25.5q-47 0 -78 -25.5t-31 -62.5zM1116 1667q0 -39 31 -64.5t78 -25.5q43 0 74.5 25.5t31.5 64.5q0 37 -31.5 62.5t-74.5 25.5q-47 0 -78 -25.5t-31 -62.5 z" />
<glyph unicode="&#xd7;" horiz-adv-x="1169" d="M160 285l121 -103l303 254l305 -254l121 103l-301 252l301 254l-121 102l-305 -254l-303 254l-121 -102l303 -254z" />
<glyph unicode="&#xd8;" horiz-adv-x="2017" d="M51 53l66 -53l250 188q272 -225 643 -225q373 0 637 221q266 221 266 533q0 266 -203 473l256 190l-65 54l-252 -189q-266 223 -639 223q-377 0 -641 -219q-262 -219 -263 -532q0 -270 201 -473zM322 717q0 238 200.5 405.5t487.5 167.5q280 0 481 -164l-1026 -761 q-143 152 -143 352zM526 307l1024 762q148 -157 148 -352q0 -238 -203 -406q-205 -168 -485 -168q-287 0 -484 164z" />
<glyph unicode="&#xd9;" horiz-adv-x="1652" d="M137 537q0 -236 203 -404q205 -170 485 -170q281 0 486 170q202 166 202 404v897h-215v-897q0 -162 -139 -279q-135 -115 -334 -115q-201 0 -333 115q-139 115 -140 279v897h-215v-897zM547 1792l215 -215h129l-129 215h-215z" />
<glyph unicode="&#xda;" horiz-adv-x="1652" d="M137 537q0 -236 203 -404q205 -170 485 -170q281 0 486 170q202 166 202 404v897h-215v-897q0 -162 -139 -279q-135 -115 -334 -115q-201 0 -333 115q-139 115 -140 279v897h-215v-897zM762 1577h129l215 215h-215z" />
<glyph unicode="&#xdb;" horiz-adv-x="1652" d="M137 537q0 -236 203 -404q205 -170 485 -170q281 0 486 170q202 166 202 404v897h-215v-897q0 -162 -139 -279q-135 -115 -334 -115q-201 0 -333 115q-139 115 -140 279v897h-215v-897zM567 1577h129l129 129l129 -129h129l-172 215h-172z" />
<glyph unicode="&#xdc;" horiz-adv-x="1652" d="M137 537q0 -236 203 -404q205 -170 485 -170q281 0 486 170q202 166 202 404v897h-215v-897q0 -162 -139 -279q-135 -115 -334 -115q-201 0 -333 115q-139 115 -140 279v897h-215v-897zM504 1667q0 -39 30.5 -64.5t75.5 -25.5t77 25.5t32 64.5q0 37 -32 62.5t-77 25.5 t-75.5 -25.5t-30.5 -62.5zM934 1667q0 -39 30.5 -64.5t75.5 -25.5t77 25.5t32 64.5q0 37 -32 62.5t-77 25.5t-75.5 -25.5t-30.5 -62.5z" />
<glyph unicode="&#xdd;" horiz-adv-x="1583" d="M51 1434l633 -748v-686h215v686l631 748h-264l-473 -560l-474 560h-268zM727 1577h129l215 215h-215z" />
<glyph unicode="&#xde;" horiz-adv-x="1511" d="M160 0h215v313h516q213 0 375 113q161 117 161 291q0 172 -165 293q-78 53 -171.5 81.5t-199.5 28.5h-516v314h-215v-1434zM375 494v446h516q127 0 219 -59q102 -64 102 -164q0 -102 -102 -166q-94 -57 -219 -57h-516z" />
<glyph unicode="&#xdf;" horiz-adv-x="1587" d="M160 -180h215v1075q0 158 104 270q113 125 293 125q377 0 377 -196q0 -96 -141 -154q-111 -45 -246 -45h-129v-178h129q174 0 311 -70q162 -80 162 -217q0 -143 -158 -223q-127 -63 -315 -64q-84 0 -172 17l-53 -172q113 -25 225 -25q276 0 471 115q217 131 217 352 q0 131 -96 234q-84 90 -240 143q250 84 250 287q0 193 -190 290q-162 84 -402 84q-270 0 -446 -176q-166 -170 -166 -397v-1075z" />
<glyph unicode="&#xe0;" horiz-adv-x="1640" d="M106 537q0 -117 44.5 -215.5t138.5 -184.5q182 -174 463 -174q322 0 516 230v-193h215v1075h-215v-194q-193 229 -516 229q-281 0 -461 -172q-184 -170 -185 -401zM322 537q0 166 137 278q137 117 336 117q193 0 331 -117q70 -59 106 -126.5t36 -151.5q0 -160 -142 -279 q-135 -115 -331 -115q-201 0 -336 115q-137 113 -137 279zM514 1434l215 -215h129l-129 215h-215z" />
<glyph unicode="&#xe1;" horiz-adv-x="1640" d="M106 537q0 -117 44.5 -215.5t138.5 -184.5q182 -174 463 -174q322 0 516 230v-193h215v1075h-215v-194q-193 229 -516 229q-281 0 -461 -172q-184 -170 -185 -401zM322 537q0 166 137 278q137 117 336 117q193 0 331 -117q70 -59 106 -126.5t36 -151.5q0 -160 -142 -279 q-135 -115 -331 -115q-201 0 -336 115q-137 113 -137 279zM729 1219h129l215 215h-215z" />
<glyph unicode="&#xe2;" horiz-adv-x="1640" d="M106 537q0 -117 44.5 -215.5t138.5 -184.5q182 -174 463 -174q322 0 516 230v-193h215v1075h-215v-194q-193 229 -516 229q-281 0 -461 -172q-184 -170 -185 -401zM322 537q0 166 137 278q137 117 336 117q193 0 331 -117q70 -59 106 -126.5t36 -151.5q0 -160 -142 -279 q-135 -115 -331 -115q-201 0 -336 115q-137 113 -137 279zM537 1219h129l129 129l129 -129h129l-172 215h-172z" />
<glyph unicode="&#xe3;" horiz-adv-x="1640" d="M106 537q0 -117 44.5 -215.5t138.5 -184.5q182 -174 463 -174q322 0 516 230v-193h215v1075h-215v-194q-193 229 -516 229q-281 0 -461 -172q-184 -170 -185 -401zM322 537q0 166 137 278q137 117 336 117q193 0 331 -117q70 -59 106 -126.5t36 -151.5q0 -160 -142 -279 q-135 -115 -331 -115q-201 0 -336 115q-137 113 -137 279zM469 1282l121 -55q27 86 74 86q49 0 143 -47t145 -47q113 -1 168 157l-119 54q-31 -86 -73 -87q-47 0 -146 48q-90 49 -145 49q-113 0 -168 -158z" />
<glyph unicode="&#xe4;" horiz-adv-x="1640" d="M106 537q0 -117 44.5 -215.5t138.5 -184.5q182 -174 463 -174q322 0 516 230v-193h215v1075h-215v-194q-193 229 -516 229q-281 0 -461 -172q-184 -170 -185 -401zM322 537q0 166 137 278q137 117 336 117q193 0 331 -117q70 -59 106 -126.5t36 -151.5q0 -160 -142 -279 q-135 -115 -331 -115q-201 0 -336 115q-137 113 -137 279zM471 1309q0 -39 30.5 -64.5t78.5 -25.5q43 0 74.5 25.5t31.5 64.5q0 37 -31.5 62.5t-74.5 25.5q-47 0 -78 -25.5t-31 -62.5zM901 1309q0 -39 31 -64.5t78 -25.5q43 0 74.5 25.5t31.5 64.5q0 37 -31.5 62.5 t-74.5 25.5q-47 0 -78 -25.5t-31 -62.5z" />
<glyph unicode="&#xe5;" horiz-adv-x="1640" d="M106 537q0 -117 44.5 -215.5t138.5 -184.5q182 -174 463 -174q322 0 516 230v-193h215v1075h-215v-194q-193 229 -516 229q-281 0 -461 -172q-184 -170 -185 -401zM322 537q0 166 137 278q137 117 336 117q193 0 331 -117q70 -59 106 -126.5t36 -151.5q0 -160 -142 -279 q-135 -115 -331 -115q-201 0 -336 115q-137 113 -137 279zM557 1415q0 -41 18.5 -76.5t51 -62.5t75.5 -42t93 -15q49 0 91 15t74.5 42t51 62.5t18.5 76.5t-18.5 77t-51 62.5t-74.5 42t-91 15.5t-92.5 -15.5t-76 -42t-51 -62.5t-18.5 -77zM643 1415q0 53 43 89t109 36 q63 0 106 -36t43 -89t-43 -89t-106 -36q-66 0 -109 36t-43 89z" />
<glyph unicode="&#xe6;" horiz-adv-x="2748" d="M106 537q0 -117 44.5 -215.5t138.5 -184.5q188 -174 463 -174q322 0 516 230v-193h215v193q193 -229 504 -230q307 0 514 227l-181 97q-147 -143 -364 -144q-162 0 -297 86q-129 86 -164 220h1139q6 23 8 44t2 44q0 229 -182 399q-186 174 -459 174q-330 0 -520 -229v194 h-215v-194q-193 229 -516 229q-274 0 -461 -172q-184 -170 -185 -401zM322 537q0 166 137 278q137 117 336 117q193 0 331 -117q70 -59 106 -126.5t36 -151.5q0 -160 -142 -279q-135 -115 -331 -115q-201 0 -336 115q-137 113 -137 279zM1495 627q35 133 164 219 q135 86 297 86t291 -86q131 -84 168 -219h-920z" />
<glyph unicode="&#xe7;" horiz-adv-x="1476" d="M106 537q0 -213 170 -375q86 -84 189.5 -130t232.5 -63l-32 -131h63q43 0 76 -26.5t33 -63.5q0 -35 -33 -61.5t-76 -26.5h-149l-23 -55h172q72 0 122 42t50 101q0 51 -39 91t-98 50l18 74q174 0 313.5 55t243.5 172l-180 97q-147 -143 -364 -144q-201 0 -336 115 q-137 113 -137 279t137 278q137 117 336 117q217 0 364 -144l180 97q-98 106 -241.5 165.5t-302.5 59.5q-287 0 -488 -168t-201 -405z" />
<glyph unicode="&#xe8;" horiz-adv-x="1587" d="M106 537q0 -236 201 -404q205 -170 488 -170q160 0 303 60.5t241 166.5l-180 97q-143 -143 -364 -144q-162 0 -297 86q-129 86 -164 220h1139q6 23 8 44t2 44q0 236 -203 405q-205 168 -485 168q-287 0 -488 -168t-201 -405zM334 627q35 133 164 219q135 86 297 86 t290 -86q131 -84 168 -219h-919zM514 1434l215 -215h129l-129 215h-215z" />
<glyph unicode="&#xe9;" horiz-adv-x="1587" d="M106 537q0 -236 201 -404q205 -170 488 -170q160 0 303 60.5t241 166.5l-180 97q-143 -143 -364 -144q-162 0 -297 86q-129 86 -164 220h1139q6 23 8 44t2 44q0 236 -203 405q-205 168 -485 168q-287 0 -488 -168t-201 -405zM334 627q35 133 164 219q135 86 297 86 t290 -86q131 -84 168 -219h-919zM729 1219h129l215 215h-215z" />
<glyph unicode="&#xea;" horiz-adv-x="1587" d="M106 537q0 -236 201 -404q205 -170 488 -170q160 0 303 60.5t241 166.5l-180 97q-143 -143 -364 -144q-162 0 -297 86q-129 86 -164 220h1139q6 23 8 44t2 44q0 236 -203 405q-205 168 -485 168q-287 0 -488 -168t-201 -405zM334 627q35 133 164 219q135 86 297 86 t290 -86q131 -84 168 -219h-919zM537 1219h129l129 129l129 -129h129l-172 215h-172z" />
<glyph unicode="&#xeb;" horiz-adv-x="1587" d="M106 537q0 -236 201 -404q205 -170 488 -170q160 0 303 60.5t241 166.5l-180 97q-143 -143 -364 -144q-162 0 -297 86q-129 86 -164 220h1139q6 23 8 44t2 44q0 236 -203 405q-205 168 -485 168q-287 0 -488 -168t-201 -405zM334 627q35 133 164 219q135 86 297 86 t290 -86q131 -84 168 -219h-919zM471 1309q0 -39 30.5 -64.5t78.5 -25.5q43 0 74.5 25.5t31.5 64.5q0 37 -31.5 62.5t-74.5 25.5q-47 0 -78 -25.5t-31 -62.5zM901 1309q0 -39 31 -64.5t78 -25.5q43 0 74.5 25.5t31.5 64.5q0 37 -31.5 62.5t-74.5 25.5q-47 0 -78 -25.5 t-31 -62.5z" />
<glyph unicode="&#xec;" d="M-12 1434l215 -215h129l-129 215h-215zM160 0h215v1075h-215v-1075z" />
<glyph unicode="&#xed;" d="M160 0h215v1075h-215v-1075zM203 1219h129l215 215h-215z" />
<glyph unicode="&#xee;" d="M8 1219h129l129 129l129 -129h129l-172 215h-172zM160 0h215v1075h-215v-1075z" />
<glyph unicode="&#xef;" d="M-55 1309q0 -39 30.5 -64.5t75.5 -25.5t77 25.5t32 64.5q0 37 -32 62.5t-77 25.5t-75.5 -25.5t-30.5 -62.5zM160 0h215v1075h-215v-1075zM375 1309q0 -39 30.5 -64.5t75.5 -25.5t77 25.5t32 64.5q0 37 -32 62.5t-77 25.5t-75.5 -25.5t-30.5 -62.5z" />
<glyph unicode="&#xf0;" horiz-adv-x="1769" d="M106 537q0 -236 201 -404q205 -170 488 -170q279 0 485 170q203 168 203 404v645h215v143h-215v109h-215v-109h-215v-143h215v-301q-193 229 -516 229q-274 0 -461 -172q-184 -170 -185 -401zM322 537q0 166 137 278q137 117 336 117q193 0 331 -117q70 -59 106 -126.5 t36 -151.5q0 -160 -142 -279q-135 -115 -331 -115q-201 0 -336 115q-137 113 -137 279z" />
<glyph unicode="&#xf1;" horiz-adv-x="1415" d="M160 0h215v645q0 121 100 203q100 84 244 84q141 0 242 -84q102 -84 102 -203v-645h215v645q0 186 -145 322q-150 143 -371 143q-238 0 -387 -158v123h-215v-1075zM393 1282l121 -55q31 86 74 86q49 0 143 -47q47 -23 83 -35t65 -12q114 -1 165 157l-118 54 q-29 -86 -74 -87q-49 0 -143 48q-92 49 -146 49q-115 0 -170 -158z" />
<glyph unicode="&#xf2;" horiz-adv-x="1587" d="M106 537q0 -236 201 -404q205 -170 488 -170q279 0 485 170q203 168 203 404t-203 405q-205 168 -485 168q-287 0 -488 -168t-201 -405zM322 537q0 166 137 278q137 117 336 117q193 0 331 -117q70 -59 106 -126.5t36 -151.5q0 -160 -142 -279q-135 -115 -331 -115 q-201 0 -336 115q-137 113 -137 279zM514 1434l215 -215h129l-129 215h-215z" />
<glyph unicode="&#xf3;" horiz-adv-x="1587" d="M106 537q0 -236 201 -404q205 -170 488 -170q279 0 485 170q203 168 203 404t-203 405q-205 168 -485 168q-287 0 -488 -168t-201 -405zM322 537q0 166 137 278q137 117 336 117q193 0 331 -117q70 -59 106 -126.5t36 -151.5q0 -160 -142 -279q-135 -115 -331 -115 q-201 0 -336 115q-137 113 -137 279zM729 1219h129l215 215h-215z" />
<glyph unicode="&#xf4;" horiz-adv-x="1587" d="M106 537q0 -236 201 -404q205 -170 488 -170q279 0 485 170q203 168 203 404t-203 405q-205 168 -485 168q-287 0 -488 -168t-201 -405zM322 537q0 166 137 278q137 117 336 117q193 0 331 -117q70 -59 106 -126.5t36 -151.5q0 -160 -142 -279q-135 -115 -331 -115 q-201 0 -336 115q-137 113 -137 279zM537 1219h129l129 129l129 -129h129l-172 215h-172z" />
<glyph unicode="&#xf5;" horiz-adv-x="1587" d="M106 537q0 -236 201 -404q205 -170 488 -170q279 0 485 170q203 168 203 404t-203 405q-205 168 -485 168q-287 0 -488 -168t-201 -405zM322 537q0 166 137 278q137 117 336 117q193 0 331 -117q70 -59 106 -126.5t36 -151.5q0 -160 -142 -279q-135 -115 -331 -115 q-201 0 -336 115q-137 113 -137 279zM469 1282l121 -55q27 86 74 86q49 0 143 -47t145 -47q113 -1 168 157l-119 54q-31 -86 -73 -87q-47 0 -146 48q-90 49 -145 49q-113 0 -168 -158z" />
<glyph unicode="&#xf6;" horiz-adv-x="1587" d="M106 537q0 -236 201 -404q205 -170 488 -170q279 0 485 170q203 168 203 404t-203 405q-205 168 -485 168q-287 0 -488 -168t-201 -405zM322 537q0 166 137 278q137 117 336 117q193 0 331 -117q70 -59 106 -126.5t36 -151.5q0 -160 -142 -279q-135 -115 -331 -115 q-201 0 -336 115q-137 113 -137 279zM471 1309q0 -39 30.5 -64.5t78.5 -25.5q43 0 74.5 25.5t31.5 64.5q0 37 -31.5 62.5t-74.5 25.5q-47 0 -78 -25.5t-31 -62.5zM901 1309q0 -39 31 -64.5t78 -25.5q43 0 74.5 25.5t31.5 64.5q0 37 -31.5 62.5t-74.5 25.5q-47 0 -78 -25.5 t-31 -62.5z" />
<glyph unicode="&#xf7;" horiz-adv-x="1179" d="M160 465h860v143h-860v-143zM438 125q0 -53 44 -89t108 -36q63 0 106 36t43 89t-43 89t-106 36t-107.5 -36t-44.5 -89zM438 950q0 -53 44 -90t108 -37q63 0 106 37t43 90t-43 89t-106 36t-107.5 -35.5t-44.5 -89.5z" />
<glyph unicode="&#xf8;" horiz-adv-x="1587" d="M51 53l66 -53l186 135q203 -172 492 -172q279 0 485 170q203 168 203 404q0 188 -142 346l195 139l-66 53l-188 -135q-201 170 -487 170q-287 0 -488 -168t-201 -405q0 -96 34 -182.5t106 -161.5zM322 537q0 166 137 278q137 117 336 117q186 0 325 -109l-712 -514 q-86 104 -86 228zM465 252l715 514q43 -53 65.5 -109.5t22.5 -119.5q0 -160 -142 -279q-135 -115 -331 -115q-190 0 -330 109z" />
<glyph unicode="&#xf9;" horiz-adv-x="1415" d="M137 430q0 -186 144 -324q156 -143 372 -143q233 0 387 158v-121h215v1075h-215v-645q0 -121 -102 -203q-100 -84 -242 -84q-141 0 -243 84q-100 84 -101 203v645h-215v-645zM418 1434l215 -215h129l-129 215h-215z" />
<glyph unicode="&#xfa;" horiz-adv-x="1415" d="M137 430q0 -186 144 -324q156 -143 372 -143q233 0 387 158v-121h215v1075h-215v-645q0 -121 -102 -203q-100 -84 -242 -84q-141 0 -243 84q-100 84 -101 203v645h-215v-645zM633 1219h129l215 215h-215z" />
<glyph unicode="&#xfb;" horiz-adv-x="1415" d="M137 430q0 -186 144 -324q156 -143 372 -143q233 0 387 158v-121h215v1075h-215v-645q0 -121 -102 -203q-100 -84 -242 -84q-141 0 -243 84q-100 84 -101 203v645h-215v-645zM438 1219h129l129 129l129 -129h129l-172 215h-172z" />
<glyph unicode="&#xfc;" horiz-adv-x="1415" d="M137 430q0 -186 144 -324q156 -143 372 -143q233 0 387 158v-121h215v1075h-215v-645q0 -121 -102 -203q-100 -84 -242 -84q-141 0 -243 84q-100 84 -101 203v645h-215v-645zM375 1309q0 -39 30.5 -64.5t75.5 -25.5t77 25.5t32 64.5q0 37 -32 62.5t-77 25.5t-75.5 -25.5 t-30.5 -62.5zM805 1309q0 -39 30.5 -64.5t75.5 -25.5t77 25.5t32 64.5q0 37 -32 62.5t-77 25.5t-75.5 -25.5t-30.5 -62.5z" />
<glyph unicode="&#xfd;" horiz-adv-x="1378" d="M51 1075l520 -1075l-77 -166q-25 -49 -101 -49q-43 0 -106 18v-180q63 -18 106 -18q221 0 301 170l631 1300h-229l-408 -837l-405 837h-232zM623 1219h129l215 215h-215z" />
<glyph unicode="&#xfe;" horiz-adv-x="1640" d="M160 -358h215v551q195 -229 516 -230q274 0 463 174q182 171 182 400t-184 401q-188 172 -461 172q-324 0 -516 -229v553h-215v-1792zM375 537q0 162 137 278.5t336 116.5q193 0 334 -117q68 -59 103.5 -126.5t35.5 -151.5q0 -158 -139 -279q-139 -115 -334 -115 q-201 0 -336 115q-137 117 -137 279z" />
<glyph unicode="&#xff;" horiz-adv-x="1378" d="M51 1075l520 -1075l-77 -166q-25 -49 -101 -49q-43 0 -106 18v-180q63 -18 106 -18q221 0 301 170l631 1300h-229l-408 -837l-405 837h-232zM367 1309q0 -39 31.5 -64.5t76.5 -25.5q47 0 77 25.5t30 64.5q0 37 -30 62.5t-77 25.5q-45 0 -76.5 -25.5t-31.5 -62.5z M797 1309q0 -39 31.5 -64.5t76.5 -25.5q47 0 77 25.5t30 64.5q0 37 -30 62.5t-77 25.5q-45 0 -76.5 -25.5t-31.5 -62.5z" />
<glyph unicode="&#x152;" horiz-adv-x="2844" d="M106 717q0 -313 263 -533q266 -221 641 -221q416 0 688 266v-229h989v178h-774v449h559v180h-559v446h774v181h-989v-230q-270 264 -688 264q-377 0 -641 -219q-262 -219 -263 -532zM322 717q0 238 200.5 405.5t487.5 167.5q281 0 485 -168q203 -169 203 -405 q0 -238 -203 -406q-205 -168 -485 -168q-287 0 -487.5 168t-200.5 406z" />
<glyph unicode="&#x153;" horiz-adv-x="2748" d="M106 537q0 -236 201 -404q205 -170 488 -170q176 0 329.5 71.5t249.5 196.5q96 -125 250 -196.5t332 -71.5q160 0 303 60.5t242 166.5l-181 97q-147 -143 -364 -144q-162 0 -297 86q-129 86 -164 220h1139q6 23 8 44t2 44q0 236 -203 405q-205 168 -485 168 q-178 0 -332 -70.5t-250 -195.5q-96 125 -249.5 195.5t-329.5 70.5q-287 0 -488 -168t-201 -405zM322 537q0 166 137 278q137 117 336 117q193 0 331 -117q70 -59 106 -126.5t36 -151.5q0 -160 -142 -279q-135 -115 -331 -115q-201 0 -336 115q-137 113 -137 279zM1495 627 q35 133 164 219q135 86 297 86t291 -86q131 -84 168 -219h-920z" />
<glyph unicode="&#x178;" horiz-adv-x="1583" d="M51 1434l633 -748v-686h215v686l631 748h-264l-473 -560l-474 560h-268zM469 1667q0 -39 30.5 -64.5t78.5 -25.5q45 0 75.5 25.5t30.5 64.5q0 37 -30.5 62.5t-75.5 25.5q-47 0 -78 -25.5t-31 -62.5zM899 1667q0 -39 31 -64.5t78 -25.5q45 0 75.5 25.5t30.5 64.5 q0 37 -30.5 62.5t-75.5 25.5q-47 0 -78 -25.5t-31 -62.5z" />
<glyph unicode="&#x2c6;" horiz-adv-x="835" d="M160 1219h129l129 129l129 -129h129l-172 215h-172z" />
<glyph unicode="&#x2dc;" horiz-adv-x="968" d="M160 1276l119 -53q31 86 73 86q53 0 144 -49q47 -23 82.5 -35.5t64.5 -12.5q113 0 166 158l-117 55q-29 -86 -71 -86q-55 0 -148 45q-92 49 -143 50q-119 0 -170 -158z" />
<glyph unicode="&#x2000;" horiz-adv-x="899" />
<glyph unicode="&#x2001;" horiz-adv-x="1798" />
<glyph unicode="&#x2002;" horiz-adv-x="899" />
<glyph unicode="&#x2003;" horiz-adv-x="1798" />
<glyph unicode="&#x2004;" horiz-adv-x="599" />
<glyph unicode="&#x2005;" horiz-adv-x="449" />
<glyph unicode="&#x2006;" horiz-adv-x="299" />
<glyph unicode="&#x2007;" horiz-adv-x="299" />
<glyph unicode="&#x2008;" horiz-adv-x="224" />
<glyph unicode="&#x2009;" horiz-adv-x="359" />
<glyph unicode="&#x200a;" horiz-adv-x="99" />
<glyph unicode="&#x2010;" horiz-adv-x="1179" d="M160 465h860v143h-860v-143z" />
<glyph unicode="&#x2011;" horiz-adv-x="1179" d="M160 465h860v143h-860v-143z" />
<glyph unicode="&#x2012;" horiz-adv-x="1179" d="M160 465h860v143h-860v-143z" />
<glyph unicode="&#x2013;" horiz-adv-x="964" d="M160 465h645v143h-645v-143z" />
<glyph unicode="&#x2014;" horiz-adv-x="1394" d="M160 465h1075v143h-1075v-143z" />
<glyph unicode="&#x2018;" horiz-adv-x="620" d="M160 932h301v250h-215q0 76 38 128t91 52v72q-90 0 -154 -74q-61 -74 -61 -178v-250z" />
<glyph unicode="&#x2019;" horiz-adv-x="620" d="M160 1182h215q0 -74 -38 -126t-91 -52v-72q88 0 149 74q66 72 66 176v252h-301v-252z" />
<glyph unicode="&#x201a;" horiz-adv-x="620" d="M160 0h215q0 -74 -38 -127t-91 -53v-72q86 0 149 74q66 76 66 178v250h-301v-250z" />
<glyph unicode="&#x201c;" horiz-adv-x="1093" d="M160 932h301v250h-215q0 76 38 128t91 52v72q-90 0 -154 -74q-61 -74 -61 -178v-250zM633 932h301v250h-215q0 76 38 128t91 52v72q-90 0 -154 -74q-61 -74 -61 -178v-250z" />
<glyph unicode="&#x201d;" horiz-adv-x="1093" d="M160 1182h215q0 -74 -38 -126t-91 -52v-72q88 0 149 74q66 72 66 176v252h-301v-252zM633 1182h215q0 -74 -38 -126t-91 -52v-72q88 0 149 74q66 72 66 176v252h-301v-252z" />
<glyph unicode="&#x201e;" horiz-adv-x="1093" d="M160 0h215q0 -74 -38 -127t-91 -53v-72q86 0 149 74q66 76 66 178v250h-301v-250zM633 0h215q0 -74 -38 -127t-91 -53v-72q86 0 149 74q66 76 66 178v250h-301v-250z" />
<glyph unicode="&#x2022;" horiz-adv-x="1093" d="M160 537q0 -133 112 -228q117 -94 275 -94t272 92q115 97 115 230t-115 229q-117 94 -272 94q-158 0 -275 -94q-113 -94 -112 -229z" />
<glyph unicode="&#x2026;" horiz-adv-x="1738" d="M160 125q0 -53 43 -89t106 -36t107.5 36t44.5 89t-44 89t-108 36q-63 0 -106 -36t-43 -89zM719 125q0 -53 43 -89t106 -36t107.5 36t44.5 89t-44 89t-108 36q-63 0 -106 -36t-43 -89zM1278 125q0 -53 43 -89t106 -36t107.5 36t44.5 89t-44 89t-108 36q-63 0 -106 -36 t-43 -89z" />
<glyph unicode="&#x202f;" horiz-adv-x="359" />
<glyph unicode="&#x2039;" horiz-adv-x="917" d="M160 551l506 -285l94 121l-418 236l418 233l-94 121l-506 -283v-143z" />
<glyph unicode="&#x203a;" horiz-adv-x="917" d="M160 387l94 -121l506 285v143l-506 283l-94 -121l418 -233z" />
<glyph unicode="&#x205f;" horiz-adv-x="449" />
<glyph unicode="&#x20ac;" horiz-adv-x="1957" d="M160 483h248q90 -227 327 -377q121 -72 253 -107.5t280 -35.5q242 0 454 105v219q-199 -143 -454 -144q-203 0 -375 93q-170 94 -256 247h795l63 144h-907q-6 23 -7 45t-1 45t1 45t7 45h985l63 143h-999q86 156 256 246q170 94 375 94q256 0 454 -143l76 178 q-236 143 -530 143q-295 0 -533 -143q-236 -145 -327 -375h-185l-63 -143h209q-4 -23 -4 -45v-45v-45q0 -23 4 -45h-146z" />
<glyph unicode="&#x2122;" horiz-adv-x="1884" d="M160 1309h278v-629h152v629h235v-629h152v520l225 -520h146l225 518v-518h151v754h-208l-240 -553l-242 553h-874v-125z" />
<glyph unicode="&#xe000;" horiz-adv-x="1075" d="M0 0v1075h1075v-1075h-1075z" />
</font>
</defs>
</svg>
