<?xml version="1.0" standalone="no"?>
<!DOCTYPE svg PUBLIC "-//W3C//DTD SVG 1.1//EN" "http://www.w3.org/Graphics/SVG/1.1/DTD/svg11.dtd" >
<svg xmlns="http://www.w3.org/2000/svg">
<metadata></metadata>
<defs>
<font id="florencesans_condregular" horiz-adv-x="1056" >
<font-face units-per-em="2048" ascent="1638" descent="-410" />
<missing-glyph horiz-adv-x="712" />
<glyph horiz-adv-x="2048" />
<glyph horiz-adv-x="2048" />
<glyph unicode="&#xd;" horiz-adv-x="1024" />
<glyph unicode=" "  horiz-adv-x="712" />
<glyph unicode="&#x09;" horiz-adv-x="712" />
<glyph unicode="&#xa0;" horiz-adv-x="712" />
<glyph unicode="!" horiz-adv-x="411" d="M106 125q0 -53 29 -89t72 -36q41 0 70.5 36t29.5 89t-29.5 89t-70.5 36q-43 0 -72 -36t-29 -89zM135 1434l29 -1041h86l29 1041h-144z" />
<glyph unicode="&#x22;" horiz-adv-x="755" d="M106 1505l62 -491q10 -47 39 -47q31 0 37 47l63 491h-201zM451 1505l61 -491q10 -47 39 -47q31 0 37 47l63 491h-200z" />
<glyph unicode="#" horiz-adv-x="956" d="M106 608h156l-14 -215h114l15 215h172l-14 -215h114l15 215h188v144h-180l16 215h164v143h-154l15 215h-115l-14 -215h-172l14 215h-115l-14 -215h-191v-143h181l-17 -215h-164v-144zM385 752l16 215h172l-16 -215h-172z" />
<glyph unicode="$" horiz-adv-x="1128" d="M106 387q0 -184 125 -297q102 -96 263 -121v-149h143v149q158 25 262 121q125 115 125 297q0 201 -119 301q-86 66 -268 103v491q43 -10 79 -25.5t64 -42.5q72 -66 72 -163h143q0 170 -114 288q-100 100 -244 125v148h-143v-148q-145 -25 -246 -125q-113 -115 -113 -288 q0 -197 105 -297q41 -35 103.5 -63.5t150.5 -45.5v-495q-102 12 -162 63q-82 63 -82 174h-144zM279 1051q0 100 69 163q29 27 65 42.5t81 25.5v-463q-96 23 -146 66q-70 57 -69 166zM637 150v466q111 -25 162 -59q82 -57 82 -170q0 -203 -244 -237z" />
<glyph unicode="%" horiz-adv-x="1429" d="M106 1110q0 -152 84 -254q82 -104 203 -104q117 0 201 104q86 104 86 254t-86 254q-84 104 -201 104q-121 0 -203 -104q-84 -102 -84 -254zM150 0h143l989 1434h-143zM221 1110q0 90 49 152q51 63 123 63t121 -61q51 -60 51 -154q0 -43 -12 -82t-39 -70q-51 -63 -121 -63 t-123 63q-49 63 -49 152zM752 322q0 -152 84 -254q82 -104 202 -105q117 0 201 105q86 104 86 254t-86 253q-84 104 -201 105q-121 0 -202 -105q-84 -102 -84 -253zM866 322q0 92 49 153q51 61 123 62q72 0 121 -62q51 -59 51 -153q0 -43 -12 -82t-39 -70q-51 -63 -121 -64 q-70 0 -123 64q-49 61 -49 152z" />
<glyph unicode="&#x26;" horiz-adv-x="1091" d="M106 399q0 -180 101 -307q104 -129 248 -129q170 0 305 141l53 -104h172l-127 244q12 23 21.5 46t19.5 46h-2l70 194l-131 72l-66 -186l-201 385q113 90 150 137q63 88 63 213q0 131 -75 225q-74 92 -185 92q-109 0 -182 -92q-76 -98 -76 -225q0 -72 35 -158l23.5 -47 t48.5 -94q-129 -102 -183 -184q-82 -119 -82 -269zM250 403q0 100 65 179q33 41 134 123l231 -449q-96 -115 -225 -115q-86 0 -146 78q-31 39 -45 85t-14 99zM408 1153q0 57 32.5 98t79.5 41t83 -42t36 -101q0 -80 -64 -129l-83 -68l-64 119q-20 41 -20 82z" />
<glyph unicode="'" horiz-adv-x="411" d="M106 1505l62 -491q10 -47 39 -47q31 0 37 47l63 491h-201z" />
<glyph unicode="(" horiz-adv-x="526" d="M106 627q0 -252 52 -432q27 -90 69.5 -183.5t108.5 -191.5h86q-98 211 -135 387q-37 174 -37 420q0 244 37 420q37 174 135 387h-86q-66 -98 -109 -191.5t-69 -185.5q-51 -174 -52 -430z" />
<glyph unicode=")" horiz-adv-x="526" d="M106 -180h87q127 195 176 375q29 92 41 199.5t12 232.5q0 127 -12.5 233.5t-40.5 196.5q-47 180 -176 377h-87q47 -106 82 -202.5t52 -184.5q18 -88 28.5 -192.5t10.5 -227.5t-10.5 -227.5t-28.5 -192.5q-37 -170 -134 -387z" />
<glyph unicode="*" horiz-adv-x="765" d="M106 852l58 -127l162 119v-236h114v236l162 -119l57 127l-161 115l161 116l-57 127l-162 -118v233h-114v-233l-162 118l-58 -127l162 -116z" />
<glyph unicode="+" horiz-adv-x="784" d="M106 465h230v-287h115v287h229v143h-229v287h-115v-287h-230v-143z" />
<glyph unicode="," horiz-adv-x="411" d="M106 250l62 -490q10 -47 39 -47q31 0 37 47l63 490h-201z" />
<glyph unicode="-" horiz-adv-x="784" d="M106 465h574v143h-574v-143z" />
<glyph unicode="." horiz-adv-x="411" d="M106 125q0 -53 29 -89t72 -36q41 0 70.5 36t29.5 89t-29.5 89t-70.5 36q-43 0 -72 -36t-29 -89z" />
<glyph unicode="/" horiz-adv-x="716" d="M70 -100l135 -62l442 1516l-135 61z" />
<glyph unicode="0" horiz-adv-x="1114" d="M70 717q0 -293 125 -510q141 -244 362 -244q223 0 365 244q122 217 122 510t-122 508q-139 244 -365 243q-223 0 -362 -243q-63 -109 -94 -236t-31 -272zM213 717q0 221 84 381q100 193 260 192q162 0 262 -192q82 -162 82 -381t-82 -381q-98 -193 -262 -193 q-162 0 -260 193q-84 160 -84 381z" />
<glyph unicode="1" horiz-adv-x="1114" d="M293 1053l90 -115l213 268v-1206h143v1434h-143z" />
<glyph unicode="2" horiz-adv-x="1114" d="M127 0h860v178h-676q57 127 242 264q123 92 195.5 148.5t97.5 83.5q141 154 141 358q0 207 -137 326q-123 111 -293 110q-168 0 -289 -100q-141 -119 -141 -317h143q0 123 97 188q80 51 184 51q115 0 194 -55q98 -72 99 -203q0 -174 -187 -327q-86 -68 -172 -135.5 t-172 -133.5q-186 -186 -186 -436z" />
<glyph unicode="3" horiz-adv-x="1114" d="M121 221q57 -129 178 -196q111 -61 238 -62q184 0 315 115q143 129 143 352q0 266 -223 377q166 86 166 287q0 190 -129 288q-111 86 -272 86q-127 0 -228 -57q-119 -63 -157 -201l135 -61q37 141 250 141q102 0 170 -37q88 -49 88 -159q0 -96 -95 -154q-72 -45 -163 -45 h-86v-178h86q119 0 208 -70q106 -80 107 -217q0 -145 -102 -223q-84 -63 -213 -64q-223 0 -293 168z" />
<glyph unicode="4" horiz-adv-x="1114" d="M98 287h631v-287h143v287h144v178h-144v969h-122l-652 -969v-178zM250 465l479 702v-702h-479z" />
<glyph unicode="5" horiz-adv-x="1114" d="M111 326q53 -168 172 -265q119 -98 264 -98q186 0 319 156q140 156 140 383t-140 383q-133 154 -319 153q-152 0 -271 -100v315h586v181h-729v-697l135 -65q41 88 117 138t162 50q123 0 217 -100q98 -109 98 -258q0 -150 -98 -258q-94 -100 -217 -101q-92 0 -178 62 q-80 61 -117 166z" />
<glyph unicode="6" horiz-adv-x="1114" d="M82 717q0 -289 125 -510q141 -244 362 -244q184 0 324 154q139 158 139 389q0 225 -139 387q-137 152 -324 151q-219 0 -336 -206q12 92 37 169.5t66 139.5q94 143 233 143q150 0 242 -155l113 104q-137 229 -355 229q-223 0 -362 -243q-125 -219 -125 -508zM268 504 q0 156 86 258q88 104 215 104q66 0 120 -25.5t104 -74.5q96 -108 96 -262q0 -156 -96 -258q-98 -102 -224 -103q-113 0 -207 108.5t-94 252.5z" />
<glyph unicode="7" horiz-adv-x="1114" d="M221 1253h606l-585 -1253h170l583 1253v181h-774v-181z" />
<glyph unicode="8" horiz-adv-x="1114" d="M98 430q0 -223 146 -352q131 -115 313 -115t313 115q146 129 146 352q0 266 -223 377q166 82 165 287q0 190 -131 288q-109 86 -270 86q-160 0 -270 -86q-131 -98 -131 -288q0 -205 166 -287q-223 -113 -224 -377zM242 430q0 137 108 217q90 70 207 70q119 0 209 -70 q106 -80 106 -217q0 -143 -104 -223q-84 -63 -211 -64q-125 0 -209 64q-106 80 -106 223zM299 1094q0 111 92 159q63 37 166 37q100 0 168 -37q90 -48 90 -159q0 -96 -94 -154q-76 -45 -164 -45t-164 45q-94 59 -94 154z" />
<glyph unicode="9" horiz-adv-x="1114" d="M82 928q0 -223 141 -387q133 -152 322 -152q219 0 336 207q-23 -184 -103 -309q-94 -143 -233 -144q-152 0 -240 156l-112 -106q137 -229 352 -230q221 0 362 244q125 217 125 510q0 145 -30.5 272t-94.5 236q-139 244 -362 243q-188 0 -322 -151q-141 -164 -141 -389z M225 930q0 156 97 258q98 102 223 102q115 0 207 -108q96 -113 96 -252q0 -154 -90 -260q-90 -102 -213 -103q-125 0 -223 103q-96 106 -97 260z" />
<glyph unicode=":" horiz-adv-x="411" d="M106 125q0 -53 29 -89t72 -36q41 0 70.5 36t29.5 89t-29.5 89t-70.5 36q-43 0 -72 -36t-29 -89zM106 770q0 -53 29 -89t72 -36q41 0 70.5 36t29.5 89t-29.5 89t-70.5 36q-43 0 -72 -36t-29 -89z" />
<glyph unicode=";" horiz-adv-x="411" d="M106 250l62 -490q10 -47 39 -47q31 0 37 47l63 490h-201zM106 770q0 -53 29 -89t72 -36q41 0 70.5 36t29.5 89t-29.5 89t-70.5 36q-43 0 -72 -36t-29 -89z" />
<glyph unicode="&#x3c;" horiz-adv-x="755" d="M106 465l480 -389l63 119l-422 342l422 344l-63 118l-480 -391v-143z" />
<glyph unicode="=" horiz-adv-x="784" d="M106 305h574v144h-574v-144zM106 627h574v143h-574v-143z" />
<glyph unicode="&#x3e;" horiz-adv-x="755" d="M106 195l62 -119l481 389v143l-481 391l-62 -118l420 -344z" />
<glyph unicode="?" horiz-adv-x="727" d="M106 1139h144q0 59 33.5 105t81.5 46q47 0 80.5 -46t33.5 -105q0 -96 -71 -174q-35 -35 -67 -68t-65 -68q-72 -90 -71 -215q0 -8 4 -62t12 -159h86q4 61 8 106.5t7 73.5q14 139 96 215q35 29 67.5 56.5t67.5 56.5q70 80 70 238q0 131 -76 231q-74 98 -182 98 q-111 0 -185 -98t-74 -231zM164 125q0 -53 28.5 -89t71.5 -36q41 0 71 36t30 89t-30 89t-71 36q-43 0 -71.5 -36t-28.5 -89z" />
<glyph unicode="@" horiz-adv-x="1701" d="M106 537q0 -385 218 -658q219 -274 528 -274q104 0 211 41l-27 118q-45 -16 -91 -24t-93 -8q-268 0 -457 237q-188 233 -188 568q0 336 188 569q188 238 457 237q266 0 457 -235q188 -238 188 -571q0 -152 -65 -273q-74 -139 -189 -139q-49 0 -81 51t-32 117v6t3 16 l43 625h-109l-10 -145q-84 172 -246 172q-143 0 -248 -144q-104 -141 -104 -325q0 -162 82 -277q84 -115 211 -115q166 0 270 173q0 -113 59 -197q61 -82 154 -82q156 0 262 174q100 162 100 363q0 385 -219 659q-217 272 -526 272q-311 0 -528.5 -272t-217.5 -659zM565 512 q0 125 78 225q78 96 180 97q90 0 156 -80q61 -78 61 -191q0 -127 -75 -227q-82 -94 -183 -94q-92 0 -153 80q-63 80 -64 190z" />
<glyph unicode="A" d="M35 0h151l95 322h493l94 -322h154l-416 1434h-155zM334 502l192 669l197 -669h-389z" />
<glyph unicode="B" horiz-adv-x="1071" d="M106 0h517q141 0 247 113q111 116 111 290q0 240 -203 320q174 88 174 307q0 170 -110 293q-109 111 -248 111h-488v-1434zM250 178v449h373q86 0 145 -60q70 -66 70 -164q0 -100 -70 -165q-63 -59 -145 -60h-373zM250 807v446h344q86 0 145 -57q70 -66 70 -166 q0 -98 -70 -164q-59 -59 -145 -59h-344z" />
<glyph unicode="C" horiz-adv-x="1189" d="M70 717q0 -309 178 -533q174 -221 424 -221t426 221l-103 123q-133 -164 -323 -164q-188 0 -323.5 168t-135.5 406q0 236 135 405q135 168 324 168q190 0 323 -166l103 125q-174 219 -426 219q-123 0 -229.5 -54t-194.5 -167q-178 -221 -178 -530z" />
<glyph unicode="D" horiz-adv-x="1200" d="M106 0h431q233 0 403 209q170 213 170 508q0 293 -170 506q-168 211 -403 211h-431v-1434zM250 178v1075h287q178 0 303 -157q127 -158 127 -379q0 -219 -127 -381q-127 -158 -303 -158h-287z" />
<glyph unicode="E" horiz-adv-x="1013" d="M106 0h803v178h-659v449h516v180h-516v446h659v181h-803v-1434z" />
<glyph unicode="F" horiz-adv-x="964" d="M106 0h144v627h516v180h-516v446h659v181h-803v-1434z" />
<glyph unicode="G" horiz-adv-x="1267" d="M70 717q0 -309 178 -533q174 -221 424 -221q154 0 287 90t217 250v504h-504v-180h360v-267q-137 -217 -360 -217q-188 0 -323.5 168t-135.5 406q0 236 135 405q135 168 324 168q109 0 205 -60.5t161 -168.5l119 102q-86 145 -213 225t-272 80q-123 0 -229.5 -54 t-194.5 -167q-178 -221 -178 -530z" />
<glyph unicode="H" horiz-adv-x="1128" d="M106 0h144v627h631v-627h143v1434h-143v-627h-631v627h-144v-1434z" />
<glyph unicode="I" horiz-adv-x="354" d="M106 0h144v1434h-144v-1434z" />
<glyph unicode="J" horiz-adv-x="868" d="M55 203q53 -111 142.5 -175.5t193.5 -64.5q156 0 273 143q55 72 84.5 157.5t29.5 185.5v985h-436v-181h293v-804q0 -63 -18.5 -116.5t-53.5 -99.5q-74 -90 -172 -90q-133 0 -209 144z" />
<glyph unicode="K" horiz-adv-x="1007" d="M106 0h144v537l162 202l383 -739h172l-453 868l453 566h-203l-514 -643v643h-144v-1434z" />
<glyph unicode="L" horiz-adv-x="821" d="M106 0h660v178h-516v1256h-144v-1434z" />
<glyph unicode="M" horiz-adv-x="1353" d="M106 0h144v1208l350 -1208h154l350 1202v-1202h143v1434h-229l-340 -1172l-342 1172h-230v-1434z" />
<glyph unicode="N" horiz-adv-x="1128" d="M106 0h144v1110l631 -1110h143v1434h-143v-1112l-631 1112h-144v-1434z" />
<glyph unicode="O" horiz-adv-x="1343" d="M70 717q0 -311 178 -533q174 -221 424 -221t426 221q176 224 176 533t-176 532q-174 219 -426 219q-250 0 -424 -219q-178 -221 -178 -532zM213 717q0 236 135 405q135 168 324 168q193 0 323 -168q135 -169 135 -405q0 -238 -135 -406q-131 -168 -323 -168 q-188 0 -323.5 168t-135.5 406z" />
<glyph unicode="P" horiz-adv-x="1007" d="M106 0h144v627h344q139 0 248 112q110 117 110 291q0 170 -110 293q-109 111 -248 111h-488v-1434zM250 807v446h344q86 0 145 -57q70 -66 70 -166q0 -98 -70 -164q-59 -59 -145 -59h-344z" />
<glyph unicode="Q" horiz-adv-x="1343" d="M70 717q0 -283 151 -500q156 -215 379 -248v-327h143v327q227 33 379 248q152 213 152 500q0 309 -176 532q-174 219 -426 219q-250 0 -424 -219q-178 -221 -178 -532zM213 717q0 236 135 405q135 168 324 168q193 0 323 -168q135 -169 135 -405q0 -211 -108 -373 q-109 -160 -279 -194v208h-143v-208q-168 35 -276 194q-111 160 -111 373z" />
<glyph unicode="R" horiz-adv-x="1064" d="M106 0h144v627h172q150 0 213 -125l260 -502h172l-260 502q-74 139 -113 141q111 37 184.5 141.5t73.5 245.5q0 170 -110 293q-109 111 -248 111h-488v-1434zM250 807v446h344q86 0 145 -57q70 -66 70 -166q0 -98 -70 -164q-59 -59 -145 -59h-344z" />
<glyph unicode="S" horiz-adv-x="1099" d="M92 387q0 -203 156 -321q131 -102 303 -103q168 0 303 100q156 125 156 324q0 254 -195 346q-90 23 -178 46.5t-180 45.5q-193 57 -193 226q0 121 101 188q84 51 186 51q104 0 186 -53q100 -63 101 -186h143q0 195 -143 313q-123 104 -287 104t-289 -104 q-141 -121 -141 -313q0 -262 192 -355q92 -23 180.5 -45t178.5 -45q194 -55 194 -217q0 -131 -112 -196q-84 -49 -203 -50q-117 0 -203 50q-113 63 -112 194h-144z" />
<glyph unicode="T" horiz-adv-x="985" d="M49 1253h373v-1253h143v1253h373v181h-889v-181z" />
<glyph unicode="U" horiz-adv-x="1099" d="M92 537q0 -238 133 -404q139 -170 326 -170q188 0 323 170q136 168 136 404v897h-144v-897q0 -164 -94 -279q-90 -115 -221 -115t-225 115q-90 115 -90 279v897h-144v-897z" />
<glyph unicode="V" d="M35 1434l416 -1434h155l416 1434h-154l-342 -1172l-340 1172h-151z" />
<glyph unicode="W" horiz-adv-x="1533" d="M35 1434l327 -1434h150l254 1110l256 -1110h147l330 1434h-147l-256 -1110l-254 1110h-150l-256 -1110l-254 1110h-147z" />
<glyph unicode="X" horiz-adv-x="1069" d="M41 0h178l316 559l315 -559h178l-405 717l405 717h-178l-315 -560l-316 560h-178l405 -717z" />
<glyph unicode="Y" horiz-adv-x="1054" d="M35 1434l420 -748v-686h143v686l424 748h-180l-316 -560l-315 560h-176z" />
<glyph unicode="Z" horiz-adv-x="1099" d="M92 0h918v178h-723l723 1075v181h-918v-181h721l-721 -1075v-178z" />
<glyph unicode="[" horiz-adv-x="555" d="M106 -180h345v180h-201v1253h201v181h-345v-1614z" />
<glyph unicode="\" horiz-adv-x="716" d="M70 1354l442 -1516l135 62l-442 1515z" />
<glyph unicode="]" horiz-adv-x="555" d="M106 0v-180h345v1614h-345v-181h201v-1253h-201z" />
<glyph unicode="^" horiz-adv-x="794" d="M106 672l105 -60l186 523l187 -523l104 60l-233 653h-115z" />
<glyph unicode="_" horiz-adv-x="712" d="M0 0h713v143h-713v-143z" />
<glyph unicode="`" horiz-adv-x="440" d="M106 1434l144 -215h86l-86 215h-144z" />
<glyph unicode="a" horiz-adv-x="1093" d="M70 537q0 -231 123 -400q125 -174 307 -174q213 0 344 230v-193h143v1075h-143v-194q-129 229 -344 229q-182 0 -307 -172q-123 -170 -123 -401zM213 537q0 162 92 278.5t223 116.5t223.5 -116.5t92.5 -278.5t-92 -279q-90 -115 -224 -115q-133 0 -223 115 q-92 117 -92 279z" />
<glyph unicode="b" horiz-adv-x="1093" d="M106 0h144v193q131 -229 344 -230q184 0 307 174q123 169 123 400q0 229 -125 401q-121 172 -305 172q-215 0 -344 -229v553h-144v-1434zM250 537q0 164 90 278q94 117 225 117q129 0 221 -117q95 -114 95 -278t-95 -279q-90 -115 -221 -115t-225 115q-90 115 -90 279z " />
<glyph unicode="c" horiz-adv-x="985" d="M70 537q0 -236 135 -404q135 -170 323 -170q106 0 202.5 60.5t162.5 166.5l-121 97q-96 -143 -244 -144q-133 0 -223 115q-92 117 -92 279t92 278.5t223 116.5q147 0 244 -144l121 97q-66 106 -162 165.5t-203 59.5q-188 0 -323 -168q-135 -170 -135 -405z" />
<glyph unicode="d" horiz-adv-x="1093" d="M70 537q0 -231 123 -400q125 -174 307 -174q213 0 344 230v-193h143v1434h-143v-553q-129 229 -344 229q-182 0 -307 -172q-123 -170 -123 -401zM213 537q0 162 92 278.5t223 116.5t223.5 -116.5t92.5 -278.5t-92 -279q-90 -115 -224 -115q-133 0 -223 115 q-92 117 -92 279z" />
<glyph unicode="e" d="M70 537q0 -236 135 -404q135 -170 323 -170q106 0 202.5 60.5t162.5 166.5l-121 97q-96 -143 -244 -144q-109 0 -194 86q-88 88 -113 220h760q6 45 6 88q0 236 -135 405q-131 168 -324 168q-188 0 -323 -168q-135 -170 -135 -405zM221 627q25 131 113 219q86 86 194 86 q109 0 195 -86q93 -88 113 -219h-615z" />
<glyph unicode="f" horiz-adv-x="536" d="M70 788h86v-1146h143v1146h143v179h-143v233q0 37 21.5 64.5t50.5 27.5q25 0 45 -20l65 162q-46 34 -107 34h-3q-86 0 -152 -77q-63 -80 -63 -191v-233h-86v-179z" />
<glyph unicode="g" horiz-adv-x="1093" d="M70 537q0 -231 123 -400q125 -174 307 -174q102 0 194 63.5t150 166.5q0 -174 -88 -291q-90 -117 -228 -117q-143 0 -243 143l-109 -114q137 -209 352 -209q190 0 324 170q135 170 135 403v897h-143v-194q-55 104 -150 168q-90 61 -194 61q-182 0 -307 -172 q-123 -170 -123 -401zM213 537q0 162 92 278.5t223 116.5t223.5 -116.5t92.5 -278.5t-92 -279q-90 -115 -224 -115q-133 0 -223 115q-92 117 -92 279z" />
<glyph unicode="h" horiz-adv-x="942" d="M106 0h144v645q0 119 67.5 203t161.5 84t162 -84q68 -86 68 -203v-645h143v645q0 188 -96 322q-100 143 -248 143q-158 0 -258 -158v482h-144v-1434z" />
<glyph unicode="i" horiz-adv-x="354" d="M78 1343q0 -53 28.5 -88.5t71.5 -35.5q41 0 71 35.5t30 88.5t-30 89t-71 36q-43 0 -71.5 -35.5t-28.5 -89.5zM106 0h144v1075h-144v-1075z" />
<glyph unicode="j" horiz-adv-x="354" d="M-76 -356q51 -39 111 -39q88 0 151.5 79.5t63.5 190.5v1200h-144v-1200q0 -37 -21.5 -63.5t-49.5 -26.5q-25 0 -45 20zM78 1343q0 -53 28.5 -88.5t71.5 -35.5q41 0 71 35.5t30 88.5t-30 89t-71 36q-43 0 -71.5 -35.5t-28.5 -89.5z" />
<glyph unicode="k" horiz-adv-x="892" d="M106 0h144v322l158 200l272 -522h172l-340 651l340 424h-203l-399 -500v859h-144v-1434z" />
<glyph unicode="l" horiz-adv-x="354" d="M106 0h144v1434h-144v-1434z" />
<glyph unicode="m" horiz-adv-x="1429" d="M106 0h144v645q0 113 55 199q57 88 146 88q86 0 145 -90q55 -84 55 -197v-645h144v645q0 113 55 199q57 88 145 88q86 0 146 -90q55 -84 55 -197v-645h143v645q0 92 -23.5 174t-72.5 150q-98 141 -248 141q-182 0 -268 -209q-72 209 -233 209q-156 0 -244 -158v123h-144 v-1075z" />
<glyph unicode="n" horiz-adv-x="942" d="M106 0h144v645q0 119 67.5 203t161.5 84t162 -84q68 -86 68 -203v-645h143v645q0 188 -96 322q-100 143 -248 143q-158 0 -258 -158v123h-144v-1075z" />
<glyph unicode="o" d="M70 537q0 -236 135 -404q135 -170 323 -170q190 0 324 170q135 168 135 404t-135 405q-131 168 -324 168q-188 0 -323 -168q-135 -170 -135 -405zM213 537q0 162 92 278.5t223 116.5t223.5 -116.5t92.5 -278.5t-92 -279q-90 -115 -224 -115q-133 0 -223 115 q-92 117 -92 279z" />
<glyph unicode="p" horiz-adv-x="1093" d="M106 -358h144v551q131 -229 344 -230q184 0 307 174q123 169 123 400q0 229 -125 401q-121 172 -305 172q-215 0 -344 -229v194h-144v-1433zM250 537q0 164 90 278q94 117 225 117q129 0 221 -117q95 -114 95 -278t-95 -279q-90 -115 -221 -115t-225 115q-90 115 -90 279 z" />
<glyph unicode="q" horiz-adv-x="1093" d="M70 537q0 -231 123 -400q125 -174 307 -174q213 0 344 230v-551h143v1433h-143v-194q-129 229 -344 229q-182 0 -307 -172q-123 -170 -123 -401zM213 537q0 162 92 278.5t223 116.5t223.5 -116.5t92.5 -278.5t-92 -279q-90 -115 -224 -115q-133 0 -223 115 q-92 117 -92 279z" />
<glyph unicode="r" horiz-adv-x="618" d="M106 0h144v645q0 119 67.5 203t161.5 84q23 0 42 -5.5t42 -15.5v195q-16 4 -28 4h-27q-158 0 -258 -158v123h-144v-1075z" />
<glyph unicode="s" horiz-adv-x="899" d="M92 295q0 -156 119 -252q109 -80 240 -80q133 0 237 80q121 96 121 252q0 199 -145 270q-12 6 -271 72q-143 33 -143 143q0 80 72 121q51 31 129 31q74 0 129 -31q72 -41 71 -121h144q0 156 -115 248q-100 82 -229 82q-133 0 -230 -82q-115 -92 -115 -248 q0 -203 144 -272q10 -4 76.5 -21.5t193.5 -50.5q145 -35 146 -141q0 -152 -215 -152q-84 0 -138 27q-78 41 -77 125h-144z" />
<glyph unicode="t" horiz-adv-x="598" d="M55 895h172v-1253h144v1253h172v180h-172v250h-144v-250h-172v-180z" />
<glyph unicode="u" horiz-adv-x="942" d="M92 430q0 -188 96 -324q100 -143 248 -143q156 0 258 158v-121h144v1075h-144v-645q0 -117 -67 -203q-68 -84 -162 -84t-162 84q-68 82 -67 203v645h-144v-645z" />
<glyph unicode="v" horiz-adv-x="919" d="M35 1075l346 -1075h156l348 1075h-156l-270 -837l-269 837h-155z" />
<glyph unicode="w" horiz-adv-x="1337" d="M35 1075l278 -1075h152l205 784l202 -784h152l279 1075h-150l-203 -784l-207 784h-149l-203 -784l-207 784h-149z" />
<glyph unicode="x" horiz-adv-x="866" d="M41 0h178l215 379l213 -379h178l-303 537l303 538h-178l-213 -381l-215 381h-178l303 -538z" />
<glyph unicode="y" horiz-adv-x="919" d="M35 1075l346 -1075l-53 -166q-12 -49 -66 -49q-29 0 -72 18v-180q43 -18 72 -18q145 0 201 170l422 1300h-156l-270 -837l-269 837h-155z" />
<glyph unicode="z" horiz-adv-x="956" d="M92 0h774v178h-573l573 717v180h-774v-180h572l-572 -717v-178z" />
<glyph unicode="{" horiz-adv-x="655" d="M106 537h44q41 0 70.5 -29t29.5 -78v-305q0 -113 69 -207q70 -98 160 -98h72v180h-57q-39 0 -70 39t-31 86v287q0 66 -39 139q-39 76 -92 76q53 0 92 78q39 74 39 137v286q0 47 31 86t70 39h57v181h-72q-88 0 -160 -97q-70 -96 -69 -209v-305q0 -49 -30 -77.5t-70 -28.5 h-44v-180z" />
<glyph unicode="|" horiz-adv-x="354" d="M106 -180h144v1614h-144v-1614z" />
<glyph unicode="}" horiz-adv-x="655" d="M106 0v-180h72q86 0 158 98q72 96 72 207v305q0 49 28.5 78t71.5 29h43v180h-43q-43 0 -71.5 28.5t-28.5 77.5v305q0 109 -72 209q-72 96 -158 97h-72v-181h58q37 0 68.5 -38.5t31.5 -86.5v-286q0 -68 37 -137q39 -78 92 -78q-53 0 -92 -76q-37 -72 -37 -139v-287 q0 -47 -31.5 -86t-68.5 -39h-58z" />
<glyph unicode="~" horiz-adv-x="792" d="M106 487l105 -53q25 76 65 76q45 0 130 -43q86 -43 129 -43q100 0 149 158l-104 55q-25 -78 -66 -78q-47 0 -129 43q-84 43 -129 43q-100 0 -150 -158z" />
<glyph unicode="&#xa1;" horiz-adv-x="411" d="M106 1128q0 -53 29 -88.5t72 -35.5q41 0 70.5 35.5t29.5 88.5t-29.5 89t-70.5 36q-43 0 -72 -35.5t-29 -89.5zM135 -180h144l-29 1040h-86z" />
<glyph unicode="&#xa2;" horiz-adv-x="1036" d="M106 537q0 -213 111 -373q113 -162 277 -193v-186h143v186q180 35 291 219l-119 97q-68 -102 -172 -133v768q104 -31 172 -134l119 99q-115 184 -291 217v186h-143v-186q-168 -35 -277 -195q-111 -158 -111 -372zM250 537q0 139 69 245q68 109 175 140v-768 q-106 31 -175 139q-70 106 -69 244z" />
<glyph unicode="&#xa3;" horiz-adv-x="1040" d="M70 627h143v-627h717v178h-574v449h287v180h-287v178q0 125 72 215q74 90 172 90q131 0 207 -143l129 84q-53 111 -142 174t-194 63q-158 0 -274 -143q-113 -139 -113 -340v-178h-143v-180z" />
<glyph unicode="&#xa4;" horiz-adv-x="1306" d="M106 483h166q57 -227 220 -377q160 -143 352 -143q160 0 305 105v219q-133 -143 -305 -144q-137 0 -250 93q-115 98 -168 247h528l41 144h-604q-6 45 -6 90q0 43 6 90h660l41 143h-666q55 152 168 246t250 94q172 0 305 -143l51 178q-158 143 -356 143q-197 0 -352 -143 q-162 -145 -220 -375h-122l-44 -143h142q-6 -47 -6 -90q0 -45 6 -90h-98z" />
<glyph unicode="&#xa5;" horiz-adv-x="1198" d="M106 1434l373 -664h-311v-143h358v-178h-358v-144h358v-305h144v305h358v144h-358v178h358v143h-309l375 664h-181l-315 -560l-315 560h-177z" />
<glyph unicode="&#xa6;" horiz-adv-x="354" d="M106 -180h144v700h-144v-700zM106 735h144v699h-144v-699z" />
<glyph unicode="&#xa7;" horiz-adv-x="927" d="M106 170q0 -158 119 -252q104 -80 240 -80q135 0 237 80q121 92 121 252q0 172 -110 250q111 82 110 233q0 199 -145 271q-12 6 -270 71q-143 33 -144 144q0 80 72 121q51 31 129 30q74 0 129 -30q72 -41 72 -121h143q0 156 -115 247q-100 82 -229 82q-133 0 -229 -82 q-115 -92 -115 -247q0 -176 104 -250q-104 -84 -104 -236q0 -199 143 -272q10 -4 77 -21.5t194 -48.5q145 -35 145 -141q0 -152 -215 -152q-84 0 -139 27q-78 41 -76 125h-144zM264 653q0 86 70 125q51 31 127 31q74 0 135 -31q84 -47 84 -125q0 -80 -72 -121 q-59 -31 -129 -30q-76 0 -135 33q-80 39 -80 118z" />
<glyph unicode="&#xa8;" horiz-adv-x="641" d="M106 1343q0 -37 20.5 -63.5t51.5 -26.5t51.5 26.5t20.5 63.5q0 39 -20.5 65t-51.5 26t-51.5 -26t-20.5 -65zM393 1343q0 -37 20.5 -63.5t51.5 -26.5t51.5 26.5t20.5 63.5q0 39 -20.5 65t-51.5 26t-51.5 -26t-20.5 -65z" />
<glyph unicode="&#xa9;" horiz-adv-x="1114" d="M106 565q0 -233 132 -401q133 -164 319 -164t320 164q133 170 133 401q0 229 -133 398q-133 166 -320 165q-188 0 -319 -165q-131 -164 -132 -398zM184 565q0 188 109 328q113 137 264 137q152 0 264 -137q109 -140 109 -328q0 -193 -109 -329q-111 -137 -264 -138 q-154 0 -264 138q-109 137 -109 329zM270 565q0 -160 88 -268.5t213 -108.5q127 0 213 111l-49 61q-68 -82 -164 -81q-94 0 -161 83q-68 82 -68 203q0 117 68 201q68 86 161 86q96 0 164 -84l49 63q-84 109 -213 109q-125 0 -213 -111q-88 -109 -88 -264z" />
<glyph unicode="&#xaa;" horiz-adv-x="899" d="M106 1030q0 -176 91 -299q94 -131 231 -131q162 0 258 172v-145h109v807h-109v-146q-96 172 -258 172q-137 0 -231 -129q-90 -123 -91 -301zM213 1030q0 125 70 209q70 86 168 86q94 0 165 -86q70 -84 70 -209q0 -121 -70 -209q-72 -86 -165 -86q-98 0 -168 86 q-70 88 -70 209z" />
<glyph unicode="&#xab;" horiz-adv-x="1171" d="M106 354l422 -354l64 121l-365 305l365 307l-64 119l-422 -354v-144zM580 354l421 -354l64 121l-365 305l365 307l-64 119l-421 -354v-144z" />
<glyph unicode="&#xac;" horiz-adv-x="784" d="M106 465h459v-178h115v321h-574v-143z" />
<glyph unicode="&#xad;" horiz-adv-x="784" d="M106 465h574v143h-574v-143z" />
<glyph unicode="&#xae;" horiz-adv-x="1114" d="M106 565q0 -233 132 -401q133 -164 319 -164t320 164q133 170 133 401q0 229 -133 398q-133 166 -320 165q-188 0 -319 -165q-131 -164 -132 -398zM184 565q0 188 109 328q113 137 264 137q152 0 264 -137q109 -140 109 -328q0 -203 -117 -338l-119 230q-29 61 -55 71 q55 16 92 69.5t37 125.5q0 84 -55 143q-53 57 -123 58h-244v-717h72v313h86q74 0 106 -63l131 -250h54q-102 -109 -238 -109q-154 0 -264 138q-109 137 -109 329zM418 608v226h172q41 0 73.5 -31t32.5 -80q0 -51 -32.5 -83t-73.5 -32h-172z" />
<glyph unicode="&#xaf;" horiz-adv-x="641" d="M106 1290h431v144h-431v-144z" />
<glyph unicode="&#xb0;" horiz-adv-x="526" d="M106 1237q0 -41 12.5 -78t34 -63.5t50 -42t61.5 -15.5q66 0 112 57.5t46 141.5q0 82 -46 139.5t-112 57.5q-33 0 -61.5 -15.5t-50 -42t-34 -62.5t-12.5 -77zM164 1237q0 53 28.5 89t71.5 36q41 0 71 -36t30 -89t-30 -90t-71 -37q-43 0 -71.5 37t-28.5 90z" />
<glyph unicode="&#xb1;" horiz-adv-x="784" d="M106 0h574v143h-574v-143zM106 645h230v-287h115v287h229v143h-229v287h-115v-287h-230v-143z" />
<glyph unicode="&#xb2;" horiz-adv-x="641" d="M106 717h431v90h-340q31 66 122 131q59 43 96.5 72.5t49.5 42.5q72 78 72 180q0 98 -70 164q-61 55 -145 55q-86 0 -146 -51q-70 -57 -70 -160h72q0 63 47 96q37 25 92 25q59 0 97 -29q51 -33 51 -100q0 -88 -94 -164l-172 -133q-92 -92 -93 -219z" />
<glyph unicode="&#xb3;" horiz-adv-x="651" d="M106 827q57 -129 209 -129q88 0 156 58q74 63 74 176q0 129 -111 188q82 43 82 144q0 92 -65 145q-55 43 -136 43q-156 0 -194 -129l69 -31q18 70 125 70q129 0 129 -98q0 -47 -47 -78q-35 -20 -82 -21h-43v-90h43q61 0 105 -35q53 -41 53 -108q0 -72 -51 -111 q-41 -33 -107 -33q-111 0 -147 84z" />
<glyph unicode="&#xb4;" horiz-adv-x="440" d="M106 1219h87l143 215h-143z" />
<glyph unicode="&#xb6;" horiz-adv-x="1200" d="M106 1030q0 -176 111 -293q106 -111 248 -110v-985h143v1611h172v-1611h144v1611h172v181h-631q-143 0 -248 -111q-111 -121 -111 -293z" />
<glyph unicode="&#xb7;" horiz-adv-x="411" d="M106 537q0 -53 29 -89t72 -36q41 0 70.5 36t29.5 89t-29.5 90t-70.5 37q-43 0 -72 -37t-29 -90z" />
<glyph unicode="&#xb8;" horiz-adv-x="440" d="M106 -358h115q47 0 81 42t34 101q0 49 -25.5 89t-66.5 50l20 111h-57l-29 -160h43q29 0 50.5 -26.5t21.5 -63.5t-21.5 -63.5t-50.5 -26.5h-100z" />
<glyph unicode="&#xb9;" horiz-adv-x="436" d="M106 1243l46 -57l106 135v-604h72v717h-72z" />
<glyph unicode="&#xba;" horiz-adv-x="899" d="M106 1030q0 -180 100.5 -305t244.5 -125q141 0 241 125q103 127 103 305q0 176 -102.5 303t-241.5 127q-141 0 -244 -127q-100 -125 -101 -303zM213 1030q0 125 70 209q70 86 168 86q94 0 165 -86q70 -84 70 -209q0 -121 -70 -209q-72 -86 -165 -86q-98 0 -168 86 q-70 88 -70 209z" />
<glyph unicode="&#xbb;" horiz-adv-x="1171" d="M106 121l62 -121l424 354v144l-424 354l-62 -119l363 -307zM580 121l61 -121l424 354v144l-424 354l-61 -119l362 -307z" />
<glyph unicode="&#xbc;" horiz-adv-x="784" d="M106 680h574v72h-574v-72zM211 115h252v-115h57v115h58v71h-58v387h-51l-258 -387v-71zM270 186l193 281v-281h-193zM305 1282l35 -45l86 104v-481h57v574h-57z" />
<glyph unicode="&#xbd;" horiz-adv-x="784" d="M106 680h574v72h-574v-72zM221 0h344v72h-270q25 53 96 106q92 66 117 90q57 59 57 144q0 78 -55 131q-47 45 -117 45q-63 0 -114 -41q-57 -45 -58 -127h58q0 51 40 74q29 23 72 22q45 0 78 -22q39 -29 39 -82q0 -70 -74 -131q-35 -27 -69.5 -53.5t-67.5 -53.5 q-76 -76 -76 -174zM305 1282l35 -45l86 104v-481h57v574h-57z" />
<glyph unicode="&#xbe;" horiz-adv-x="784" d="M106 680h574v72h-574v-72zM211 115h252v-115h57v115h58v71h-58v387h-51l-258 -387v-71zM219 950q43 -104 166 -104q74 0 125 47q59 49 59 139q0 106 -90 150q68 39 68 114q0 76 -53 117q-41 35 -109 35q-127 0 -154 -105l54 -24q16 57 100 57q104 0 104 -80 q0 -39 -38 -59q-29 -18 -66 -18h-35v-72h35q49 0 84 -29q43 -35 43 -86q0 -59 -43 -90q-31 -25 -84 -24q-90 0 -117 67zM270 186l193 281v-281h-193z" />
<glyph unicode="&#xbf;" horiz-adv-x="727" d="M106 117q0 -135 74 -234q76 -98 185 -98q104 0 182 98q76 101 76 234h-144q-2 -61 -34.5 -107.5t-79.5 -46.5q-49 0 -82 46t-33 108q0 92 72 174q33 35 64.5 66.5t64.5 66.5q72 90 71 215q0 10 -3 63.5t-11 157.5h-86q-6 -59 -9 -104t-5 -76q-14 -139 -97 -215 q-35 -29 -67.5 -56.5t-67.5 -56.5q-70 -76 -70 -235zM365 1128q0 -53 28.5 -88.5t71.5 -35.5q41 0 70.5 35.5t29.5 88.5t-29.5 89t-70.5 36q-43 0 -71.5 -35.5t-28.5 -89.5z" />
<glyph unicode="&#xc0;" d="M35 0h151l95 322h493l94 -322h154l-416 1434h-155zM334 502l192 669l197 -669h-389zM340 1792l143 -215h86l-86 215h-143z" />
<glyph unicode="&#xc1;" d="M35 0h151l95 322h493l94 -322h154l-416 1434h-155zM334 502l192 669l197 -669h-389zM483 1577h86l144 215h-144z" />
<glyph unicode="&#xc2;" d="M35 0h151l95 322h493l94 -322h154l-416 1434h-155zM334 502l192 669l197 -669h-389zM354 1577h86l86 129l86 -129h86l-114 215h-115z" />
<glyph unicode="&#xc3;" d="M35 0h151l95 322h493l94 -322h154l-416 1434h-155zM311 1640l80 -55q20 86 49 86q33 0 96.5 -47t98.5 -47q73 0 110 158l-79 53q-18 -86 -48 -86q-33 0 -98 47q-61 49 -96 49q-76 0 -113 -158zM334 502l192 669l197 -669h-389z" />
<glyph unicode="&#xc4;" d="M35 0h151l95 322h493l94 -322h154l-416 1434h-155zM313 1667q0 -39 21.5 -64.5t50.5 -25.5q31 0 51.5 25.5t20.5 64.5q0 37 -20.5 62.5t-51.5 25.5q-29 0 -50.5 -25.5t-21.5 -62.5zM334 502l192 669l197 -669h-389zM600 1667q0 -39 21.5 -64.5t50.5 -25.5q31 0 51 25.5 t20 64.5q0 37 -20.5 62.5t-50.5 25.5q-29 0 -50.5 -25.5t-21.5 -62.5z" />
<glyph unicode="&#xc5;" d="M35 0h151l95 322h493l94 -322h154l-406 1397q68 55 68 162q0 84 -47 139q-43 57 -111 57q-61 0 -110 -57q-47 -59 -47 -139q0 -104 71 -164zM334 502l192 669l197 -669h-389zM426 1559q0 53 29.5 88.5t70.5 35.5q43 0 72 -35.5t29 -88.5t-29 -89t-72 -36 q-41 0 -70.5 35.5t-29.5 89.5z" />
<glyph unicode="&#xc6;" horiz-adv-x="1634" d="M35 0h151l95 322h493l94 -322h660v178h-516v449h372v180h-372v446h516v181h-660v-908l-262 908h-155zM334 502l192 669l197 -669h-389z" />
<glyph unicode="&#xc7;" horiz-adv-x="1189" d="M70 717q0 -291 155 -504q154 -215 383 -246l-22 -129h43q29 0 50 -26.5t21 -63.5q0 -35 -21.5 -61.5t-49.5 -26.5h-101l-14 -55h115q47 0 80.5 42t33.5 101q0 51 -25.5 91t-66.5 50l15 74q256 0 432 221l-103 123q-133 -164 -323 -164q-188 0 -323.5 168t-135.5 406 q0 236 135 405q135 168 324 168q190 0 323 -166l103 125q-174 219 -426 219q-123 0 -229.5 -54t-194.5 -167q-178 -221 -178 -530z" />
<glyph unicode="&#xc8;" horiz-adv-x="1013" d="M106 0h803v178h-659v449h516v180h-516v446h659v181h-803v-1434zM322 1792l143 -215h86l-86 215h-143z" />
<glyph unicode="&#xc9;" horiz-adv-x="1013" d="M106 0h803v178h-659v449h516v180h-516v446h659v181h-803v-1434zM465 1577h86l143 215h-143z" />
<glyph unicode="&#xca;" horiz-adv-x="1013" d="M106 0h803v178h-659v449h516v180h-516v446h659v181h-803v-1434zM336 1577h86l86 129l86 -129h86l-115 215h-114z" />
<glyph unicode="&#xcb;" horiz-adv-x="1013" d="M106 0h803v178h-659v449h516v180h-516v446h659v181h-803v-1434zM293 1667q0 -39 20.5 -64.5t51.5 -25.5t51 25.5t20 64.5q0 37 -20.5 62.5t-50.5 25.5q-31 0 -51.5 -25.5t-20.5 -62.5zM580 1667q0 -39 20.5 -64.5t50.5 -25.5q31 0 51.5 25.5t20.5 64.5q0 37 -20.5 62.5 t-51.5 25.5t-51 -25.5t-20 -62.5z" />
<glyph unicode="&#xcc;" horiz-adv-x="354" d="M-8 1792l143 -215h86l-86 215h-143zM106 0h144v1434h-144v-1434z" />
<glyph unicode="&#xcd;" horiz-adv-x="354" d="M106 0h144v1434h-144v-1434zM135 1577h86l144 215h-144z" />
<glyph unicode="&#xce;" horiz-adv-x="354" d="M6 1577h86l86 129l86 -129h86l-114 215h-115zM106 0h144v1434h-144v-1434z" />
<glyph unicode="&#xcf;" horiz-adv-x="354" d="M-37 1667q0 -39 20.5 -64.5t51.5 -25.5t51 25.5t20 64.5q0 37 -20 62.5t-51 25.5t-51.5 -25.5t-20.5 -62.5zM106 0h144v1434h-144v-1434zM250 1667q0 -39 20.5 -64.5t51.5 -25.5t51 25.5t20 64.5q0 37 -20.5 62.5t-50.5 25.5q-31 0 -51.5 -25.5t-20.5 -62.5z" />
<glyph unicode="&#xd0;" horiz-adv-x="1308" d="M70 664h143v-664h430q236 0 406 209q168 211 168 508q0 295 -168 506t-406 211h-430v-627h-143v-143zM356 178v486h287v143h-287v446h287q180 0 305 -157q125 -156 125 -379t-125 -381q-127 -158 -305 -158h-287z" />
<glyph unicode="&#xd1;" horiz-adv-x="1128" d="M106 0h144v1110l631 -1110h143v1434h-143v-1112l-631 1112h-144v-1434zM348 1640l80 -55q18 86 49 86q37 0 96 -47q63 -47 97 -47q75 0 112 158l-77 53q-18 -86 -50 -86q-35 0 -98 47q-59 49 -94 49q-78 0 -115 -158z" />
<glyph unicode="&#xd2;" horiz-adv-x="1343" d="M70 717q0 -311 178 -533q174 -221 424 -221t426 221q176 224 176 533t-176 532q-174 219 -426 219q-250 0 -424 -219q-178 -221 -178 -532zM213 717q0 236 135 405q135 168 324 168q193 0 323 -168q135 -169 135 -405q0 -238 -135 -406q-131 -168 -323 -168 q-188 0 -323.5 168t-135.5 406zM485 1792l144 -215h86l-86 215h-144z" />
<glyph unicode="&#xd3;" horiz-adv-x="1343" d="M70 717q0 -311 178 -533q174 -221 424 -221t426 221q176 224 176 533t-176 532q-174 219 -426 219q-250 0 -424 -219q-178 -221 -178 -532zM213 717q0 236 135 405q135 168 324 168q193 0 323 -168q135 -169 135 -405q0 -238 -135 -406q-131 -168 -323 -168 q-188 0 -323.5 168t-135.5 406zM629 1577h86l143 215h-143z" />
<glyph unicode="&#xd4;" horiz-adv-x="1343" d="M70 717q0 -311 178 -533q174 -221 424 -221t426 221q176 224 176 533t-176 532q-174 219 -426 219q-250 0 -424 -219q-178 -221 -178 -532zM213 717q0 236 135 405q135 168 324 168q193 0 323 -168q135 -169 135 -405q0 -238 -135 -406q-131 -168 -323 -168 q-188 0 -323.5 168t-135.5 406zM500 1577h86l86 129l86 -129h86l-115 215h-115z" />
<glyph unicode="&#xd5;" horiz-adv-x="1343" d="M70 717q0 -311 178 -533q174 -221 424 -221t426 221q176 224 176 533t-176 532q-174 219 -426 219q-250 0 -424 -219q-178 -221 -178 -532zM213 717q0 236 135 405q135 168 324 168q193 0 323 -168q135 -169 135 -405q0 -238 -135 -406q-131 -168 -323 -168 q-188 0 -323.5 168t-135.5 406zM455 1640l82 -55q18 86 47 86q37 0 96 -47q66 -47 98 -47q76 0 113 158l-80 53q-18 -86 -47 -86q-35 0 -98 47q-61 49 -97 49q-78 0 -114 -158z" />
<glyph unicode="&#xd6;" horiz-adv-x="1343" d="M70 717q0 -311 178 -533q174 -221 424 -221t426 221q176 224 176 533t-176 532q-174 219 -426 219q-250 0 -424 -219q-178 -221 -178 -532zM213 717q0 236 135 405q135 168 324 168q193 0 323 -168q135 -169 135 -405q0 -238 -135 -406q-131 -168 -323 -168 q-188 0 -323.5 168t-135.5 406zM457 1667q0 -39 21.5 -64.5t49.5 -25.5q31 0 51.5 25.5t20.5 64.5q0 37 -20.5 62.5t-51.5 25.5q-29 0 -50 -25.5t-21 -62.5zM743 1667q0 -39 21.5 -64.5t50.5 -25.5q31 0 51.5 25.5t20.5 64.5q0 37 -20.5 62.5t-51.5 25.5q-29 0 -50.5 -25.5 t-21.5 -62.5z" />
<glyph unicode="&#xd7;" horiz-adv-x="780" d="M106 285l82 -103l203 254l201 -254l82 103l-203 252l203 254l-82 102l-201 -254l-203 254l-82 -102l201 -254z" />
<glyph unicode="&#xd8;" horiz-adv-x="1343" d="M35 53l43 -53l168 188q178 -225 426 -225q250 0 426 221q176 223 176 533q0 266 -135 473l172 190l-43 54l-168 -189q-178 223 -428 223t-424 -219q-178 -221 -178 -532q0 -268 135 -473zM213 717q0 236 135 405q135 168 324 168q190 0 321 -164l-682 -761 q-98 158 -98 352zM350 307l684 762q96 -155 96 -352q0 -238 -135 -406q-131 -168 -323 -168q-188 0 -322 164z" />
<glyph unicode="&#xd9;" horiz-adv-x="1099" d="M92 537q0 -238 133 -404q139 -170 326 -170q188 0 323 170q136 168 136 404v897h-144v-897q0 -164 -94 -279q-90 -115 -221 -115t-225 115q-90 115 -90 279v897h-144v-897zM365 1792l143 -215h86l-86 215h-143z" />
<glyph unicode="&#xda;" horiz-adv-x="1099" d="M92 537q0 -238 133 -404q139 -170 326 -170q188 0 323 170q136 168 136 404v897h-144v-897q0 -164 -94 -279q-90 -115 -221 -115t-225 115q-90 115 -90 279v897h-144v-897zM508 1577h86l143 215h-143z" />
<glyph unicode="&#xdb;" horiz-adv-x="1099" d="M92 537q0 -238 133 -404q139 -170 326 -170q188 0 323 170q136 168 136 404v897h-144v-897q0 -164 -94 -279q-90 -115 -221 -115t-225 115q-90 115 -90 279v897h-144v-897zM379 1577h86l86 129l86 -129h86l-115 215h-114z" />
<glyph unicode="&#xdc;" horiz-adv-x="1099" d="M92 537q0 -238 133 -404q139 -170 326 -170q188 0 323 170q136 168 136 404v897h-144v-897q0 -164 -94 -279q-90 -115 -221 -115t-225 115q-90 115 -90 279v897h-144v-897zM336 1667q0 -39 20.5 -64.5t51.5 -25.5t51 25.5t20 64.5q0 37 -20.5 62.5t-50.5 25.5 q-31 0 -51.5 -25.5t-20.5 -62.5zM623 1667q0 -39 20.5 -64.5t50.5 -25.5q31 0 51.5 25.5t20.5 64.5q0 37 -20.5 62.5t-51.5 25.5t-51 -25.5t-20 -62.5z" />
<glyph unicode="&#xdd;" horiz-adv-x="1054" d="M35 1434l420 -748v-686h143v686l424 748h-180l-316 -560l-315 560h-176zM483 1577h86l144 215h-144z" />
<glyph unicode="&#xde;" horiz-adv-x="1007" d="M106 0h144v313h344q141 0 248 113q110 117 110 291q0 170 -110 293q-111 111 -248 110h-344v314h-144v-1434zM250 494v446h344q86 0 145 -59q70 -66 70 -164q0 -100 -70 -166q-59 -57 -145 -57h-344z" />
<glyph unicode="&#xdf;" d="M106 -180h144v1075q0 156 69 270q74 125 195 125q252 0 252 -196q0 -100 -96 -154q-72 -45 -162 -45h-86v-178h86q117 0 207 -70q109 -80 108 -217q0 -143 -104 -223q-84 -63 -211 -64q-55 0 -115 17l-35 -172q74 -25 150 -25q182 0 313 115q146 129 146 352 q0 129 -64 234q-57 92 -162 143q168 84 168 287q0 193 -127 290q-106 84 -268 84q-180 0 -295 -176q-113 -168 -113 -397v-1075z" />
<glyph unicode="&#xe0;" horiz-adv-x="1093" d="M70 537q0 -231 123 -400q125 -174 307 -174q213 0 344 230v-193h143v1075h-143v-194q-129 229 -344 229q-182 0 -307 -172q-123 -170 -123 -401zM213 537q0 162 92 278.5t223 116.5t223.5 -116.5t92.5 -278.5t-92 -279q-90 -115 -224 -115q-133 0 -223 115 q-92 117 -92 279zM342 1434l143 -215h86l-86 215h-143z" />
<glyph unicode="&#xe1;" horiz-adv-x="1093" d="M70 537q0 -231 123 -400q125 -174 307 -174q213 0 344 230v-193h143v1075h-143v-194q-129 229 -344 229q-182 0 -307 -172q-123 -170 -123 -401zM213 537q0 162 92 278.5t223 116.5t223.5 -116.5t92.5 -278.5t-92 -279q-90 -115 -224 -115q-133 0 -223 115 q-92 117 -92 279zM485 1219h86l144 215h-144z" />
<glyph unicode="&#xe2;" horiz-adv-x="1093" d="M70 537q0 -231 123 -400q125 -174 307 -174q213 0 344 230v-193h143v1075h-143v-194q-129 229 -344 229q-182 0 -307 -172q-123 -170 -123 -401zM213 537q0 162 92 278.5t223 116.5t223.5 -116.5t92.5 -278.5t-92 -279q-90 -115 -224 -115q-133 0 -223 115 q-92 117 -92 279zM356 1219h86l86 129l86 -129h86l-114 215h-115z" />
<glyph unicode="&#xe3;" horiz-adv-x="1093" d="M70 537q0 -231 123 -400q125 -174 307 -174q213 0 344 230v-193h143v1075h-143v-194q-129 229 -344 229q-182 0 -307 -172q-123 -170 -123 -401zM213 537q0 162 92 278.5t223 116.5t223.5 -116.5t92.5 -278.5t-92 -279q-90 -115 -224 -115q-133 0 -223 115 q-92 117 -92 279zM311 1282l82 -55q18 86 47 86q37 0 97 -47q66 -47 98 -47q76 -1 113 157l-80 54q-18 -86 -47 -87q-35 0 -99 48q-61 49 -96 49q-78 0 -115 -158z" />
<glyph unicode="&#xe4;" horiz-adv-x="1093" d="M70 537q0 -231 123 -400q125 -174 307 -174q213 0 344 230v-193h143v1075h-143v-194q-129 229 -344 229q-182 0 -307 -172q-123 -170 -123 -401zM213 537q0 162 92 278.5t223 116.5t223.5 -116.5t92.5 -278.5t-92 -279q-90 -115 -224 -115q-133 0 -223 115 q-92 117 -92 279zM313 1309q0 -39 21.5 -64.5t50.5 -25.5q31 0 51.5 25.5t20.5 64.5q0 37 -20.5 62.5t-51.5 25.5q-29 0 -50.5 -25.5t-21.5 -62.5zM600 1309q0 -39 21.5 -64.5t50.5 -25.5q31 0 51 25.5t20 64.5q0 37 -20.5 62.5t-50.5 25.5q-29 0 -50.5 -25.5t-21.5 -62.5z " />
<glyph unicode="&#xe5;" horiz-adv-x="1093" d="M70 537q0 -231 123 -400q125 -174 307 -174q213 0 344 230v-193h143v1075h-143v-194q-129 229 -344 229q-182 0 -307 -172q-123 -170 -123 -401zM213 537q0 162 92 278.5t223 116.5t223.5 -116.5t92.5 -278.5t-92 -279q-90 -115 -224 -115q-133 0 -223 115 q-92 117 -92 279zM371 1415q0 -41 12 -76.5t33.5 -62.5t50.5 -42t61 -15q33 0 61.5 15t50.5 42t34 62.5t12 76.5t-12 77t-34 62.5t-50.5 42t-61.5 15.5t-61.5 -15.5t-50 -42t-33.5 -62.5t-12 -77zM428 1415q0 53 29.5 89t70.5 36t71 -36t30 -89t-30 -89t-71 -36t-70.5 36 t-29.5 89z" />
<glyph unicode="&#xe6;" horiz-adv-x="1830" d="M70 537q0 -231 123 -400q125 -174 307 -174q217 0 344 230v-193h143v193q127 -229 338 -230q203 0 342 227l-121 97q-96 -143 -243 -144q-109 0 -195 86q-88 88 -113 220h760q6 45 6 88q0 233 -121 399q-123 174 -303 174q-225 0 -350 -229v194h-143v-194 q-129 229 -344 229q-182 0 -307 -172q-123 -170 -123 -401zM213 537q0 162 92 278.5t223 116.5t223.5 -116.5t92.5 -278.5t-92 -279q-90 -115 -224 -115q-133 0 -223 115q-92 117 -92 279zM995 627q25 131 113 219q86 86 195 86t194 -86q93 -88 113 -219h-615z" />
<glyph unicode="&#xe7;" horiz-adv-x="985" d="M70 537q0 -213 112 -375q115 -162 283 -193l-23 -131h43q29 0 50.5 -26.5t21.5 -63.5q0 -35 -21.5 -61.5t-50.5 -26.5h-100l-14 -55h114q47 0 81 42t34 101q0 51 -25.5 91t-66.5 50l14 74q232 0 371 227l-121 97q-96 -143 -244 -144q-133 0 -223 115q-92 117 -92 279 t92 278.5t223 116.5q147 0 244 -144l121 97q-66 106 -162 165.5t-203 59.5q-188 0 -323 -168q-135 -170 -135 -405z" />
<glyph unicode="&#xe8;" d="M70 537q0 -236 135 -404q135 -170 323 -170q106 0 202.5 60.5t162.5 166.5l-121 97q-96 -143 -244 -144q-109 0 -194 86q-88 88 -113 220h760q6 45 6 88q0 236 -135 405q-131 168 -324 168q-188 0 -323 -168q-135 -170 -135 -405zM221 627q25 131 113 219q86 86 194 86 q109 0 195 -86q93 -88 113 -219h-615zM342 1434l143 -215h86l-86 215h-143z" />
<glyph unicode="&#xe9;" d="M70 537q0 -236 135 -404q135 -170 323 -170q106 0 202.5 60.5t162.5 166.5l-121 97q-96 -143 -244 -144q-109 0 -194 86q-88 88 -113 220h760q6 45 6 88q0 236 -135 405q-131 168 -324 168q-188 0 -323 -168q-135 -170 -135 -405zM221 627q25 131 113 219q86 86 194 86 q109 0 195 -86q93 -88 113 -219h-615zM485 1219h86l144 215h-144z" />
<glyph unicode="&#xea;" d="M70 537q0 -236 135 -404q135 -170 323 -170q106 0 202.5 60.5t162.5 166.5l-121 97q-96 -143 -244 -144q-109 0 -194 86q-88 88 -113 220h760q6 45 6 88q0 236 -135 405q-131 168 -324 168q-188 0 -323 -168q-135 -170 -135 -405zM221 627q25 131 113 219q86 86 194 86 q109 0 195 -86q93 -88 113 -219h-615zM356 1219h86l86 129l86 -129h86l-114 215h-115z" />
<glyph unicode="&#xeb;" d="M70 537q0 -236 135 -404q135 -170 323 -170q106 0 202.5 60.5t162.5 166.5l-121 97q-96 -143 -244 -144q-109 0 -194 86q-88 88 -113 220h760q6 45 6 88q0 236 -135 405q-131 168 -324 168q-188 0 -323 -168q-135 -170 -135 -405zM221 627q25 131 113 219q86 86 194 86 q109 0 195 -86q93 -88 113 -219h-615zM313 1309q0 -39 21.5 -64.5t50.5 -25.5q31 0 51.5 25.5t20.5 64.5q0 37 -20.5 62.5t-51.5 25.5q-29 0 -50.5 -25.5t-21.5 -62.5zM600 1309q0 -39 21.5 -64.5t50.5 -25.5q31 0 51 25.5t20 64.5q0 37 -20.5 62.5t-50.5 25.5 q-29 0 -50.5 -25.5t-21.5 -62.5z" />
<glyph unicode="&#xec;" horiz-adv-x="354" d="M-8 1434l143 -215h86l-86 215h-143zM106 0h144v1075h-144v-1075z" />
<glyph unicode="&#xed;" horiz-adv-x="354" d="M106 0h144v1075h-144v-1075zM135 1219h86l144 215h-144z" />
<glyph unicode="&#xee;" horiz-adv-x="354" d="M6 1219h86l86 129l86 -129h86l-114 215h-115zM106 0h144v1075h-144v-1075z" />
<glyph unicode="&#xef;" horiz-adv-x="354" d="M-37 1309q0 -39 20.5 -64.5t51.5 -25.5t51 25.5t20 64.5q0 37 -20 62.5t-51 25.5t-51.5 -25.5t-20.5 -62.5zM106 0h144v1075h-144v-1075zM250 1309q0 -39 20.5 -64.5t51.5 -25.5t51 25.5t20 64.5q0 37 -20.5 62.5t-50.5 25.5q-31 0 -51.5 -25.5t-20.5 -62.5z" />
<glyph unicode="&#xf0;" horiz-adv-x="1179" d="M70 537q0 -236 135 -404q135 -170 323 -170q190 0 324 170q135 168 135 404v645h143v143h-143v109h-143v-109h-144v-143h144v-301q-129 229 -344 229q-182 0 -307 -172q-123 -170 -123 -401zM213 537q0 162 92 278.5t223 116.5t223.5 -116.5t92.5 -278.5t-92 -279 q-90 -115 -224 -115q-133 0 -223 115q-92 117 -92 279z" />
<glyph unicode="&#xf1;" horiz-adv-x="942" d="M106 0h144v645q0 119 67.5 203t161.5 84t162 -84q68 -86 68 -203v-645h143v645q0 188 -96 322q-100 143 -248 143q-158 0 -258 -158v123h-144v-1075zM262 1282l80 -55q18 86 49 86q37 0 96 -47q63 -47 97 -47q75 -1 112 157l-78 54q-18 -86 -49 -87q-35 0 -98 48 q-59 49 -94 49q-78 0 -115 -158z" />
<glyph unicode="&#xf2;" d="M70 537q0 -236 135 -404q135 -170 323 -170q190 0 324 170q135 168 135 404t-135 405q-131 168 -324 168q-188 0 -323 -168q-135 -170 -135 -405zM213 537q0 162 92 278.5t223 116.5t223.5 -116.5t92.5 -278.5t-92 -279q-90 -115 -224 -115q-133 0 -223 115 q-92 117 -92 279zM342 1434l143 -215h86l-86 215h-143z" />
<glyph unicode="&#xf3;" d="M70 537q0 -236 135 -404q135 -170 323 -170q190 0 324 170q135 168 135 404t-135 405q-131 168 -324 168q-188 0 -323 -168q-135 -170 -135 -405zM213 537q0 162 92 278.5t223 116.5t223.5 -116.5t92.5 -278.5t-92 -279q-90 -115 -224 -115q-133 0 -223 115 q-92 117 -92 279zM485 1219h86l144 215h-144z" />
<glyph unicode="&#xf4;" d="M70 537q0 -236 135 -404q135 -170 323 -170q190 0 324 170q135 168 135 404t-135 405q-131 168 -324 168q-188 0 -323 -168q-135 -170 -135 -405zM213 537q0 162 92 278.5t223 116.5t223.5 -116.5t92.5 -278.5t-92 -279q-90 -115 -224 -115q-133 0 -223 115 q-92 117 -92 279zM356 1219h86l86 129l86 -129h86l-114 215h-115z" />
<glyph unicode="&#xf5;" d="M70 537q0 -236 135 -404q135 -170 323 -170q190 0 324 170q135 168 135 404t-135 405q-131 168 -324 168q-188 0 -323 -168q-135 -170 -135 -405zM213 537q0 162 92 278.5t223 116.5t223.5 -116.5t92.5 -278.5t-92 -279q-90 -115 -224 -115q-133 0 -223 115 q-92 117 -92 279zM311 1282l82 -55q18 86 47 86q37 0 97 -47q66 -47 98 -47q76 -1 113 157l-80 54q-18 -86 -47 -87q-35 0 -99 48q-61 49 -96 49q-78 0 -115 -158z" />
<glyph unicode="&#xf6;" d="M70 537q0 -236 135 -404q135 -170 323 -170q190 0 324 170q135 168 135 404t-135 405q-131 168 -324 168q-188 0 -323 -168q-135 -170 -135 -405zM213 537q0 162 92 278.5t223 116.5t223.5 -116.5t92.5 -278.5t-92 -279q-90 -115 -224 -115q-133 0 -223 115 q-92 117 -92 279zM313 1309q0 -39 21.5 -64.5t50.5 -25.5q31 0 51.5 25.5t20.5 64.5q0 37 -20.5 62.5t-51.5 25.5q-29 0 -50.5 -25.5t-21.5 -62.5zM600 1309q0 -39 21.5 -64.5t50.5 -25.5q31 0 51 25.5t20 64.5q0 37 -20.5 62.5t-50.5 25.5q-29 0 -50.5 -25.5t-21.5 -62.5z " />
<glyph unicode="&#xf7;" horiz-adv-x="784" d="M106 465h574v143h-574v-143zM293 125q0 -53 28.5 -89t71.5 -36q41 0 71 36t30 89t-30 89t-71 36q-43 0 -71.5 -36t-28.5 -89zM293 950q0 -53 28.5 -90t71.5 -37q41 0 71 37t30 90t-30 89t-71 36q-43 0 -71.5 -35.5t-28.5 -89.5z" />
<glyph unicode="&#xf8;" d="M35 53l43 -53l125 135q135 -172 325 -172t324 170q135 168 135 404q0 193 -92 346l129 139l-43 53l-125 -135q-135 170 -328 170q-188 0 -323 -168q-135 -170 -135 -405q0 -190 94 -344zM213 537q0 162 92 278.5t223 116.5q124 0 220 -109l-476 -514q-59 106 -59 228z M311 252l473 514q60 -108 60 -229q0 -162 -92 -279q-90 -115 -224 -115q-127 0 -217 109z" />
<glyph unicode="&#xf9;" horiz-adv-x="942" d="M92 430q0 -188 96 -324q100 -143 248 -143q156 0 258 158v-121h144v1075h-144v-645q0 -117 -67 -203q-68 -84 -162 -84t-162 84q-68 82 -67 203v645h-144v-645zM279 1434l143 -215h86l-86 215h-143z" />
<glyph unicode="&#xfa;" horiz-adv-x="942" d="M92 430q0 -188 96 -324q100 -143 248 -143q156 0 258 158v-121h144v1075h-144v-645q0 -117 -67 -203q-68 -84 -162 -84t-162 84q-68 82 -67 203v645h-144v-645zM422 1219h86l143 215h-143z" />
<glyph unicode="&#xfb;" horiz-adv-x="942" d="M92 430q0 -188 96 -324q100 -143 248 -143q156 0 258 158v-121h144v1075h-144v-645q0 -117 -67 -203q-68 -84 -162 -84t-162 84q-68 82 -67 203v645h-144v-645zM293 1219h86l86 129l86 -129h86l-115 215h-114z" />
<glyph unicode="&#xfc;" horiz-adv-x="942" d="M92 430q0 -188 96 -324q100 -143 248 -143q156 0 258 158v-121h144v1075h-144v-645q0 -117 -67 -203q-68 -84 -162 -84t-162 84q-68 82 -67 203v645h-144v-645zM250 1309q0 -39 20.5 -64.5t51.5 -25.5t51 25.5t20 64.5q0 37 -20.5 62.5t-50.5 25.5q-31 0 -51.5 -25.5 t-20.5 -62.5zM537 1309q0 -39 20.5 -64.5t50.5 -25.5q31 0 51.5 25.5t20.5 64.5q0 37 -20.5 62.5t-51.5 25.5t-51 -25.5t-20 -62.5z" />
<glyph unicode="&#xfd;" horiz-adv-x="919" d="M35 1075l346 -1075l-53 -166q-12 -49 -66 -49q-29 0 -72 18v-180q43 -18 72 -18q145 0 201 170l422 1300h-156l-270 -837l-269 837h-155zM416 1219h86l143 215h-143z" />
<glyph unicode="&#xfe;" horiz-adv-x="1093" d="M106 -358h144v551q131 -229 344 -230q184 0 307 174q123 169 123 400q0 229 -125 401q-121 172 -305 172q-215 0 -344 -229v553h-144v-1792zM250 537q0 164 90 278q94 117 225 117q129 0 221 -117q95 -114 95 -278t-95 -279q-90 -115 -221 -115t-225 115q-90 115 -90 279 z" />
<glyph unicode="&#xff;" horiz-adv-x="919" d="M35 1075l346 -1075l-53 -166q-12 -49 -66 -49q-29 0 -72 18v-180q43 -18 72 -18q145 0 201 170l422 1300h-156l-270 -837l-269 837h-155zM246 1309q0 -39 20.5 -64.5t50.5 -25.5q29 0 50.5 25.5t21.5 64.5q0 37 -21.5 62.5t-50.5 25.5q-31 0 -51 -25.5t-20 -62.5z M532 1309q0 -39 20.5 -64.5t51.5 -25.5q29 0 50.5 25.5t21.5 64.5q0 37 -21.5 62.5t-50.5 25.5q-31 0 -51.5 -25.5t-20.5 -62.5z" />
<glyph unicode="&#x152;" horiz-adv-x="1896" d="M70 717q0 -311 178 -533q174 -221 424 -221q279 0 458 266v-229h660v178h-516v449h373v180h-373v446h516v181h-660v-230q-178 264 -458 264q-250 0 -424 -219q-178 -221 -178 -532zM213 717q0 236 135 405q135 168 324 168q193 0 323 -168q135 -169 135 -405 q0 -238 -135 -406q-131 -168 -323 -168q-188 0 -323.5 168t-135.5 406z" />
<glyph unicode="&#x153;" horiz-adv-x="1830" d="M70 537q0 -236 135 -404q135 -170 323 -170q117 0 220.5 71.5t166.5 196.5q63 -125 167 -196.5t221 -71.5q106 0 202.5 60.5t161.5 166.5l-121 97q-96 -143 -243 -144q-109 0 -195 86q-88 88 -113 220h760q6 45 6 88q0 236 -135 405q-131 168 -323 168 q-117 0 -220.5 -70.5t-167.5 -195.5q-63 125 -166.5 195.5t-220.5 70.5q-188 0 -323 -168q-135 -170 -135 -405zM213 537q0 162 92 278.5t223 116.5t223.5 -116.5t92.5 -278.5t-92 -279q-90 -115 -224 -115q-133 0 -223 115q-92 117 -92 279zM995 627q25 131 113 219 q86 86 195 86t194 -86q93 -88 113 -219h-615z" />
<glyph unicode="&#x178;" horiz-adv-x="1054" d="M35 1434l420 -748v-686h143v686l424 748h-180l-316 -560l-315 560h-176zM311 1667q0 -39 21.5 -64.5t50.5 -25.5q31 0 51.5 25.5t20.5 64.5q0 37 -20.5 62.5t-51.5 25.5q-29 0 -50.5 -25.5t-21.5 -62.5zM598 1667q0 -39 21.5 -64.5t50.5 -25.5q31 0 51 25.5t20 64.5 q0 37 -20.5 62.5t-50.5 25.5q-29 0 -50.5 -25.5t-21.5 -62.5z" />
<glyph unicode="&#x2c6;" horiz-adv-x="555" d="M106 1219h87l86 129l86 -129h86l-115 215h-115z" />
<glyph unicode="&#x2dc;" horiz-adv-x="647" d="M106 1276l80 -53q18 86 50 86q35 0 96 -49q63 -47 96 -48q76 0 113 158l-78 55q-23 -86 -51 -86q-37 0 -97 45q-59 49 -96 50q-76 0 -113 -158z" />
<glyph unicode="&#x2000;" horiz-adv-x="899" />
<glyph unicode="&#x2001;" horiz-adv-x="1798" />
<glyph unicode="&#x2002;" horiz-adv-x="899" />
<glyph unicode="&#x2003;" horiz-adv-x="1798" />
<glyph unicode="&#x2004;" horiz-adv-x="599" />
<glyph unicode="&#x2005;" horiz-adv-x="449" />
<glyph unicode="&#x2006;" horiz-adv-x="299" />
<glyph unicode="&#x2007;" horiz-adv-x="299" />
<glyph unicode="&#x2008;" horiz-adv-x="224" />
<glyph unicode="&#x2009;" horiz-adv-x="359" />
<glyph unicode="&#x200a;" horiz-adv-x="99" />
<glyph unicode="&#x2010;" horiz-adv-x="784" d="M106 465h574v143h-574v-143z" />
<glyph unicode="&#x2011;" horiz-adv-x="784" d="M106 465h574v143h-574v-143z" />
<glyph unicode="&#x2012;" horiz-adv-x="784" d="M106 465h574v143h-574v-143z" />
<glyph unicode="&#x2013;" horiz-adv-x="641" d="M106 465h431v143h-431v-143z" />
<glyph unicode="&#x2014;" horiz-adv-x="927" d="M106 465h717v143h-717v-143z" />
<glyph unicode="&#x2018;" horiz-adv-x="411" d="M106 932h201v250h-143q0 76 25.5 128t60.5 52v72q-59 0 -103 -74q-41 -76 -41 -178v-250z" />
<glyph unicode="&#x2019;" horiz-adv-x="411" d="M106 1182h144q0 -74 -25.5 -126t-60.5 -52v-72q57 0 100 74q43 70 43 176v252h-201v-252z" />
<glyph unicode="&#x201a;" horiz-adv-x="411" d="M106 0h144q0 -74 -25.5 -127t-60.5 -53v-72q55 0 100 74q43 74 43 178v250h-201v-250z" />
<glyph unicode="&#x201c;" horiz-adv-x="727" d="M106 932h201v250h-143q0 76 25.5 128t60.5 52v72q-59 0 -103 -74q-41 -76 -41 -178v-250zM422 932h201v250h-144q0 76 25.5 128t60.5 52v72q-59 0 -102 -74q-41 -76 -41 -178v-250z" />
<glyph unicode="&#x201d;" horiz-adv-x="727" d="M106 1182h144q0 -74 -25.5 -126t-60.5 -52v-72q57 0 100 74q43 70 43 176v252h-201v-252zM422 1182h143q0 -74 -25.5 -126t-60.5 -52v-72q57 0 101 74q43 70 43 176v252h-201v-252z" />
<glyph unicode="&#x201e;" horiz-adv-x="727" d="M106 0h144q0 -74 -25.5 -127t-60.5 -53v-72q55 0 100 74q43 74 43 178v250h-201v-250zM422 0h143q0 -74 -25.5 -127t-60.5 -53v-72q55 0 101 74q43 74 43 178v250h-201v-250z" />
<glyph unicode="&#x2022;" horiz-adv-x="727" d="M106 537q0 -129 76 -228q78 -94 183 -94q104 0 182 92q76 99 76 230t-76 229q-78 94 -182 94t-183 -94q-76 -98 -76 -229z" />
<glyph unicode="&#x2026;" horiz-adv-x="1157" d="M106 125q0 -53 29 -89t72 -36q41 0 70.5 36t29.5 89t-29.5 89t-70.5 36q-43 0 -72 -36t-29 -89zM479 125q0 -53 29 -89t72 -36q41 0 70.5 36t29.5 89t-29.5 89t-70.5 36q-43 0 -72 -36t-29 -89zM852 125q0 -53 28.5 -89t71.5 -36q41 0 71 36t30 89t-30 89t-71 36 q-43 0 -71.5 -36t-28.5 -89z" />
<glyph unicode="&#x202f;" horiz-adv-x="359" />
<glyph unicode="&#x2039;" horiz-adv-x="612" d="M106 551l336 -285l64 121l-279 236l279 233l-64 121l-336 -283v-143z" />
<glyph unicode="&#x203a;" horiz-adv-x="612" d="M106 387l62 -121l338 285v143l-338 283l-62 -121l277 -233z" />
<glyph unicode="&#x205f;" horiz-adv-x="449" />
<glyph unicode="&#x20ac;" horiz-adv-x="1306" d="M106 483h166q57 -227 220 -377q160 -143 352 -143q160 0 305 105v219q-133 -143 -305 -144q-137 0 -250 93q-115 98 -168 247h528l41 144h-604q-6 45 -6 90q0 43 6 90h660l41 143h-666q55 152 168 246t250 94q172 0 305 -143l51 178q-158 143 -356 143q-197 0 -352 -143 q-162 -145 -220 -375h-122l-44 -143h142q-6 -47 -6 -90q0 -45 6 -90h-98z" />
<glyph unicode="&#x2122;" horiz-adv-x="1255" d="M106 1309h187v-629h100v629h158v-629h100v520l150 -520h98l152 518v-518h100v754h-141l-160 -553l-160 553h-584v-125z" />
<glyph unicode="&#xe000;" horiz-adv-x="1075" d="M0 0v1075h1075v-1075h-1075z" />
</font>
</defs>
</svg>
