<?xml version="1.0" standalone="no"?>
<!DOCTYPE svg PUBLIC "-//W3C//DTD SVG 1.1//EN" "http://www.w3.org/Graphics/SVG/1.1/DTD/svg11.dtd" >
<svg xmlns="http://www.w3.org/2000/svg">
<metadata></metadata>
<defs>
<font id="florencesans_compbold" horiz-adv-x="243" >
<font-face units-per-em="2048" ascent="1638" descent="-410" />
<missing-glyph horiz-adv-x="446" />
<glyph horiz-adv-x="2048" />
<glyph horiz-adv-x="2048" />
<glyph unicode="&#xd;" horiz-adv-x="1024" />
<glyph unicode=" "  horiz-adv-x="446" />
<glyph unicode="&#x09;" horiz-adv-x="446" />
<glyph unicode="&#xa0;" horiz-adv-x="446" />
<glyph unicode="!" horiz-adv-x="278" d="M66 125q0 -61 21.5 -104.5t51.5 -43.5q31 0 52.5 43.5t21.5 104.5t-21.5 104t-52.5 43t-52 -43t-21 -104zM84 1454l18 -1081h76l17 1081h-111z" />
<glyph unicode="&#x22;" horiz-adv-x="493" d="M63 1526l43 -516q4 -63 33 -64q29 0 35 64l41 516h-152zM279 1526l43 -516q4 -63 32 -64q29 0 35 64l41 516h-151z" />
<glyph unicode="#" horiz-adv-x="620" d="M66 588h96l-10 -215h94l8 215h86l-8 -215h92l10 215h119v186h-111l9 172h102v187h-94l8 215h-92l-10 -215h-86l10 215h-94l-9 -215h-120v-187h112l-8 -172h-104v-186zM264 774l6 172h86l-6 -172h-86z" />
<glyph unicode="$" horiz-adv-x="727" d="M66 408q0 -106 20 -191.5t64 -144.5q63 -94 157 -121v-152h113v152q94 29 160 121q82 122 82 315q0 217 -82 320q-47 61 -160 102v446q43 -14 74 -59q39 -53 38 -168h111q0 207 -76 326q-61 100 -147 129v151h-113v-151q-88 -29 -149 -129q-39 -59 -56.5 -135t-17.5 -168 q0 -207 70 -314q51 -76 153 -112v-453q-47 14 -86 59q-43 55 -43 177h-112zM195 1051q0 92 41 145q29 43 71 59v-409q-47 20 -74 57q-39 51 -38 148zM420 172v418q55 -23 84 -53q47 -52 47 -150q0 -178 -131 -215z" />
<glyph unicode="%" horiz-adv-x="915" d="M66 1110q0 -156 55 -268q57 -111 135 -111q76 0 133 111q57 118 57 268q0 78 -14 144.5t-43 123.5q-57 113 -133 113q-78 0 -135 -113q-55 -115 -55 -268zM80 -23h119l637 1477h-119zM160 1110q0 84 26 137q33 57 70 58q41 0 68 -56q28 -57 28 -139q0 -80 -28 -137 q-27 -55 -68 -55t-68 55q-29 55 -28 137zM469 322q0 -156 55 -269q57 -111 135 -110q76 0 134 110q57 119 57 269q0 78 -14.5 144t-42.5 124q-57 113 -134 112q-78 0 -135 -112q-55 -115 -55 -268zM563 322q0 86 27 139q29 55 69 55q39 0 68 -55q29 -57 29 -139 q0 -80 -29 -138q-29 -55 -68 -55q-41 0 -69 55q-27 53 -27 138z" />
<glyph unicode="&#x26;" horiz-adv-x="702" d="M66 399q0 -193 67 -323q68 -133 160 -133q104 0 188 129l31 -95h133l-86 267q6 23 14.5 50.5t16.5 61.5h-2l41 185l-103 90l-37 -170l-110 334q35 41 56.5 73.5t31.5 55.5q43 98 43 227q0 141 -51 242v-2q-51 100 -123 100q-70 0 -121 -100.5t-51 -239.5q0 -84 24 -170 q4 -10 12.5 -40t26.5 -83q-37 -47 -63.5 -91t-42.5 -85q-55 -127 -55 -283zM178 403q0 90 37 162q16 41 72 111l135 -416q-57 -96 -129 -96q-45 0 -82 69q-33 68 -33 170zM276 1153q0 47 17.5 82t42.5 35t44 -35t19 -86q0 -66 -34 -111l-43 -57l-35 102v-2q-10 29 -11 72z " />
<glyph unicode="'" horiz-adv-x="278" d="M63 1526l43 -516q4 -63 33 -64q29 0 35 64l41 516h-152z" />
<glyph unicode="(" horiz-adv-x="350" d="M66 627q0 -127 8 -235.5t24 -203.5q33 -186 117 -389h78q-68 233 -92 412q-12 90 -17.5 192.5t-5.5 223.5t5 223t18 190q10 90 33.5 192.5t58.5 221.5h-78q-82 -199 -117 -389q-16 -92 -24 -201.5t-8 -236.5z" />
<glyph unicode=")" horiz-adv-x="350" d="M59 -201h76q84 207 115 389q18 94 26.5 203t8.5 236t-8.5 235.5t-26.5 202.5q-31 186 -115 389h-76q35 -119 57.5 -221.5t33.5 -192.5q10 -88 17 -190t7 -223t-7 -223.5t-17.5 -192.5t-33 -192.5t-57.5 -219.5z" />
<glyph unicode="*" horiz-adv-x="499" d="M63 858l46 -162l94 111v-219h92v219l96 -111l45 162l-94 109l94 110l-45 162l-96 -113v222h-92v-222l-94 113l-46 -162l93 -110z" />
<glyph unicode="+" horiz-adv-x="512" d="M66 444h143v-286h94v286h143v187h-143v287h-94v-287h-143v-187z" />
<glyph unicode="," horiz-adv-x="278" d="M63 272l43 -516q4 -66 33 -65q29 0 35 65l41 516h-152z" />
<glyph unicode="-" horiz-adv-x="512" d="M66 444h380v187h-380v-187z" />
<glyph unicode="." horiz-adv-x="278" d="M66 125q0 -61 21.5 -104.5t51.5 -43.5q31 0 52.5 43.5t21.5 104.5t-21.5 104t-52.5 43t-52 -43t-21 -104z" />
<glyph unicode="/" horiz-adv-x="468" d="M41 -113l104 -75l283 1556l-104 74z" />
<glyph unicode="0" horiz-adv-x="718" d="M43 717q0 -299 80 -522q92 -252 235 -252q145 0 236 252q80 223 80 522q0 301 -80 522q-90 252 -236 252q-143 0 -235 -252q-80 -221 -80 -522zM154 717q0 215 51 370q55 180 153 181q98 0 154 -181q51 -155 51 -370q0 -217 -51 -371q-55 -182 -154 -182q-98 0 -153 182 q-51 154 -51 371z" />
<glyph unicode="1" horiz-adv-x="718" d="M178 1053l72 -144l123 244v-1176h110v1477h-104z" />
<glyph unicode="2" horiz-adv-x="718" d="M78 -23h559v224h-414q41 113 139 223q154 184 185 233q90 156 90 375t-88 344q-84 115 -191 115q-109 0 -186 -107q-94 -123 -94 -356h112q0 135 56 191q45 49 108 49q74 0 117 -51q55 -66 55 -185q0 -166 -110 -309q-53 -68 -106.5 -134.5t-106.5 -131.5 q-125 -201 -125 -480z" />
<glyph unicode="3" horiz-adv-x="718" d="M72 229q45 -158 121 -223q70 -63 153 -63q121 0 203 118q94 138 94 369q0 256 -123 377q88 90 88 287q0 199 -86 307q-74 90 -176 90q-82 0 -147 -59q-39 -37 -67 -94.5t-40 -139.5l103 -76q27 145 151 146q61 0 100 -33q49 -47 50 -141q0 -82 -52 -133q-47 -43 -98 -43 h-65v-224h65q74 0 125 -65q61 -74 61 -199q0 -129 -59 -205q-53 -61 -127 -61q-131 0 -180 178z" />
<glyph unicode="4" horiz-adv-x="718" d="M61 264h394v-287h110v287h90v223h-90v967h-92l-412 -981v-209zM190 487l265 623v-623h-265z" />
<glyph unicode="5" horiz-adv-x="718" d="M66 342q20 -98 47.5 -173t66.5 -126q82 -100 170 -100q123 0 209 159q90 158 90 400q0 238 -90 399q-86 160 -209 160q-84 0 -157 -84v256h366v221h-477v-731l100 -78q29 92 74 142.5t94 50.5q78 0 129 -95q57 -94 58 -241q0 -147 -58 -242q-53 -96 -129 -96 q-57 0 -102 57q-25 29 -42.5 73t-31.5 103z" />
<glyph unicode="6" horiz-adv-x="718" d="M51 717q0 -299 80 -522q92 -252 236 -252q121 0 208 157q47 84 69 185.5t22 220.5q0 238 -91 403q-90 158 -208 158q-119 0 -191 -149q14 123 53 215q51 135 138 135q88 0 149 -164l86 133q-96 254 -235 254q-143 0 -236 -252q-80 -221 -80 -522zM188 504 q0 143 51.5 241.5t127.5 98.5q74 0 131 -94q57 -96 57 -246q0 -152 -57 -242q-55 -98 -131 -98q-68 0 -123.5 104.5t-55.5 235.5z" />
<glyph unicode="7" horiz-adv-x="718" d="M137 1233h371l-365 -1256h131l369 1272v205h-506v-221z" />
<glyph unicode="8" horiz-adv-x="718" d="M61 430q0 -236 95 -369q82 -119 202 -118q121 0 203 118q94 138 94 369q0 256 -123 377q88 92 89 287q0 199 -86 307q-74 90 -177 90q-100 0 -174 -90q-88 -106 -88 -307q0 -197 90 -287q-125 -119 -125 -377zM172 430q0 127 64 199q51 66 122 65q74 0 125 -65 q62 -74 62 -199q0 -129 -60 -205q-53 -61 -127 -61q-76 0 -125 61q-61 74 -61 205zM207 1094q0 94 51 141q43 33 100 33q61 0 101 -33q49 -43 49 -141q0 -82 -51 -133q-47 -43 -99 -43q-51 0 -96 43q-55 51 -55 133z" />
<glyph unicode="9" horiz-adv-x="718" d="M51 928q0 -236 92 -404q86 -158 207 -157q119 0 191 147q-8 -61 -21.5 -114.5t-30.5 -98.5q-59 -137 -139 -137q-90 0 -147 166l-88 -133q96 -254 235 -254q143 0 236 252q80 223 80 522q0 301 -80 522q-92 252 -236 252q-123 0 -207 -158q-92 -166 -92 -405zM164 930 q0 74 13 134t42 107q53 96 131 97q70 0 123 -103q55 -104 55 -235q0 -74 -13 -134.5t-38 -109.5q-53 -96 -127 -96q-72 0 -131 96q-29 49 -42 110.5t-13 133.5z" />
<glyph unicode=":" horiz-adv-x="278" d="M66 125q0 -61 21.5 -104.5t51.5 -43.5q31 0 52.5 43.5t21.5 104.5t-21.5 104t-52.5 43t-52 -43t-21 -104zM66 770q0 -61 21.5 -104t51.5 -43q31 0 52.5 43t21.5 104t-21.5 104.5t-52.5 43.5t-52 -43.5t-21 -104.5z" />
<glyph unicode=";" horiz-adv-x="278" d="M63 272l43 -516q4 -66 33 -65q29 0 35 65l41 516h-152zM66 770q0 -61 21.5 -104t51.5 -43q31 0 52.5 43t21.5 104t-21.5 104.5t-52.5 43.5t-52 -43.5t-21 -104.5z" />
<glyph unicode="&#x3c;" horiz-adv-x="493" d="M66 453l313 -408l53 158l-260 334l260 335l-53 158l-313 -407v-170z" />
<glyph unicode="=" horiz-adv-x="512" d="M66 283h380v186h-380v-186zM66 606h380v187h-380v-187z" />
<glyph unicode="&#x3e;" horiz-adv-x="493" d="M61 203l52 -158l313 408v170l-313 407l-52 -158l258 -335z" />
<glyph unicode="?" horiz-adv-x="477" d="M66 1116h112q0 59 17.5 105.5t42.5 46.5q27 0 44 -38t17 -91q0 -88 -41 -158q-23 -35 -40 -63.5t-38 -63.5q-27 -53 -40 -112.5t-13 -127.5q0 -12 6 -131q2 -20 2 -53q0 -31 2 -57h74q4 59 7 112.5t3 83.5q4 68 19.5 117t38.5 84q20 29 40.5 56.5t42.5 56.5q48 88 48 256 q0 141 -50 245q-51 106 -122 107q-72 0 -123 -107q-49 -104 -49 -268zM102 125q0 -61 21.5 -104.5t52.5 -43.5t52.5 43.5t21.5 104.5t-21.5 104t-52.5 43t-52.5 -43t-21.5 -104z" />
<glyph unicode="@" horiz-adv-x="1085" d="M66 537q0 -393 141 -672q137 -281 336 -281q72 0 145 47l-22 160q-63 -39 -123 -39q-162 0 -279 232q-115 229 -114 553q0 322 114 555q117 231 279 231q160 0 278 -229q55 -117 85 -255.5t30 -301.5q0 -72 -9 -137.5t-32 -123.5q-43 -129 -107 -129q-29 0 -45 45.5 t-16 100.5v6q0 4 2 14l27 650h-88l-4 -109q-55 135 -146 135q-94 0 -166 -151q-66 -145 -65 -340q0 -86 13 -157t40 -134q57 -121 139 -121q94 0 160 139q4 -45 14.5 -84t26.5 -73q39 -90 100 -91q106 0 174 185q33 86 49.5 178.5t16.5 196.5q0 199 -36 366.5t-105 306.5 q-141 281 -336 281q-197 0 -336 -281q-141 -281 -141 -673zM375 512q0 117 45 211q47 88 104 88q55 0 90 -72q16 -35 26.5 -79t10.5 -97q0 -119 -45 -213v2q-45 -88 -106 -88q-53 0 -90 72q-35 70 -35 176z" />
<glyph unicode="A" horiz-adv-x="679" d="M16 -23h119l58 324h294l60 -324h119l-271 1477h-110zM233 522l107 588l106 -588h-213z" />
<glyph unicode="B" horiz-adv-x="692" d="M66 -23h333q88 0 164 119q72 125 72 307q0 227 -113 322q94 96 94 305q0 182 -73 309q-72 115 -162 115h-315v-1477zM178 201v405h221q49 0 84 -55q39 -58 39 -148q0 -94 -39 -147q-35 -55 -84 -55h-221zM178 827v406h203q49 0 84 -55q41 -56 41 -148t-41 -147 q-35 -55 -84 -56h-203z" />
<glyph unicode="C" horiz-adv-x="765" d="M43 717q0 -322 113 -549q117 -225 274 -225q158 0 275 227v31l-72 137q-90 -174 -203 -174q-115 0 -194 162q-82 162 -82 391t82 391q80 160 194 160q113 0 203 -172l78 151q-119 244 -281 244q-156 0 -272 -229q-115 -223 -115 -545z" />
<glyph unicode="D" horiz-adv-x="772" d="M66 -23h280q150 0 260 218q109 217 109 522q0 311 -109 522q-109 215 -260 215h-280v-1477zM178 201v1032h168q109 0 182 -152q76 -149 76 -364q0 -217 -76 -367q-74 -149 -181 -149h-1h-168z" />
<glyph unicode="E" horiz-adv-x="655" d="M66 -23h524v224h-412v405h322v221h-322v406h412v221h-524v-1477z" />
<glyph unicode="F" horiz-adv-x="622" d="M66 -23h112v629h322v221h-322v406h412v221h-524v-1477z" />
<glyph unicode="G" horiz-adv-x="813" d="M43 717q0 -322 113 -549q117 -225 274 -225q98 0 184 93t140 255l2 12v524h-336v-221h225v-241q-82 -201 -215 -201q-115 0 -194 162q-82 162 -82 391t82 391q80 160 194 160q66 0 125 -62.5t102 -175.5l93 127q-59 160 -143.5 247t-176.5 87q-156 0 -272 -229 q-115 -223 -115 -545z" />
<glyph unicode="H" horiz-adv-x="727" d="M66 -23h112v629h373v-629h111v1477h-111v-627h-373v627h-112v-1477z" />
<glyph unicode="I" d="M66 -23h112v1477h-112v-1477z" />
<glyph unicode="J" horiz-adv-x="565" d="M31 211q35 -123 95 -195.5t128 -72.5q102 0 178 149q37 76 56.5 164.5t19.5 192.5v1005h-295v-221h182v-784q0 -119 -41 -201q-41 -84 -100 -84q-78 0 -125 151z" />
<glyph unicode="K" horiz-adv-x="651" d="M66 -23h112v553l86 177l238 -730h133l-289 889l293 588h-156l-305 -614v614h-112v-1477z" />
<glyph unicode="L" horiz-adv-x="534" d="M66 -23h434v224h-322v1253h-112v-1477z" />
<glyph unicode="M" horiz-adv-x="866" d="M66 -23h112v1108l201 -1108h110l201 1104v-1104h111v1477h-162l-205 -1132l-207 1132h-161v-1477z" />
<glyph unicode="N" horiz-adv-x="727" d="M66 -23h112v1065l377 -1065h107v1477h-111v-1063l-379 1063h-106v-1477z" />
<glyph unicode="O" horiz-adv-x="862" d="M43 717q0 -324 115 -547q113 -227 272 -227q158 0 275 227q112 225 112 547q0 319 -112 547q-117 227 -275 227q-160 0 -272 -227q-115 -227 -115 -547zM154 717q0 229 82 391q80 160 194 160q115 0 195 -160q82 -162 82 -391t-82 -391t-195 -162q-115 0 -194 162 q-82 162 -82 391z" />
<glyph unicode="P" horiz-adv-x="651" d="M66 -23h112v629h203q90 0 164 117q71 119 71 307q0 182 -73 309q-72 115 -162 115h-315v-1477zM178 827v406h203q49 0 84 -55q41 -56 41 -148t-41 -147q-35 -55 -84 -56h-203z" />
<glyph unicode="Q" horiz-adv-x="862" d="M43 717q0 -293 98 -514q96 -213 234 -252v-332h110v332q72 20 129.5 83.5t106.5 168.5q96 223 96 514q0 319 -112 547q-117 227 -275 227q-160 0 -272 -227q-115 -227 -115 -547zM154 717q0 229 82 391q80 160 194 160q115 0 195 -160q82 -162 82 -391q0 -205 -68 -359 q-61 -145 -154 -182v203h-110v-203q-92 37 -154 182q-33 78 -50 166t-17 193z" />
<glyph unicode="R" horiz-adv-x="686" d="M66 -23h112v629h96q88 0 123 -117l168 -512h131l-174 537q-29 86 -49 123q27 23 50.5 54.5t43.5 78.5q49 113 49 260q0 182 -73 309q-72 115 -162 115h-315v-1477zM178 827v406h203q49 0 84 -55q41 -56 41 -148t-41 -147q-35 -55 -84 -56h-203z" />
<glyph unicode="S" horiz-adv-x="708" d="M57 408q0 -231 103 -359q82 -106 194 -106q111 0 197 104q100 125 100 340q0 268 -129 367q-29 10 -56.5 22t-56 24.5t-55 24t-55.5 23.5q-113 49 -113 203q0 109 58 168h-2q49 49 112 49q66 0 111 -51q57 -57 57 -189h113q0 225 -94 354q-80 109 -187 109 q-106 0 -186 -109q-92 -127 -92 -331q0 -279 131 -377q57 -25 110 -45h-2q29 -12 56.5 -23.5t56.5 -21.5q113 -49 113 -197q0 -119 -64 -176q-53 -47 -123 -47t-123 47q-63 59 -63 197h-111z" />
<glyph unicode="T" horiz-adv-x="636" d="M31 1233h233v-1256h111v1256h233v221h-577v-221z" />
<glyph unicode="U" horiz-adv-x="708" d="M57 537q0 -244 88 -418q88 -176 209 -176q123 0 211 176q86 174 86 418v917h-110v-917q0 -158 -56 -265q-53 -108 -130 -108h-1q-78 0 -133 108q-53 111 -53 265v917h-111v-917z" />
<glyph unicode="V" horiz-adv-x="679" d="M16 1454l269 -1477h110l271 1477h-119l-207 -1132l-205 1132h-119z" />
<glyph unicode="W" horiz-adv-x="980" d="M18 1454l211 -1477h109l151 1051l150 -1051h111l213 1477h-117l-152 -1048l-149 1048h-109l-153 -1048l-150 1048h-115z" />
<glyph unicode="X" horiz-adv-x="690" d="M16 -23h136l192 545l193 -545h137l-260 740l260 737h-137l-193 -543l-192 543h-136l260 -737z" />
<glyph unicode="Y" horiz-adv-x="679" d="M10 1454l275 -774v-703h110v703l273 774h-136l-192 -543l-190 543h-140z" />
<glyph unicode="Z" horiz-adv-x="708" d="M57 -23h594v224h-438l438 1046v207h-594v-221h439l-439 -1047v-209z" />
<glyph unicode="[" horiz-adv-x="368" d="M66 -201h237v221h-125v1213h125v221h-237v-1655z" />
<glyph unicode="\" horiz-adv-x="468" d="M41 1368l283 -1556l104 75l-283 1555z" />
<glyph unicode="]" horiz-adv-x="368" d="M66 20v-221h237v1655h-237v-221h127v-1213h-127z" />
<glyph unicode="^" horiz-adv-x="518" d="M63 662l84 -78l111 497l111 -497l86 78l-154 686h-86z" />
<glyph unicode="_" horiz-adv-x="466" d="M0 -23h467v187h-467v-187z" />
<glyph unicode="`" horiz-adv-x="296" d="M53 1454l109 -258h74l-64 258h-119z" />
<glyph unicode="a" horiz-adv-x="704" d="M43 537q0 -236 78 -414q82 -180 201 -180q125 0 204 188v-154h111v1119h-111v-152q-82 188 -204 189q-119 0 -199 -181q-80 -172 -80 -415zM154 537q0 154 53 264q54 108 132 108h1q78 0 133 -108q53 -110 53 -264t-53 -265q-54 -108 -132 -108h-1q-78 0 -133 108 q-53 111 -53 265z" />
<glyph unicode="b" horiz-adv-x="704" d="M66 -23h112v154q80 -188 203 -188q121 0 201 180q80 174 80 414q0 121 -20.5 225t-61.5 190q-78 180 -199 181q-121 0 -203 -189v510h-112v-1477zM178 537q0 160 53 264q53 108 133 108h1q76 0 129 -108q57 -110 57 -264t-57 -265q-53 -108 -128 -108h-1q-80 0 -134 108 q-29 53 -41 120t-12 145z" />
<glyph unicode="c" horiz-adv-x="636" d="M43 537q0 -244 88 -418q88 -176 209 -176q72 0 134.5 62.5t103.5 172.5l-5 29l-81 108q-66 -151 -151 -151h-1q-78 0 -133 108q-53 111 -53 265t53 264q54 108 132 108h1q88 0 152 -149l92 121q-47 119 -109.5 185.5t-134.5 66.5q-121 0 -209 -176.5t-88 -419.5z" />
<glyph unicode="d" horiz-adv-x="704" d="M43 537q0 -236 78 -414q82 -180 201 -180q125 0 204 188v-154h111v1477h-111v-510q-82 188 -204 189q-119 0 -199 -181q-80 -172 -80 -415zM154 537q0 154 53 264q54 108 132 108h1q78 0 133 -108q53 -110 53 -264t-53 -265q-54 -108 -132 -108h-1q-78 0 -133 108 q-53 111 -53 265z" />
<glyph unicode="e" horiz-adv-x="681" d="M43 537q0 -244 88 -418q88 -176 209 -176q72 0 134.5 66.5t109.5 185.5l-92 120q-61 -151 -151 -151h-1q-63 0 -117 82q-45 74 -59 180h469q4 35 4 61v50q0 242 -86 419q-88 176 -211 177q-121 0 -209 -176.5t-88 -419.5zM164 649q14 104 59 180q55 80 117 80 q63 0 117 -80q47 -72 61 -180h-354z" />
<glyph unicode="f" horiz-adv-x="356" d="M43 766h53v-1147h111v1147h90v223h-90v211q0 29 10 49.5t25 20.5q14 0 32 -31l52 201q-41 51 -84 51q-59 0 -102.5 -86t-43.5 -205v-211h-53v-223z" />
<glyph unicode="g" horiz-adv-x="704" d="M43 537q0 -236 78 -414q86 -180 201 -180q68 0 129 63q41 45 73 119q-4 -61 -16 -112.5t-33 -96.5q-53 -111 -135 -111q-84 0 -150 154l-86 -141q94 -233 236 -234q123 0 211 176q86 174 86 418v918h-111v-154q-16 39 -34.5 68.5t-40.5 56.5q-66 66 -129 66 q-117 0 -199 -181q-80 -172 -80 -415zM154 537q0 154 53 264q55 108 132 108h1q78 0 133 -108q53 -110 53 -264t-53 -265q-55 -108 -132 -108h-1q-78 0 -133 108q-53 111 -53 265z" />
<glyph unicode="h" horiz-adv-x="610" d="M66 -23h112v668q0 111 37 189q37 75 93 75h1q55 0 94 -75q39 -82 39 -189v-668h111v668q0 195 -61 336q-68 152 -164 152q-88 0 -150 -125v446h-112v-1477z" />
<glyph unicode="i" d="M49 1343q0 -61 20.5 -104t51.5 -43q33 0 53.5 43t20.5 104t-20.5 104.5t-53.5 43.5q-31 0 -51.5 -43t-20.5 -105zM66 -23h112v1119h-112v-1119z" />
<glyph unicode="j" d="M-51 -365q43 -51 84 -51q59 0 102 86t43 205v1221h-112v-1221q0 -29 -10.5 -49.5t-22.5 -20.5t-33 31zM49 1343q0 -61 20.5 -104t51.5 -43q33 0 53.5 43t20.5 104t-20.5 104.5t-53.5 43.5q-31 0 -51.5 -43t-20.5 -105z" />
<glyph unicode="k" horiz-adv-x="579" d="M66 -23h112v338l86 172l166 -510h133l-219 674l223 445h-155l-234 -471v829h-112v-1477z" />
<glyph unicode="l" d="M66 -23h112v1477h-112v-1477z" />
<glyph unicode="m" horiz-adv-x="915" d="M66 -23h112v668q0 106 31 184q33 80 84 80q47 0 82 -82q33 -78 33 -182v-668h110v668q0 53 8.5 99.5t24.5 84.5q31 80 82 80t82 -82q16 -37 24.5 -83t8.5 -99v-668h110v668q0 199 -63 338q-63 150 -162 150q-109 0 -168 -183q-47 182 -146 183q-90 0 -141 -119v82h-112 v-1119z" />
<glyph unicode="n" horiz-adv-x="610" d="M66 -23h112v668q0 111 37 189q37 75 93 75h1q55 0 94 -75q39 -82 39 -189v-668h111v668q0 195 -61 336q-68 152 -164 152q-88 0 -150 -125v88h-112v-1119z" />
<glyph unicode="o" horiz-adv-x="681" d="M43 537q0 -244 88 -418q88 -176 209 -176q123 0 211 176q86 174 86 418q0 242 -86 419q-88 176 -211 177q-121 0 -209 -176.5t-88 -419.5zM154 537q0 154 53 264q54 108 132 108h1q78 0 133 -108q53 -110 53 -264t-53 -265q-54 -108 -132 -108h-1q-78 0 -133 108 q-53 111 -53 265z" />
<glyph unicode="p" horiz-adv-x="704" d="M66 -381h112v512q80 -188 203 -188q121 0 201 180q80 174 80 414q0 121 -20.5 225t-61.5 190q-78 180 -199 181q-121 0 -203 -189v152h-112v-1477zM178 537q0 160 53 264q53 108 133 108h1q76 0 129 -108q57 -110 57 -264t-57 -265q-53 -108 -128 -108h-1q-80 0 -134 108 q-29 53 -41 120t-12 145z" />
<glyph unicode="q" horiz-adv-x="704" d="M43 537q0 -236 78 -414q82 -180 201 -180q125 0 204 188v-512h111v1477h-111v-152q-82 188 -204 189q-119 0 -199 -181q-80 -172 -80 -415zM154 537q0 154 53 264q55 108 132 108h1q78 0 133 -108q53 -110 53 -264t-53 -265q-55 -108 -132 -108h-1q-78 0 -133 108 q-53 111 -53 265z" />
<glyph unicode="r" horiz-adv-x="407" d="M66 -23h112v668q0 111 37 189q37 75 93 75h1q23 0 49 -16l15 18v213q-16 4 -26.5 6.5t-18.5 2.5q-88 0 -150 -125v88h-112v-1119z" />
<glyph unicode="s" horiz-adv-x="583" d="M57 317q0 -193 80 -292q70 -82 156 -82q84 0 153 82q80 100 80 270q0 213 -98 291h2q-6 6 -49 23.5t-123 47.5q-80 33 -80 123q0 66 37 101q32 28 75 28h3q45 0 74 -28q41 -35 41 -123h110q0 188 -78 289q-66 86 -147 86q-88 0 -152 -86q-76 -100 -75 -267 q0 -217 98 -293q12 -10 170 -71q82 -35 82 -121q0 -131 -123 -131q-47 0 -84 26h2q-43 33 -43 127h-111z" />
<glyph unicode="t" horiz-adv-x="395" d="M35 874h106v-1255h111v1255h108v222h-108v252h-111v-252h-106v-222z" />
<glyph unicode="u" horiz-adv-x="610" d="M57 430q0 -197 64 -338q63 -149 161 -149h1q86 0 151 123v-89h111v1119h-111v-666q0 -111 -41 -188q-39 -78 -92 -78q-55 0 -94 78q-39 76 -39 188v666h-111v-666z" />
<glyph unicode="v" horiz-adv-x="593" d="M16 1096l226 -1119h110l228 1119h-121l-162 -801l-162 801h-119z" />
<glyph unicode="w" horiz-adv-x="856" d="M18 1096l181 -1119h108l121 740l121 -740h108l181 1119h-115l-119 -740l-123 740h-106l-121 -740l-121 740h-115z" />
<glyph unicode="x" horiz-adv-x="563" d="M16 -23h136l129 365l127 -365h139l-197 560l197 559h-139l-127 -363l-129 363h-136l195 -559z" />
<glyph unicode="y" horiz-adv-x="593" d="M16 1096l220 -1096l-29 -158q-10 -37 -33 -37q-14 0 -55 29v-225q33 -25 55 -25q98 0 135 183v-3l271 1332h-121l-162 -801l-162 801h-119z" />
<glyph unicode="z" horiz-adv-x="620" d="M57 -23h506v224h-344l344 688v207h-506v-222h342l-342 -688v-209z" />
<glyph unicode="{" horiz-adv-x="432" d="M66 516h38q23 0 37.5 -22.5t14.5 -63.5v-305q0 -121 47 -221q45 -104 106 -105h56v221h-46q-20 0 -36.5 33t-16.5 72v287q0 74 -24 151q-14 41 -31 64q14 20 31 65q25 74 24 150v286q0 41 16.5 73t36.5 32h46v221h-56q-61 0 -106 -102q-47 -100 -47 -224v-305 q0 -41 -14.5 -63.5t-37.5 -22.5h-38v-221z" />
<glyph unicode="|" d="M66 -201h112v1655h-112v-1655z" />
<glyph unicode="}" horiz-adv-x="432" d="M66 20v-221h55q59 0 106 105q49 100 49 221v305q0 41 14.5 63.5t37.5 22.5h37v221h-37q-23 0 -37.5 22.5t-14.5 63.5v305q0 119 -49 224q-45 102 -106 102h-55v-221h47q18 0 34.5 -32t16.5 -73v-286q0 -37 7 -75t19 -75q6 -23 13.5 -39t17.5 -26q-18 -18 -31 -64 q-12 -39 -19 -75.5t-7 -75.5v-287q0 -39 -16.5 -72t-34.5 -33h-47z" />
<glyph unicode="~" horiz-adv-x="516" d="M63 475l87 -69q14 84 32 83q25 0 78 -40q51 -45 84 -46q70 0 105 172l-7 27l-77 64q-16 -86 -33 -86q-25 0 -76 43q-53 43 -86 43q-70 0 -107 -191z" />
<glyph unicode="&#xa1;" horiz-adv-x="278" d="M66 1128q0 -61 21.5 -104t51.5 -43q31 0 52.5 43t21.5 104t-21.5 104.5t-52.5 43.5t-52 -43t-21 -105zM84 -201h111l-17 1082h-76z" />
<glyph unicode="&#xa2;" horiz-adv-x="667" d="M66 537q0 -219 71 -387q72 -160 170 -197v-191h113v191q109 37 180 225l-4 29l-84 108q-41 -100 -92 -133v711q49 -35 94 -133l92 121q-41 98 -87 159.5t-99 81.5v189h-113v-189q-100 -39 -170 -198q-72 -168 -71 -387zM178 537q0 137 39 233q33 84 90 123v-711 q-57 35 -90 123q-20 49 -29.5 107.5t-9.5 124.5z" />
<glyph unicode="&#xa3;" horiz-adv-x="671" d="M43 606h90v-629h469v224h-358v405h178v221h-178v158q0 119 41 201t100 82q80 0 125 -150l98 105q-35 123 -95 195.5t-128 72.5q-100 0 -178 -152q-37 -76 -55.5 -162.5t-18.5 -191.5v-158h-90v-221z" />
<glyph unicode="&#xa4;" horiz-adv-x="837" d="M61 463h111q20 -117 55 -209t82 -164q104 -147 228 -147q106 0 200 114v277q-96 -170 -200 -170q-82 0 -148 90q-61 80 -96 209h321l35 186h-385q-2 16 -2 33v35v33q0 18 2 34h410l35 187h-416q33 123 96 209q68 88 148 88q104 0 196 -158l39 223q-106 158 -235 158 q-121 0 -228 -150q-98 -145 -137 -370h-76l-35 -187h91q-2 -16 -2 -34v-33v-35q0 -16 2 -33h-56z" />
<glyph unicode="&#xa5;" horiz-adv-x="770" d="M55 1454l234 -661h-183v-187h224v-137h-224v-186h224v-306h110v306h226v186h-226v137h226v187h-187l234 661h-135l-193 -543l-192 543h-138z" />
<glyph unicode="&#xa6;" d="M66 -201h112v742h-112v-742zM66 713h112v741h-112v-741z" />
<glyph unicode="&#xa7;" horiz-adv-x="602" d="M66 193q0 -197 81 -293q70 -82 154 -82t154 82q82 100 82 270q0 164 -60 252q59 88 60 231q0 213 -101 291h2q-6 10 -172 72q-80 33 -80 123q0 66 37 100q35 29 78 29t76 -29q39 -35 39 -98v-25h110q0 188 -75 289q-66 86 -150 86q-88 0 -151 -86q-74 -98 -74 -266 t57 -250q-57 -88 -57 -236q0 -215 96 -291q12 -10 170 -71q82 -35 82 -121q0 -131 -123 -131q-47 0 -82 24q-41 37 -41 101v29h-112zM186 653q0 70 35 105q33 31 76 30q45 0 82 -30q45 -42 45 -105t-39 -102q-16 -12 -34.5 -20.5t-41.5 -8.5q-39 0 -80 31q-43 37 -43 100z " />
<glyph unicode="&#xa8;" horiz-adv-x="421" d="M66 1343q0 -47 16 -78.5t39 -31.5t40 31.5t17 78.5t-17.5 79t-39.5 32q-23 0 -39 -31.5t-16 -79.5zM246 1343q0 -47 15 -78.5t40 -31.5q23 0 39 31.5t16 78.5t-16 79t-39 32q-25 0 -40 -31.5t-15 -79.5z" />
<glyph unicode="&#xa9;" horiz-adv-x="718" d="M66 565q0 -242 84 -415q86 -172 208 -173q121 0 207 173t86 415q0 244 -86 414q-88 172 -207 172q-121 0 -206 -174q-86 -172 -86 -412zM135 565q0 182 65.5 313.5t157.5 131.5t158 -131q64 -128 64 -314q0 -188 -64 -315q-66 -129 -158 -129q-94 0 -157 129 q-66 131 -66 315zM168 565q0 -84 15.5 -153.5t43.5 -128.5q57 -117 140 -117q82 0 141 119v30l-39 74q-45 -90 -102 -90q-55 0 -93 78q-39 78 -38 188q0 109 38 187q37 78 93 77q57 0 102 -90l47 90q-68 133 -149 134q-82 0 -140 -119q-59 -119 -59 -279z" />
<glyph unicode="&#xaa;" horiz-adv-x="583" d="M66 1030q0 -178 59 -313q59 -137 154 -137q90 0 149 129v-103h90v848h-90v-102q-59 131 -149 131q-92 0 -154 -137q-59 -135 -59 -316zM154 1030q0 111 39 195q43 80 100 80q55 0 94 -82q41 -80 41 -193q0 -117 -39 -194q-41 -80 -96 -80q-57 0 -100 82q-39 80 -39 192z " />
<glyph unicode="&#xab;" horiz-adv-x="751" d="M66 342l278 -373l51 156l-223 301l223 301l-51 156l-278 -373v-168zM362 342l277 -373l53 156l-225 301l225 301l-53 156l-277 -373v-168z" />
<glyph unicode="&#xac;" horiz-adv-x="512" d="M66 444h286v-180h94v367h-380v-187z" />
<glyph unicode="&#xad;" horiz-adv-x="512" d="M66 444h380v187h-380v-187z" />
<glyph unicode="&#xae;" horiz-adv-x="718" d="M66 565q0 -242 84 -415q86 -172 208 -173q121 0 207 173t86 415q0 244 -86 414q-88 172 -207 172q-121 0 -206 -174q-86 -172 -86 -412zM135 565q0 182 66 314q4 6 7 12l7 14v-684q-4 6 -7 13.5t-7 15.5q-66 131 -66 315zM242 184h39v314h43q41 0 59 -54l84 -260h8 q-51 -63 -117 -63t-116 63zM242 944q53 66 116 66q92 0 158 -131q64 -128 64 -314q0 -180 -58 -303l-69 207v-2q-4 16 -9.5 30.5t-9.5 24.5q29 27 48.5 81t19.5 120q0 96 -37 158q-39 63 -86 63h-137zM281 631v180h98q23 0 40 -23.5t17 -64.5t-17.5 -66.5t-39.5 -25.5h-98z " />
<glyph unicode="&#xaf;" horiz-adv-x="421" d="M66 1268h290v186h-290v-186z" />
<glyph unicode="&#xb0;" horiz-adv-x="350" d="M66 1237q0 -92 31.5 -155.5t78.5 -63.5q45 0 77 63.5t32 155.5t-32 154.5t-77 62.5q-47 0 -78.5 -62.5t-31.5 -154.5zM123 1237q0 43 15.5 72.5t37.5 29.5q23 0 37 -29.5t14 -72.5t-14 -73.5t-37 -30.5t-38 30.5t-15 73.5z" />
<glyph unicode="&#xb1;" horiz-adv-x="512" d="M66 -23h380v187h-380v-187zM66 623h143v-287h94v287h143v186h-143v287h-94v-287h-143v-186z" />
<glyph unicode="&#xb2;" horiz-adv-x="421" d="M66 694h290v133h-202q20 45 61 93q78 94 92 118q49 80 49 195q0 113 -49 180q-39 59 -96 60q-55 0 -96 -54q-49 -66 -49 -198h67q0 72 23 96q23 23 51 22q39 0 57 -24q27 -31 27 -82q0 -76 -55 -146l-105 -133q-66 -102 -65 -260z" />
<glyph unicode="&#xb3;" horiz-adv-x="428" d="M63 836q43 -158 144 -158q61 0 104 59q51 76 51 195q0 121 -57 188q39 47 39 144q0 102 -47 161q-37 47 -90 48q-106 0 -133 -162l61 -45q12 74 72 73q72 0 72 -75q0 -18 -7.5 -31.5t-17.5 -26.5q-25 -20 -47 -20h-37v-133h37q37 0 59 -29q29 -35 29 -92q0 -61 -27 -94 q-25 -29 -61 -29q-63 0 -86 94z" />
<glyph unicode="&#xb4;" horiz-adv-x="296" d="M59 1196h76l109 258h-121z" />
<glyph unicode="&#xb6;" horiz-adv-x="772" d="M66 1030q0 -186 71 -307q70 -115 154 -117v-987h110v1614h86v-1614h111v1614h109v221h-406q-92 0 -164 -115q-72 -127 -71 -309z" />
<glyph unicode="&#xb7;" horiz-adv-x="278" d="M66 537q0 -61 21.5 -103.5t51.5 -42.5q31 0 52.5 42.5t21.5 103.5q0 63 -21.5 105t-52.5 42t-52 -42t-21 -105z" />
<glyph unicode="&#xb8;" horiz-adv-x="296" d="M63 -381h87q33 0 57 48t24 118q0 53 -16 96t-39 60l12 116h-57l-25 -204h44q12 0 22 -19.5t10 -48.5t-10 -48.5t-22 -19.5h-72z" />
<glyph unicode="&#xb9;" horiz-adv-x="292" d="M63 1243l43 -88l56 113v-574h65v760h-59z" />
<glyph unicode="&#xba;" horiz-adv-x="583" d="M66 1030q0 -184 67 -319q68 -131 160 -131q90 0 158 131q33 68 50 147.5t17 171.5t-17.5 171t-49.5 147q-68 135 -158 135q-92 0 -159.5 -135.5t-67.5 -317.5zM154 1030q0 111 39 195q43 80 100 80q55 0 94 -82q41 -80 41 -193q0 -117 -39 -194q-41 -80 -96 -80 q-59 0 -98 80q-41 86 -41 194z" />
<glyph unicode="&#xbb;" horiz-adv-x="751" d="M61 125l52 -156l278 373v168l-278 373l-52 -156l224 -301zM356 125l52 -156l278 373v168l-278 373l-52 -156l224 -301z" />
<glyph unicode="&#xbc;" horiz-adv-x="512" d="M66 659h380v115h-380v-115zM131 92h158v-115h57v115h35v115h-35v387h-47l-168 -401v-101zM184 1280l39 -72l41 84v-454h58v616h-50zM203 207l86 201v-201h-86z" />
<glyph unicode="&#xbd;" horiz-adv-x="512" d="M66 659h380v115h-380v-115zM137 -23h238v115h-158q6 16 17.5 32.5t25.5 35.5q31 35 49.5 58.5t26.5 33.5q39 66 39 160q0 88 -39 149q-33 47 -80 47q-45 0 -78 -43q-41 -49 -41 -168h58q0 55 18 78q18 18 41 19q31 0 43 -19q20 -25 20 -63q0 -57 -43 -113h2 q-23 -27 -44 -53.5t-42 -52.5q-53 -84 -53 -216zM184 1280l39 -72l41 84v-454h58v616h-50z" />
<glyph unicode="&#xbe;" horiz-adv-x="512" d="M66 659h380v115h-380v-115zM131 92h158v-115h57v115h35v115h-35v387h-47l-168 -401v-101zM133 956q33 -133 117 -133q47 0 86 51q41 58 41 158t-43 150q29 45 28 114q0 90 -38 136q-29 37 -74 36q-84 0 -109 -137l54 -39q12 61 55 62q55 0 55 -58q0 -20 -16 -41 q-20 -16 -39 -16h-31v-115h31q29 0 47 -24q23 -29 22 -68q0 -47 -20 -71q-18 -23 -49 -23q-49 0 -68 78zM203 207l86 201v-201h-86z" />
<glyph unicode="&#xbf;" horiz-adv-x="477" d="M66 117q0 -143 49 -248q51 -106 123 -107q72 0 122 107q49 104 50 248l-11 20h-100q-2 -59 -19.5 -105t-41.5 -46q-25 0 -42.5 38.5t-17.5 92.5q0 86 41 157q20 35 36.5 63t37.5 62q55 106 55 240q0 14 -6 131q0 20 -2 53t-4 58h-72q-4 -59 -6 -113.5t-4 -83.5 q-8 -133 -55 -201q-23 -29 -43.5 -56.5t-42.5 -55.5q-47 -88 -47 -254zM227 1128q0 -61 21.5 -104t52.5 -43t52.5 43t21.5 104t-21.5 104.5t-52.5 43.5t-52.5 -43t-21.5 -105z" />
<glyph unicode="&#xc0;" horiz-adv-x="679" d="M16 -23h119l58 324h294l60 -324h119l-271 1477h-110zM201 1812l106 -258h76l-64 258h-118zM233 522l107 588l106 -588h-213z" />
<glyph unicode="&#xc1;" horiz-adv-x="679" d="M16 -23h119l58 324h294l60 -324h119l-271 1477h-110zM233 522l107 588l106 -588h-213zM295 1554h78l106 258h-119z" />
<glyph unicode="&#xc2;" horiz-adv-x="679" d="M16 -23h119l58 324h294l60 -324h119l-271 1477h-110zM211 1554h82l47 117l49 -117h78l-86 258h-84zM233 522l107 588l106 -588h-213z" />
<glyph unicode="&#xc3;" horiz-adv-x="679" d="M16 -23h119l58 324h294l60 -324h119l-271 1477h-110zM193 1628l69 -74q12 96 23 97q23 0 55 -45q45 -51 68 -52q53 0 79 175l-6 26l-61 66q-14 -96 -25 -97q-18 0 -55 43q-41 51 -64 52q-59 0 -83 -191zM233 522l107 588l106 -588h-213z" />
<glyph unicode="&#xc4;" horiz-adv-x="679" d="M16 -23h119l58 324h294l60 -324h119l-271 1477h-110zM195 1667q0 -47 16 -80t39 -33q25 0 41 33t16 80t-16.5 79t-40.5 32q-23 0 -39 -32t-16 -79zM233 522l107 588l106 -588h-213zM375 1667q0 -47 16.5 -80t38.5 -33q25 0 40 33t15 80t-15 79t-40 32q-23 0 -39 -32 t-16 -79z" />
<glyph unicode="&#xc5;" horiz-adv-x="679" d="M16 -23h119l58 324h294l60 -324h119l-258 1409q43 61 43 173q0 47 -9.5 83.5t-25.5 69.5q-31 66 -76 66t-76 -66q-33 -63 -33 -153q0 -115 41 -175zM233 522l107 588l106 -588h-213zM289 1559q0 43 14 73.5t37 30.5t38 -30.5t15 -73.5t-15.5 -74t-37.5 -31q-23 0 -37 31 t-14 74z" />
<glyph unicode="&#xc6;" horiz-adv-x="1042" d="M16 -23h119l58 324h294l60 -324h430v224h-324v405h234v221h-234v406h324v221h-434v-807l-148 807h-110zM233 522l107 588l106 -588h-213z" />
<glyph unicode="&#xc7;" horiz-adv-x="765" d="M43 717q0 -293 100 -518q96 -213 236 -250l-14 -131h38q14 0 23.5 -20.5t9.5 -49.5t-9 -48t-24 -19h-69l-17 -97h86q35 0 58.5 48.5t23.5 115.5q0 53 -15 96t-40 62l6 37q156 6 269 227v31l-72 137q-90 -174 -203 -174q-115 0 -194 162q-82 162 -82 391t82 391 q80 160 194 160q113 0 203 -172l78 151q-119 244 -281 244q-156 0 -272 -229q-115 -223 -115 -545z" />
<glyph unicode="&#xc8;" horiz-adv-x="655" d="M66 -23h524v224h-412v405h322v221h-322v406h412v221h-524v-1477zM188 1812l107 -258h76l-64 258h-119z" />
<glyph unicode="&#xc9;" horiz-adv-x="655" d="M66 -23h524v224h-412v405h322v221h-322v406h412v221h-524v-1477zM283 1554h77l107 258h-119z" />
<glyph unicode="&#xca;" horiz-adv-x="655" d="M66 -23h524v224h-412v405h322v221h-322v406h412v221h-524v-1477zM199 1554h80l49 117l49 -117h78l-86 258h-84z" />
<glyph unicode="&#xcb;" horiz-adv-x="655" d="M66 -23h524v224h-412v405h322v221h-322v406h412v221h-524v-1477zM182 1667q0 -47 16.5 -80t39.5 -33t39 33t16 80t-16.5 79t-38.5 32q-23 0 -39.5 -32t-16.5 -79zM362 1667q0 -47 15.5 -80t40.5 -33q23 0 39 33t16 80t-16.5 79t-38.5 32q-25 0 -40.5 -32t-15.5 -79z" />
<glyph unicode="&#xcc;" d="M-18 1812l108 -258h74l-64 258h-118zM66 -23h112v1477h-112v-1477z" />
<glyph unicode="&#xcd;" d="M66 -23h112v1477h-112v-1477zM78 1554h76l108 258h-121z" />
<glyph unicode="&#xce;" d="M-8 1554h82l47 117l49 -117h80l-86 258h-86zM66 -23h112v1477h-112v-1477z" />
<glyph unicode="&#xcf;" d="M-23 1667q0 -47 15.5 -80t40.5 -33q23 0 39 33t16 80t-16.5 79t-38.5 32q-25 0 -40.5 -32t-15.5 -79zM66 -23h112v1477h-112v-1477zM156 1667q0 -47 15 -80t40 -33q23 0 39 33t16 80t-16.5 79t-38.5 32q-25 0 -40 -32t-15 -79z" />
<glyph unicode="&#xd0;" horiz-adv-x="837" d="M43 641h90v-664h279q154 0 260 218q108 217 108 522q0 307 -106 520q-106 217 -262 217h-279v-627h-90v-186zM244 201v440h178v186h-178v406h168q109 0 182 -152q76 -149 76 -364q0 -217 -76 -367q-74 -150 -182 -149h-168z" />
<glyph unicode="&#xd1;" horiz-adv-x="727" d="M66 -23h112v1065l377 -1065h107v1477h-111v-1063l-379 1063h-106v-1477zM215 1628l70 -74q12 96 22 97q20 0 58 -45q45 -51 65 -52q55 0 80 175l-4 26l-64 66q-12 -96 -22 -97q-18 0 -55 43q-45 51 -66 52q-57 0 -84 -191z" />
<glyph unicode="&#xd2;" horiz-adv-x="862" d="M43 717q0 -324 115 -547q113 -227 272 -227q158 0 275 227q112 225 112 547q0 319 -112 547q-117 227 -275 227q-160 0 -272 -227q-115 -227 -115 -547zM154 717q0 229 82 391q80 160 194 160q115 0 195 -160q82 -162 82 -391t-82 -391t-195 -162q-115 0 -194 162 q-82 162 -82 391zM291 1812l106 -258h78l-65 258h-119z" />
<glyph unicode="&#xd3;" horiz-adv-x="862" d="M43 717q0 -324 115 -547q113 -227 272 -227q158 0 275 227q112 225 112 547q0 319 -112 547q-117 227 -275 227q-160 0 -272 -227q-115 -227 -115 -547zM154 717q0 229 82 391q80 160 194 160q115 0 195 -160q82 -162 82 -391t-82 -391t-195 -162q-115 0 -194 162 q-82 162 -82 391zM385 1554h78l106 258h-118z" />
<glyph unicode="&#xd4;" horiz-adv-x="862" d="M43 717q0 -324 115 -547q113 -227 272 -227q158 0 275 227q112 225 112 547q0 319 -112 547q-117 227 -275 227q-160 0 -272 -227q-115 -227 -115 -547zM154 717q0 229 82 391q80 160 194 160q115 0 195 -160q82 -162 82 -391t-82 -391t-195 -162q-115 0 -194 162 q-82 162 -82 391zM303 1554h78l49 117l49 -117h80l-86 258h-84z" />
<glyph unicode="&#xd5;" horiz-adv-x="862" d="M43 717q0 -324 115 -547q113 -227 272 -227q158 0 275 227q112 225 112 547q0 319 -112 547q-117 227 -275 227q-160 0 -272 -227q-115 -227 -115 -547zM154 717q0 229 82 391q80 160 194 160q115 0 195 -160q82 -162 82 -391t-82 -391t-195 -162q-115 0 -194 162 q-82 162 -82 391zM281 1628l71 -74q16 96 25 97q20 0 53 -45q45 -51 66 -52q57 0 82 175l-7 26l-61 66q-12 -96 -23 -97q-23 0 -55 43q-41 51 -67 52q-53 0 -84 -191z" />
<glyph unicode="&#xd6;" horiz-adv-x="862" d="M43 717q0 -324 115 -547q113 -227 272 -227q158 0 275 227q112 225 112 547q0 319 -112 547q-117 227 -275 227q-160 0 -272 -227q-115 -227 -115 -547zM154 717q0 229 82 391q80 160 194 160q115 0 195 -160q82 -162 82 -391t-82 -391t-195 -162q-115 0 -194 162 q-82 162 -82 391zM285 1667q0 -47 16 -80t39 -33q25 0 40 33t15 80t-15 79t-40 32q-23 0 -39 -32t-16 -79zM465 1667q0 -47 16.5 -80t38.5 -33q23 0 39 33t16 80t-16 79t-39 32t-39 -32t-16 -79z" />
<glyph unicode="&#xd7;" horiz-adv-x="507" d="M63 285l64 -131l127 254l125 -254l67 131l-127 252l127 254l-67 131l-125 -254l-127 254l-64 -131l125 -254z" />
<glyph unicode="&#xd8;" horiz-adv-x="862" d="M16 55l43 -84l105 189q111 -217 266 -217q158 0 275 227q113 225 112 547q0 262 -80 469l107 192l-41 84l-107 -188q-111 217 -266 217q-160 0 -272 -227q-115 -227 -115 -547q0 -262 80 -471zM154 717q0 229 82 391q80 160 194 160q109 0 184 -142l-407 -733 q-53 144 -53 324zM246 305l409 733q52 -139 52 -321q0 -229 -82 -391t-195 -162q-109 0 -184 141z" />
<glyph unicode="&#xd9;" horiz-adv-x="708" d="M57 537q0 -244 88 -418q88 -176 209 -176q123 0 211 176q86 174 86 418v917h-110v-917q0 -158 -56 -265q-53 -109 -131 -108q-78 0 -133 108q-53 111 -53 265v917h-111v-917zM215 1812l107 -258h75l-63 258h-119z" />
<glyph unicode="&#xda;" horiz-adv-x="708" d="M57 537q0 -244 88 -418q88 -176 209 -176q123 0 211 176q86 174 86 418v917h-110v-917q0 -158 -56 -265q-53 -109 -131 -108q-78 0 -133 108q-53 111 -53 265v917h-111v-917zM309 1554h78l107 258h-119z" />
<glyph unicode="&#xdb;" horiz-adv-x="708" d="M57 537q0 -244 88 -418q88 -176 209 -176q123 0 211 176q86 174 86 418v917h-110v-917q0 -158 -56 -265q-53 -109 -131 -108q-78 0 -133 108q-53 111 -53 265v917h-111v-917zM225 1554h82l47 117l49 -117h78l-86 258h-84z" />
<glyph unicode="&#xdc;" horiz-adv-x="708" d="M57 537q0 -244 88 -418q88 -176 209 -176q123 0 211 176q86 174 86 418v917h-110v-917q0 -158 -56 -265q-53 -109 -131 -108q-78 0 -133 108q-53 111 -53 265v917h-111v-917zM209 1667q0 -47 16.5 -80t38.5 -33q23 0 40.5 33t17.5 80t-17.5 79t-40.5 32t-39 -32t-16 -79z M389 1667q0 -47 15.5 -80t39.5 -33q23 0 39.5 33t16.5 80t-16.5 79t-39.5 32q-25 0 -40 -32t-15 -79z" />
<glyph unicode="&#xdd;" horiz-adv-x="679" d="M10 1454l275 -774v-703h110v703l273 774h-136l-192 -543l-190 543h-140zM295 1554h78l106 258h-119z" />
<glyph unicode="&#xde;" horiz-adv-x="651" d="M66 -23h112v316h203q90 0 164 117q71 119 71 307q0 184 -73 307q-72 117 -162 117h-203v313h-112v-1477zM178 514v406h203q49 0 84 -56q41 -55 41 -147t-41 -148q-35 -55 -84 -55h-203z" />
<glyph unicode="&#xdf;" horiz-adv-x="681" d="M66 -201h112v1096q0 74 9.5 138.5t31.5 119.5q43 115 113 115q147 0 147 -174q0 -84 -55 -133q-47 -43 -96 -43h-64v-224h64q72 0 123 -65q63 -72 63 -199q0 -131 -61 -205q-49 -61 -125 -61q-31 0 -80 22l-27 -215q55 -29 107 -28q121 0 202 118q95 133 95 369 q0 137 -43 246h2q-16 41 -36 73.5t-48 57.5q90 90 90 287q0 201 -84 309q-72 88 -174 88q-115 0 -195 -184q-72 -178 -71 -412v-1096z" />
<glyph unicode="&#xe0;" horiz-adv-x="704" d="M43 537q0 -236 78 -414q82 -180 201 -180q125 0 204 188v-154h111v1119h-111v-152q-82 188 -204 189q-119 0 -199 -181q-80 -172 -80 -415zM154 537q0 154 53 264q55 109 133 108q78 0 133 -108q53 -110 53 -264t-53 -265q-55 -109 -133 -108q-78 0 -133 108 q-53 111 -53 265zM201 1454l106 -258h78l-63 258h-121z" />
<glyph unicode="&#xe1;" horiz-adv-x="704" d="M43 537q0 -236 78 -414q82 -180 201 -180q125 0 204 188v-154h111v1119h-111v-152q-82 188 -204 189q-119 0 -199 -181q-80 -172 -80 -415zM154 537q0 154 53 264q55 109 133 108q78 0 133 -108q53 -110 53 -264t-53 -265q-55 -109 -133 -108q-78 0 -133 108 q-53 111 -53 265zM295 1196h78l106 258h-119z" />
<glyph unicode="&#xe2;" horiz-adv-x="704" d="M43 537q0 -236 78 -414q82 -180 201 -180q125 0 204 188v-154h111v1119h-111v-152q-82 188 -204 189q-119 0 -199 -181q-80 -172 -80 -415zM154 537q0 154 53 264q55 109 133 108q78 0 133 -108q53 -110 53 -264t-53 -265q-55 -109 -133 -108q-78 0 -133 108 q-53 111 -53 265zM213 1196h80l47 117l49 -117h80l-86 258h-84z" />
<glyph unicode="&#xe3;" horiz-adv-x="704" d="M43 537q0 -236 78 -414q82 -180 201 -180q125 0 204 188v-154h111v1119h-111v-152q-82 188 -204 189q-119 0 -199 -181q-80 -172 -80 -415zM154 537q0 154 53 264q55 109 133 108q78 0 133 -108q53 -110 53 -264t-53 -265q-55 -109 -133 -108q-78 0 -133 108 q-53 111 -53 265zM193 1270l71 -74q12 96 23 96q20 0 53 -45q45 -51 68 -51q55 0 79 174l-6 27l-59 65q-14 -96 -25 -96q-23 0 -55 43q-41 51 -66 51q-57 0 -83 -190z" />
<glyph unicode="&#xe4;" horiz-adv-x="704" d="M43 537q0 -236 78 -414q82 -180 201 -180q125 0 204 188v-154h111v1119h-111v-152q-82 188 -204 189q-119 0 -199 -181q-80 -172 -80 -415zM154 537q0 154 53 264q55 109 133 108q78 0 133 -108q53 -110 53 -264t-53 -265q-55 -109 -133 -108q-78 0 -133 108 q-53 111 -53 265zM195 1309q0 -47 16 -80t39 -33q25 0 41 33t16 80t-16.5 78.5t-40.5 31.5q-23 0 -39 -31.5t-16 -78.5zM375 1309q0 -47 16.5 -80t38.5 -33q25 0 40 33t15 80t-15 78.5t-40 31.5q-23 0 -39 -31.5t-16 -78.5z" />
<glyph unicode="&#xe5;" horiz-adv-x="704" d="M43 537q0 -236 78 -414q82 -180 201 -180q125 0 204 188v-154h111v1119h-111v-152q-82 188 -204 189q-119 0 -199 -181q-80 -172 -80 -415zM154 537q0 154 53 264q55 109 133 108q78 0 133 -108q53 -110 53 -264t-53 -265q-55 -109 -133 -108q-78 0 -133 108 q-53 111 -53 265zM231 1415q0 -92 31 -155.5t78 -63.5t79 63.5t32 155.5t-32 155.5t-79 63.5t-78 -63.5t-31 -155.5zM289 1415q0 43 14 74t37 31t38 -31t15 -74t-15.5 -73.5t-37.5 -30.5q-23 0 -37 30.5t-14 73.5z" />
<glyph unicode="&#xe6;" horiz-adv-x="1167" d="M43 537q0 -236 78 -414q86 -180 201 -180q127 0 204 186v-152h111v152q80 -186 201 -186q133 0 229 252l-92 120q-66 -152 -152 -151q-63 0 -114 82q-23 35 -38.5 80t-23.5 100h469q6 68 6 111q0 236 -78 413q-80 182 -198 183q-127 0 -209 -189v152h-111v-152 q-82 188 -204 189q-117 0 -199 -181q-80 -172 -80 -415zM154 537q0 154 53 264q55 109 133 108q78 0 133 -108q53 -110 53 -264t-53 -265q-55 -109 -133 -108q-78 0 -133 108q-53 111 -53 265zM647 649q8 53 23.5 98t38.5 82q51 80 114 80q68 0 117 -80q47 -72 61 -180h-354 z" />
<glyph unicode="&#xe7;" horiz-adv-x="636" d="M43 537q0 -221 74 -390q70 -160 172 -196l-15 -133h39q16 0 25.5 -20.5t9.5 -49.5t-9 -48t-26 -19h-69l-17 -97h86q35 0 58.5 48.5t23.5 115.5q0 53 -15 96t-40 62l6 37q143 6 232 235l-5 29l-81 108q-66 -152 -152 -151q-78 0 -133 108q-53 111 -53 265t53 264 q55 109 133 108q88 0 152 -149l92 121q-47 119 -109.5 185.5t-134.5 66.5q-121 0 -209 -176.5t-88 -419.5z" />
<glyph unicode="&#xe8;" horiz-adv-x="681" d="M43 537q0 -244 88 -418q88 -176 209 -176q72 0 134.5 66.5t109.5 185.5l-92 120q-61 -152 -152 -151q-63 0 -117 82q-45 74 -59 180h469q4 35 4 61v50q0 242 -86 419q-88 176 -211 177q-121 0 -209 -176.5t-88 -419.5zM164 649q14 104 59 180q55 80 117 80q63 0 117 -80 q47 -72 61 -180h-354zM201 1454l106 -258h78l-63 258h-121z" />
<glyph unicode="&#xe9;" horiz-adv-x="681" d="M43 537q0 -244 88 -418q88 -176 209 -176q72 0 134.5 66.5t109.5 185.5l-92 120q-61 -152 -152 -151q-63 0 -117 82q-45 74 -59 180h469q4 35 4 61v50q0 242 -86 419q-88 176 -211 177q-121 0 -209 -176.5t-88 -419.5zM164 649q14 104 59 180q55 80 117 80q63 0 117 -80 q47 -72 61 -180h-354zM295 1196h78l106 258h-119z" />
<glyph unicode="&#xea;" horiz-adv-x="681" d="M43 537q0 -244 88 -418q88 -176 209 -176q72 0 134.5 66.5t109.5 185.5l-92 120q-61 -152 -152 -151q-63 0 -117 82q-45 74 -59 180h469q4 35 4 61v50q0 242 -86 419q-88 176 -211 177q-121 0 -209 -176.5t-88 -419.5zM164 649q14 104 59 180q55 80 117 80q63 0 117 -80 q47 -72 61 -180h-354zM213 1196h80l47 117l49 -117h80l-86 258h-84z" />
<glyph unicode="&#xeb;" horiz-adv-x="681" d="M43 537q0 -244 88 -418q88 -176 209 -176q72 0 134.5 66.5t109.5 185.5l-92 120q-61 -152 -152 -151q-63 0 -117 82q-45 74 -59 180h469q4 35 4 61v50q0 242 -86 419q-88 176 -211 177q-121 0 -209 -176.5t-88 -419.5zM164 649q14 104 59 180q55 80 117 80q63 0 117 -80 q47 -72 61 -180h-354zM195 1309q0 -47 16 -80t39 -33q25 0 41 33t16 80t-16.5 78.5t-40.5 31.5q-23 0 -39 -31.5t-16 -78.5zM375 1309q0 -47 16.5 -80t38.5 -33q25 0 40 33t15 80t-15 78.5t-40 31.5q-23 0 -39 -31.5t-16 -78.5z" />
<glyph unicode="&#xec;" d="M-18 1454l108 -258h74l-64 258h-118zM66 -23h112v1119h-112v-1119z" />
<glyph unicode="&#xed;" d="M66 -23h112v1119h-112v-1119zM78 1196h76l108 258h-121z" />
<glyph unicode="&#xee;" d="M-8 1196h82l47 117l49 -117h80l-86 258h-86zM66 -23h112v1119h-112v-1119z" />
<glyph unicode="&#xef;" d="M-23 1309q0 -47 15.5 -80t40.5 -33q23 0 39 33t16 80t-16.5 78.5t-38.5 31.5q-25 0 -40.5 -31.5t-15.5 -78.5zM66 -23h112v1119h-112v-1119zM156 1309q0 -47 15 -80t40 -33q23 0 39 33t16 80t-16.5 78.5t-38.5 31.5q-25 0 -40 -31.5t-15 -78.5z" />
<glyph unicode="&#xf0;" horiz-adv-x="757" d="M43 537q0 -244 88 -418q88 -176 209 -176q123 0 211 176q86 174 86 418v624h90v187h-90v106h-111v-106h-90v-187h90v-217q-82 188 -204 189q-117 0 -199 -181q-80 -172 -80 -415zM154 537q0 154 53 264q55 109 133 108q78 0 133 -108q53 -110 53 -264t-53 -265 q-55 -109 -133 -108q-78 0 -133 108q-53 111 -53 265z" />
<glyph unicode="&#xf1;" horiz-adv-x="610" d="M66 -23h112v668q0 111 37 189q37 76 94 75q55 0 94 -75q39 -82 39 -189v-668h111v668q0 195 -61 336q-68 152 -164 152q-88 0 -150 -125v88h-112v-1119zM162 1270l69 -74q12 96 23 96q23 0 55 -45q45 -51 68 -51q53 0 80 174l-6 27l-62 65q-14 -96 -24 -96q-16 0 -56 43 q-41 51 -63 51q-59 0 -84 -190z" />
<glyph unicode="&#xf2;" horiz-adv-x="681" d="M43 537q0 -244 88 -418q88 -176 209 -176q123 0 211 176q86 174 86 418q0 242 -86 419q-88 176 -211 177q-121 0 -209 -176.5t-88 -419.5zM154 537q0 154 53 264q55 109 133 108q78 0 133 -108q53 -110 53 -264t-53 -265q-55 -109 -133 -108q-78 0 -133 108 q-53 111 -53 265zM201 1454l106 -258h78l-63 258h-121z" />
<glyph unicode="&#xf3;" horiz-adv-x="681" d="M43 537q0 -244 88 -418q88 -176 209 -176q123 0 211 176q86 174 86 418q0 242 -86 419q-88 176 -211 177q-121 0 -209 -176.5t-88 -419.5zM154 537q0 154 53 264q55 109 133 108q78 0 133 -108q53 -110 53 -264t-53 -265q-55 -109 -133 -108q-78 0 -133 108 q-53 111 -53 265zM295 1196h78l106 258h-119z" />
<glyph unicode="&#xf4;" horiz-adv-x="681" d="M43 537q0 -244 88 -418q88 -176 209 -176q123 0 211 176q86 174 86 418q0 242 -86 419q-88 176 -211 177q-121 0 -209 -176.5t-88 -419.5zM154 537q0 154 53 264q55 109 133 108q78 0 133 -108q53 -110 53 -264t-53 -265q-55 -109 -133 -108q-78 0 -133 108 q-53 111 -53 265zM213 1196h80l47 117l49 -117h80l-86 258h-84z" />
<glyph unicode="&#xf5;" horiz-adv-x="681" d="M43 537q0 -244 88 -418q88 -176 209 -176q123 0 211 176q86 174 86 418q0 242 -86 419q-88 176 -211 177q-121 0 -209 -176.5t-88 -419.5zM154 537q0 154 53 264q55 109 133 108q78 0 133 -108q53 -110 53 -264t-53 -265q-55 -109 -133 -108q-78 0 -133 108 q-53 111 -53 265zM193 1270l71 -74q12 96 23 96q20 0 53 -45q45 -51 68 -51q55 0 79 174l-6 27l-59 65q-14 -96 -25 -96q-23 0 -55 43q-41 51 -66 51q-57 0 -83 -190z" />
<glyph unicode="&#xf6;" horiz-adv-x="681" d="M43 537q0 -244 88 -418q88 -176 209 -176q123 0 211 176q86 174 86 418q0 242 -86 419q-88 176 -211 177q-121 0 -209 -176.5t-88 -419.5zM154 537q0 154 53 264q55 109 133 108q78 0 133 -108q53 -110 53 -264t-53 -265q-55 -109 -133 -108q-78 0 -133 108 q-53 111 -53 265zM195 1309q0 -47 16 -80t39 -33q25 0 41 33t16 80t-16.5 78.5t-40.5 31.5q-23 0 -39 -31.5t-16 -78.5zM375 1309q0 -47 16.5 -80t38.5 -33q25 0 40 33t15 80t-15 78.5t-40 31.5q-23 0 -39 -31.5t-16 -78.5z" />
<glyph unicode="&#xf7;" horiz-adv-x="512" d="M66 444h380v187h-380v-187zM182 125q0 -61 21.5 -104.5t52.5 -43.5t52.5 43.5t21.5 104.5t-21.5 104t-52.5 43t-52.5 -43t-21.5 -104zM182 950q0 -63 21.5 -105t52.5 -42t52.5 42t21.5 105q0 61 -21.5 103.5t-52.5 42.5t-52.5 -42t-21.5 -104z" />
<glyph unicode="&#xf8;" horiz-adv-x="681" d="M16 55l43 -84l76 135q84 -164 205 -163q123 0 211 176q86 174 86 418q0 96 -12.5 181t-40.5 163l82 139l-43 84l-78 -135q-84 164 -205 164t-209 -176.5t-88 -419.5q0 -186 53 -342zM154 537q0 154 53 264q55 109 133 108q68 0 121 -86l-279 -481q-14 47 -21 94.5 t-7 100.5zM221 252l277 481q16 -47 22 -95t6 -101q0 -154 -53 -265q-55 -109 -133 -108q-68 0 -119 88z" />
<glyph unicode="&#xf9;" horiz-adv-x="610" d="M57 430q0 -197 64 -338q63 -150 162 -149q86 0 151 123v-89h111v1119h-111v-666q0 -111 -41 -188q-39 -78 -92 -78q-55 0 -94 78q-39 76 -39 188v666h-111v-666zM162 1454l106 -258h76l-65 258h-117z" />
<glyph unicode="&#xfa;" horiz-adv-x="610" d="M57 430q0 -197 64 -338q63 -150 162 -149q86 0 151 123v-89h111v1119h-111v-666q0 -111 -41 -188q-39 -78 -92 -78q-55 0 -94 78q-39 76 -39 188v666h-111v-666zM256 1196h78l106 258h-118z" />
<glyph unicode="&#xfb;" horiz-adv-x="610" d="M57 430q0 -197 64 -338q63 -150 162 -149q86 0 151 123v-89h111v1119h-111v-666q0 -111 -41 -188q-39 -78 -92 -78q-55 0 -94 78q-39 76 -39 188v666h-111v-666zM172 1196h80l49 117l49 -117h78l-86 258h-84z" />
<glyph unicode="&#xfc;" horiz-adv-x="610" d="M57 430q0 -197 64 -338q63 -150 162 -149q86 0 151 123v-89h111v1119h-111v-666q0 -111 -41 -188q-39 -78 -92 -78q-55 0 -94 78q-39 76 -39 188v666h-111v-666zM156 1309q0 -47 15 -80t40 -33q23 0 39 33t16 80t-16.5 78.5t-38.5 31.5q-25 0 -40 -31.5t-15 -78.5z M336 1309q0 -47 15.5 -80t39.5 -33q23 0 39 33t16 80t-16 78.5t-39 31.5q-25 0 -40 -31.5t-15 -78.5z" />
<glyph unicode="&#xfd;" horiz-adv-x="593" d="M16 1096l220 -1096l-29 -158q-10 -37 -33 -37q-14 0 -55 29v-225q33 -25 55 -25q98 0 135 183v-3l271 1332h-121l-162 -801l-162 801h-119zM252 1196h78l106 258h-119z" />
<glyph unicode="&#xfe;" horiz-adv-x="704" d="M66 -381h112v512q80 -188 203 -188q121 0 201 180q80 174 80 414q0 121 -20.5 225t-61.5 190q-78 180 -199 181q-121 0 -203 -189v510h-112v-1835zM178 537q0 160 53 264q53 109 134 108q76 0 129 -108q57 -110 57 -264t-57 -265q-53 -109 -129 -108q-80 0 -134 108 q-29 53 -41 120t-12 145z" />
<glyph unicode="&#xff;" horiz-adv-x="593" d="M16 1096l220 -1096l-29 -158q-10 -37 -33 -37q-14 0 -55 29v-225q33 -25 55 -25q98 0 135 183v-3l271 1332h-121l-162 -801l-162 801h-119zM152 1309q0 -47 16 -80t39 -33q25 0 41 33t16 80t-16.5 78.5t-40.5 31.5q-23 0 -39 -31.5t-16 -78.5zM332 1309q0 -47 16.5 -80 t38.5 -33q25 0 40 33t15 80t-15 78.5t-40 31.5q-23 0 -39 -31.5t-16 -78.5z" />
<glyph unicode="&#x152;" horiz-adv-x="1206" d="M43 717q0 -324 115 -547q113 -227 272 -227q166 0 277 229v-195h432v224h-322v405h234v221h-234v406h322v221h-432v-194q-111 231 -277 231q-160 0 -272 -227q-115 -227 -115 -547zM154 717q0 229 82 391q80 160 194 160q115 0 195 -160q82 -162 82 -391t-82 -391 t-195 -162q-115 0 -194 162q-82 162 -82 391z" />
<glyph unicode="&#x153;" horiz-adv-x="1167" d="M43 537q0 -244 88 -418q88 -176 209 -176q72 0 136.5 66.5t105.5 183.5q41 -117 105.5 -183.5t135.5 -66.5q72 0 135.5 66.5t108.5 185.5l-92 120q-66 -152 -152 -151q-63 0 -114 82q-23 35 -38.5 80t-23.5 100h469q6 68 6 111q0 244 -88 420t-211 176q-72 0 -136 -67 t-105 -185q-41 119 -105.5 185.5t-136.5 66.5q-121 0 -209 -176.5t-88 -419.5zM154 537q0 154 53 264q55 109 133 108q78 0 133 -108q53 -110 53 -264t-53 -265q-55 -109 -133 -108q-78 0 -133 108q-53 111 -53 265zM647 649q8 53 23.5 98t38.5 82q51 80 114 80 q68 0 117 -80q47 -72 61 -180h-354z" />
<glyph unicode="&#x178;" horiz-adv-x="679" d="M10 1454l275 -774v-703h110v703l273 774h-136l-192 -543l-190 543h-140zM195 1667q0 -47 16 -80t39 -33t40 33t17 80t-17.5 79t-39.5 32q-23 0 -39 -32t-16 -79zM375 1667q0 -47 15.5 -80t39.5 -33q23 0 39 33t16 80t-16 79t-39 32q-25 0 -40 -32t-15 -79z" />
<glyph unicode="&#x2c6;" horiz-adv-x="368" d="M55 1196h80l49 117l49 -117h78l-86 258h-84z" />
<glyph unicode="&#x2dc;" horiz-adv-x="423" d="M63 1266l72 -76q12 96 23 96q20 0 53 -45q45 -49 68 -49q55 0 79 174l-6 25l-59 65q-16 -96 -25 -96q-23 0 -55 43q-39 51 -66 51q-57 0 -84 -188z" />
<glyph unicode="&#x2000;" horiz-adv-x="910" />
<glyph unicode="&#x2001;" horiz-adv-x="1821" />
<glyph unicode="&#x2002;" horiz-adv-x="910" />
<glyph unicode="&#x2003;" horiz-adv-x="1821" />
<glyph unicode="&#x2004;" horiz-adv-x="607" />
<glyph unicode="&#x2005;" horiz-adv-x="455" />
<glyph unicode="&#x2006;" horiz-adv-x="303" />
<glyph unicode="&#x2007;" horiz-adv-x="303" />
<glyph unicode="&#x2008;" horiz-adv-x="227" />
<glyph unicode="&#x2009;" horiz-adv-x="364" />
<glyph unicode="&#x200a;" horiz-adv-x="101" />
<glyph unicode="&#x2010;" horiz-adv-x="512" d="M66 444h380v187h-380v-187z" />
<glyph unicode="&#x2011;" horiz-adv-x="512" d="M66 444h380v187h-380v-187z" />
<glyph unicode="&#x2012;" horiz-adv-x="512" d="M66 444h380v187h-380v-187z" />
<glyph unicode="&#x2013;" horiz-adv-x="421" d="M66 444h290v187h-290v-187z" />
<glyph unicode="&#x2014;" horiz-adv-x="602" d="M66 444h471v187h-471v-187z" />
<glyph unicode="&#x2018;" horiz-adv-x="278" d="M66 909h147v295h-90q4 57 18.5 96t36.5 39v115q-55 0 -86 -82q-12 -39 -19 -86t-7 -104v-273z" />
<glyph unicode="&#x2019;" horiz-adv-x="278" d="M66 1161h88q-4 -59 -17.5 -98t-34.5 -39v-115q51 0 82 84q16 39 22.5 86.5t6.5 102.5v272h-147v-293z" />
<glyph unicode="&#x201a;" horiz-adv-x="278" d="M66 -23h88q-4 -55 -17.5 -95t-34.5 -40v-114q51 0 82 82q16 41 22.5 87t6.5 103v272h-147v-295z" />
<glyph unicode="&#x201c;" horiz-adv-x="477" d="M66 909h147v295h-90q4 57 18.5 96t36.5 39v115q-55 0 -86 -82q-12 -39 -19 -86t-7 -104v-273zM264 909h146v295h-88q2 57 17 96t36 39v115q-55 0 -84 -82q-27 -74 -27 -190v-273z" />
<glyph unicode="&#x201d;" horiz-adv-x="477" d="M66 1161h88q-4 -59 -17.5 -98t-34.5 -39v-115q51 0 82 84q16 39 22.5 86.5t6.5 102.5v272h-147v-293zM264 1161h86q-2 -59 -16.5 -98t-34.5 -39v-115q53 0 82 84q16 39 22.5 86.5t6.5 102.5v272h-146v-293z" />
<glyph unicode="&#x201e;" horiz-adv-x="477" d="M66 -23h88q-4 -55 -17.5 -95t-34.5 -40v-114q51 0 82 82q16 41 22.5 87t6.5 103v272h-147v-295zM264 -23h86q-2 -55 -16.5 -95t-34.5 -40v-114q53 0 82 82q16 41 22.5 87t6.5 103v272h-146v-295z" />
<glyph unicode="&#x2022;" horiz-adv-x="477" d="M66 537q0 -139 51 -242q49 -102 121 -102q70 0 120 100q52 103 52 244t-52 243q-51 100 -120 101q-72 0 -121 -101q-51 -102 -51 -243z" />
<glyph unicode="&#x2026;" horiz-adv-x="745" d="M66 125q0 -61 21.5 -104.5t51.5 -43.5q31 0 52.5 43.5t21.5 104.5t-21.5 104t-52.5 43t-52 -43t-21 -104zM299 125q0 -61 21.5 -104.5t52.5 -43.5t52 43.5t21 104.5t-21.5 104t-51.5 43q-31 0 -52.5 -43t-21.5 -104zM532 125q0 -61 21.5 -104.5t52.5 -43.5t52.5 43.5 t21.5 104.5t-21.5 104t-52.5 43t-52.5 -43t-21.5 -104z" />
<glyph unicode="&#x202f;" horiz-adv-x="364" />
<glyph unicode="&#x2039;" horiz-adv-x="403" d="M66 537l225 -301l51 157l-170 230l170 229l-51 156l-225 -301v-170z" />
<glyph unicode="&#x203a;" horiz-adv-x="403" d="M61 393l52 -157l223 301v170l-223 301l-52 -156l170 -229z" />
<glyph unicode="&#x205f;" horiz-adv-x="455" />
<glyph unicode="&#x20ac;" horiz-adv-x="837" d="M61 463h111q20 -117 55 -209t82 -164q104 -147 228 -147q106 0 200 114v277q-96 -170 -200 -170q-82 0 -148 90q-61 80 -96 209h321l35 186h-385q-2 16 -2 33v35v33q0 18 2 34h410l35 187h-416q33 123 96 209q68 88 148 88q104 0 196 -158l39 223q-106 158 -235 158 q-121 0 -228 -150q-98 -145 -137 -370h-76l-35 -187h91q-2 -16 -2 -34v-33v-35q0 -16 2 -33h-56z" />
<glyph unicode="&#x2122;" horiz-adv-x="806" d="M66 1286h116v-627h84v627h78v-627h84v420l76 -420h76l75 418v-418h84v795h-104l-94 -512l-92 512h-383v-168z" />
<glyph unicode="&#xe000;" horiz-adv-x="1095" d="M0 0v1096h1096v-1096h-1096z" />
</font>
</defs>
</svg>
